<?xml version="1.0" encoding="utf-8"?>
<!-- Generator: Adobe Illustrator 16.0.0, SVG Export Plug-In . SVG Version: 6.00 Build 0)  -->
<!DOCTYPE svg PUBLIC "-//W3C//DTD SVG 1.1//EN" "http://www.w3.org/Graphics/SVG/1.1/DTD/svg11.dtd">
<svg version="1.1" id="Layer_1" xmlns="http://www.w3.org/2000/svg" xmlns:xlink="http://www.w3.org/1999/xlink" x="0px" y="0px"
	 width="30px" height="30px" viewBox="0 0 30 30" enable-background="new 0 0 30 30" xml:space="preserve">
<g>
	<rect fill="#FFFFFF" width="30" height="30"/>
	<g>
		<path d="M7.99,16.864v-2.353l-0.043-2.428c-0.014-0.279-0.064-0.469-0.15-0.569c-0.086-0.1-0.301-0.179-0.645-0.236l-1.01-0.161
			v-0.505h5.855v0.505l-0.924,0.161c-0.359,0.058-0.596,0.147-0.709,0.269c-0.115,0.122-0.184,0.34-0.205,0.655
			c-0.021,0.315-0.031,1.085-0.031,2.31v2.353l0.043,2.729c0.014,0.279,0.064,0.47,0.15,0.569c0.086,0.101,0.297,0.183,0.633,0.247
			l1.021,0.15v0.505H6.121V20.56l0.924-0.15c0.352-0.05,0.584-0.14,0.699-0.269c0.113-0.129,0.182-0.305,0.203-0.526
			C7.977,18.819,7.99,17.902,7.99,16.864z"/>
		<path d="M18.809,11.031c-0.924,0-1.855,0.485-2.793,1.454l-0.484-0.463C16.635,10.674,18.027,10,19.711,10
			c1.096,0,1.957,0.235,2.584,0.705c0.625,0.47,0.939,1.117,0.939,1.942c0,2.089-2.156,4.272-6.467,6.548h4.727
			c0.572,0,0.992-0.111,1.256-0.333c0.266-0.222,0.467-0.705,0.602-1.45h0.42l0.107,3.652h-9.84l-0.076-0.333
			c0.064-0.043,0.305-0.222,0.721-0.537c0.414-0.315,0.723-0.544,0.924-0.688c0.199-0.144,0.521-0.397,0.967-0.765
			c0.443-0.365,0.992-0.854,1.643-1.465c0.645-0.617,1.082-1.08,1.311-1.389c0.631-0.847,1.014-1.486,1.15-1.917
			c0.129-0.431,0.197-0.808,0.203-1.131c0.008-0.589-0.182-1.038-0.568-1.347C19.926,11.186,19.424,11.031,18.809,11.031z"/>
	</g>
</g>
</svg>
