<?xml version="1.0" encoding="utf-8"?>
<!-- Generator: Adobe Illustrator 16.0.0, SVG Export Plug-In . SVG Version: 6.00 Build 0)  -->
<!DOCTYPE svg PUBLIC "-//W3C//DTD SVG 1.1//EN" "http://www.w3.org/Graphics/SVG/1.1/DTD/svg11.dtd">
<svg version="1.1" id="Layer_1" xmlns="http://www.w3.org/2000/svg" xmlns:xlink="http://www.w3.org/1999/xlink" x="0px" y="0px"
	 width="54px" height="21px" viewBox="0 0 54 21" enable-background="new 0 0 54 21" xml:space="preserve">
<g>
	<g>
		<polygon points="7,14 7,6 6,6 4.24,6 2.988,7.531 3.678,8.221 4.637,7 6,7 6,14 3,14 3,15 10,15 10,14 		"/>
	</g>
	<g>
		<polygon opacity="0.1" points="10.5,13 8,13 8,5 4,5 1.604,7.396 3.549,9.342 5,8 5,8 5,13 3.5,13 3,13 2,13 2,13.5 2,14.5 2,16 
			3.5,16 10.5,16 11,16 11,15 11,14.5 11,13.5 11,13 		"/>
	</g>
</g>
<g>
	<polygon opacity="0.1" points="51.737,7.024 50.178,5.324 49.88,5 49.44,5 45.701,5 45.287,5 44.994,5.293 43.293,6.992 
		42.595,7.691 43.284,8.398 43.931,9.062 44.621,9.77 45.337,9.086 46.475,8 48.635,8 49,8.387 49,9.605 48.632,10 46,10 45,10 
		45,11 45,12 45,13 46,13 48.632,13 49,13.395 49,15.541 48.606,16 46.492,16 45.357,14.852 44.65,14.135 43.939,14.847 
		43.293,15.493 42.605,16.181 43.273,16.887 44.975,18.687 45.271,19 45.486,19 45.701,19 49.44,19 49.669,19 49.897,19 
		50.196,18.655 51.756,16.855 52,16.573 52,16.2 52,12.5 52,12.124 51.753,11.842 51.454,11.5 51.753,11.158 52,10.876 52,10.5 
		52,7.7 52,7.311 	"/>
	<g>
		<path d="M44,7.7L45.701,6h3.739L51,7.7v2.8l-0.875,1l0.875,1v3.7L49.44,18h-3.739L44,16.2l0.646-0.646L46.074,17h2.992L50,15.911
			V13l-0.934-1H46v-1h3.066L50,10V7.989L49.066,7h-2.992l-1.428,1.363L44,7.7z"/>
	</g>
</g>
<g>
	<g>
		<path d="M32.94,3H36v1h-2.686L32,5.25V6h3v1h-3v8h-1V7h-2V6h2V4.7L32.94,3z"/>
	</g>
	<polygon opacity="0.1" points="36,2 32.94,2 32.564,2 32.281,2.248 30.341,3.948 30,4.247 30,4.7 30,5 29,5 28,5 28,6 28,7 28,8 
		29,8 30,8 30,15 30,16 31,16 32,16 33,16 33,15 33,8 35,8 36,8 36,7 36,6 36,5 37,5 37,4 37,3 37,2 	"/>
</g>
<g>
	<path opacity="0.1" d="M25,6.789V6.773L23.199,5h-3.398L18,6.773v0.016l-1,0.984v5.1L19.801,16h3.398L26,12.873v-5.1L25,6.789z
		 M20,12.584V8.158L20.175,8h2.65L23,8.158v4.426L22.655,13h-2.311L20,12.584z"/>
	<path d="M23.199,6h-3.398L18,7.773v5.1L19.801,15h3.398L25,12.873v-5.1L23.199,6z M24,12.584L22.825,14h-2.65L19,12.584V8l1.175-1
		h2.65L24,8V12.584z"/>
</g>
</svg>
