<?xml version="1.0" encoding="utf-8"?>
<!-- Generator: Adobe Illustrator 16.0.0, SVG Export Plug-In . SVG Version: 6.00 Build 0)  -->
<!DOCTYPE svg PUBLIC "-//W3C//DTD SVG 1.1//EN" "http://www.w3.org/Graphics/SVG/1.1/DTD/svg11.dtd">
<svg version="1.1" id="Layer_1" xmlns="http://www.w3.org/2000/svg" xmlns:xlink="http://www.w3.org/1999/xlink" x="0px" y="0px"
	 width="54px" height="21px" viewBox="0 0 54 21" enable-background="new 0 0 54 21" xml:space="preserve">
<g>
	<g>
		<path d="M32.94,3H36v1h-2.686L32,5.25V6h3v1h-3v8h-1V7h-2V6h2V4.7L32.94,3z"/>
	</g>
	<polygon opacity="0.1" points="36,2 32.94,2 32.564,2 32.281,2.248 30.341,3.948 30,4.247 30,4.7 30,5 29,5 28,5 28,6 28,7 28,8 
		29,8 30,8 30,15 30,16 31,16 32,16 33,16 33,15 33,8 35,8 36,8 36,7 36,6 36,5 37,5 37,4 37,3 37,2 	"/>
</g>
<g>
	<path opacity="0.1" d="M25,6.789V6.773L23.199,5h-3.398L18,6.773v0.016l-1,0.984v5.1L19.801,16h3.398L26,12.873v-5.1L25,6.789z
		 M20,12.584V8.158L20.175,8h2.65L23,8.158v4.426L22.655,13h-2.311L20,12.584z"/>
	<path d="M23.199,6h-3.398L18,7.773v5.1L19.801,15h3.398L25,12.873v-5.1L23.199,6z M24,12.584L22.825,14h-2.65L19,12.584V8l1.175-1
		h2.65L24,8V12.584z"/>
</g>
<g>
	<polygon opacity="0.1" points="51.747,7.536 49.792,5.336 49.494,5 49.045,5 45.561,5 45.069,5 44.77,5.389 43.068,7.589 
		42.538,8.275 43.145,8.898 43.789,9.561 44.596,10.389 45.299,9.471 46.428,8 48.223,8 48.944,8.808 43.426,12.682 43,12.98 
		43,13.5 43,15 43,16 44,16 51,16 52,16 52,15 52,14 52,12.988 50.988,13 48.23,13.032 51.583,10.627 52,10.328 52,9.814 52,8.2 
		52,7.82 	"/>
	<g>
		<path d="M44,15v-1.5l6-4.212v-0.8L48.671,7h-2.737l-1.428,1.863L43.86,8.2l1.7-2.2h3.484L51,8.2v1.614l-5.593,4.013v0.238L51,14v1
			H44z"/>
	</g>
</g>
<g>
	<polygon opacity="0.1" points="10.747,7.536 8.792,5.336 8.494,5 8.045,5 4.561,5 4.069,5 3.77,5.389 2.068,7.589 1.538,8.275 
		2.145,8.898 2.789,9.561 3.596,10.389 4.299,9.471 5.428,8 7.223,8 7.944,8.808 2.426,12.682 2,12.98 2,13.5 2,15 2,16 3,16 10,16 
		11,16 11,15 11,14 11,12.988 9.988,13 7.23,13.032 10.583,10.627 11,10.328 11,9.814 11,8.2 11,7.82 	"/>
	<g>
		<path d="M3,15v-1.5l6-4.212v-0.8L7.671,7H4.934L3.506,8.863L2.86,8.2l1.7-2.2h3.484L10,8.2v1.614l-5.593,4.013v0.238L10,14v1H3z"
			/>
	</g>
</g>
</svg>
