<?xml version="1.0" encoding="utf-8"?>
<!-- Generator: Adobe Illustrator 16.0.0, SVG Export Plug-In . SVG Version: 6.00 Build 0)  -->
<!DOCTYPE svg PUBLIC "-//W3C//DTD SVG 1.1//EN" "http://www.w3.org/Graphics/SVG/1.1/DTD/svg11.dtd">
<svg version="1.1" id="Layer_1" xmlns="http://www.w3.org/2000/svg" xmlns:xlink="http://www.w3.org/1999/xlink" x="0px" y="0px"
	 width="30px" height="30px" viewBox="0 0 30 30" enable-background="new 0 0 30 30" xml:space="preserve">
<g>
	<rect fill="#FFFFFF" width="30" height="30"/>
	<g>
		<path d="M8.484,10.34c1.094,0,1.93,0.254,2.512,0.763c0.582,0.508,0.873,1.18,0.873,2.013c0,1.573-1.4,3.037-4.201,4.395
			c1.439,0.129,2.561,0.524,3.363,1.185c0.801,0.66,1.199,1.479,1.191,2.455c0,0.977-0.275,1.867-0.828,2.671
			c-1.008,1.458-2.662,2.603-4.961,3.435c-1.01,0.367-2.02,0.615-3.029,0.744l-0.107-0.592c1.891-0.473,3.459-1.209,4.705-2.207
			s1.869-2.137,1.869-3.414c0-1.953-1.24-3.117-3.717-3.49L6.09,17.834c1.01-0.488,1.861-1.121,2.557-1.896
			c0.693-0.775,1.041-1.612,1.041-2.51c0-0.653-0.186-1.16-0.559-1.519c-0.371-0.359-0.881-0.539-1.525-0.539
			c-1.023,0.007-1.836,0.524-2.438,1.551l-0.645-0.377C5.373,11.075,6.695,10.34,8.484,10.34z"/>
		<path d="M26.703,15.947c0,1.605-0.574,2.969-1.727,4.088c-1.15,1.121-2.582,1.681-4.293,1.681c-1.73,0-3.107-0.624-4.133-1.874
			c-1.023-1.249-1.535-2.862-1.535-4.84c0-1.425,0.316-2.789,0.947-4.093c1.111-2.299,3.057-4.247,5.84-5.844
			c1.189-0.68,2.408-1.21,3.656-1.59l0.273,0.634c-2.352,0.996-4.164,2.209-5.432,3.642c-1.27,1.433-2.121,3.144-2.557,5.135
			c0.307-0.657,0.779-1.246,1.416-1.766s1.49-0.78,2.562-0.78s2.137,0.417,3.189,1.251c0.529,0.417,0.961,1.003,1.293,1.758
			S26.703,14.97,26.703,15.947z M20.951,11.264c-1.045,0-1.902,0.483-2.574,1.45s-1.008,2.124-1.008,3.47
			c0,1.347,0.299,2.475,0.9,3.384c0.602,0.917,1.424,1.375,2.467,1.375c1.045,0,1.91-0.458,2.596-1.375
			c0.68-0.909,1.02-2.073,1.02-3.491s-0.309-2.574-0.924-3.47C22.82,11.711,21.994,11.264,20.951,11.264z"/>
	</g>
</g>
</svg>
