<?xml version="1.0" encoding="utf-8"?>
<!-- Generator: Adobe Illustrator 16.0.0, SVG Export Plug-In . SVG Version: 6.00 Build 0)  -->
<!DOCTYPE svg PUBLIC "-//W3C//DTD SVG 1.1//EN" "http://www.w3.org/Graphics/SVG/1.1/DTD/svg11.dtd">
<svg version="1.1" id="Layer_1" xmlns="http://www.w3.org/2000/svg" xmlns:xlink="http://www.w3.org/1999/xlink" x="0px" y="0px"
	 width="30px" height="30px" viewBox="0 0 30 30" enable-background="new 0 0 30 30" xml:space="preserve">
<g>
	<rect fill="#FFFFFF" width="30" height="30"/>
	<g>
		<path d="M9.146,11.693c0-1.612,0.577-2.975,1.73-4.088c1.16-1.113,2.595-1.669,4.302-1.669s3.08,0.61,4.118,1.831
			c1.039,1.22,1.559,2.759,1.559,4.614c0,1.492-0.316,2.934-0.948,4.326c-0.633,1.392-1.466,2.597-2.5,3.615
			c-2.17,2.137-4.505,3.576-7.006,4.314l-0.264-0.623c4.375-1.852,7.042-4.938,7.999-9.259c-0.308,0.665-0.785,1.257-1.431,1.776
			c-0.646,0.521-1.524,0.78-2.636,0.78c-1.108,0-2.178-0.428-3.208-1.283c-0.519-0.431-0.935-1.021-1.247-1.769
			S9.146,12.657,9.146,11.693z M12.521,8.084c-0.682,0.917-1.022,2.081-1.022,3.491c0,1.411,0.309,2.567,0.925,3.47
			c0.617,0.902,1.449,1.35,2.496,1.343c1.048,0,1.904-0.483,2.571-1.45c0.675-0.959,1.012-2.112,1.012-3.459
			c0-1.346-0.302-2.478-0.903-3.395c-0.61-0.917-1.438-1.375-2.485-1.375C14.065,6.709,13.201,7.167,12.521,8.084z"/>
	</g>
</g>
</svg>
