<?xml version="1.0" encoding="utf-8"?>
<!-- Generator: Adobe Illustrator 16.0.0, SVG Export Plug-In . SVG Version: 6.00 Build 0)  -->
<!DOCTYPE svg PUBLIC "-//W3C//DTD SVG 1.1//EN" "http://www.w3.org/Graphics/SVG/1.1/DTD/svg11.dtd">
<svg version="1.1" id="Layer_2_1_" xmlns="http://www.w3.org/2000/svg" xmlns:xlink="http://www.w3.org/1999/xlink" x="0px" y="0px"
	 width="30px" height="1050px" viewBox="5.5 -424.5 30 1050" enable-background="new 5.5 -424.5 30 1050" xml:space="preserve">
<g>
	<rect x="5.5" y="-424.5" width="30" height="30"/>
	<path fill="#FFFFFF" d="M21.238-405.537c-2.16,0-3.654-1.801-3.654-3.961v-0.037c0-2.16,1.531-3.924,3.654-3.924
		c1.26,0,2.25,0.539,3.223,1.422l1.766-2.035c-1.17-1.15-2.594-1.945-4.971-1.945c-3.871,0-6.572,2.936-6.572,6.52v0.035
		c0,3.619,2.755,6.48,6.464,6.48c2.432,0,3.871-0.863,5.168-2.25l-1.766-1.783C23.562-406.113,22.68-405.537,21.238-405.537z"/>
</g>
<g>
	<rect x="5.5" y="-394.5" fill="#FF0000" width="30" height="30"/>
	<path fill="#FFFFFF" d="M21.238-375.537c-2.16,0-3.654-1.801-3.654-3.961v-0.037c0-2.16,1.531-3.924,3.654-3.924
		c1.26,0,2.25,0.539,3.223,1.422l1.766-2.035c-1.17-1.15-2.594-1.945-4.971-1.945c-3.871,0-6.572,2.936-6.572,6.52v0.035
		c0,3.619,2.755,6.48,6.464,6.48c2.432,0,3.871-0.863,5.168-2.25l-1.766-1.783C23.562-376.113,22.68-375.537,21.238-375.537z"/>
</g>
<g>
	<rect x="5.5" y="-364.5" fill="#FF7700" width="30" height="30"/>
	<path fill="#FFFFFF" d="M21.238-345.537c-2.16,0-3.654-1.801-3.654-3.961v-0.037c0-2.16,1.531-3.924,3.654-3.924
		c1.26,0,2.25,0.539,3.223,1.422l1.766-2.035c-1.17-1.15-2.594-1.945-4.971-1.945c-3.871,0-6.572,2.936-6.572,6.52v0.035
		c0,3.619,2.755,6.48,6.464,6.48c2.432,0,3.871-0.863,5.168-2.25l-1.766-1.783C23.562-346.113,22.68-345.537,21.238-345.537z"/>
</g>
<g>
	<rect x="5.5" y="-334.5" fill="#FFFF00" width="30" height="30"/>
	<path d="M21.238-315.537c-2.16,0-3.654-1.801-3.654-3.961v-0.037c0-2.16,1.531-3.924,3.654-3.924c1.26,0,2.25,0.539,3.223,1.422
		l1.766-2.035c-1.17-1.15-2.594-1.945-4.971-1.945c-3.871,0-6.572,2.936-6.572,6.52v0.035c0,3.619,2.755,6.48,6.464,6.48
		c2.432,0,3.871-0.863,5.168-2.25l-1.766-1.783C23.562-316.113,22.68-315.537,21.238-315.537z"/>
</g>
<g>
	<rect x="5.5" y="-304.5" fill="#00FF00" width="30" height="30"/>
	<path d="M21.238-285.537c-2.16,0-3.654-1.801-3.654-3.961v-0.037c0-2.16,1.531-3.924,3.654-3.924c1.26,0,2.25,0.539,3.223,1.422
		l1.766-2.035c-1.17-1.15-2.594-1.945-4.971-1.945c-3.871,0-6.572,2.936-6.572,6.52v0.035c0,3.619,2.755,6.48,6.464,6.48
		c2.432,0,3.871-0.863,5.168-2.25l-1.766-1.783C23.562-286.113,22.68-285.537,21.238-285.537z"/>
</g>
<g>
	<rect x="5.5" y="-274.5" fill="#0000FF" width="30" height="30"/>
	<path fill="#FFFFFF" d="M21.238-255.537c-2.16,0-3.654-1.801-3.654-3.961v-0.037c0-2.16,1.531-3.924,3.654-3.924
		c1.26,0,2.25,0.539,3.223,1.422l1.766-2.035c-1.17-1.15-2.594-1.945-4.971-1.945c-3.871,0-6.572,2.936-6.572,6.52v0.035
		c0,3.619,2.755,6.48,6.464,6.48c2.432,0,3.871-0.863,5.168-2.25l-1.766-1.783C23.562-256.113,22.68-255.537,21.238-255.537z"/>
</g>
<g>
	<rect x="5.5" y="-244.5" fill="#FF00FF" width="30" height="30"/>
	<path fill="#FFFFFF" d="M21.238-225.537c-2.16,0-3.654-1.801-3.654-3.961v-0.037c0-2.16,1.531-3.924,3.654-3.924
		c1.26,0,2.25,0.539,3.223,1.422l1.766-2.035c-1.17-1.15-2.594-1.945-4.971-1.945c-3.871,0-6.572,2.936-6.572,6.52v0.035
		c0,3.619,2.755,6.48,6.464,6.48c2.432,0,3.871-0.863,5.168-2.25l-1.766-1.783C23.562-226.113,22.68-225.537,21.238-225.537z"/>
</g>
<g>
	<rect x="5.5" y="-214.5" fill="#404040" width="30" height="30"/>
	<path fill="#FFFFFF" d="M21.238-195.537c-2.16,0-3.654-1.801-3.654-3.961v-0.037c0-2.16,1.531-3.924,3.654-3.924
		c1.26,0,2.25,0.539,3.223,1.422l1.766-2.035c-1.17-1.15-2.594-1.945-4.971-1.945c-3.871,0-6.572,2.936-6.572,6.52v0.035
		c0,3.619,2.755,6.48,6.464,6.48c2.432,0,3.871-0.863,5.168-2.25l-1.766-1.783C23.562-196.113,22.68-195.537,21.238-195.537z"/>
</g>
<g>
	<rect x="5.5" y="-184.5" fill="#FF3333" width="30" height="30"/>
	<path fill="#FFFFFF" d="M21.238-165.537c-2.16,0-3.654-1.801-3.654-3.961v-0.037c0-2.16,1.531-3.924,3.654-3.924
		c1.26,0,2.25,0.539,3.223,1.422l1.766-2.035c-1.17-1.15-2.594-1.945-4.971-1.945c-3.871,0-6.572,2.936-6.572,6.52v0.035
		c0,3.619,2.755,6.48,6.464,6.48c2.432,0,3.871-0.863,5.168-2.25l-1.766-1.783C23.562-166.113,22.68-165.537,21.238-165.537z"/>
</g>
<g>
	<rect x="5.5" y="-154.5" fill="#FF9233" width="30" height="30"/>
	<path d="M21.238-135.537c-2.16,0-3.654-1.801-3.654-3.961v-0.037c0-2.16,1.531-3.924,3.654-3.924c1.26,0,2.25,0.539,3.223,1.422
		l1.766-2.035c-1.17-1.15-2.594-1.945-4.971-1.945c-3.871,0-6.572,2.936-6.572,6.52v0.035c0,3.619,2.755,6.48,6.464,6.48
		c2.432,0,3.871-0.863,5.168-2.25l-1.766-1.783C23.562-136.113,22.68-135.537,21.238-135.537z"/>
</g>
<g>
	<rect x="5.5" y="-124.5" fill="#FFFF33" width="30" height="30"/>
	<path d="M21.238-105.537c-2.16,0-3.654-1.801-3.654-3.961v-0.037c0-2.16,1.531-3.924,3.654-3.924c1.26,0,2.25,0.539,3.223,1.422
		l1.766-2.035c-1.17-1.15-2.594-1.945-4.971-1.945c-3.871,0-6.572,2.936-6.572,6.52v0.035c0,3.619,2.755,6.48,6.464,6.48
		c2.432,0,3.871-0.863,5.168-2.25l-1.766-1.783C23.562-106.113,22.68-105.537,21.238-105.537z"/>
</g>
<g>
	<rect x="5.5" y="-94.5" fill="#33FF33" width="30" height="30"/>
	<path d="M21.238-75.537c-2.16,0-3.654-1.801-3.654-3.961v-0.037c0-2.16,1.531-3.924,3.654-3.924c1.26,0,2.25,0.539,3.223,1.422
		l1.766-2.035c-1.17-1.15-2.594-1.945-4.971-1.945c-3.871,0-6.572,2.936-6.572,6.52v0.035c0,3.619,2.755,6.48,6.464,6.48
		c2.432,0,3.871-0.863,5.168-2.25l-1.766-1.783C23.562-76.113,22.68-75.537,21.238-75.537z"/>
</g>
<g>
	<rect x="5.5" y="-64.5" fill="#3333FF" width="30" height="30"/>
	<path fill="#FFFFFF" d="M21.238-45.537c-2.16,0-3.654-1.801-3.654-3.961v-0.037c0-2.16,1.531-3.924,3.654-3.924
		c1.26,0,2.25,0.539,3.223,1.422l1.766-2.035c-1.17-1.15-2.594-1.945-4.971-1.945c-3.871,0-6.572,2.936-6.572,6.52v0.035
		c0,3.619,2.755,6.48,6.464,6.48c2.432,0,3.871-0.863,5.168-2.25l-1.766-1.783C23.562-46.113,22.68-45.537,21.238-45.537z"/>
</g>
<g>
	<rect x="5.5" y="-34.5" fill="#FF33FF" width="30" height="30"/>
	<path fill="#FFFFFF" d="M21.238-15.537c-2.16,0-3.654-1.801-3.654-3.961v-0.037c0-2.16,1.531-3.924,3.654-3.924
		c1.26,0,2.25,0.539,3.223,1.422l1.766-2.035c-1.17-1.15-2.594-1.945-4.971-1.945c-3.871,0-6.572,2.936-6.572,6.52v0.035
		c0,3.619,2.755,6.48,6.464,6.48c2.432,0,3.871-0.863,5.168-2.25l-1.766-1.783C23.562-16.113,22.68-15.537,21.238-15.537z"/>
</g>
<g>
	<rect x="5.5" y="-4.5" fill="#808080" width="30" height="30"/>
	<path fill="#FFFFFF" d="M21.238,14.463c-2.16,0-3.654-1.801-3.654-3.961v-0.037c0-2.16,1.531-3.924,3.654-3.924
		c1.26,0,2.25,0.539,3.223,1.422l1.766-2.035c-1.17-1.15-2.594-1.945-4.971-1.945c-3.871,0-6.572,2.936-6.572,6.52v0.035
		c0,3.619,2.755,6.48,6.464,6.48c2.432,0,3.871-0.863,5.168-2.25l-1.766-1.783C23.562,13.887,22.68,14.463,21.238,14.463z"/>
</g>
<g>
	<rect x="5.5" y="25.5" fill="#FF6666" width="30" height="30"/>
	<path fill="#FFFFFF" d="M21.238,44.463c-2.16,0-3.654-1.801-3.654-3.961v-0.037c0-2.16,1.531-3.924,3.654-3.924
		c1.26,0,2.25,0.539,3.223,1.422l1.766-2.035c-1.17-1.15-2.594-1.945-4.971-1.945c-3.871,0-6.572,2.936-6.572,6.52v0.035
		c0,3.619,2.755,6.48,6.464,6.48c2.432,0,3.871-0.863,5.168-2.25l-1.766-1.783C23.562,43.887,22.68,44.463,21.238,44.463z"/>
</g>
<g>
	<rect x="5.5" y="55.5" fill="#FFAD66" width="30" height="30"/>
	<path d="M21.238,74.463c-2.16,0-3.654-1.801-3.654-3.961v-0.037c0-2.16,1.531-3.924,3.654-3.924c1.26,0,2.25,0.539,3.223,1.422
		l1.766-2.035c-1.17-1.15-2.594-1.945-4.971-1.945c-3.871,0-6.572,2.936-6.572,6.52v0.035c0,3.619,2.755,6.48,6.464,6.48
		c2.432,0,3.871-0.863,5.168-2.25l-1.766-1.783C23.562,73.887,22.68,74.463,21.238,74.463z"/>
</g>
<g>
	<rect x="5.5" y="85.5" fill="#FFFF66" width="30" height="30"/>
	<path d="M21.238,104.463c-2.16,0-3.654-1.801-3.654-3.961v-0.037c0-2.16,1.531-3.924,3.654-3.924c1.26,0,2.25,0.539,3.223,1.422
		l1.766-2.035c-1.17-1.15-2.594-1.945-4.971-1.945c-3.871,0-6.572,2.936-6.572,6.52v0.035c0,3.619,2.755,6.48,6.464,6.48
		c2.432,0,3.871-0.863,5.168-2.25l-1.766-1.783C23.562,103.887,22.68,104.463,21.238,104.463z"/>
</g>
<g>
	<rect x="5.5" y="115.5" fill="#66FF66" width="30" height="30"/>
	<path d="M21.238,134.463c-2.16,0-3.654-1.801-3.654-3.961v-0.037c0-2.16,1.531-3.924,3.654-3.924c1.26,0,2.25,0.539,3.223,1.422
		l1.766-2.035c-1.17-1.15-2.594-1.945-4.971-1.945c-3.871,0-6.572,2.936-6.572,6.52v0.035c0,3.619,2.755,6.48,6.464,6.48
		c2.432,0,3.871-0.863,5.168-2.25l-1.766-1.783C23.562,133.887,22.68,134.463,21.238,134.463z"/>
</g>
<g>
	<rect x="5.5" y="145.5" fill="#6666FF" width="30" height="30"/>
	<path fill="#FFFFFF" d="M21.238,164.463c-2.16,0-3.654-1.801-3.654-3.961v-0.037c0-2.16,1.531-3.924,3.654-3.924
		c1.26,0,2.25,0.539,3.223,1.422l1.766-2.035c-1.17-1.15-2.594-1.945-4.971-1.945c-3.871,0-6.572,2.936-6.572,6.52v0.035
		c0,3.619,2.755,6.48,6.464,6.48c2.432,0,3.871-0.863,5.168-2.25l-1.766-1.783C23.562,163.887,22.68,164.463,21.238,164.463z"/>
</g>
<g>
	<rect x="5.5" y="175.5" fill="#FF66FF" width="30" height="30"/>
	<path d="M21.238,194.463c-2.16,0-3.654-1.801-3.654-3.961v-0.037c0-2.16,1.531-3.924,3.654-3.924c1.26,0,2.25,0.539,3.223,1.422
		l1.766-2.035c-1.17-1.15-2.594-1.945-4.971-1.945c-3.871,0-6.572,2.936-6.572,6.52v0.035c0,3.619,2.755,6.48,6.464,6.48
		c2.432,0,3.871-0.863,5.168-2.25l-1.766-1.783C23.562,193.887,22.68,194.463,21.238,194.463z"/>
</g>
<g>
	<rect x="5.5" y="205.5" fill="#BFBFBF" width="30" height="30"/>
	<path d="M21.238,224.463c-2.16,0-3.654-1.801-3.654-3.961v-0.037c0-2.16,1.531-3.924,3.654-3.924c1.26,0,2.25,0.539,3.223,1.422
		l1.766-2.035c-1.17-1.15-2.594-1.945-4.971-1.945c-3.871,0-6.572,2.936-6.572,6.52v0.035c0,3.619,2.755,6.48,6.464,6.48
		c2.432,0,3.871-0.863,5.168-2.25l-1.766-1.783C23.562,223.887,22.68,224.463,21.238,224.463z"/>
</g>
<g>
	<rect x="5.5" y="235.5" fill="#FF9999" width="30" height="30"/>
	<path d="M21.238,254.463c-2.16,0-3.654-1.801-3.654-3.961v-0.037c0-2.16,1.531-3.924,3.654-3.924c1.26,0,2.25,0.539,3.223,1.422
		l1.766-2.035c-1.17-1.15-2.594-1.945-4.971-1.945c-3.871,0-6.572,2.936-6.572,6.52v0.035c0,3.619,2.755,6.48,6.464,6.48
		c2.432,0,3.871-0.863,5.168-2.25l-1.766-1.783C23.562,253.887,22.68,254.463,21.238,254.463z"/>
</g>
<g>
	<rect x="5.5" y="265.5" fill="#FFC999" width="30" height="30"/>
	<path d="M21.238,284.463c-2.16,0-3.654-1.801-3.654-3.961v-0.037c0-2.16,1.531-3.924,3.654-3.924c1.26,0,2.25,0.539,3.223,1.422
		l1.766-2.035c-1.17-1.15-2.594-1.945-4.971-1.945c-3.871,0-6.572,2.936-6.572,6.52v0.035c0,3.619,2.755,6.48,6.464,6.48
		c2.432,0,3.871-0.863,5.168-2.25l-1.766-1.783C23.562,283.887,22.68,284.463,21.238,284.463z"/>
</g>
<g>
	<rect x="5.5" y="295.5" fill="#FFFF99" width="30" height="30"/>
	<path d="M21.238,314.463c-2.16,0-3.654-1.801-3.654-3.961v-0.037c0-2.16,1.531-3.924,3.654-3.924c1.26,0,2.25,0.539,3.223,1.422
		l1.766-2.035c-1.17-1.15-2.594-1.945-4.971-1.945c-3.871,0-6.572,2.936-6.572,6.52v0.035c0,3.619,2.755,6.48,6.464,6.48
		c2.432,0,3.871-0.863,5.168-2.25l-1.766-1.783C23.562,313.887,22.68,314.463,21.238,314.463z"/>
</g>
<g>
	<rect x="5.5" y="325.5" fill="#99FF99" width="30" height="30"/>
	<path d="M21.238,344.463c-2.16,0-3.654-1.801-3.654-3.961v-0.037c0-2.16,1.531-3.924,3.654-3.924c1.26,0,2.25,0.539,3.223,1.422
		l1.766-2.035c-1.17-1.15-2.594-1.945-4.971-1.945c-3.871,0-6.572,2.936-6.572,6.52v0.035c0,3.619,2.755,6.48,6.464,6.48
		c2.432,0,3.871-0.863,5.168-2.25l-1.766-1.783C23.562,343.887,22.68,344.463,21.238,344.463z"/>
</g>
<g>
	<rect x="5.5" y="355.5" fill="#9999FF" width="30" height="30"/>
	<path d="M21.238,374.463c-2.16,0-3.654-1.801-3.654-3.961v-0.037c0-2.16,1.531-3.924,3.654-3.924c1.26,0,2.25,0.539,3.223,1.422
		l1.766-2.035c-1.17-1.15-2.594-1.945-4.971-1.945c-3.871,0-6.572,2.936-6.572,6.52v0.035c0,3.619,2.755,6.48,6.464,6.48
		c2.432,0,3.871-0.863,5.168-2.25l-1.766-1.783C23.562,373.887,22.68,374.463,21.238,374.463z"/>
</g>
<g>
	<rect x="5.5" y="385.5" fill="#FF99FF" width="30" height="30"/>
	<path d="M21.238,404.463c-2.16,0-3.654-1.801-3.654-3.961v-0.037c0-2.16,1.531-3.924,3.654-3.924c1.26,0,2.25,0.539,3.223,1.422
		l1.766-2.035c-1.17-1.15-2.594-1.945-4.971-1.945c-3.871,0-6.572,2.936-6.572,6.52v0.035c0,3.619,2.755,6.48,6.464,6.48
		c2.432,0,3.871-0.863,5.168-2.25l-1.766-1.783C23.562,403.887,22.68,404.463,21.238,404.463z"/>
</g>
<g>
	<rect x="5.5" y="415.5" fill="#FFFFFF" width="30" height="30"/>
	<path d="M21.238,434.463c-2.16,0-3.654-1.801-3.654-3.961v-0.037c0-2.16,1.531-3.924,3.654-3.924c1.26,0,2.25,0.539,3.223,1.422
		l1.766-2.035c-1.17-1.15-2.594-1.945-4.971-1.945c-3.871,0-6.572,2.936-6.572,6.52v0.035c0,3.619,2.755,6.48,6.464,6.48
		c2.432,0,3.871-0.863,5.168-2.25l-1.766-1.783C23.562,433.887,22.68,434.463,21.238,434.463z"/>
</g>
<g>
	<rect x="5.5" y="445.5" fill="#FFCCCC" width="30" height="30"/>
	<path d="M21.238,464.463c-2.16,0-3.654-1.801-3.654-3.961v-0.037c0-2.16,1.531-3.924,3.654-3.924c1.26,0,2.25,0.539,3.223,1.422
		l1.766-2.035c-1.17-1.15-2.594-1.945-4.971-1.945c-3.871,0-6.572,2.936-6.572,6.52v0.035c0,3.619,2.755,6.48,6.464,6.48
		c2.432,0,3.871-0.863,5.168-2.25l-1.766-1.783C23.562,463.887,22.68,464.463,21.238,464.463z"/>
</g>
<g>
	<rect x="5.5" y="475.5" fill="#FFE4CC" width="30" height="30"/>
	<path d="M21.238,494.463c-2.16,0-3.654-1.801-3.654-3.961v-0.037c0-2.16,1.531-3.924,3.654-3.924c1.26,0,2.25,0.539,3.223,1.422
		l1.766-2.035c-1.17-1.15-2.594-1.945-4.971-1.945c-3.871,0-6.572,2.936-6.572,6.52v0.035c0,3.619,2.755,6.48,6.464,6.48
		c2.432,0,3.871-0.863,5.168-2.25l-1.766-1.783C23.562,493.887,22.68,494.463,21.238,494.463z"/>
</g>
<g>
	<rect x="5.5" y="505.5" fill="#FFFFCC" width="30" height="30"/>
	<path d="M21.238,524.463c-2.16,0-3.654-1.801-3.654-3.961v-0.037c0-2.16,1.531-3.924,3.654-3.924c1.26,0,2.25,0.539,3.223,1.422
		l1.766-2.035c-1.17-1.15-2.594-1.945-4.971-1.945c-3.871,0-6.572,2.936-6.572,6.52v0.035c0,3.619,2.755,6.48,6.464,6.48
		c2.432,0,3.871-0.863,5.168-2.25l-1.766-1.783C23.562,523.887,22.68,524.463,21.238,524.463z"/>
</g>
<g>
	<rect x="5.5" y="535.5" fill="#CCFFCC" width="30" height="30"/>
	<path d="M21.238,554.463c-2.16,0-3.654-1.801-3.654-3.961v-0.037c0-2.16,1.531-3.924,3.654-3.924c1.26,0,2.25,0.539,3.223,1.422
		l1.766-2.035c-1.17-1.15-2.594-1.945-4.971-1.945c-3.871,0-6.572,2.936-6.572,6.52v0.035c0,3.619,2.755,6.48,6.464,6.48
		c2.432,0,3.871-0.863,5.168-2.25l-1.766-1.783C23.562,553.887,22.68,554.463,21.238,554.463z"/>
</g>
<g>
	<rect x="5.5" y="565.5" fill="#CCCCFF" width="30" height="30"/>
	<path d="M21.238,584.463c-2.16,0-3.654-1.801-3.654-3.961v-0.037c0-2.16,1.531-3.924,3.654-3.924c1.26,0,2.25,0.539,3.223,1.422
		l1.766-2.035c-1.17-1.15-2.594-1.945-4.971-1.945c-3.871,0-6.572,2.936-6.572,6.52v0.035c0,3.619,2.755,6.48,6.464,6.48
		c2.432,0,3.871-0.863,5.168-2.25l-1.766-1.783C23.562,583.887,22.68,584.463,21.238,584.463z"/>
</g>
<g>
	<rect x="5.5" y="595.5" fill="#FFCCFF" width="30" height="30"/>
	<path d="M21.238,614.463c-2.16,0-3.654-1.801-3.654-3.961v-0.037c0-2.16,1.531-3.924,3.654-3.924c1.26,0,2.25,0.539,3.223,1.422
		l1.766-2.035c-1.17-1.15-2.594-1.945-4.971-1.945c-3.871,0-6.572,2.936-6.572,6.52v0.035c0,3.619,2.755,6.48,6.464,6.48
		c2.432,0,3.871-0.863,5.168-2.25l-1.766-1.783C23.562,613.887,22.68,614.463,21.238,614.463z"/>
</g>
</svg>
