<?xml version="1.0" encoding="utf-8"?>
<!-- Generator: Adobe Illustrator 16.0.0, SVG Export Plug-In . SVG Version: 6.00 Build 0)  -->
<!DOCTYPE svg PUBLIC "-//W3C//DTD SVG 1.1//EN" "http://www.w3.org/Graphics/SVG/1.1/DTD/svg11.dtd">
<svg version="1.1" id="Layer_1" xmlns="http://www.w3.org/2000/svg" xmlns:xlink="http://www.w3.org/1999/xlink" x="0px" y="0px"
	 width="24px" height="28px" viewBox="0 0 24 28" enable-background="new 0 0 24 28" xml:space="preserve">
<path fill="#FFFFFF" d="M-5,9v28h24V9H-5z M7,26c-2.209,0-4-1.791-4-4s1.791-4,4-4c2.21,0,4,1.791,4,4S9.21,26,7,26z"/>
<g>
	<path d="M12,10c1.654,0,3,1.346,3,3s-1.346,3-3,3s-3-1.346-3-3S10.346,10,12,10 M12,9c-2.209,0-4,1.791-4,4c0,2.209,1.791,4,4,4
		c2.21,0,4-1.791,4-4C16,10.791,14.21,9,12,9L12,9z"/>
</g>
</svg>
