<?xml version="1.0" encoding="utf-8"?>
<!-- Generator: Adobe Illustrator 16.0.0, SVG Export Plug-In . SVG Version: 6.00 Build 0)  -->
<!DOCTYPE svg PUBLIC "-//W3C//DTD SVG 1.1//EN" "http://www.w3.org/Graphics/SVG/1.1/DTD/svg11.dtd">
<svg version="1.1" xmlns="http://www.w3.org/2000/svg" xmlns:xlink="http://www.w3.org/1999/xlink" x="0px" y="0px" width="30px"
	 height="30px" viewBox="1.5 29.5 30 30" enable-background="new 1.5 29.5 30 30" xml:space="preserve">
<g id="Layer_2">
	<rect x="1.5" y="29.5" fill="#FFFFFF" width="30" height="30"/>
</g>
<g id="Layer_1">
	<path d="M24.591,42.591c1.09-2.552,0.598-5.616-1.485-7.698c-2.732-2.732-7.166-2.732-9.898,0L12.5,35.602l1.415,1.414l0.707-0.707
		c1.95-1.951,5.122-1.951,7.071,0c1.679,1.678,1.902,4.261,0.689,6.191H8.5l-1,1v9l1,1l0.999,1H23.5l2-2v-9L24.591,42.591z
		 M17.5,48.109V50.5h-2v-2.391C15.195,47.836,15,47.441,15,47c0-0.828,0.672-1.5,1.5-1.5S18,46.172,18,47
		C18,47.441,17.805,47.836,17.5,48.109z"/>
</g>
</svg>
