<?xml version="1.0" encoding="utf-8"?>
<!-- Generator: Adobe Illustrator 16.0.0, SVG Export Plug-In . SVG Version: 6.00 Build 0)  -->
<!DOCTYPE svg PUBLIC "-//W3C//DTD SVG 1.1//EN" "http://www.w3.org/Graphics/SVG/1.1/DTD/svg11.dtd">
<svg version="1.1" id="Layer_1" xmlns="http://www.w3.org/2000/svg" xmlns:xlink="http://www.w3.org/1999/xlink" x="0px" y="0px"
	 width="11px" height="46px" viewBox="0 -0.5 11 46" enable-background="new 0 -0.5 11 46" xml:space="preserve">
<g>
	<circle cx="5.5" cy="5" r="3"/>
	<path fill="#FFFFFF" d="M5.5,3c1.104,0,2,0.896,2,2s-0.896,2-2,2c-1.104,0-2-0.896-2-2S4.396,3,5.5,3 M5.5,1c-2.206,0-4,1.794-4,4
		s1.794,4,4,4s4-1.794,4-4S7.706,1,5.5,1L5.5,1z"/>
</g>
<g>
	<circle cx="5.5" cy="40" r="3"/>
	<path fill="#FFFFFF" d="M5.5,38c1.104,0,2,0.896,2,2s-0.896,2-2,2c-1.104,0-2-0.896-2-2S4.396,38,5.5,38 M5.5,36
		c-2.206,0-4,1.794-4,4s1.794,4,4,4s4-1.794,4-4S7.706,36,5.5,36L5.5,36z"/>
</g>
<g>
	<circle cx="5.5" cy="23" r="3"/>
	<path fill="#FFFFFF" d="M5.5,21c1.104,0,2,0.896,2,2s-0.896,2-2,2c-1.104,0-2-0.896-2-2S4.396,21,5.5,21 M5.5,19
		c-2.206,0-4,1.794-4,4s1.794,4,4,4s4-1.794,4-4S7.706,19,5.5,19L5.5,19z"/>
</g>
</svg>
