<?xml version="1.0" encoding="utf-8"?>
<!-- Generator: Adobe Illustrator 16.0.0, SVG Export Plug-In . SVG Version: 6.00 Build 0)  -->
<!DOCTYPE svg PUBLIC "-//W3C//DTD SVG 1.1//EN" "http://www.w3.org/Graphics/SVG/1.1/DTD/svg11.dtd">
<svg version="1.1" id="Layer_1" xmlns="http://www.w3.org/2000/svg" xmlns:xlink="http://www.w3.org/1999/xlink" x="0px" y="0px"
	 width="30px" height="30px" viewBox="-290.5 411.5 30 30" enable-background="new -290.5 411.5 30 30" xml:space="preserve">
<g id="Layer_2">
	<rect x="-290.5" y="411.5" fill="#FFFFFF" width="30" height="30"/>
</g>
<g id="Layer_3">
	<g>
		<path d="M-273.5,424.5c-1.383,0-2.619,0-4,0c0,2.057,0,4.943,0,7c-0.89,0-1.301,0-2,0c1.508,1.51,2.633,2.586,4.045,4
			c1.434-1.428,2.428-2.477,3.955-4c-0.746,0-1.102,0-2,0C-273.5,429.426-273.5,426.521-273.5,424.5z"/>
		<path d="M-264.626,422.266c-1.324-1.949-3.255-2.705-5.699-2.215c-0.014-0.025-0.025-0.05-0.041-0.074
			c-1.482-2.692-3.799-4.068-6.707-3.971c-3.495,0.119-6.149,2.395-6.929,5.939c-0.013,0.058-0.089,0.162-0.144,0.195
			c-1.078,0.658-1.837,1.744-2.083,2.979c-0.248,1.24,0.027,2.49,0.772,3.517c0.941,1.296,2.092,1.872,3.732,1.872
			c0.348,0,0.713-0.023,1.097-0.062l-0.049-0.047v-2.125h-0.363l-0.641-0.002c-1.231-0.014-2.161-0.746-2.371-1.873
			c-0.203-1.086,0.384-2.082,1.498-2.541c0.442-0.185,0.666-0.485,0.705-0.95c0.198-2.438,2.046-4.398,4.395-4.661
			c2.479-0.282,4.666,1.188,5.423,3.552l0.404,1.263l0.831-0.41c0.179-0.088,0.343-0.172,0.511-0.248
			c0.571-0.258,1.15-0.336,1.74-0.233c1.646,0.291,2.704,1.679,2.571,3.373c-0.115,1.483-1.444,2.683-3.029,2.728
			c-0.125,0.004-0.251,0.006-0.376,0.006l-1.299-0.006v2.142l0.59,0.046c2.508,0.261,4.428-0.592,5.6-2.535
			C-263.367,426.053-263.417,424.044-264.626,422.266z"/>
	</g>
</g>
</svg>
