<?xml version="1.0" encoding="utf-8"?>
<!-- Generator: Adobe Illustrator 16.0.0, SVG Export Plug-In . SVG Version: 6.00 Build 0)  -->
<!DOCTYPE svg PUBLIC "-//W3C//DTD SVG 1.1//EN" "http://www.w3.org/Graphics/SVG/1.1/DTD/svg11.dtd">
<svg version="1.1" id="Layer_1" xmlns="http://www.w3.org/2000/svg" xmlns:xlink="http://www.w3.org/1999/xlink" x="0px" y="0px"
	 width="30px" height="30px" viewBox="0 0 30 30" enable-background="new 0 0 30 30" xml:space="preserve">
<g>
	<g id="Layer_2">
		<rect fill="#FFFFFF" width="30" height="30"/>
	</g>
	<g id="Layer_1_1_">
		<g>
			<g>
				<g>
					<line fill="none" x1="10" y1="6" x2="10" y2="22"/>
					<polygon fill="#010101" points="10,22 10,6 15,6 15,4 8,4 8,24 15,24 15,22 					"/>
				</g>
			</g>
			<g>
				<g>
					<polygon fill="none" points="21,9 21,8.829 18.172,6 18,6 18,9 					"/>
					<polygon fill="none" points="21,22 21,10 18,10 17,10 17,9 17,6 14,6 14,22 					"/>
					<polygon fill="#010101" points="23,8 19,4 14,4 14,6 17,6 18,6 18.172,6 21,8.829 21,9 22,9 22,10 21,10 21,22 14,22 14,24 
						23,24 					"/>
					<rect x="17" y="6" fill="#010101" width="1" height="3"/>
					<rect x="18" y="9" fill="#010101" width="3" height="1"/>
					<rect x="21" y="9" fill="#010101" width="1" height="1"/>
					<rect x="17" y="9" fill="#010101" width="1" height="1"/>
				</g>
			</g>
		</g>
		<g>
			<g>
				<path d="M17.673,20.415c-0.794,0-1.55-0.317-2.126-0.894l-4.152-4.152c-0.554-0.555-0.871-1.28-0.893-2.043
					c-0.023-0.775,0.26-1.497,0.795-2.031c0.512-0.512,1.203-0.794,1.945-0.794c0.795,0,1.551,0.317,2.128,0.894l4.083,4.084
					c0.646,0.646,0.963,1.401,0.963,2.197c-0.001,0.742-0.284,1.434-0.798,1.944C19.107,20.133,18.416,20.415,17.673,20.415
					C17.674,20.415,17.674,20.415,17.673,20.415z"/>
				<path fill="#FFFFFF" d="M13.242,11c0.632,0,1.277,0.25,1.773,0.748l0.814,0.816l2.521,2.521l0.748,0.747l0.066,0.068
					c0.957,0.957,1.002,2.464,0.1,3.365c-0.436,0.435-1.009,0.646-1.594,0.646c-0.632,0-1.273-0.25-1.771-0.747L15.832,19.1
					l-0.748-0.748l-3.336-3.334c-0.957-0.959-1.002-2.466-0.098-3.367C12.083,11.215,12.657,11,13.242,11 M13.242,10
					c-0.875,0-1.692,0.334-2.299,0.941c-0.634,0.632-0.968,1.481-0.941,2.396c0.026,0.895,0.396,1.737,1.039,2.385l3.336,3.336
					l0.748,0.748l0.068,0.065c0.67,0.671,1.552,1.04,2.479,1.04c0.876,0,1.691-0.335,2.301-0.942
					c0.605-0.604,0.94-1.421,0.941-2.296c0.001-0.93-0.369-1.812-1.041-2.48l-0.066-0.068l-0.748-0.748l-2.521-2.52l-0.813-0.816
					C15.051,10.37,14.17,10,13.242,10L13.242,10z"/>
			</g>
			
				<rect x="13.585" y="14.22" transform="matrix(-0.7072 -0.707 0.707 -0.7072 15.4964 37.3986)" fill="#FFFFFF" width="3.812" height="2.54"/>
		</g>
	</g>
</g>
</svg>
