<?xml version="1.0" encoding="utf-8"?>
<!-- Generator: Adobe Illustrator 16.0.0, SVG Export Plug-In . SVG Version: 6.00 Build 0)  -->
<!DOCTYPE svg PUBLIC "-//W3C//DTD SVG 1.1//EN" "http://www.w3.org/Graphics/SVG/1.1/DTD/svg11.dtd">
<svg version="1.1" id="Layer_1" xmlns="http://www.w3.org/2000/svg" xmlns:xlink="http://www.w3.org/1999/xlink" x="0px" y="0px"
	 width="30px" height="30px" viewBox="0 0 30 30" enable-background="new 0 0 30 30" xml:space="preserve">
<g>
	<rect width="30" height="30"/>
	<path fill="#FFFFFF" d="M15.738,18.963c-2.16,0-3.654-1.801-3.654-3.961v-0.037c0-2.16,1.531-3.924,3.654-3.924
		c1.26,0,2.25,0.539,3.223,1.422l1.766-2.035c-1.17-1.15-2.594-1.945-4.971-1.945c-3.871,0-6.572,2.936-6.572,6.52v0.035
		c0,3.619,2.755,6.479,6.464,6.479c2.432,0,3.871-0.862,5.168-2.25l-1.767-1.783C18.062,18.387,17.18,18.963,15.738,18.963z"/>
</g>
</svg>
