<?xml version="1.0" encoding="utf-8"?>
<!-- Generator: Adobe Illustrator 16.0.0, SVG Export Plug-In . SVG Version: 6.00 Build 0)  -->
<!DOCTYPE svg PUBLIC "-//W3C//DTD SVG 1.1//EN" "http://www.w3.org/Graphics/SVG/1.1/DTD/svg11.dtd">
<svg version="1.1" id="Layer_1" xmlns="http://www.w3.org/2000/svg" xmlns:xlink="http://www.w3.org/1999/xlink" x="0px" y="0px"
	 width="30px" height="30px" viewBox="-0.5 0.5 30 30" enable-background="new -0.5 0.5 30 30" xml:space="preserve">
<g>
	<rect x="-0.5" y="0.5" fill="#FFFFFF" width="30" height="30"/>
	<g>
		<path d="M16.56,9.37c-0.187,1.227-0.379,2.447-0.58,3.66l-0.799,4.759l-0.58,3.842c-0.053,0.332-0.01,0.568,0.13,0.709
			c0.14,0.141,0.377,0.236,0.71,0.291l0.979,0.139l-0.06,0.461H10.2l0.06-0.461l1-0.139c0.347-0.055,0.613-0.15,0.8-0.291
			c0.187-0.141,0.307-0.377,0.36-0.709c0.187-1.174,0.394-2.455,0.62-3.842l0.8-4.759l0.54-3.66c0.053-0.333,0.01-0.57-0.13-0.71
			c-0.14-0.14-0.377-0.237-0.71-0.29l-0.98-0.14l0.06-0.46h6.18l-0.06,0.46L17.72,8.37C17.36,8.423,17.087,8.52,16.9,8.66
			C16.713,8.8,16.601,9.037,16.56,9.37z"/>
	</g>
</g>
</svg>
