<?xml version="1.0" encoding="utf-8"?>
<!-- Generator: Adobe Illustrator 16.0.0, SVG Export Plug-In . SVG Version: 6.00 Build 0)  -->
<!DOCTYPE svg PUBLIC "-//W3C//DTD SVG 1.1//EN" "http://www.w3.org/Graphics/SVG/1.1/DTD/svg11.dtd">
<svg version="1.1" xmlns="http://www.w3.org/2000/svg" xmlns:xlink="http://www.w3.org/1999/xlink" x="0px" y="0px" width="30px"
	 height="30px" viewBox="1.5 -0.5 30 30" enable-background="new 1.5 -0.5 30 30" xml:space="preserve">
<g id="Layer_2">
	<rect x="1.5" y="-0.5" fill="#FFFFFF" width="30" height="30"/>
</g>
<g id="Layer_1">
	<g>
		<path d="M20.5,3.5h-4h-7v20h7h8v-16L20.5,3.5z M19.672,5.5L22.5,8.329V8.5h-3v-3H19.672z M16.5,5.5h2v3v1h1h3v3.095l-2.398,2.398
			l-2.047-2.045c-0.195-0.195-0.513-0.195-0.707,0L15.3,14.993l-2.047-2.045c-0.191-0.192-0.499-0.197-0.696-0.011L11.5,13.92V5.5
			H16.5z M16.5,21.5h-5v-6.212l1.389-1.291l2.057,2.056c0.195,0.195,0.512,0.195,0.707,0l2.048-2.045l2.047,2.047
			c0.194,0.194,0.512,0.194,0.707,0l2.046-2.046V21.5H16.5z"/>
		<rect x="12.5" y="17.5" width="8" height="1"/>
		<rect x="12.5" y="19.5" width="8" height="1"/>
		<rect x="12.5" y="10.5" width="8" height="1"/>
		<rect x="12.5" y="8.5" width="5" height="1"/>
		<rect x="12.5" y="6.5" width="5" height="1"/>
	</g>
</g>
</svg>
