<?xml version="1.0" encoding="utf-8"?>
<!-- Generator: Adobe Illustrator 16.0.0, SVG Export Plug-In . SVG Version: 6.00 Build 0)  -->
<!DOCTYPE svg PUBLIC "-//W3C//DTD SVG 1.1//EN" "http://www.w3.org/Graphics/SVG/1.1/DTD/svg11.dtd">
<svg version="1.1" xmlns="http://www.w3.org/2000/svg" xmlns:xlink="http://www.w3.org/1999/xlink" x="0px" y="0px" width="30px"
	 height="30px" viewBox="1.5 -0.5 30 30" enable-background="new 1.5 -0.5 30 30" xml:space="preserve">
<g id="Layer_2">
	<rect x="1.5" y="-0.5" fill="#FFFFFF" width="30" height="30"/>
</g>
<g id="Layer_3">
	<g>
		<path d="M22.5,5.5h-1h-3v-1h-5v1h-3h-1h-1v4v1h1v11v2h1v1h9h2h1v-3v-11h1v-1v-4H22.5z M10.5,7.5h11v2h-11V7.5z M20.5,21.5h-1v1h-8
			v-1v-11h9V21.5z"/>
		<rect x="18.5" y="12.5" width="1" height="8"/>
		<rect x="15.5" y="12.5" width="1" height="8"/>
		<rect x="12.5" y="12.5" width="1" height="8"/>
	</g>
</g>
</svg>
