<?xml version="1.0" encoding="utf-8"?>
<!-- Generator: Adobe Illustrator 16.0.0, SVG Export Plug-In . SVG Version: 6.00 Build 0)  -->
<!DOCTYPE svg PUBLIC "-//W3C//DTD SVG 1.1//EN" "http://www.w3.org/Graphics/SVG/1.1/DTD/svg11.dtd">
<svg version="1.1" id="Layer_1" xmlns="http://www.w3.org/2000/svg" xmlns:xlink="http://www.w3.org/1999/xlink" x="0px" y="0px"
	 width="30px" height="30px" viewBox="-0.5 0.5 30 30" enable-background="new -0.5 0.5 30 30" xml:space="preserve">
<g id="Layer_2" opacity="0.92">
	<rect x="-0.5" y="0.5" fill="#FFFFFF" width="30" height="30"/>
</g>
<g id="Layer_3">
	<g>
		<path fill="#7F7F7F" d="M16.5,13.5c-1.383,0-2.619,0-4,0c0,2.057,0,4.943,0,7c-0.89,0-1.301,0-2,0c1.508,1.51,2.633,2.586,4.045,4
			c1.435-1.428,2.429-2.477,3.955-4c-0.746,0-1.102,0-2,0C16.5,18.426,16.5,15.521,16.5,13.5z"/>
		<path fill="#7F7F7F" d="M25.375,11.266c-1.324-1.948-3.256-2.705-5.699-2.215c-0.014-0.024-0.025-0.05-0.041-0.074
			c-1.482-2.691-3.799-4.067-6.707-3.971c-3.495,0.119-6.149,2.396-6.93,5.939c-0.013,0.058-0.088,0.162-0.144,0.194
			c-1.078,0.658-1.837,1.744-2.083,2.979c-0.248,1.24,0.027,2.49,0.771,3.517c0.941,1.296,2.092,1.872,3.732,1.872
			c0.348,0,0.713-0.022,1.098-0.062l-0.049-0.047v-2.125H8.961l-0.642-0.003c-1.231-0.014-2.161-0.745-2.37-1.872
			c-0.203-1.087,0.383-2.082,1.497-2.541c0.442-0.186,0.666-0.485,0.705-0.95C8.35,9.47,10.197,7.51,12.547,7.247
			c2.479-0.282,4.666,1.188,5.422,3.552l0.404,1.263l0.832-0.409c0.178-0.088,0.342-0.172,0.51-0.248
			c0.572-0.258,1.15-0.336,1.74-0.233c1.646,0.291,2.705,1.679,2.571,3.373c-0.114,1.483-1.444,2.683-3.028,2.728
			c-0.125,0.005-0.252,0.007-0.377,0.007l-1.299-0.007v2.143l0.59,0.046c2.508,0.261,4.428-0.592,5.6-2.535
			C26.633,15.053,26.584,13.044,25.375,11.266z"/>
	</g>
</g>
</svg>
