<?xml version="1.0" encoding="utf-8"?>
<!-- Generator: Adobe Illustrator 16.0.0, SVG Export Plug-In . SVG Version: 6.00 Build 0)  -->
<!DOCTYPE svg PUBLIC "-//W3C//DTD SVG 1.1//EN" "http://www.w3.org/Graphics/SVG/1.1/DTD/svg11.dtd">
<svg version="1.1" id="Layer_1" xmlns="http://www.w3.org/2000/svg" xmlns:xlink="http://www.w3.org/1999/xlink" x="0px" y="0px"
	 width="80px" height="80px" viewBox="0 0 80 80" enable-background="new 0 0 80 80" xml:space="preserve">
<polygon opacity="0.92" fill="#FFFFFF" points="0,80 0,0 80,0 "/>
<g>
	<g>
		<path fill="#7F7F7F" d="M18.188,17.726c-0.275,0.474-0.988,1.503-2.51,1.503c-0.338,0-0.971-0.02-1.662-0.554
			c-0.449-0.357-0.867-0.942-1.098-1.858L8.43,17.224c0.262,1.224,0.88,2.752,2.322,3.962c1.365,1.167,2.947,1.602,4.727,1.602
			c3.105,0,4.885-1.424,5.716-2.373c0.336-0.395,0.593-0.751,1.087-1.661l-3.777-1.82C18.366,17.35,18.287,17.528,18.188,17.726z"/>
	</g>
	<path fill="#7F7F7F" d="M12.018,14.024c0.039-0.354,0.199-2.366,1.688-3.237c0.297-0.166,0.841-0.405,1.646-0.316
		c1.771,0.174,2.302,1.685,2.485,2.183c0.044,0.144,0.108,0.29,0.151,0.435l3.877-1.425c-0.236-0.563-0.396-0.919-0.757-1.436
		c-0.669-0.969-2.376-2.827-5.54-3.175c-1.219-0.134-3.895-0.229-6.097,2.254c-1.542,1.72-1.853,3.637-1.944,4.481
		c-0.042,0.375-0.085,1.015-0.006,1.783l4.504,0.085C11.961,15.193,11.947,14.658,12.018,14.024z"/>
	<polygon fill="#7F7F7F" points="27.463,8.155 23.098,7.65 22.23,15.153 26.643,15.259 	"/>
	<g>
		<path fill="#7F7F7F" d="M30.578,14.776l3.996,0.188l-4.172,0.531l0.086,1.992c0.018,0.415,0.141,0.726,0.018,1.088
			c-0.35,1.064-1.399,1.169-1.695,1.182c-0.316,0.014-1.336-0.002-1.738-1.053c-0.177-0.428-0.09-0.927-0.096-1.064l-0.071-1.644
			l-4.374,0.592l0.035,0.807c0.064,1.462,0.108,2.034,0.395,2.714c0.728,1.691,2.141,2.323,2.744,2.553
			c1.408,0.553,2.774,0.533,3.288,0.511c2.489-0.108,5.05-1.188,5.909-3.759c0.279-0.844,0.439-1.603,0.4-2.492l-0.084-1.928
			l0.205,0.009l0.831-6.344l-4.794-0.628L30.578,14.776z"/>
	</g>
	<g>
		<polygon fill="#7F7F7F" points="40.279,15.37 42.146,23.214 46.422,22.196 44.463,13.963 		"/>
	</g>
	<polygon fill="#7F7F7F" points="41.539,14.59 45.838,13.591 45.553,11.527 49.035,11.045 48.553,7.562 37.234,9.128 37.717,12.611 
		41.199,12.129 	"/>
	<g>
		<path fill="#7F7F7F" d="M17.852,35.351c-0.046,0.413-0.184,0.716-0.359,1.055c-0.508,0.999-1.667,0.93-1.961,0.897
			c-0.315-0.034-1.383-0.212-1.619-1.312c-0.109-0.45-0.008-0.936,0.008-1.073l0.414-3.751l0.474,0.111l1.521-4.551l-4.168-1.393
			l-1.648,4.933l2.796,0.658l-3.362-0.063l-0.347,3.141c-0.161,1.455-0.194,2.028-0.016,2.744c0.46,1.782,1.765,2.622,2.325,2.943
			c1.309,0.761,2.663,0.951,3.175,1.007c2.476,0.273,5.164-0.406,6.405-2.815c0.406-0.791,0.672-1.518,0.77-2.402l0.482-4.367
			l-4.413-0.081L17.852,35.351z"/>
	</g>
	<g>
		<polygon fill="#7F7F7F" points="23,26 18,26 18,30.345 23,29.942 		"/>
	</g>
	<g>
		<path fill="#7F7F7F" d="M35.268,28.187L30.352,29c0.262,0.095,0.524,0.262,0.72,0.562c0.247,0.377,0.278,0.791,0.29,0.95
			c0.084,1.104-0.493,1.6-0.877,1.768c-0.288,0.121-0.721,0.189-0.779,0.193l-2.352,0.179l-0.234-3.095l-4.353,0.732l0.769,10.144
			l4.381-0.331l-0.331-4.383l3.239-0.246c0.869-0.065,1.687-0.257,2.49-0.636c1.496-0.689,2.092-2.247,2.233-2.734
			c0.253-0.851,0.204-1.763,0.183-2.039C35.703,29.702,35.63,28.955,35.268,28.187z"/>
	</g>
	<g>
		<path fill="#7F7F7F" d="M27.762,28.36l-0.066-0.407l2.307-0.384c0.143-0.023,0.527-0.122,0.938-0.014l4.819-1.276
			c-0.296-0.503-0.734-1.055-1.38-1.446c-1.228-0.758-2.5-0.694-3.847-0.471l-7.677,1.276l0.637,3.837L27.762,28.36z"/>
	</g>
</g>
</svg>
