<?xml version="1.0" encoding="utf-8"?>
<!-- Generator: Adobe Illustrator 16.0.0, SVG Export Plug-In . SVG Version: 6.00 Build 0)  -->
<!DOCTYPE svg PUBLIC "-//W3C//DTD SVG 1.1//EN" "http://www.w3.org/Graphics/SVG/1.1/DTD/svg11.dtd">
<svg version="1.1" id="Layer_1" xmlns="http://www.w3.org/2000/svg" xmlns:xlink="http://www.w3.org/1999/xlink" x="0px" y="0px"
	 width="20px" height="20px" viewBox="0 0 20 20" enable-background="new 0 0 20 20" xml:space="preserve">
<g>
	<rect x="6" y="7" fill="#FF0000" width="1" height="1"/>
	<rect x="7" y="8" fill="#FF0000" width="1" height="1"/>
	<rect x="8" y="9" fill="#FF0000" width="1" height="1"/>
	<rect x="9" y="10" fill="#FF0000" width="1" height="1"/>
	<rect x="10" y="11" fill="#FF0000" width="1" height="1"/>
	<rect x="11" y="12" fill="#FF0000" width="1" height="1"/>
	<rect x="12" y="13" fill="#FF0000" width="1" height="1"/>
	<rect x="6" y="13" fill="#FF0000" width="1" height="1"/>
	<rect x="7" y="12" fill="#FF0000" width="1" height="1"/>
	<rect x="8" y="11" fill="#FF0000" width="1" height="1"/>
	<rect x="10" y="9" fill="#FF0000" width="1" height="1"/>
	<rect x="11" y="8" fill="#FF0000" width="1" height="1"/>
	<rect x="12" y="7" fill="#FF0000" width="1" height="1"/>
	<rect x="13" y="14" fill="#FF0000" width="1" height="1"/>
	<rect x="14" y="15" fill="#FF0000" width="1" height="1"/>
	<rect x="5" y="14" fill="#FF0000" width="1" height="1"/>
	<rect x="4" y="15" fill="#FF0000" width="1" height="1"/>
	<rect x="5" y="6" fill="#FF0000" width="1" height="1"/>
	<rect x="4" y="5" fill="#FF0000" width="1" height="1"/>
	<rect x="13" y="6" fill="#FF0000" width="1" height="1"/>
	<rect x="14" y="5" fill="#FF0000" width="1" height="1"/>
</g>
<g opacity="0.2">
	<rect x="6" y="14" fill="#FF0000" width="1" height="1"/>
	<rect x="7" y="13" fill="#FF0000" width="1" height="1"/>
	<rect x="6" y="12" fill="#FF0000" width="1" height="1"/>
	<rect x="7" y="11" fill="#FF0000" width="1" height="1"/>
	<rect x="8" y="12" fill="#FF0000" width="1" height="1"/>
	<rect x="9" y="11" fill="#FF0000" width="1" height="1"/>
	<rect x="8" y="10" fill="#FF0000" width="1" height="1"/>
	<rect x="7" y="9" fill="#FF0000" width="1" height="1"/>
	<rect x="9" y="9" fill="#FF0000" width="1" height="1"/>
	<rect x="8" y="8" fill="#FF0000" width="1" height="1"/>
	<rect x="6" y="8" fill="#FF0000" width="1" height="1"/>
	<rect x="5" y="7" fill="#FF0000" width="1" height="1"/>
	<rect x="6" y="6" fill="#FF0000" width="1" height="1"/>
	<rect x="7" y="7" fill="#FF0000" width="1" height="1"/>
	<rect x="10" y="8" fill="#FF0000" width="1" height="1"/>
	<rect x="10" y="10" fill="#FF0000" width="1" height="1"/>
	<rect x="11" y="9" fill="#FF0000" width="1" height="1"/>
	<rect x="12" y="8" fill="#FF0000" width="1" height="1"/>
	<rect x="11" y="7" fill="#FF0000" width="1" height="1"/>
	<rect x="12" y="6" fill="#FF0000" width="1" height="1"/>
	<rect x="13" y="7" fill="#FF0000" width="1" height="1"/>
	<rect x="11" y="11" fill="#FF0000" width="1" height="1"/>
	<rect x="10" y="12" fill="#FF0000" width="1" height="1"/>
	<rect x="12" y="12" fill="#FF0000" width="1" height="1"/>
	<rect x="11" y="13" fill="#FF0000" width="1" height="1"/>
	<rect x="13" y="13" fill="#FF0000" width="1" height="1"/>
	<rect x="12" y="14" fill="#FF0000" width="1" height="1"/>
	<rect x="14" y="6" fill="#FF0000" width="1" height="1"/>
	<rect x="13" y="5" fill="#FF0000" width="1" height="1"/>
	<rect x="15" y="5" fill="#FF0000" width="1" height="1"/>
	<rect x="14" y="4" fill="#FF0000" width="1" height="1"/>
	<rect x="14" y="14" fill="#FF0000" width="1" height="1"/>
	<rect x="13" y="15" fill="#FF0000" width="1" height="1"/>
	<rect x="15" y="15" fill="#FF0000" width="1" height="1"/>
	<rect x="14" y="16" fill="#FF0000" width="1" height="1"/>
	<polygon fill="#FF0000" points="4,15 3,15 3,16 4,16 4,17 5,17 5,16 4,16 	"/>
	<polygon fill="#FF0000" points="5,14 6,14 6,13 5,13 5,14 4,14 4,15 5,15 5,16 6,16 6,15 5,15 	"/>
	<rect x="4" y="6" fill="#FF0000" width="1" height="1"/>
	<rect x="3" y="5" fill="#FF0000" width="1" height="1"/>
	<rect x="4" y="4" fill="#FF0000" width="1" height="1"/>
	<rect x="5" y="5" fill="#FF0000" width="1" height="1"/>
</g>
</svg>
