<?xml version="1.0" encoding="utf-8"?>
<!-- Generator: Adobe Illustrator 16.0.0, SVG Export Plug-In . SVG Version: 6.00 Build 0)  -->
<!DOCTYPE svg PUBLIC "-//W3C//DTD SVG 1.1//EN" "http://www.w3.org/Graphics/SVG/1.1/DTD/svg11.dtd">
<svg version="1.1" id="Layer_2_2_" xmlns="http://www.w3.org/2000/svg" xmlns:xlink="http://www.w3.org/1999/xlink" x="0px" y="0px"
	 width="30px" height="30px" viewBox="0 0 30 30" enable-background="new 0 0 30 30" xml:space="preserve">
<rect opacity="0.92" fill="#FFFFFF" width="30" height="30"/>
<g>
	<polygon fill="#7F7F7F" points="24,8 15,8 15,7 14,7 14,8 8,8 8,7 7,7 7,8 5,8 5,9 24,9 	"/>
	<polygon fill="#7F7F7F" points="25,10 25,9 24,9 24,23 6,23 6,22 5,22 5,9 4,9 4,23 5,23 5,24 6,24 6,25 24,25 25,25 25,24 26,24 
		26,10 	"/>
	<rect x="8" y="6" fill="#7F7F7F" width="6" height="1"/>
</g>
</svg>
