<?xml version="1.0" encoding="utf-8"?>
<!-- Generator: Adobe Illustrator 16.0.0, SVG Export Plug-In . SVG Version: 6.00 Build 0)  -->
<!DOCTYPE svg PUBLIC "-//W3C//DTD SVG 1.1//EN" "http://www.w3.org/Graphics/SVG/1.1/DTD/svg11.dtd">
<svg version="1.1" xmlns="http://www.w3.org/2000/svg" xmlns:xlink="http://www.w3.org/1999/xlink" x="0px" y="0px" width="60px"
	 height="60px" viewBox="0.5 35 60 60" enable-background="new 0.5 35 60 60" xml:space="preserve">
<g id="Layer_2">
	<rect x="0.5" y="35" fill="#FFFFFF" width="60" height="60"/>
</g>
<g id="Layer_1">
	<g>
		<path d="M37.16,47.979c-4.424-2.5-11.697-1.754-15.413,1.688c-1.997,1.85-3.095,4.191-3.247,7.025
			c1.422,0.227,2.749,0.437,4.136,0.654c0.14-0.505,0.255-0.92,0.369-1.336c0.985-3.576,3.146-5.468,6.823-5.654
			c4.234-0.213,7.59,1.912,6.885,6.5c-0.189,1.231-0.838,2.533-1.64,3.5c-1.188,1.435-2.577,2.772-4.099,3.843
			c-3.728,2.62-3.565,6.354-3.328,10.212c1.451,0,2.822,0,4.278,0c0-0.924,0.028-1.76-0.006-2.594
			c-0.077-1.892,0.647-3.42,2.028-4.67c0.474-0.43,0.986-0.817,1.435-1.271c1.535-1.562,3.277-2.982,4.527-4.75
			C43.031,56.709,41.639,50.507,37.16,47.979z"/>
		<circle cx="29.958" cy="80.051" r="3"/>
	</g>
</g>
</svg>
