<?xml version="1.0" encoding="utf-8"?>
<!-- Generator: Adobe Illustrator 16.0.0, SVG Export Plug-In . SVG Version: 6.00 Build 0)  -->
<!DOCTYPE svg PUBLIC "-//W3C//DTD SVG 1.1//EN" "http://www.w3.org/Graphics/SVG/1.1/DTD/svg11.dtd">
<svg version="1.1" xmlns="http://www.w3.org/2000/svg" xmlns:xlink="http://www.w3.org/1999/xlink" x="0px" y="0px" width="30px"
	 height="30px" viewBox="0 27.5 30 30" enable-background="new 0 27.5 30 30" xml:space="preserve">
<g id="Layer_2">
	<rect x="0" y="27.5" fill="#FFFFFF" width="30" height="30"/>
</g>
<g id="Layer_1">
	<g>
		<path fill="#020202" d="M21.637,46.143l-0.938,0.787l-0.312-0.312l-0.396-0.396l-0.312-0.312l-0.398-0.4l-3.484-3.484
			l-0.708-0.707l-0.09-0.09l-0.617-0.619l-0.09-0.088l-0.293-0.295l8.726-8.727h-2.83l-8.02,8.02
			c-0.188,0.188-0.293,0.442-0.293,0.707c0,0.267,0.105,0.521,0.293,0.707l0.293,0.293l-3.333,3.334
			c-0.188,0.188-0.293,0.44-0.293,0.707c0,0.266,0.105,0.521,0.293,0.707l0.239,0.238l-5.299,5.6
			c-0.274,0.291-0.35,0.717-0.192,1.084C3.739,53.262,4.101,53.5,4.5,53.5h8c0.235,0,0.463-0.083,0.643-0.234l1.623-1.357
			l0.164,0.162c0.195,0.195,0.451,0.295,0.707,0.295s0.512-0.1,0.707-0.295l3.333-3.33l0.39,0.389
			c0.188,0.188,0.44,0.293,0.707,0.293s0.521-0.104,0.707-0.293l5.02-5.023v-2.828l-0.041,0.041L21.637,46.143z M12.136,51.5H6.823
			l3.664-3.871l2.857,2.857L12.136,51.5z M16.137,49.449l-0.544,0.457l-0.71-0.711l-3.02-3.021l-0.708-0.707l-0.201-0.199
			l2.626-2.627l0.129,0.129l0.707,0.707l3.323,3.323l0.521,0.523L16.137,49.449z"/>
	</g>
	<g>
		<path d="M12.62,44.984c-3.072,0-5.942-1.33-7.872-3.647c-0.374-0.45-0.695-0.938-1.005-1.41c-0.139-0.212-0.277-0.423-0.421-0.631
			l-0.089-0.129v-0.456l0.094-0.13c0.081-0.108,0.106-0.138,0.124-0.171c0.473-0.869,1.082-1.689,1.808-2.434
			C7.19,33.993,9.802,32.9,12.613,32.9c3.073,0,5.94,1.328,7.872,3.646c0.373,0.448,0.69,0.935,1,1.403
			c0.141,0.214,0.281,0.429,0.427,0.639L22,38.716v0.456l-0.154,0.213c-0.021,0.028-0.045,0.055-0.062,0.086
			c-0.479,0.879-1.089,1.699-1.81,2.438C18.042,43.893,15.43,44.984,12.62,44.984z M6.265,38.939
			c1.032,1.399,2.241,2.369,3.611,2.898c-0.249-0.168-0.483-0.361-0.702-0.581c-1.101-1.1-1.593-2.407-1.474-3.897
			C7.141,37.825,6.666,38.348,6.265,38.939z M17.55,37.374c0.078,1.171-0.241,2.292-0.944,3.246
			c-0.354,0.479-0.783,0.889-1.262,1.214c1.426-0.523,2.641-1.492,3.629-2.893C18.575,38.355,18.104,37.837,17.55,37.374z
			 M10.944,36.018c-0.626,0-1.134,0.492-1.155,1.119c-0.021,0.629,0.482,1.163,1.121,1.19c0.001,0,0.002,0,0.003,0
			c0.669,0,1.187-0.507,1.2-1.13c0.015-0.631-0.493-1.16-1.134-1.18l-0.035-0.5V36.018z"/>
		<path fill="#FFFFFF" d="M12.613,33.4c2.788,0,5.569,1.164,7.487,3.466c0.521,0.625,0.937,1.336,1.4,2.006c0,0.048,0,0.094,0,0.14
			c-0.053,0.074-0.111,0.143-0.154,0.221c-0.469,0.856-1.047,1.629-1.729,2.328c-1.906,1.957-4.454,2.924-6.996,2.924
			c-2.789,0-5.57-1.164-7.488-3.467c-0.519-0.623-0.935-1.334-1.398-2.006c0-0.046,0-0.092,0-0.14
			c0.051-0.072,0.111-0.142,0.154-0.22c0.467-0.856,1.048-1.629,1.729-2.327C7.522,34.368,10.071,33.4,12.613,33.4 M10.957,38.828
			c0.895,0,1.636-0.717,1.656-1.62c0.021-0.908-0.7-1.662-1.618-1.69c-0.018,0-0.034,0-0.051,0c-0.889,0-1.624,0.707-1.655,1.603
			c-0.031,0.907,0.682,1.668,1.601,1.706C10.912,38.827,10.935,38.828,10.957,38.828 M8.418,36.23
			c-1.126,0.699-2.006,1.549-2.683,2.604c-0.043,0.068,0.008,0.239,0.069,0.324c1.73,2.382,3.953,3.652,6.69,3.652
			c0.509,0,1.035-0.043,1.579-0.133c2.308-0.376,4.077-1.652,5.39-3.568c0.051-0.072,0.066-0.229,0.023-0.299
			c-0.676-1.041-1.551-1.881-2.657-2.574c1.052,3.388-1.672,5.928-4.062,5.928c-0.003,0-0.004,0-0.007,0
			c-1.252-0.003-2.349-0.376-3.232-1.262C8.229,39.604,7.898,38.041,8.418,36.23 M12.613,32.4c-2.947,0-5.686,1.146-7.713,3.227
			c-0.757,0.777-1.393,1.635-1.89,2.548l-0.024,0.026L2.92,38.29l-0.187,0.261v0.321v0.14v0.312L2.91,39.58
			c0.142,0.205,0.278,0.413,0.415,0.621c0.317,0.484,0.646,0.984,1.037,1.456c2.026,2.433,5.036,3.827,8.258,3.827
			c2.946,0,5.685-1.146,7.712-3.226c0.753-0.772,1.391-1.629,1.891-2.546l0.021-0.023l0.072-0.098l0.184-0.261v-0.319v-0.14v-0.312
			l-0.178-0.258c-0.145-0.207-0.281-0.417-0.42-0.628c-0.316-0.481-0.644-0.978-1.033-1.446C18.843,33.795,15.834,32.4,12.613,32.4
			L12.613,32.4z M10.959,37.828c-0.395-0.016-0.683-0.318-0.671-0.676c0.013-0.35,0.307-0.635,0.656-0.635h0.051
			c0.336,0.01,0.627,0.31,0.618,0.666C11.605,37.539,11.312,37.827,10.959,37.828L10.959,37.828z M17.68,39.717
			c0.155-0.389,0.266-0.792,0.325-1.207c0.122,0.139,0.238,0.279,0.349,0.426C18.139,39.217,17.914,39.479,17.68,39.717
			L17.68,39.717z M6.886,38.93c0.107-0.143,0.221-0.281,0.34-0.416c0.053,0.394,0.149,0.773,0.29,1.139
			C7.3,39.43,7.09,39.189,6.886,38.93L6.886,38.93z"/>
	</g>
	<g>
		<path d="M17.793,45.001c-0.4,0-0.777-0.155-1.061-0.438l-3.939-3.94l-3.939,3.938C8.57,44.844,8.193,45,7.793,45
			s-0.777-0.156-1.061-0.439C6.448,44.277,6.293,43.9,6.293,43.5s0.156-0.777,0.439-1.061l3.94-3.939l-3.94-3.939
			C6.449,34.277,6.293,33.9,6.293,33.5s0.156-0.777,0.439-1.061C7.015,32.154,7.393,32,7.793,32s0.777,0.156,1.061,0.439
			l3.939,3.938l3.939-3.938C17.016,32.156,17.393,32,17.793,32s0.777,0.156,1.061,0.439c0.285,0.283,0.439,0.66,0.439,1.061
			s-0.156,0.777-0.439,1.061L14.914,38.5l3.939,3.939c0.282,0.283,0.438,0.66,0.438,1.062s-0.156,0.776-0.438,1.062
			C18.57,44.846,18.193,45.001,17.793,45.001z"/>
		<path fill="#FFFFFF" d="M17.793,32.5c0.256,0,0.512,0.098,0.707,0.293c0.391,0.391,0.391,1.023,0,1.414L14.207,38.5l4.293,4.294
			c0.391,0.392,0.391,1.022,0,1.414c-0.195,0.194-0.451,0.293-0.707,0.293s-0.512-0.099-0.707-0.293l-4.293-4.294L8.5,44.207
			C8.305,44.402,8.049,44.5,7.793,44.5s-0.512-0.098-0.707-0.293c-0.391-0.391-0.391-1.023,0-1.414l4.293-4.293l-4.293-4.293
			c-0.391-0.391-0.391-1.023,0-1.414C7.281,32.598,7.537,32.5,7.793,32.5s0.512,0.098,0.707,0.293l4.293,4.293l4.293-4.293
			C17.281,32.598,17.537,32.5,17.793,32.5 M17.793,31.5c-0.534,0-1.036,0.208-1.414,0.586l-3.586,3.586l-3.586-3.586
			C8.829,31.708,8.327,31.5,7.793,31.5s-1.036,0.208-1.414,0.586s-0.586,0.88-0.586,1.414s0.208,1.036,0.586,1.414L9.965,38.5
			l-3.586,3.586c-0.378,0.378-0.586,0.88-0.586,1.414s0.208,1.036,0.586,1.414S7.259,45.5,7.793,45.5s1.036-0.208,1.414-0.586
			l3.586-3.586l3.586,3.587c0.378,0.378,0.88,0.586,1.414,0.586s1.036-0.208,1.414-0.586s0.586-0.88,0.586-1.414
			s-0.208-1.036-0.586-1.414L15.621,38.5l3.586-3.586c0.378-0.378,0.586-0.88,0.586-1.414s-0.208-1.036-0.586-1.414
			S18.327,31.5,17.793,31.5L17.793,31.5z"/>
	</g>
</g>
</svg>
