<?xml version="1.0" encoding="utf-8"?>
<!-- Generator: Adobe Illustrator 16.0.0, SVG Export Plug-In . SVG Version: 6.00 Build 0)  -->
<!DOCTYPE svg PUBLIC "-//W3C//DTD SVG 1.1//EN" "http://www.w3.org/Graphics/SVG/1.1/DTD/svg11.dtd">
<svg version="1.1" id="Layer_1" xmlns="http://www.w3.org/2000/svg" xmlns:xlink="http://www.w3.org/1999/xlink" x="0px" y="0px"
	 width="30px" height="30px" viewBox="-0.5 0.5 30 30" enable-background="new -0.5 0.5 30 30" xml:space="preserve">
<g id="Layer_2" opacity="0.92">
	<rect x="-0.5" y="0.5" fill="#FFFFFF" width="30" height="30"/>
</g>
<g id="Layer_1_1_">
	<g>
		<line fill="#7F7F7F" x1="9.5" y1="6.5" x2="9.5" y2="22.5"/>
	</g>
	<g>
		<path fill="#7F7F7F" d="M18.5,4.5h-4h-1h-6v20h6h1h8v-16L18.5,4.5z M20.5,22.5h-6h-1h-4v-16h4h1h2v3v1h1h3V22.5z M20.5,9.5h-3v-3
			h0.172L20.5,9.329V9.5z"/>
		<path fill="#7F7F7F" d="M14.515,12.248c-0.496-0.498-1.141-0.748-1.773-0.748c-0.585,0-1.159,0.215-1.592,0.651
			c-0.904,0.901-0.859,2.408,0.098,3.367l3.336,3.334l0.748,0.748l0.066,0.064c0.498,0.497,1.14,0.747,1.771,0.747
			c0.585,0,1.158-0.211,1.594-0.646c0.902-0.901,0.857-2.408-0.1-3.365l-0.066-0.068l-0.748-0.747l-2.521-2.521L14.515,12.248z
			 M15.442,18.238l-2.696-2.695l1.796-1.797l2.696,2.695L15.442,18.238z"/>
	</g>
</g>
</svg>
