<?xml version="1.0" encoding="utf-8"?>
<!-- Generator: Adobe Illustrator 16.0.0, SVG Export Plug-In . SVG Version: 6.00 Build 0)  -->
<!DOCTYPE svg PUBLIC "-//W3C//DTD SVG 1.1//EN" "http://www.w3.org/Graphics/SVG/1.1/DTD/svg11.dtd">
<svg version="1.1" xmlns="http://www.w3.org/2000/svg" xmlns:xlink="http://www.w3.org/1999/xlink" x="0px" y="0px" width="30px"
	 height="30px" viewBox="0 27.5 30 30" enable-background="new 0 27.5 30 30" xml:space="preserve">
<g id="Layer_2">
	<rect y="27.5" width="30" height="30"/>
</g>
<g id="Layer_1">
	<path fill="#FFFFFF" d="M26.459,41.32l-4.822,4.822l-0.939,0.787l-0.312-0.312l-0.396-0.396l-0.312-0.312l-0.398-0.4l-3.485-3.483
		l-0.708-0.709l-0.09-0.09l-0.617-0.617l-0.09-0.09l-0.293-0.293l8.727-8.729h-2.83l-8.02,8.02
		c-0.188,0.188-0.293,0.442-0.293,0.707c0,0.267,0.105,0.521,0.293,0.707l0.293,0.293l-3.333,3.334
		c-0.188,0.188-0.293,0.441-0.293,0.707s0.105,0.521,0.293,0.707l0.239,0.239l-5.299,5.599c-0.274,0.291-0.35,0.717-0.192,1.084
		C3.739,53.262,4.101,53.5,4.5,53.5h8c0.235,0,0.463-0.083,0.643-0.234l1.623-1.358l0.164,0.163
		c0.195,0.195,0.451,0.294,0.707,0.294s0.512-0.099,0.707-0.294l3.333-3.331l0.39,0.389c0.188,0.188,0.44,0.293,0.707,0.293
		c0.266,0,0.52-0.104,0.707-0.293l5.02-5.022v-2.826L26.459,41.32z M16.137,49.449l-0.544,0.457l-0.71-0.711l-3.02-3.021
		l-0.708-0.707l-0.201-0.2l2.626-2.627l0.129,0.129l0.707,0.707l3.323,3.323l0.522,0.523L16.137,49.449z"/>
</g>
</svg>
