<?xml version="1.0" encoding="utf-8"?>
<!-- Generator: Adobe Illustrator 16.0.0, SVG Export Plug-In . SVG Version: 6.00 Build 0)  -->
<!DOCTYPE svg PUBLIC "-//W3C//DTD SVG 1.1//EN" "http://www.w3.org/Graphics/SVG/1.1/DTD/svg11.dtd">
<svg version="1.1" xmlns="http://www.w3.org/2000/svg" xmlns:xlink="http://www.w3.org/1999/xlink" x="0px" y="0px" width="30px"
	 height="30px" viewBox="-7.5 26.5 30 30" enable-background="new -7.5 26.5 30 30" xml:space="preserve">
<g id="Layer_2">
	<rect x="-7.5" y="26.5" width="30" height="30"/>
</g>
<g id="Layer_1">
	<g>
		<path fill="#FFFFFF" d="M8.146,51.5c-0.844,0-1.571,0-2.375,0c0-3.842,0-7.676,0-11.587c-0.791,0-1.513,0-2.271,0
			c0-0.647,0-1.22,0-1.849c0.729,0,1.432,0,2.236,0c0-0.295,0-0.535,0-0.774c0-0.67-0.015-1.34,0.003-2.008
			c0.053-2.033,1.211-3.283,3.227-3.453c0.474-0.039,0.964-0.003,1.437,0.063c0.894,0.129,0.894,0.147,0.826,1.028
			c-0.029,0.373-0.072,0.744-0.106,1.091c-0.487-0.059-0.94-0.16-1.394-0.16c-0.959,0.004-1.508,0.479-1.574,1.428
			c-0.061,0.891-0.014,1.789-0.014,2.748c0.981,0,1.938,0,2.939,0c0,0.632,0,1.203,0,1.841c-0.957,0-1.908,0-2.934,0
			C8.146,43.768,8.146,47.602,8.146,51.5z"/>
	</g>
</g>
</svg>
