<?xml version="1.0" encoding="utf-8"?>
<!-- Generator: Adobe Illustrator 16.0.0, SVG Export Plug-In . SVG Version: 6.00 Build 0)  -->
<!DOCTYPE svg PUBLIC "-//W3C//DTD SVG 1.1//EN" "http://www.w3.org/Graphics/SVG/1.1/DTD/svg11.dtd">
<svg version="1.1" id="Layer_1" xmlns="http://www.w3.org/2000/svg" xmlns:xlink="http://www.w3.org/1999/xlink" x="0px" y="0px"
	 width="30px" height="30px" viewBox="-0.5 0.5 30 30" enable-background="new -0.5 0.5 30 30" xml:space="preserve">
<rect x="5.75" y="2.5" opacity="0.92" fill="#FFFFFF" width="19.083" height="23.5"/>
<g>
	<path fill="#7F7F7F" d="M16.5,10.5v-1v-3h-2h-1h-4v16h4h1h6v-12h-3H16.5z M18.598,16.332l0.066,0.068
		c0.957,0.957,1.002,2.464,0.1,3.365c-0.436,0.435-1.009,0.646-1.594,0.646c-0.632,0-1.273-0.25-1.771-0.747L15.332,19.6
		l-0.748-0.748l-3.336-3.334c-0.957-0.958-1.002-2.466-0.098-3.367c0.433-0.436,1.007-0.651,1.592-0.651
		c0.632,0,1.277,0.25,1.773,0.748l0.813,0.816l2.521,2.521L18.598,16.332z"/>
	<polygon fill="#7F7F7F" points="17.5,6.5 17.5,9.5 20.5,9.5 20.5,9.329 17.672,6.5 	"/>
	
		<rect x="13.086" y="14.722" transform="matrix(-0.7072 -0.707 0.707 -0.7072 14.2875 37.9017)" fill="#7F7F7F" width="3.812" height="2.54"/>
	<path fill="#7F7F7F" d="M-0.5,0.5v30h30v-30H-0.5z M22.5,24.5h-8h-1h-6v-20h6h1h4l4,4V24.5z"/>
</g>
</svg>
