<?xml version="1.0" encoding="utf-8"?>
<!-- Generator: Adobe Illustrator 16.0.0, SVG Export Plug-In . SVG Version: 6.00 Build 0)  -->
<!DOCTYPE svg PUBLIC "-//W3C//DTD SVG 1.1//EN" "http://www.w3.org/Graphics/SVG/1.1/DTD/svg11.dtd">
<svg version="1.1" xmlns="http://www.w3.org/2000/svg" xmlns:xlink="http://www.w3.org/1999/xlink" x="0px" y="0px" width="30px"
	 height="30px" viewBox="-6 26.5 30 30" enable-background="new -6 26.5 30 30" xml:space="preserve">
<g id="Layer_2">
	<rect x="-6" y="26.5" width="30" height="30"/>
</g>
<g id="Layer_1">
	<g>
		<path fill="#FFFFFF" d="M11.738,39.958c0,0.325,0,0.579,0,0.899c-1.26,0-2.504,0-3.771,0c-0.026,0.201-0.062,0.336-0.061,0.474
			c0.015,2.833,0.037,5.667,0.048,8.501c0.002,0.534,0.234,0.838,0.766,0.91c0.495,0.068,0.992,0.137,1.514,0.209
			c0,0.191,0,0.346,0,0.549c-2.234,0-4.47,0-6.734,0c0-0.18,0-0.35,0-0.559c0.314-0.051,0.61-0.101,0.906-0.148
			c0.872-0.146,1.094-0.4,1.098-1.296c0.014-2.288,0.021-4.576,0.031-6.864c0.002-0.562,0-1.126,0-1.734
			c-0.645-0.071-1.241-0.137-1.891-0.207c0-0.209,0-0.435,0-0.729c0.6,0,1.197,0,1.835,0c0.065-0.943,0.089-1.826,0.194-2.699
			c0.173-1.425,0.525-2.783,1.609-3.837c1.509-1.467,4.542-1.856,6.339-0.757c0.322,0.198,0.627,0.536,0.779,0.88
			c0.258,0.585-0.008,1.19-0.517,1.464c-0.487,0.262-1.176,0.107-1.569-0.408c-0.23-0.301-0.388-0.66-0.58-0.991
			c-0.562-0.951-1.426-1.12-2.293-0.433c-0.791,0.633-1.149,1.537-1.272,2.482c-0.166,1.279-0.179,2.579-0.267,3.869
			c-0.025,0.374,0.171,0.432,0.483,0.429C9.479,39.951,10.572,39.958,11.738,39.958z"/>
	</g>
</g>
</svg>
