<?xml version="1.0" encoding="utf-8"?>
<!-- Generator: Adobe Illustrator 16.0.0, SVG Export Plug-In . SVG Version: 6.00 Build 0)  -->
<!DOCTYPE svg PUBLIC "-//W3C//DTD SVG 1.1//EN" "http://www.w3.org/Graphics/SVG/1.1/DTD/svg11.dtd">
<svg version="1.1" xmlns="http://www.w3.org/2000/svg" xmlns:xlink="http://www.w3.org/1999/xlink" x="0px" y="0px" width="30px"
	 height="30px" viewBox="-5.5 26 30 30" enable-background="new -5.5 26 30 30" xml:space="preserve">
<g id="Layer_2">
	<rect x="-5.5" y="26" width="30" height="30"/>
</g>
<g id="Layer_1">
	<g>
		<path fill="#FFFFFF" d="M7.488,36.48c0-0.901-0.025-1.668,0.006-2.433c0.062-1.58,0.861-2.454,2.438-2.513
			c1.783-0.067,3.572-0.016,5.414-0.016c0,0.617,0,1.234,0,1.931c-1.359,0-2.71-0.002-4.061,0.002c-0.294,0.001-0.592,0-0.879,0.046
			c-0.539,0.085-0.85,0.41-0.858,0.967c-0.014,0.631-0.003,1.262-0.003,1.975c1.946,0,3.855,0,5.811,0c0,0.703,0,1.322,0,2.017
			c-1.918,0-3.828,0-5.797,0c0,4.048,0,8.021,0,12.044c-0.722,0-1.383,0-2.11,0c0-4.002,0-7.977,0-12.016c-1.344,0-2.623,0-3.947,0
			c0-0.684,0-1.301,0-2.004C4.796,36.48,6.076,36.48,7.488,36.48z"/>
	</g>
</g>
</svg>
