<?xml version="1.0" encoding="utf-8"?>
<!-- Generator: Adobe Illustrator 16.0.0, SVG Export Plug-In . SVG Version: 6.00 Build 0)  -->
<!DOCTYPE svg PUBLIC "-//W3C//DTD SVG 1.1//EN" "http://www.w3.org/Graphics/SVG/1.1/DTD/svg11.dtd">
<svg version="1.1" id="Layer_1" xmlns="http://www.w3.org/2000/svg" xmlns:xlink="http://www.w3.org/1999/xlink" x="0px" y="0px"
	 width="30px" height="30px" viewBox="-0.5 0.5 30 30" enable-background="new -0.5 0.5 30 30" xml:space="preserve">
<rect x="5.5" y="2.917" opacity="0.92" fill="#FFFFFF" width="19.083" height="23.833"/>
<g>
	<polygon fill="#7F7F7F" points="17.5,6.5 17.5,9.5 20.5,9.5 20.5,9.329 17.672,6.5 	"/>
	<path fill="#7F7F7F" d="M11.253,13.948l2.047,2.045l2.048-2.045c0.194-0.195,0.512-0.195,0.707,0l2.047,2.045l2.398-2.398V10.5h-3
		h-1v-1v-3h-2h-5v8.42l1.057-0.983C10.754,13.751,11.062,13.756,11.253,13.948z M10.5,7.5h5v1h-5V7.5z M10.5,9.5h5v1h-5V9.5z
		 M10.5,11.5h8v1h-8V11.5z"/>
	<path fill="#7F7F7F" d="M17.748,17.055l-2.047-2.047l-2.049,2.045c-0.194,0.195-0.511,0.195-0.707,0l-2.057-2.056L9.5,16.288V22.5
		h5h6.001v-7.491l-2.046,2.046C18.26,17.249,17.941,17.249,17.748,17.055z M18.5,21.5h-8v-1h8V21.5z M18.5,19.5h-8v-1h8V19.5z"/>
	<path fill="#7F7F7F" d="M-0.5,0.5v30h30v-30H-0.5z M22.5,24.5h-8h-7v-20h7h4l4,4V24.5z"/>
</g>
</svg>
