<?xml version="1.0" encoding="utf-8"?>
<!-- Generator: Adobe Illustrator 16.0.0, SVG Export Plug-In . SVG Version: 6.00 Build 0)  -->
<!DOCTYPE svg PUBLIC "-//W3C//DTD SVG 1.1//EN" "http://www.w3.org/Graphics/SVG/1.1/DTD/svg11.dtd">
<svg version="1.1" id="Layer_1" xmlns="http://www.w3.org/2000/svg" xmlns:xlink="http://www.w3.org/1999/xlink" x="0px" y="0px"
	 width="30px" height="30px" viewBox="0 0 30 30" enable-background="new 0 0 30 30" xml:space="preserve">
<g>
	<rect width="30" height="30"/>
	<g>
		<path fill="#FFFFFF" d="M7.19,17.499v-2.353l-0.043-2.428c-0.015-0.279-0.064-0.469-0.15-0.569
			c-0.086-0.1-0.301-0.179-0.645-0.236l-1.01-0.161v-0.505h5.854v0.505l-0.924,0.161c-0.358,0.058-0.595,0.147-0.709,0.269
			c-0.114,0.122-0.183,0.34-0.204,0.655c-0.021,0.315-0.032,1.085-0.032,2.31v2.353l0.043,2.729c0.015,0.279,0.064,0.47,0.15,0.569
			c0.086,0.101,0.297,0.183,0.634,0.247l1.021,0.15v0.505H5.321v-0.505l0.924-0.15c0.351-0.05,0.584-0.14,0.698-0.269
			s0.183-0.305,0.204-0.526C7.176,19.454,7.19,18.537,7.19,17.499z"/>
		<path fill="#FFFFFF" d="M14.581,8.746c0-1.106,0.439-2.026,1.319-2.759c0.888-0.733,2.051-1.1,3.489-1.1s2.549,0.28,3.331,0.84
			c0.782,0.567,1.178,1.32,1.185,2.26c0,1.615-1.194,3.003-3.584,4.166l0.936,0.526c1.19,0.673,2.059,1.367,2.604,2.083
			c0.546,0.716,0.818,1.546,0.818,2.491c-0.007,1.217-0.517,2.312-1.529,3.285C22.137,21.514,20.849,22,19.285,22
			c-1.564,0-2.866-0.393-3.907-1.18c-1.032-0.793-1.549-1.854-1.549-3.184c0-0.926,0.322-1.781,0.967-2.57
			c0.644-0.788,1.536-1.422,2.677-1.902c-0.949-0.544-1.67-1.201-2.163-1.967C14.824,10.431,14.581,9.613,14.581,8.746z
			 M15.655,17.529c0,1.146,0.306,2.042,0.919,2.688c0.62,0.645,1.468,0.967,2.543,0.967s1.907-0.279,2.497-0.838
			c0.589-0.56,0.884-1.294,0.884-2.204c0-0.659-0.164-1.251-0.493-1.774c-0.329-0.522-1.004-1.088-2.025-1.698l-2.015-1.215
			c-0.766,0.452-1.345,1.054-1.734,1.806C15.84,16.014,15.648,16.77,15.655,17.529z M22.165,8.327c0-1.749-0.907-2.623-2.724-2.623
			c-1.814,0-2.723,0.763-2.723,2.29c0,1.412,0.971,2.666,2.912,3.763l0.262,0.161C21.407,10.871,22.165,9.674,22.165,8.327z"/>
	</g>
</g>
</svg>
