<?xml version="1.0" encoding="utf-8"?>
<!-- Generator: Adobe Illustrator 16.0.0, SVG Export Plug-In . SVG Version: 6.00 Build 0)  -->
<!DOCTYPE svg PUBLIC "-//W3C//DTD SVG 1.1//EN" "http://www.w3.org/Graphics/SVG/1.1/DTD/svg11.dtd">
<svg version="1.1" id="Layer_1" xmlns="http://www.w3.org/2000/svg" xmlns:xlink="http://www.w3.org/1999/xlink" x="0px" y="0px"
	 width="80px" height="80px" viewBox="0 0 80 80" enable-background="new 0 0 80 80" xml:space="preserve">
<polygon opacity="0.92" fill="#FFFFFF" points="20.333,53.334 63.333,6.167 5,4 8.333,58.334 "/>
<g>
	<path fill="#7F7F7F" d="M0,0v80L80,0H0z M23.098,7.65l4.365,0.505l-0.82,7.104l-4.413-0.106L23.098,7.65z M7.527,13.788
		c0.091-0.844,0.402-2.761,1.944-4.481c2.202-2.483,4.878-2.388,6.097-2.254c3.164,0.348,4.871,2.206,5.54,3.175
		c0.361,0.517,0.521,0.873,0.757,1.436l-3.877,1.425c-0.043-0.145-0.107-0.291-0.151-0.435c-0.183-0.498-0.714-2.009-2.485-2.183
		c-0.805-0.089-1.349,0.15-1.646,0.316c-1.489,0.871-1.649,2.883-1.688,3.237c-0.071,0.634-0.057,1.169,0.007,1.632l-4.504-0.085
		C7.442,14.803,7.485,14.163,7.527,13.788z M12.918,16.817c0.231,0.916,0.649,1.501,1.098,1.858
		c0.691,0.534,1.324,0.554,1.662,0.554c1.522,0,2.235-1.029,2.51-1.503c0.099-0.198,0.178-0.376,0.317-0.792l3.777,1.82
		c-0.494,0.91-0.751,1.266-1.087,1.661c-0.831,0.949-2.611,2.373-5.716,2.373c-1.78,0-3.362-0.435-4.727-1.602
		c-1.442-1.21-2.06-2.738-2.322-3.962L12.918,16.817z M22.26,35.48c-0.098,0.884-0.364,1.611-0.77,2.402
		c-1.241,2.409-3.929,3.089-6.405,2.815c-0.512-0.057-1.866-0.246-3.175-1.007c-0.56-0.321-1.865-1.161-2.325-2.943
		c-0.178-0.716-0.145-1.289,0.016-2.744l0.347-3.141l3.362,0.063l-2.796-0.658l1.648-4.933l4.168,1.393l-1.521,4.551l-0.474-0.111
		l-0.414,3.751c-0.016,0.137-0.117,0.623-0.008,1.073c0.236,1.1,1.304,1.278,1.619,1.312c0.294,0.033,1.453,0.102,1.961-0.897
		c0.175-0.339,0.313-0.642,0.359-1.055l0.477-4.319l4.413,0.081L22.26,35.48z M35.548,32.103c-0.141,0.487-0.737,2.045-2.233,2.734
		c-0.803,0.379-1.621,0.571-2.49,0.636l-3.239,0.246l0.331,4.383l-4.381,0.331l-0.769-10.144l4.353-0.732l0.234,3.095l2.352-0.179
		c0.058-0.004,0.491-0.072,0.779-0.193c0.384-0.168,0.961-0.664,0.877-1.768c-0.012-0.159-0.043-0.573-0.29-0.95
		c-0.196-0.3-0.458-0.467-0.72-0.562l4.916-0.813c0.362,0.768,0.435,1.515,0.463,1.877C35.752,30.34,35.801,31.252,35.548,32.103z
		 M30.941,27.555c-0.411-0.108-0.795-0.009-0.938,0.014l-2.307,0.384l0.066,0.407l-4.269,1.115L23,26.505v3.437l-5,0.403V26h4.916
		l-0.06-0.362l7.677-1.276c1.347-0.223,2.619-0.287,3.847,0.471c0.646,0.391,1.084,0.943,1.38,1.446L30.941,27.555z M35.424,15.003
		l-0.205-0.009l0.084,1.928c0.039,0.889-0.121,1.648-0.4,2.492c-0.859,2.571-3.42,3.651-5.909,3.759
		c-0.514,0.022-1.88,0.042-3.288-0.511c-0.603-0.23-2.016-0.862-2.744-2.553c-0.287-0.68-0.331-1.252-0.395-2.714l-0.035-0.807
		l4.374-0.592l0.071,1.644c0.006,0.137-0.081,0.636,0.096,1.064c0.402,1.051,1.422,1.067,1.738,1.053
		c0.296-0.013,1.345-0.118,1.695-1.182c0.123-0.362,0-0.673-0.018-1.088l-0.086-1.992l4.172-0.531l-3.996-0.188l0.883-6.745
		l4.794,0.628L35.424,15.003z M37.234,9.128l11.319-1.566l0.482,3.483l-3.482,0.482l0.285,2.064l-4.299,0.999l-0.34-2.461
		l-3.482,0.482L37.234,9.128z M42.146,23.214l-1.868-7.844l4.184-1.407l1.959,8.233L42.146,23.214z"/>
	<polygon fill="#FFFFFF" points="22.916,26 23,26.505 23,26 	"/>
</g>
</svg>
