<?xml version="1.0" encoding="utf-8"?>
<!-- Generator: Adobe Illustrator 16.0.0, SVG Export Plug-In . SVG Version: 6.00 Build 0)  -->
<!DOCTYPE svg PUBLIC "-//W3C//DTD SVG 1.1//EN" "http://www.w3.org/Graphics/SVG/1.1/DTD/svg11.dtd">
<svg version="1.1" id="Layer_1" xmlns="http://www.w3.org/2000/svg" xmlns:xlink="http://www.w3.org/1999/xlink" x="0px" y="0px"
	 width="30px" height="30px" viewBox="0 0 30 30" enable-background="new 0 0 30 30" xml:space="preserve">
<g>
	<rect width="30" height="30"/>
	<g>
		<rect x="3" y="14" fill="#FFFFFF" width="24" height="2"/>
		<g>
			<g>
				<path fill="#FFFFFF" d="M15.067,23.113c-0.904,0-1.667-0.09-2.333-0.274c-0.671-0.183-1.26-0.453-1.75-0.803
					c-0.485-0.347-0.906-0.768-1.251-1.252c-0.333-0.464-0.621-0.994-0.853-1.575l-0.183-0.457l3.026-1.264l0.205,0.429
					c0.152,0.316,0.324,0.61,0.511,0.874c0.179,0.254,0.394,0.479,0.64,0.669c0.237,0.184,0.527,0.331,0.86,0.439
					c0.335,0.108,0.725,0.163,1.156,0.163c0.895,0,1.576-0.167,2.026-0.495c0.413-0.301,0.605-0.675,0.605-1.181
					c0-0.384-0.11-0.681-0.339-0.907c-0.178-0.177-0.611-0.446-1.667-0.731l-1.992-0.507c-1.304-0.326-2.344-0.859-3.088-1.585
					c-0.781-0.759-1.177-1.814-1.177-3.138c0-0.593,0.129-1.176,0.383-1.733c0.252-0.556,0.63-1.059,1.124-1.492
					c0.485-0.426,1.083-0.771,1.778-1.025c0.695-0.253,1.484-0.381,2.346-0.381c0.816,0,1.553,0.093,2.19,0.276
					c0.641,0.186,1.2,0.434,1.661,0.738c0.47,0.31,0.869,0.68,1.189,1.1c0.311,0.408,0.574,0.848,0.786,1.31l0.212,0.46
					l-3.021,1.338l-0.219-0.409c-0.114-0.213-0.256-0.432-0.42-0.653c-0.151-0.205-0.33-0.383-0.547-0.547
					c-0.211-0.158-0.471-0.293-0.772-0.401c-0.298-0.106-0.646-0.16-1.033-0.16c-0.446,0-0.818,0.05-1.106,0.149
					c-0.283,0.097-0.511,0.216-0.679,0.356c-0.152,0.127-0.256,0.262-0.314,0.409c-0.067,0.167-0.1,0.332-0.1,0.504
					c0,0.474,0.133,0.809,0.405,1.025c0.336,0.268,0.88,0.495,1.617,0.675l2.327,0.595c1.336,0.33,2.329,0.871,2.945,1.607
					c0.624,0.748,0.94,1.669,0.94,2.739c0,1.532-0.559,2.786-1.659,3.728C18.419,22.646,16.929,23.113,15.067,23.113z"/>
				<path d="M15.095,7.386c0.773,0,1.458,0.086,2.052,0.257c0.594,0.172,1.103,0.396,1.525,0.675
					c0.423,0.279,0.778,0.607,1.066,0.985c0.288,0.379,0.531,0.783,0.729,1.215l-2.134,0.945c-0.125-0.233-0.279-0.473-0.459-0.715
					c-0.18-0.244-0.396-0.459-0.647-0.648c-0.253-0.189-0.554-0.347-0.904-0.473c-0.352-0.125-0.752-0.189-1.202-0.189
					c-0.504,0-0.927,0.059-1.269,0.176c-0.343,0.117-0.621,0.266-0.837,0.445c-0.216,0.181-0.369,0.383-0.459,0.607
					c-0.091,0.226-0.136,0.455-0.136,0.689c0,0.63,0.198,1.103,0.595,1.417c0.396,0.315,0.999,0.571,1.809,0.77l2.322,0.594
					c1.242,0.307,2.137,0.788,2.687,1.444c0.549,0.658,0.823,1.462,0.823,2.417c0,1.385-0.495,2.502-1.484,3.348
					c-0.99,0.846-2.358,1.268-4.104,1.268c-0.847,0-1.579-0.084-2.2-0.256c-0.621-0.17-1.152-0.414-1.594-0.729
					c-0.44-0.314-0.819-0.693-1.134-1.135c-0.315-0.439-0.58-0.932-0.796-1.471l2.133-0.891c0.162,0.338,0.346,0.654,0.554,0.947
					c0.206,0.293,0.454,0.553,0.742,0.775c0.287,0.223,0.625,0.395,1.013,0.52c0.387,0.125,0.823,0.188,1.31,0.188
					c1.008,0,1.781-0.197,2.321-0.592c0.541-0.393,0.811-0.92,0.811-1.584c0-0.518-0.162-0.939-0.486-1.262s-0.954-0.607-1.89-0.859
					l-1.998-0.509c-1.225-0.306-2.179-0.791-2.862-1.458c-0.685-0.665-1.026-1.593-1.026-2.78c0-0.522,0.112-1.031,0.338-1.525
					c0.225-0.496,0.558-0.937,0.999-1.324c0.44-0.387,0.98-0.697,1.62-0.932C13.56,7.504,14.284,7.386,15.095,7.386 M15.095,6.386
					c-0.92,0-1.767,0.138-2.516,0.411c-0.755,0.277-1.407,0.653-1.938,1.12c-0.548,0.481-0.968,1.041-1.25,1.663
					c-0.283,0.62-0.427,1.272-0.427,1.938c0,1.464,0.447,2.641,1.33,3.498c0.807,0.787,1.923,1.363,3.317,1.711l1.993,0.508
					c1.054,0.284,1.362,0.531,1.432,0.6c0.089,0.089,0.191,0.231,0.191,0.553c0,0.345-0.115,0.569-0.397,0.774
					c-0.36,0.264-0.959,0.401-1.734,0.401c-0.379,0-0.717-0.047-1.002-0.139c-0.279-0.091-0.517-0.211-0.708-0.358
					c-0.208-0.161-0.388-0.35-0.537-0.561c-0.173-0.244-0.33-0.513-0.47-0.805l-0.411-0.856l-0.876,0.366l-2.133,0.891l-0.909,0.38
					l0.366,0.915c0.247,0.617,0.554,1.184,0.912,1.682c0.375,0.527,0.835,0.987,1.365,1.365c0.539,0.385,1.182,0.68,1.911,0.88
					c0.707,0.195,1.514,0.291,2.464,0.291c1.983,0,3.583-0.507,4.754-1.507c1.218-1.041,1.835-2.424,1.835-4.108
					c0-1.19-0.355-2.219-1.056-3.058c-0.688-0.821-1.769-1.417-3.215-1.774l-2.314-0.592c-0.839-0.206-1.241-0.43-1.433-0.583
					c-0.061-0.049-0.218-0.173-0.218-0.635c0-0.107,0.021-0.21,0.063-0.316c0.028-0.07,0.086-0.141,0.173-0.214
					c0.119-0.099,0.294-0.189,0.519-0.266c0.236-0.081,0.554-0.122,0.945-0.122c0.33,0,0.622,0.044,0.867,0.132
					c0.252,0.09,0.468,0.202,0.64,0.331c0.176,0.132,0.321,0.277,0.441,0.441c0.155,0.209,0.283,0.408,0.383,0.594l0.438,0.818
					l0.849-0.376l2.134-0.945l0.927-0.41l-0.423-0.921c-0.228-0.494-0.511-0.966-0.843-1.403c-0.355-0.466-0.796-0.874-1.312-1.214
					c-0.505-0.333-1.109-0.602-1.798-0.801C16.741,6.486,15.958,6.386,15.095,6.386L15.095,6.386z"/>
			</g>
		</g>
	</g>
</g>
</svg>
