<?xml version="1.0" encoding="utf-8"?>
<!-- Generator: Adobe Illustrator 16.0.0, SVG Export Plug-In . SVG Version: 6.00 Build 0)  -->
<!DOCTYPE svg PUBLIC "-//W3C//DTD SVG 1.1//EN" "http://www.w3.org/Graphics/SVG/1.1/DTD/svg11.dtd">
<svg version="1.1" id="Layer_1" xmlns="http://www.w3.org/2000/svg" xmlns:xlink="http://www.w3.org/1999/xlink" x="0px" y="0px"
	 width="30px" height="30px" viewBox="-0.5 0.5 30 30" enable-background="new -0.5 0.5 30 30" xml:space="preserve">
<rect x="1.625" y="3.312" opacity="0.92" fill="#FFFFFF" width="26.375" height="24.062"/>
<g>
	<path fill="#7F7F7F" d="M-0.5,0.5v30h30v-30H-0.5z M14.545,24.5c-1.412-1.414-2.537-2.49-4.045-4c0.699,0,1.11,0,2,0
		c0-2.057,0-4.943,0-7c1.381,0,2.617,0,4,0c0,2.021,0,4.926,0,7c0.898,0,1.254,0,2,0C16.973,22.023,15.979,23.072,14.545,24.5z
		 M25.512,16.925c-1.172,1.943-3.092,2.796-5.6,2.535l-0.59-0.046v-2.143l1.299,0.007c0.125,0,0.251-0.002,0.376-0.007
		c1.585-0.045,2.914-1.244,3.028-2.728c0.134-1.694-0.924-3.082-2.57-3.373c-0.59-0.103-1.169-0.024-1.74,0.233
		c-0.168,0.076-0.332,0.16-0.511,0.248l-0.831,0.409l-0.404-1.263c-0.757-2.364-2.943-3.834-5.423-3.552
		C10.197,7.51,8.349,9.47,8.151,11.908c-0.039,0.465-0.263,0.765-0.705,0.95c-1.114,0.459-1.701,1.454-1.498,2.541
		c0.21,1.127,1.14,1.858,2.371,1.872l0.641,0.003h0.363v2.125l0.049,0.047c-0.384,0.039-0.749,0.062-1.097,0.062
		c-1.64,0-2.791-0.576-3.732-1.872c-0.745-1.026-1.02-2.276-0.772-3.517c0.246-1.235,1.005-2.321,2.083-2.979
		c0.055-0.032,0.131-0.137,0.144-0.194c0.78-3.544,3.434-5.82,6.929-5.939c2.908-0.097,5.226,1.279,6.707,3.971
		c0.017,0.024,0.027,0.05,0.041,0.074c2.444-0.49,4.375,0.267,5.699,2.215C26.583,13.044,26.633,15.053,25.512,16.925z"/>
</g>
</svg>
