<?xml version="1.0" encoding="utf-8"?>
<!-- Generator: Adobe Illustrator 16.0.0, SVG Export Plug-In . SVG Version: 6.00 Build 0)  -->
<!DOCTYPE svg PUBLIC "-//W3C//DTD SVG 1.1//EN" "http://www.w3.org/Graphics/SVG/1.1/DTD/svg11.dtd">
<svg version="1.1" id="Layer_1" xmlns="http://www.w3.org/2000/svg" xmlns:xlink="http://www.w3.org/1999/xlink" x="0px" y="0px"
	 width="17px" height="161px" viewBox="0 0 17 161" enable-background="new 0 0 17 161" xml:space="preserve">
<g opacity="0.1">
	<polygon fill="#FFFFFF" points="4,68 4,65 4,64 3,64 2,64 1,64 1,65 1,74 1,75 2,75 3,75 4,75 4,74 4,71 15,71 16,71 16,70 16,69 
		16,68 15,68 	"/>
	<polygon fill="#FFFFFF" points="15,5 4,5 4,2 4,1 3,1 2,1 1,1 1,2 1,11 1,12 1,13 1,14 1,15 2,15 12.197,15 13,15.535 13,17.465 
		12.197,18 2,18 1,18 1,19 1,20 1,21 2,21 13,21 13.333,21 13.6,20.8 15.6,19.3 16,19 16,18.5 16,14.5 16,14 15.6,13.7 13.6,12.2 
		13.333,12 13,12 4,12 4,11 4,8 15,8 16,8 16,7 16,6 16,5 	"/>
	<polygon fill="#FFFFFF" points="14,87 13,87 13,88 13,92.086 12.086,93 10,93 10,89 10,88 9,88 8,88 7,88 7,89 7,93 4,93 4,88 
		4,87 3,87 2,87 1,87 1,88 1,95 1,96 1,97 1,106 1,107 2,107 3,107 4,107 4,106 4,103 15,103 16,103 16,102 16,101 16,100 15,100 
		4,100 4,97 4,96 13,96 13.414,96 13.707,95.707 15.707,93.707 16,93.414 16,93 16,88 16,87 15,87 	"/>
	<polygon fill="#FFFFFF" points="8.779,78.672 2.424,75.693 1,75.025 1,76.6 1,77.805 1,78.441 1.576,78.711 5.15,80.382 
		1.574,82.066 1,82.336 1,82.971 1,84.159 1,85.729 2.422,85.064 8.779,82.104 14.545,85.05 16,85.793 16,84.159 16,82.971 
		16,82.369 15.469,82.087 12.254,80.382 15.466,78.689 16,78.408 16,77.805 16,76.6 16,74.961 14.543,75.71 	"/>
	<polygon fill="#FFFFFF" points="14,43 13,43 13,44 13,46 4,46 4,44 4,43 3,43 2,43 1,43 1,44 1,51 1,52 2,52 3,52 4,52 4,51 4,49 
		13,49 13,51 13,52 14,52 15,52 16,52 16,51 16,44 16,43 15,43 	"/>
	<polygon fill="#FFFFFF" points="2,32 1,32 1,33 1,34 1,35 2,35 9.092,35 1.568,38.598 1,38.87 1,39.5 1,41 1,42 2,42 15,42 16,42 
		16,41 16,40 16,39 15,39 7.909,39 15.432,35.402 16,35.13 16,34.5 16,33 16,32 15,32 	"/>
	<path fill="#FFFFFF" d="M11.739,28L6.75,22.339L6.452,22H6H4H3.764l-0.211,0.105l-2,1L1,23.382V24v6v1h1h13h1v-1v-1v-1h-1H11.739z
		 M4,28v-2.882L4.236,25h0.819l2.7,3H4z"/>
</g>
<g>
	<g>
		<polygon fill="#FFFFFF" points="3,97 2,97 2,106 3,106 3,102 15,102 15,101 3,101 		"/>
	</g>
	<g>
		<polygon fill="#FFFFFF" points="3,65 2,65 2,74 3,74 3,70 15,70 15,69 3,69 		"/>
	</g>
	<g>
		<polygon fill="#FFFFFF" points="3,6 3,2 2,2 2,11 3,11 3,7 15,7 15,6 		"/>
	</g>
	<g>
		<polygon fill="#FFFFFF" points="14,92.5 12.5,94 9,94 9,89 8,89 8,94 3,94 3,88 2,88 2,95 13,95 15,93 15,88 14,88 		"/>
	</g>
	<g>
		<polygon fill="#FFFFFF" points="2,76.6 2,77.805 7.504,80.379 2,82.971 2,84.159 8.8,80.991 15,84.159 15,82.971 10.114,80.379 
			15,77.805 15,76.6 8.8,79.786 		"/>
	</g>
	<g>
		<polygon fill="#FFFFFF" points="14,47 3,47 3,44 2,44 2,51 3,51 3,48 14,48 14,51 15,51 15,44 14,44 		"/>
	</g>
	<g>
		<polygon fill="#FFFFFF" points="2,34 13.5,34 2,39.5 2,41 15,41 15,40 3.5,40 15,34.5 15,33 2,33 		"/>
	</g>
	<g>
		<polygon fill="#FFFFFF" points="2,13 2,14 12.5,14 14,15 14,18 12.5,19 2,19 2,20 13,20 15,18.5 15,14.5 13,13 		"/>
	</g>
	<g>
		<path fill="#FFFFFF" d="M6,23H4l-2,1v6h13v-1h-3.712L6,23z M3,29v-4.5L4,24h1.5l4.5,5H3z"/>
	</g>
</g>
<g>
	<g>
		<polygon opacity="0.1" fill="#FFFFFF" points="2.206,148.896 1,148.643 1,149.875 1,150.955 1,151.764 1.79,151.934 
			10.563,153.818 1.777,155.82 1,155.998 1,156.795 1,157.875 1,159.125 2.219,158.852 15.219,155.934 16,155.758 16,154.957 
			16,152.617 16,151.807 15.206,151.639 		"/>
		<path fill="#FFFFFF" d="M15,155.082L2,158v-1.08l12.01-2.736v-0.523L2,151.08V150l13,2.742V155.082z"/>
	</g>
	<g>
		<polygon opacity="0.1" fill="#FFFFFF" points="15.634,120.9 13.435,119.164 13.158,119 12.801,119 2,119 1,119 1,119.875 
			1,120.875 1,122 2,122 8,122 8,122.875 8,123.875 8,125 2,125 1,125 1,125.875 1,126.875 1,128 2,128 12.801,128 13.158,128 
			13.435,127.711 15.634,125.881 16,125.549 16,125.076 16,124.375 16,123.861 15.581,123.561 15.32,123.375 15.581,123.189 
			16,122.891 16,122.375 16,121.676 16,121.201 		"/>
		<path fill="#FFFFFF" d="M12.801,127H2v-1h10.494l1.256-1v-0.25L12.494,124H9v-1h3.494l1.256-0.75V122l-1.256-1H2v-1h10.801
			L15,121.801v0.699l-1.4,1l1.4,1v0.701L12.801,127z"/>
	</g>
	<g>
		<polygon opacity="0.1" fill="#FFFFFF" points="14,139 13,139 13,139.875 13,142 4,142 4,139.875 4,139 3,139 2,139 1,139 
			1,139.875 1,146.875 1,148 2,148 3,148 4,148 4,146.875 4,145 13,145 13,146.875 13,148 14,148 15,148 16,148 16,146.875 
			16,139.875 16,139 15,139 		"/>
		<g>
			<polygon fill="#FFFFFF" points="3,144 14,144 14,147 15,147 15,140 14,140 14,143 3,143 3,140 2,140 2,147 3,147 			"/>
		</g>
	</g>
	<g>
		<polygon opacity="0.1" fill="#FFFFFF" points="14,129 13,129 13,129.875 13,133.961 12.086,135 10,135 10,130.875 10,130 9,130 
			8,130 7,130 7,130.875 7,135 4,135 4,129.875 4,129 3,129 2,129 1,129 1,129.875 1,136.875 1,138 2,138 13,138 13.414,138 
			13.707,137.645 15.707,135.613 16,135.289 16,134.875 16,129.875 16,129 15,129 		"/>
		<g>
			<polygon fill="#FFFFFF" points="15,135 15,130 14,130 14,134.5 12.5,136 9,136 9,131 8,131 8,136 3,136 3,130 2,130 2,137 
				13,137 			"/>
		</g>
	</g>
</g>
</svg>
