<?xml version="1.0" encoding="utf-8"?>
<!-- Generator: Adobe Illustrator 16.0.0, SVG Export Plug-In . SVG Version: 6.00 Build 0)  -->
<!DOCTYPE svg PUBLIC "-//W3C//DTD SVG 1.1//EN" "http://www.w3.org/Graphics/SVG/1.1/DTD/svg11.dtd">
<svg version="1.1" xmlns="http://www.w3.org/2000/svg" xmlns:xlink="http://www.w3.org/1999/xlink" x="0px" y="0px" width="30px"
	 height="30px" viewBox="-0.5 0.5 30 30" enable-background="new -0.5 0.5 30 30" xml:space="preserve">
<g id="Layer_3">
	<rect x="-0.5" y="0.5" width="30" height="30"/>
</g>
<g id="Layer_2_1_">
	<g>
		<rect x="0.5" y="26.5" fill="#FFFFFF" width="1" height="1"/>
		<rect x="3.5" y="26.5" fill="#FFFFFF" width="1" height="1"/>
		<rect x="6.5" y="26.5" fill="#FFFFFF" width="1" height="1"/>
		<rect x="9.5" y="26.5" fill="#FFFFFF" width="1" height="1"/>
		<rect x="12.5" y="26.5" fill="#FFFFFF" width="1" height="1"/>
		<rect x="15.5" y="26.5" fill="#FFFFFF" width="1" height="1"/>
		<rect x="18.5" y="26.5" fill="#FFFFFF" width="1" height="1"/>
		<rect x="21.5" y="26.5" fill="#FFFFFF" width="1" height="1"/>
		<rect x="24.5" y="26.5" fill="#FFFFFF" width="1" height="1"/>
		<rect x="27.5" y="26.5" fill="#FFFFFF" width="1" height="1"/>
	</g>
	<g>
		<rect x="1.5" y="24.5" fill="#FFFFFF" width="1" height="1"/>
		<rect x="4.5" y="24.5" fill="#FFFFFF" width="1" height="1"/>
		<rect x="7.5" y="24.5" fill="#FFFFFF" width="1" height="1"/>
		<rect x="10.5" y="24.5" fill="#FFFFFF" width="1" height="1"/>
		<rect x="13.5" y="24.5" fill="#FFFFFF" width="1" height="1"/>
		<rect x="16.5" y="24.5" fill="#FFFFFF" width="1" height="1"/>
		<rect x="19.5" y="24.5" fill="#FFFFFF" width="1" height="1"/>
		<rect x="22.5" y="24.5" fill="#FFFFFF" width="1" height="1"/>
		<rect x="25.5" y="24.5" fill="#FFFFFF" width="1" height="1"/>
		<rect x="28.5" y="24.5" fill="#FFFFFF" width="1" height="1"/>
	</g>
	<g>
		<rect x="-0.5" y="28.5" fill="#FFFFFF" width="1" height="1"/>
		<rect x="2.5" y="28.5" fill="#FFFFFF" width="1" height="1"/>
		<rect x="5.5" y="28.5" fill="#FFFFFF" width="1" height="1"/>
		<rect x="8.5" y="28.5" fill="#FFFFFF" width="1" height="1"/>
		<rect x="11.5" y="28.5" fill="#FFFFFF" width="1" height="1"/>
		<rect x="14.5" y="28.5" fill="#FFFFFF" width="1" height="1"/>
		<rect x="17.5" y="28.5" fill="#FFFFFF" width="1" height="1"/>
		<rect x="20.5" y="28.5" fill="#FFFFFF" width="1" height="1"/>
		<rect x="23.5" y="28.5" fill="#FFFFFF" width="1" height="1"/>
		<rect x="26.5" y="28.5" fill="#FFFFFF" width="1" height="1"/>
	</g>
	<g>
		<rect x="0.5" y="20.5" fill="#FFFFFF" width="1" height="1"/>
		<rect x="3.5" y="20.5" fill="#FFFFFF" width="1" height="1"/>
		<rect x="6.5" y="20.5" fill="#FFFFFF" width="1" height="1"/>
		<rect x="9.5" y="20.5" fill="#FFFFFF" width="1" height="1"/>
		<rect x="12.5" y="20.5" fill="#FFFFFF" width="1" height="1"/>
		<rect x="15.5" y="20.5" fill="#FFFFFF" width="1" height="1"/>
		<rect x="18.5" y="20.5" fill="#FFFFFF" width="1" height="1"/>
		<rect x="21.5" y="20.5" fill="#FFFFFF" width="1" height="1"/>
		<rect x="24.5" y="20.5" fill="#FFFFFF" width="1" height="1"/>
		<rect x="27.5" y="20.5" fill="#FFFFFF" width="1" height="1"/>
	</g>
	<g>
		<rect x="1.5" y="18.5" fill="#FFFFFF" width="1" height="1"/>
		<rect x="4.5" y="18.5" fill="#FFFFFF" width="1" height="1"/>
		<rect x="7.5" y="18.5" fill="#FFFFFF" width="1" height="1"/>
		<rect x="10.5" y="18.5" fill="#FFFFFF" width="1" height="1"/>
		<rect x="13.5" y="18.5" fill="#FFFFFF" width="1" height="1"/>
		<rect x="16.5" y="18.5" fill="#FFFFFF" width="1" height="1"/>
		<rect x="19.5" y="18.5" fill="#FFFFFF" width="1" height="1"/>
		<rect x="22.5" y="18.5" fill="#FFFFFF" width="1" height="1"/>
		<rect x="25.5" y="18.5" fill="#FFFFFF" width="1" height="1"/>
		<rect x="28.5" y="18.5" fill="#FFFFFF" width="1" height="1"/>
	</g>
	<g>
		<rect x="-0.5" y="22.5" fill="#FFFFFF" width="1" height="1"/>
		<rect x="2.5" y="22.5" fill="#FFFFFF" width="1" height="1"/>
		<rect x="5.5" y="22.5" fill="#FFFFFF" width="1" height="1"/>
		<rect x="8.5" y="22.5" fill="#FFFFFF" width="1" height="1"/>
		<rect x="11.5" y="22.5" fill="#FFFFFF" width="1" height="1"/>
		<rect x="14.5" y="22.5" fill="#FFFFFF" width="1" height="1"/>
		<rect x="17.5" y="22.5" fill="#FFFFFF" width="1" height="1"/>
		<rect x="20.5" y="22.5" fill="#FFFFFF" width="1" height="1"/>
		<rect x="23.5" y="22.5" fill="#FFFFFF" width="1" height="1"/>
		<rect x="26.5" y="22.5" fill="#FFFFFF" width="1" height="1"/>
	</g>
	<g>
		<rect x="0.5" y="14.5" fill="#FFFFFF" width="1" height="1"/>
		<rect x="3.5" y="14.5" fill="#FFFFFF" width="1" height="1"/>
		<rect x="6.5" y="14.5" fill="#FFFFFF" width="1" height="1"/>
		<rect x="9.5" y="14.5" fill="#FFFFFF" width="1" height="1"/>
		<rect x="12.5" y="14.5" fill="#FFFFFF" width="1" height="1"/>
		<rect x="15.5" y="14.5" fill="#FFFFFF" width="1" height="1"/>
		<rect x="18.5" y="14.5" fill="#FFFFFF" width="1" height="1"/>
		<rect x="21.5" y="14.5" fill="#FFFFFF" width="1" height="1"/>
		<rect x="24.5" y="14.5" fill="#FFFFFF" width="1" height="1"/>
		<rect x="27.5" y="14.5" fill="#FFFFFF" width="1" height="1"/>
	</g>
	<g>
		<rect x="1.5" y="12.5" fill="#FFFFFF" width="1" height="1"/>
		<rect x="4.5" y="12.5" fill="#FFFFFF" width="1" height="1"/>
		<rect x="7.5" y="12.5" fill="#FFFFFF" width="1" height="1"/>
		<rect x="10.5" y="12.5" fill="#FFFFFF" width="1" height="1"/>
		<rect x="13.5" y="12.5" fill="#FFFFFF" width="1" height="1"/>
		<rect x="16.5" y="12.5" fill="#FFFFFF" width="1" height="1"/>
		<rect x="19.5" y="12.5" fill="#FFFFFF" width="1" height="1"/>
		<rect x="22.5" y="12.5" fill="#FFFFFF" width="1" height="1"/>
		<rect x="25.5" y="12.5" fill="#FFFFFF" width="1" height="1"/>
		<rect x="28.5" y="12.5" fill="#FFFFFF" width="1" height="1"/>
	</g>
	<g>
		<rect x="-0.5" y="16.5" fill="#FFFFFF" width="1" height="1"/>
		<rect x="2.5" y="16.5" fill="#FFFFFF" width="1" height="1"/>
		<rect x="5.5" y="16.5" fill="#FFFFFF" width="1" height="1"/>
		<rect x="8.5" y="16.5" fill="#FFFFFF" width="1" height="1"/>
		<rect x="11.5" y="16.5" fill="#FFFFFF" width="1" height="1"/>
		<rect x="14.5" y="16.5" fill="#FFFFFF" width="1" height="1"/>
		<rect x="17.5" y="16.5" fill="#FFFFFF" width="1" height="1"/>
		<rect x="20.5" y="16.5" fill="#FFFFFF" width="1" height="1"/>
		<rect x="23.5" y="16.5" fill="#FFFFFF" width="1" height="1"/>
		<rect x="26.5" y="16.5" fill="#FFFFFF" width="1" height="1"/>
	</g>
	<g>
		<rect x="0.5" y="8.5" fill="#FFFFFF" width="1" height="1"/>
		<rect x="3.5" y="8.5" fill="#FFFFFF" width="1" height="1"/>
		<rect x="6.5" y="8.5" fill="#FFFFFF" width="1" height="1"/>
		<rect x="9.5" y="8.5" fill="#FFFFFF" width="1" height="1"/>
		<rect x="12.5" y="8.5" fill="#FFFFFF" width="1" height="1"/>
		<rect x="15.5" y="8.5" fill="#FFFFFF" width="1" height="1"/>
		<rect x="18.5" y="8.5" fill="#FFFFFF" width="1" height="1"/>
		<rect x="21.5" y="8.5" fill="#FFFFFF" width="1" height="1"/>
		<rect x="24.5" y="8.5" fill="#FFFFFF" width="1" height="1"/>
		<rect x="27.5" y="8.5" fill="#FFFFFF" width="1" height="1"/>
	</g>
	<g>
		<rect x="1.5" y="6.5" fill="#FFFFFF" width="1" height="1"/>
		<rect x="4.5" y="6.5" fill="#FFFFFF" width="1" height="1"/>
		<rect x="7.5" y="6.5" fill="#FFFFFF" width="1" height="1"/>
		<rect x="10.5" y="6.5" fill="#FFFFFF" width="1" height="1"/>
		<rect x="13.5" y="6.5" fill="#FFFFFF" width="1" height="1"/>
		<rect x="16.5" y="6.5" fill="#FFFFFF" width="1" height="1"/>
		<rect x="19.5" y="6.5" fill="#FFFFFF" width="1" height="1"/>
		<rect x="22.5" y="6.5" fill="#FFFFFF" width="1" height="1"/>
		<rect x="25.5" y="6.5" fill="#FFFFFF" width="1" height="1"/>
		<rect x="28.5" y="6.5" fill="#FFFFFF" width="1" height="1"/>
	</g>
	<g>
		<rect x="0.5" y="2.5" fill="#FFFFFF" width="1" height="1"/>
		<rect x="3.5" y="2.5" fill="#FFFFFF" width="1" height="1"/>
		<rect x="6.5" y="2.5" fill="#FFFFFF" width="1" height="1"/>
		<rect x="9.5" y="2.5" fill="#FFFFFF" width="1" height="1"/>
		<rect x="12.5" y="2.5" fill="#FFFFFF" width="1" height="1"/>
		<rect x="15.5" y="2.5" fill="#FFFFFF" width="1" height="1"/>
		<rect x="18.5" y="2.5" fill="#FFFFFF" width="1" height="1"/>
		<rect x="21.5" y="2.5" fill="#FFFFFF" width="1" height="1"/>
		<rect x="24.5" y="2.5" fill="#FFFFFF" width="1" height="1"/>
		<rect x="27.5" y="2.5" fill="#FFFFFF" width="1" height="1"/>
	</g>
	<g>
		<rect x="1.5" y="0.5" fill="#FFFFFF" width="1" height="1"/>
		<rect x="4.5" y="0.5" fill="#FFFFFF" width="1" height="1"/>
		<rect x="7.5" y="0.5" fill="#FFFFFF" width="1" height="1"/>
		<rect x="10.5" y="0.5" fill="#FFFFFF" width="1" height="1"/>
		<rect x="13.5" y="0.5" fill="#FFFFFF" width="1" height="1"/>
		<rect x="16.5" y="0.5" fill="#FFFFFF" width="1" height="1"/>
		<rect x="19.5" y="0.5" fill="#FFFFFF" width="1" height="1"/>
		<rect x="22.5" y="0.5" fill="#FFFFFF" width="1" height="1"/>
		<rect x="25.5" y="0.5" fill="#FFFFFF" width="1" height="1"/>
		<rect x="28.5" y="0.5" fill="#FFFFFF" width="1" height="1"/>
	</g>
	<g>
		<rect x="-0.5" y="10.5" fill="#FFFFFF" width="1" height="1"/>
		<rect x="2.5" y="10.5" fill="#FFFFFF" width="1" height="1"/>
		<rect x="5.5" y="10.5" fill="#FFFFFF" width="1" height="1"/>
		<rect x="8.5" y="10.5" fill="#FFFFFF" width="1" height="1"/>
		<rect x="11.5" y="10.5" fill="#FFFFFF" width="1" height="1"/>
		<rect x="14.5" y="10.5" fill="#FFFFFF" width="1" height="1"/>
		<rect x="17.5" y="10.5" fill="#FFFFFF" width="1" height="1"/>
		<rect x="20.5" y="10.5" fill="#FFFFFF" width="1" height="1"/>
		<rect x="23.5" y="10.5" fill="#FFFFFF" width="1" height="1"/>
		<rect x="26.5" y="10.5" fill="#FFFFFF" width="1" height="1"/>
	</g>
	<g>
		<rect x="-0.5" y="4.5" fill="#FFFFFF" width="1" height="1"/>
		<rect x="2.5" y="4.5" fill="#FFFFFF" width="1" height="1"/>
		<rect x="5.5" y="4.5" fill="#FFFFFF" width="1" height="1"/>
		<rect x="8.5" y="4.5" fill="#FFFFFF" width="1" height="1"/>
		<rect x="11.5" y="4.5" fill="#FFFFFF" width="1" height="1"/>
		<rect x="14.5" y="4.5" fill="#FFFFFF" width="1" height="1"/>
		<rect x="17.5" y="4.5" fill="#FFFFFF" width="1" height="1"/>
		<rect x="20.5" y="4.5" fill="#FFFFFF" width="1" height="1"/>
		<rect x="23.5" y="4.5" fill="#FFFFFF" width="1" height="1"/>
		<rect x="26.5" y="4.5" fill="#FFFFFF" width="1" height="1"/>
	</g>
	<g>
		<g>
			<path fill="#FFFFFF" d="M14.918,22.518c-3.905,0-6.964-3.066-6.964-6.981c0-4.037,3.041-7.054,7.072-7.054
				c2.212,0,3.854,0.644,5.32,2.088l0.335,0.33l-2.407,2.775l-0.379-0.343c-0.999-0.906-1.862-1.292-2.887-1.292
				c-1.799,0-3.155,1.472-3.155,3.425c0,2.009,1.356,3.497,3.155,3.497c1.257,0,2.016-0.474,2.977-1.347l0.354-0.322l2.439,2.465
				l-0.328,0.352C18.872,21.797,17.217,22.518,14.918,22.518z"/>
			<path d="M15.026,8.982c2.376,0,3.799,0.792,4.97,1.944l-1.765,2.034c-0.973-0.882-1.963-1.422-3.223-1.422
				c-2.125,0-3.655,1.765-3.655,3.925V15.5c0,2.161,1.495,3.961,3.655,3.961c1.441,0,2.323-0.576,3.313-1.477l1.765,1.782
				c-1.297,1.387-2.736,2.251-5.168,2.251c-3.709,0-6.464-2.862-6.464-6.481V15.5C8.454,11.917,11.155,8.982,15.026,8.982
				 M15.026,7.982c-4.317,0-7.572,3.232-7.572,7.518c0,4.231,3.278,7.518,7.464,7.518c2.451,0,4.215-0.768,5.898-2.568l0.657-0.702
				l-0.677-0.684l-1.765-1.782L18.357,16.6l-0.709,0.645c-0.887,0.808-1.539,1.217-2.64,1.217c-1.514,0-2.655-1.272-2.655-2.961
				c0-1.704,1.142-2.961,2.655-2.961c0.889,0,1.653,0.348,2.551,1.163l0.758,0.687l0.67-0.772l1.765-2.034l0.615-0.709l-0.67-0.659
				C19.129,8.671,17.38,7.982,15.026,7.982L15.026,7.982z"/>
		</g>
	</g>
</g>
</svg>
