<?xml version="1.0" encoding="utf-8"?>
<!-- Generator: Adobe Illustrator 16.0.0, SVG Export Plug-In . SVG Version: 6.00 Build 0)  -->
<!DOCTYPE svg PUBLIC "-//W3C//DTD SVG 1.1//EN" "http://www.w3.org/Graphics/SVG/1.1/DTD/svg11.dtd">
<svg version="1.1" id="Layer_1" xmlns="http://www.w3.org/2000/svg" xmlns:xlink="http://www.w3.org/1999/xlink" x="0px" y="0px"
	 width="30px" height="30px" viewBox="0 0 30 30" enable-background="new 0 0 30 30" xml:space="preserve">
<g>
	<rect width="30" height="30"/>
	<g>
		<path fill="#FFFFFF" d="M12.583,21.289v2.224l0.043,2.749c0,0.279,0.05,0.469,0.15,0.57c0.101,0.1,0.322,0.182,0.666,0.246
			l1.225,0.15v0.506H8.361v-0.506l1.139-0.15c0.344-0.049,0.58-0.139,0.709-0.268s0.2-0.43,0.215-0.902s0.021-1.271,0.021-2.396
			v-2.224H4.129l-0.193-0.333l8.25-11.021h0.397v9.7h1.622c0.702,0,1.192-0.111,1.472-0.333c0.272-0.229,0.479-0.727,0.623-1.493
			h0.44v3.48H12.583z M10.445,19.635v-6.026l-4.533,6.026H10.445z"/>
		<path fill="#FFFFFF" d="M26.021,19.794c0.007,1.611-0.812,3.208-2.46,4.791S20.109,27.307,18.147,28l-0.312-0.602
			c1.948-0.98,3.409-2.084,4.383-3.308c0.967-1.225,1.45-2.438,1.45-3.642c0-2.406-1.16-4.004-3.48-4.791
			c-0.38-0.129-0.627-0.304-0.741-0.526c-0.107-0.222-0.14-0.54-0.097-0.954l0.333-3.341h4.454c0.526,0,0.897-0.057,1.113-0.172
			c0.217-0.114,0.404-0.312,0.562-0.591h0.251l-0.382,2.718H20.46l-0.206,1.964c1.94,0.222,3.389,0.781,4.345,1.676
			C25.547,17.334,26.021,18.455,26.021,19.794z"/>
	</g>
</g>
</svg>
