<?xml version="1.0" encoding="utf-8"?>
<!-- Generator: Adobe Illustrator 16.0.0, SVG Export Plug-In . SVG Version: 6.00 Build 0)  -->
<!DOCTYPE svg PUBLIC "-//W3C//DTD SVG 1.1//EN" "http://www.w3.org/Graphics/SVG/1.1/DTD/svg11.dtd">
<svg version="1.1" id="Layer_1" xmlns="http://www.w3.org/2000/svg" xmlns:xlink="http://www.w3.org/1999/xlink" x="0px" y="0px"
	 width="30px" height="30px" viewBox="-0.5 0.5 30 30" enable-background="new -0.5 0.5 30 30" xml:space="preserve">
<rect x="-0.5" y="0.5" width="30" height="30"/>
<g>
	<path fill="#FFFFFF" d="M9.5,22.5v-15h5.602c2.681,0,4.48,0.957,4.48,3.837c0,1.36-0.44,2.461-1.66,3.081v0.04
		c2.16,0.28,3.081,1.741,3.081,3.84c0,3.161-2.701,4.201-5.462,4.201H9.5z M13.421,13.338h0.44c1.04,0,2.12-0.18,2.12-1.46
		c0-1.38-1.221-1.46-2.28-1.46h-0.28V13.338z M13.421,19.5h0.5c1.16,0,3.121,0.06,3.121-1.602c0-1.82-1.94-1.64-3.221-1.64h-0.4
		V19.5z"/>
</g>
</svg>
