<?xml version="1.0" encoding="utf-8"?>
<!-- Generator: Adobe Illustrator 16.0.0, SVG Export Plug-In . SVG Version: 6.00 Build 0)  -->
<!DOCTYPE svg PUBLIC "-//W3C//DTD SVG 1.1//EN" "http://www.w3.org/Graphics/SVG/1.1/DTD/svg11.dtd">
<svg version="1.1" id="Layer_1" xmlns="http://www.w3.org/2000/svg" xmlns:xlink="http://www.w3.org/1999/xlink" x="0px" y="0px"
	 width="30px" height="30px" viewBox="-0.5 0.5 30 30" enable-background="new -0.5 0.5 30 30" xml:space="preserve">
<rect x="2.938" y="3.125" opacity="0.92" fill="#FFFFFF" width="22.875" height="24.438"/>
<g>
	<path fill="#7F7F7F" d="M14.5,16.5c-0.828,0-1.5,0.672-1.5,1.5c0,0.441,0.195,0.836,0.5,1.109V21.5h2v-2.391
		C15.805,18.836,16,18.441,16,18C16,17.172,15.328,16.5,14.5,16.5z"/>
	<path fill="#7F7F7F" d="M14.5,7.5c-2.757,0-5,2.243-5,5v1h10v-1C19.5,9.743,17.257,7.5,14.5,7.5z"/>
	<path fill="#7F7F7F" d="M-0.5,0.5v30h30v-30H-0.5z M23.5,23.5l-2,2H7.499l-0.999-1l-1-1v-9l1-1h1v-1c0-3.866,3.134-7,7-7
		s7,3.134,7,7v1h1l1,1V23.5z"/>
</g>
</svg>
