<?xml version="1.0" encoding="utf-8"?>
<!-- Generator: Adobe Illustrator 16.0.0, SVG Export Plug-In . SVG Version: 6.00 Build 0)  -->
<!DOCTYPE svg PUBLIC "-//W3C//DTD SVG 1.1//EN" "http://www.w3.org/Graphics/SVG/1.1/DTD/svg11.dtd">
<svg version="1.1" id="Layer_2_1_" xmlns="http://www.w3.org/2000/svg" xmlns:xlink="http://www.w3.org/1999/xlink" x="0px" y="0px"
	 width="30px" height="30px" viewBox="-0.5 0.5 30 30" enable-background="new -0.5 0.5 30 30" xml:space="preserve">
<rect x="-0.5" y="0.5" width="30" height="30"/>
<g>
	<rect x="6.5" y="22.5" fill="#FFFFFF" width="1" height="1"/>
	<rect x="9.5" y="22.5" fill="#FFFFFF" width="1" height="1"/>
	<rect x="12.5" y="22.5" fill="#FFFFFF" width="1" height="1"/>
	<rect x="15.5" y="22.5" fill="#FFFFFF" width="1" height="1"/>
	<rect x="18.5" y="22.5" fill="#FFFFFF" width="1" height="1"/>
	<rect x="21.5" y="22.5" fill="#FFFFFF" width="1" height="1"/>
	<rect x="6.5" y="24.5" fill="#FFFFFF" width="1" height="1"/>
	<rect x="9.5" y="24.5" fill="#FFFFFF" width="1" height="1"/>
	<rect x="12.5" y="24.5" fill="#FFFFFF" width="1" height="1"/>
	<rect x="15.5" y="24.5" fill="#FFFFFF" width="1" height="1"/>
	<rect x="18.5" y="24.5" fill="#FFFFFF" width="1" height="1"/>
	<rect x="21.5" y="24.5" fill="#FFFFFF" width="1" height="1"/>
	<path fill="#FFFFFF" d="M15.008,17.159c-2.161,0-3.655-1.8-3.655-3.961v-0.036c0-2.161,1.531-3.925,3.655-3.925
		c1.26,0,2.25,0.541,3.223,1.422l1.765-2.034c-1.171-1.152-2.594-1.945-4.97-1.945c-3.871,0-6.572,2.935-6.572,6.518v0.036
		c0,3.619,2.755,6.481,6.464,6.481c2.432,0,3.871-0.864,5.168-2.251l-1.765-1.782C17.331,16.583,16.449,17.159,15.008,17.159z"/>
</g>
</svg>
