<?xml version="1.0" encoding="utf-8"?>
<!-- Generator: Adobe Illustrator 16.0.0, SVG Export Plug-In . SVG Version: 6.00 Build 0)  -->
<!DOCTYPE svg PUBLIC "-//W3C//DTD SVG 1.1//EN" "http://www.w3.org/Graphics/SVG/1.1/DTD/svg11.dtd">
<svg version="1.1" id="Layer_1" xmlns="http://www.w3.org/2000/svg" xmlns:xlink="http://www.w3.org/1999/xlink" x="0px" y="0px"
	 width="30px" height="30px" viewBox="-0.5 0.5 30 30" enable-background="new -0.5 0.5 30 30" xml:space="preserve">
<rect x="3.625" y="3.25" opacity="0.92" fill="#FFFFFF" width="20.812" height="24.625"/>
<g>
	<rect x="8.5" y="8.5" fill="#7F7F7F" width="11" height="2"/>
	<path fill="#7F7F7F" d="M9.5,22.5v1h8v-1h1v-11h-9V22.5z M16.5,13.5h1v8h-1V13.5z M13.5,13.5h1v8h-1V13.5z M10.5,13.5h1v8h-1V13.5z
		"/>
	<path fill="#7F7F7F" d="M-0.5,0.5v30h30v-30H-0.5z M21.5,10.5v1h-1v11v3h-1h-2h-9v-1h-1v-2v-11h-1v-1v-4h1h1h3v-1h5v1h3h1h1V10.5z"
		/>
</g>
</svg>
