<?xml version="1.0" encoding="utf-8"?>
<!-- Generator: Adobe Illustrator 16.0.0, SVG Export Plug-In . SVG Version: 6.00 Build 0)  -->
<!DOCTYPE svg PUBLIC "-//W3C//DTD SVG 1.1//EN" "http://www.w3.org/Graphics/SVG/1.1/DTD/svg11.dtd">
<svg version="1.1" id="Layer_1" xmlns="http://www.w3.org/2000/svg" xmlns:xlink="http://www.w3.org/1999/xlink" x="0px" y="0px"
	 width="157px" height="206px" viewBox="0 0 157 206" enable-background="new 0 0 157 206" xml:space="preserve">
<polygon points="155,202 154,202 154,203 153,203 153,204 154,204 154,205 155,205 155,204 156,204 156,203 155,203 "/>
<polygon points="145,202 144,202 144,203 143,203 143,204 144,204 144,205 145,205 145,204 146,204 146,203 145,203 "/>
<polygon points="135,202 134,202 134,203 133,203 133,204 134,204 134,205 135,205 135,204 136,204 136,203 135,203 "/>
<polygon points="125,202 124,202 124,203 123,203 123,204 124,204 124,205 125,205 125,204 126,204 126,203 125,203 "/>
<polygon points="115,202 114,202 114,203 113,203 113,204 114,204 114,205 115,205 115,204 116,204 116,203 115,203 "/>
<polygon points="105,202 104,202 104,203 103,203 103,204 104,204 104,205 105,205 105,204 106,204 106,203 105,203 "/>
<polygon points="95,202 94,202 94,203 93,203 93,204 94,204 94,205 95,205 95,204 96,204 96,203 95,203 "/>
<polygon points="85,202 84,202 84,203 83,203 83,204 84,204 84,205 85,205 85,204 86,204 86,203 85,203 "/>
<polygon points="75,202 74,202 74,203 73,203 73,204 74,204 74,205 75,205 75,204 76,204 76,203 75,203 "/>
<polygon points="65,202 64,202 64,203 63,203 63,204 64,204 64,205 65,205 65,204 66,204 66,203 65,203 "/>
<polygon points="55,202 54,202 54,203 53,203 53,204 54,204 54,205 55,205 55,204 56,204 56,203 55,203 "/>
<polygon points="45,202 44,202 44,203 43,203 43,204 44,204 44,205 45,205 45,204 46,204 46,203 45,203 "/>
<polygon points="35,202 34,202 34,203 33,203 33,204 34,204 34,205 35,205 35,204 36,204 36,203 35,203 "/>
<polygon points="25,202 24,202 24,203 23,203 23,204 24,204 24,205 25,205 25,204 26,204 26,203 25,203 "/>
<polygon points="15,202 14,202 14,203 13,203 13,204 14,204 14,205 15,205 15,204 16,204 16,203 15,203 "/>
<polygon points="5,202 4,202 4,203 3,203 3,204 4,204 4,205 5,205 5,204 6,204 6,203 5,203 "/>
<polygon points="155,192 154,192 154,193 153,193 153,194 154,194 154,195 155,195 155,194 156,194 156,193 155,193 "/>
<polygon points="155,182 154,182 154,183 153,183 153,184 154,184 154,185 155,185 155,184 156,184 156,183 155,183 "/>
<polygon points="155,172 154,172 154,173 153,173 153,174 154,174 154,175 155,175 155,174 156,174 156,173 155,173 "/>
<polygon points="155,162 154,162 154,163 153,163 153,164 154,164 154,165 155,165 155,164 156,164 156,163 155,163 "/>
<polygon points="155,152 154,152 154,153 153,153 153,154 154,154 154,155 155,155 155,154 156,154 156,153 155,153 "/>
<polygon points="155,142 154,142 154,143 153,143 153,144 154,144 154,145 155,145 155,144 156,144 156,143 155,143 "/>
<polygon points="155,132 154,132 154,133 153,133 153,134 154,134 154,135 155,135 155,134 156,134 156,133 155,133 "/>
<polygon points="155,122 154,122 154,123 153,123 153,124 154,124 154,125 155,125 155,124 156,124 156,123 155,123 "/>
<polygon points="155,112 154,112 154,113 153,113 153,114 154,114 154,115 155,115 155,114 156,114 156,113 155,113 "/>
<polygon points="155,102 154,102 154,103 153,103 153,104 154,104 154,105 155,105 155,104 156,104 156,103 155,103 "/>
<polygon points="155,92 154,92 154,93 153,93 153,94 154,94 154,95 155,95 155,94 156,94 156,93 155,93 "/>
<polygon points="155,82 154,82 154,83 153,83 153,84 154,84 154,85 155,85 155,84 156,84 156,83 155,83 "/>
<polygon points="155,72 154,72 154,73 153,73 153,74 154,74 154,75 155,75 155,74 156,74 156,73 155,73 "/>
<polygon points="155,62 154,62 154,63 153,63 153,64 154,64 154,65 155,65 155,64 156,64 156,63 155,63 "/>
<polygon points="155,52 154,52 154,53 153,53 153,54 154,54 154,55 155,55 155,54 156,54 156,53 155,53 "/>
<polygon points="155,43 155,42 154,42 154,43 153,43 153,44 154,44 154,45 155,45 155,44 156,44 156,43 "/>
<path d="M106,42V2V1h-1H2H1v1v194v1h1h144h1v-1V43v-1h-1H106z M146,196H2V2h103v40v1h1h40V196z"/>
<polygon points="107,1 147,41 147,40 108,1 "/>
<rect x="30" y="24" width="67" height="3"/>
<rect x="30" y="40" width="67" height="3"/>
<rect x="30" y="56" width="90" height="3"/>
<rect x="30" y="71" width="90" height="3"/>
<rect x="30" y="87" width="90" height="3"/>
<rect x="30" y="103" width="90" height="3"/>
<rect x="30" y="119" width="90" height="3"/>
<rect x="30" y="134" width="90" height="3"/>
<rect x="30" y="150" width="90" height="3"/>
<rect x="30" y="166" width="90" height="3"/>
</svg>
