<?xml version="1.0" encoding="utf-8"?>
<!-- Generator: Adobe Illustrator 16.0.0, SVG Export Plug-In . SVG Version: 6.00 Build 0)  -->
<!DOCTYPE svg PUBLIC "-//W3C//DTD SVG 1.1//EN" "http://www.w3.org/Graphics/SVG/1.1/DTD/svg11.dtd">
<svg version="1.1" id="Layer_1" xmlns="http://www.w3.org/2000/svg" xmlns:xlink="http://www.w3.org/1999/xlink" x="0px" y="0px"
	 width="30px" height="30px" viewBox="-0.5 0.5 30 30" enable-background="new -0.5 0.5 30 30" xml:space="preserve">
<g id="Layer_2" opacity="0.92">
	<rect x="-0.5" y="0.5" fill="#FFFFFF" width="30" height="30"/>
</g>
<g id="Layer_1_1_">
	<path fill="#7F7F7F" d="M22.5,13.5h-1v-1c0-3.866-3.134-7-7-7s-7,3.134-7,7v1h-1l-1,1v9l1,1l0.999,1H21.5l2-2v-9L22.5,13.5z
		 M15.5,19.109V21.5h-2v-2.391C13.195,18.836,13,18.441,13,18c0-0.828,0.672-1.5,1.5-1.5S16,17.172,16,18
		C16,18.441,15.805,18.836,15.5,19.109z M9.5,13.5v-1c0-2.757,2.243-5,5-5s5,2.243,5,5v1H9.5z"/>
</g>
</svg>
