<?xml version="1.0" encoding="utf-8"?>
<!-- Generator: Adobe Illustrator 16.0.0, SVG Export Plug-In . SVG Version: 6.00 Build 0)  -->
<!DOCTYPE svg PUBLIC "-//W3C//DTD SVG 1.1//EN" "http://www.w3.org/Graphics/SVG/1.1/DTD/svg11.dtd">
<svg version="1.1" id="Layer_1" xmlns="http://www.w3.org/2000/svg" xmlns:xlink="http://www.w3.org/1999/xlink" x="0px" y="0px"
	 width="11px" height="62px" viewBox="0 0 11 62" enable-background="new 0 0 11 62" xml:space="preserve">
<g>
	<circle fill="#7F7F7F" cx="5.5" cy="5" r="2"/>
	<path opacity="0.92" fill="#FFFFFF" d="M5.5,1c-2.206,0-4,1.794-4,4s1.794,4,4,4s4-1.794,4-4S7.706,1,5.5,1z M5.5,7
		c-1.104,0-2-0.896-2-2s0.896-2,2-2c1.104,0,2,0.896,2,2S6.604,7,5.5,7z"/>
</g>
<g>
	<circle fill="#7F7F7F" cx="5.5" cy="40" r="2"/>
	<path opacity="0.92" fill="#FFFFFF" d="M5.5,36c-2.206,0-4,1.794-4,4s1.794,4,4,4s4-1.794,4-4S7.706,36,5.5,36z M5.5,42
		c-1.104,0-2-0.896-2-2s0.896-2,2-2c1.104,0,2,0.896,2,2S6.604,42,5.5,42z"/>
</g>
<g>
	<circle fill="#7F7F7F" cx="5.5" cy="23" r="2"/>
	<path opacity="0.92" fill="#FFFFFF" d="M5.5,19c-2.206,0-4,1.794-4,4s1.794,4,4,4s4-1.794,4-4S7.706,19,5.5,19z M5.5,25
		c-1.104,0-2-0.896-2-2s0.896-2,2-2c1.104,0,2,0.896,2,2S6.604,25,5.5,25z"/>
</g>
</svg>
