<?xml version="1.0" encoding="utf-8"?>
<!-- Generator: Adobe Illustrator 16.0.0, SVG Export Plug-In . SVG Version: 6.00 Build 0)  -->
<!DOCTYPE svg PUBLIC "-//W3C//DTD SVG 1.1//EN" "http://www.w3.org/Graphics/SVG/1.1/DTD/svg11.dtd">
<svg version="1.1" id="Layer_1" xmlns="http://www.w3.org/2000/svg" xmlns:xlink="http://www.w3.org/1999/xlink" x="0px" y="0px"
	 width="30px" height="30px" viewBox="0 0 30 30" enable-background="new 0 0 30 30" xml:space="preserve">
<rect x="0" fill="#FFFFFF" width="30" height="30"/>
<g>
	<path d="M20.117,8.938c-0.254-0.606-0.615-1.125-1.074-1.544c-0.46-0.417-1.012-0.741-1.639-0.961
		c-0.627-0.219-1.332-0.331-2.094-0.331c-0.845,0-1.621,0.149-2.305,0.442c-0.686,0.293-1.274,0.712-1.748,1.244
		c-0.473,0.53-0.84,1.162-1.092,1.877c-0.252,0.715-0.372,1.441-0.355,2.268L9.812,12H12v-0.014c0-0.546,0.113-1.06,0.237-1.528
		c0.123-0.46,0.346-0.865,0.614-1.202c0.267-0.335,0.616-0.606,1.015-0.806c0.397-0.198,0.885-0.299,1.438-0.299
		c0.827,0,1.491,0.238,1.968,0.708c0.479,0.471,0.755,1.139,0.815,1.982c0.031,0.57-0.039,1.06-0.206,1.457
		c-0.169,0.401-0.399,0.773-0.687,1.107c-0.295,0.343-0.614,0.67-0.949,0.973c-0.346,0.314-0.681,0.662-0.995,1.032
		c-0.318,0.376-0.62,0.809-0.839,1.29C14.191,17.184,14,17.775,14,18.467V20h2v-1.342c0-0.396,0.232-0.758,0.346-1.072
		c0.117-0.318,0.361-0.616,0.553-0.883c0.191-0.27,0.456-0.531,0.701-0.776c0.247-0.247,0.52-0.49,0.777-0.732
		c0.26-0.259,0.526-0.527,0.771-0.796c0.254-0.279,0.486-0.585,0.68-0.909c0.196-0.327,0.36-0.696,0.484-1.095
		c0.122-0.404,0.186-0.864,0.186-1.369C20.498,10.247,20.371,9.544,20.117,8.938z"/>
	<circle cx="15" cy="23.001" r="1.5"/>
</g>
</svg>
