<?xml version="1.0" encoding="utf-8"?>
<!-- Generator: Adobe Illustrator 16.0.0, SVG Export Plug-In . SVG Version: 6.00 Build 0)  -->
<!DOCTYPE svg PUBLIC "-//W3C//DTD SVG 1.1//EN" "http://www.w3.org/Graphics/SVG/1.1/DTD/svg11.dtd">
<svg version="1.1" id="Layer_1" xmlns="http://www.w3.org/2000/svg" xmlns:xlink="http://www.w3.org/1999/xlink" x="0px" y="0px"
	 width="816px" height="1056px" viewBox="0 0 816 1056" enable-background="new 0 0 816 1056" xml:space="preserve">
<polygon opacity="0.1" points="17.07,1048.999 34.379,1032.569 51.644,1049 69.086,1032.567 86.441,1049 103.796,1032.568 
	121.149,1049 138.504,1032.568 155.859,1049 173.217,1032.565 190.921,1049 207.925,1032.572 225.276,1049 242.63,1032.569 
	259.896,1049 277.337,1032.567 294.693,1049 312.006,1032.608 329.446,1048.999 346.755,1032.569 364.022,1049 381.464,1032.567 
	398.819,1049 416.174,1032.568 433.528,1049 450.884,1032.568 468.236,1049 485.595,1032.565 503.299,1049 520.303,1032.571 
	537.655,1049 555.007,1032.569 572.272,1049 589.716,1032.567 607.071,1049 624.426,1032.568 641.823,1049 659.134,1032.569 
	676.4,1049 693.841,1032.567 711.197,1049 728.552,1032.568 745.905,1049 763.261,1032.568 780.614,1049 797.973,1032.565 
	815.33,1048.678 816.01,1047.945 797.965,1031.194 780.614,1047.623 763.261,1031.191 745.905,1047.623 728.552,1031.191 
	711.197,1047.623 693.843,1031.192 676.404,1047.623 659.134,1031.19 641.821,1047.623 624.426,1031.191 607.071,1047.623 
	589.718,1031.192 572.276,1047.623 555.009,1031.19 537.655,1047.623 520.295,1031.188 503.285,1047.623 485.589,1031.194 
	468.236,1047.623 450.884,1031.191 433.528,1047.623 416.174,1031.191 398.819,1047.623 381.466,1031.192 364.026,1047.623 
	346.756,1031.19 329.443,1047.624 312.548,1031.745 312.548,1030.718 294.693,1047.623 277.339,1031.192 259.9,1047.623 
	242.632,1031.19 225.276,1047.623 207.918,1031.188 190.907,1047.623 173.21,1031.194 155.859,1047.623 138.504,1031.191 
	121.149,1047.623 103.796,1031.191 86.441,1047.623 69.088,1031.192 51.648,1047.623 34.38,1031.19 17.066,1047.624 0.012,1031.597 
	0,1031.609 0,1032.957 "/>
<polygon opacity="0.1" points="780.614,1052.582 763.261,1036.15 745.905,1052.582 728.552,1036.15 711.197,1052.582 
	693.843,1036.151 676.404,1052.582 659.134,1036.149 641.821,1052.582 624.426,1036.15 607.071,1052.582 589.718,1036.151 
	572.276,1052.582 555.009,1036.149 537.655,1052.582 520.295,1036.147 503.285,1052.582 485.589,1036.153 468.236,1052.582 
	450.884,1036.15 433.528,1052.582 416.174,1036.15 398.819,1052.582 381.466,1036.151 364.026,1052.582 346.756,1036.149 
	329.443,1052.583 312.548,1036.702 312.548,1035.677 294.693,1052.582 277.339,1036.151 259.9,1052.582 242.632,1036.149 
	225.276,1052.582 207.918,1036.147 190.907,1052.582 173.21,1036.153 155.859,1052.582 138.504,1036.15 121.149,1052.582 
	103.796,1036.15 86.441,1052.582 69.088,1036.151 51.648,1052.582 34.38,1036.149 17.067,1052.583 0.012,1036.555 0,1036.567 
	0,1037.915 17.07,1053.958 34.379,1037.528 51.644,1053.959 69.086,1037.526 86.441,1053.959 103.796,1037.527 121.149,1053.959 
	138.504,1037.527 155.859,1053.959 173.217,1037.524 190.921,1053.959 207.925,1037.531 225.276,1053.959 242.63,1037.528 
	259.896,1053.959 277.337,1037.526 294.693,1053.959 312.007,1037.566 329.446,1053.958 346.755,1037.528 364.022,1053.959 
	381.464,1037.526 398.819,1053.959 416.174,1037.527 433.528,1053.959 450.884,1037.527 468.236,1053.959 485.595,1037.524 
	503.299,1053.959 520.303,1037.53 537.655,1053.959 555.007,1037.528 572.272,1053.959 589.716,1037.526 607.071,1053.959 
	624.426,1037.527 641.823,1053.959 659.134,1037.528 676.4,1053.959 693.841,1037.526 711.197,1053.959 728.552,1037.527 
	745.905,1053.959 763.261,1037.527 780.614,1053.959 797.973,1037.524 815.33,1053.637 816.01,1052.904 797.965,1036.153 "/>
</svg>
