<?xml version="1.0" encoding="utf-8"?>
<!-- Generator: Adobe Illustrator 16.0.0, SVG Export Plug-In . SVG Version: 6.00 Build 0)  -->
<!DOCTYPE svg PUBLIC "-//W3C//DTD SVG 1.1//EN" "http://www.w3.org/Graphics/SVG/1.1/DTD/svg11.dtd">
<svg version="1.1" id="Layer_1" xmlns="http://www.w3.org/2000/svg" xmlns:xlink="http://www.w3.org/1999/xlink" x="0px" y="0px"
	 width="17px" height="199px" viewBox="0 0 17 199" enable-background="new 0 0 17 199" xml:space="preserve">
<g opacity="0.1">
	<path d="M2,73.765H1v1v6v0.333l0.2,0.267l1.5,2l0.3,0.4h0.5H8h0.414l0.293-0.293l0.58-0.581l0.218,0.375l0.289,0.499h0.576H14
		h0.414l0.293-0.293l1-1L16,82.179v-0.414v-7v-1h-1H2z M13,80.765h-1.465L11,79.961v-3.197h2V80.765z M4.535,80.765L4,79.961v-3.197
		h4v3.086l-0.914,0.914H4.535z"/>
	<polygon points="3.5,84.765 3.086,84.765 2.793,85.058 1.293,86.558 1,86.851 1,87.265 1,92.765 1,93.765 2,93.765 3,93.765 
		4,93.765 4,92.765 4,88.179 4.414,87.765 15,87.765 16,87.765 16,86.765 16,85.765 16,84.765 15,84.765 	"/>
	<polygon points="2,114.765 1,114.765 1,115.765 1,116.765 1,117.765 2,117.765 7,117.765 7,121.765 2,121.765 1,121.765 1,122.765 
		1,123.765 1,124.765 2,124.765 15,124.765 16,124.765 16,123.765 16,122.765 16,121.765 15,121.765 10,121.765 10,117.765 
		15,117.765 16,117.765 16,116.765 16,115.765 16,114.765 15,114.765 	"/>
	<path d="M2,135.765H1v1v5v0.48l0.375,0.301l2.5,2l0.274,0.219H4.5H15h1v-1v-7v-1h-1H2z M5.333,141.765l-1.333-1v-2h9v3H5.333z"/>
	<polygon points="13.305,156.933 13.053,156.765 12.75,156.765 11.5,156.765 11.098,156.765 10.809,157.042 4.848,162.765 
		4.664,162.765 4,162.101 4,159.715 5.148,158.696 5.943,157.993 5.192,157.241 4.507,156.557 3.809,155.86 3.103,156.547 
		1.303,158.298 1,158.593 1,159.015 1,163.015 1,163.429 1.293,163.722 3.043,165.472 3.336,165.765 3.75,165.765 5.75,165.765 
		6.152,165.765 6.442,165.487 12.311,159.854 13,160.339 13,162.142 11.48,163.335 10.593,164.032 11.391,164.829 12.093,165.532 
		12.732,166.169 13.434,165.598 15.633,163.798 16,163.497 16,163.023 16,159.265 16,158.729 15.555,158.433 	"/>
	<polygon points="13.305,187.933 13.053,187.765 12.75,187.765 11.5,187.765 11.098,187.765 10.809,188.042 4.848,193.765 
		4.664,193.765 4,193.101 4,190.715 5.148,189.696 5.943,188.991 5.191,188.241 4.506,187.557 3.809,186.86 3.103,187.548 
		1.303,189.298 1,189.592 1,190.015 1,194.015 1,194.429 1.293,194.722 3.043,196.472 3.336,196.765 3.75,196.765 5.75,196.765 
		6.152,196.765 6.442,196.487 12.311,190.854 13,191.339 13,193.142 11.48,194.335 10.593,195.032 11.391,195.829 12.093,196.532 
		12.732,197.169 13.434,196.598 15.633,194.799 16,194.497 16,194.024 16,190.265 16,189.729 15.555,189.433 	"/>
	<polygon points="13.305,104.933 13.053,104.765 12.75,104.765 11.5,104.765 11.098,104.765 10.809,105.044 4.848,110.765 
		4.664,110.765 4,110.101 4,107.715 5.148,106.696 5.942,105.991 5.191,105.241 4.507,104.557 3.81,103.858 3.103,104.547 
		1.303,106.298 1,106.593 1,107.015 1,111.015 1,111.429 1.293,111.722 3.043,113.472 3.336,113.765 3.75,113.765 5.75,113.765 
		6.152,113.765 6.442,113.485 12.311,107.854 13,108.339 13,110.142 11.48,111.335 10.593,112.032 11.391,112.829 12.093,113.53 
		12.732,114.169 13.434,113.598 15.633,111.798 16,111.497 16,111.023 16,107.265 16,106.729 15.555,106.433 	"/>
	<polygon points="13.6,176.965 13.333,176.765 13,176.765 4,176.765 3.667,176.765 3.4,176.965 1.4,178.465 1,178.765 1,179.265 
		1,183.765 1,184.202 1.322,184.499 3.122,186.159 3.807,186.788 4.485,186.151 5.185,185.493 5.937,184.786 5.207,184.058 
		3.999,182.85 3.992,180.301 4.801,179.765 12.197,179.765 13,180.3 13,182.351 11.293,184.058 10.514,184.837 11.364,185.536 
		12.164,186.196 12.857,186.767 13.5,186.137 15.7,183.979 16,183.685 16,183.265 16,179.265 16,178.765 15.6,178.465 	"/>
	<polygon points="4,63.765 3.667,63.765 3.4,63.965 1.4,65.465 1,65.765 1,66.265 1,70.265 1,70.765 1.4,71.064 3.4,72.564 
		3.667,72.765 4,72.765 15,72.765 16,72.765 16,71.765 16,70.765 16,69.765 15,69.765 4.803,69.765 4,69.229 4,67.3 4.803,66.765 
		15,66.765 16,66.765 16,65.765 16,64.765 16,63.765 15,63.765 	"/>
	<path d="M2,166.765H1v1v1v1h1h3.26l0.588,0.667l-4.342,2.463L1,173.183v0.582v1v1.673l1.474-0.792l5.408-2.906l2.368,2.688
		l0.299,0.339H11h2h0.236l0.211-0.104l2-1l0.553-0.28v-0.618v-6v-1h-1H2z M13,169.765v2.882l-0.236,0.118h-0.818l-2.698-3H13z"/>
	<polygon points="4,125.765 3.586,125.765 3.293,126.058 1.293,128.058 1,128.351 1,128.765 1,133.765 1,134.765 2,134.765 
		3,134.765 4,134.765 4,133.765 4,129.679 4.914,128.765 7,128.765 7,132.765 7,133.765 8,133.765 9,133.765 10,133.765 10,132.765 
		10,128.765 13,128.765 13,133.765 13,134.765 14,134.765 15,134.765 16,134.765 16,133.765 16,126.765 16,125.765 15,125.765 	"/>
	<polygon points="14,94.765 13,94.765 13,95.765 13,97.765 4,97.765 4,95.765 4,94.765 3,94.765 2,94.765 1,94.765 1,95.765 
		1,102.765 1,103.765 2,103.765 3,103.765 4,103.765 4,102.765 4,100.765 13,100.765 13,102.765 13,103.765 14,103.765 15,103.765 
		16,103.765 16,102.765 16,95.765 16,94.765 15,94.765 	"/>
	<path d="M15,53.765H2H1v1v1v1h1h3.26l4.99,5.661l0.299,0.339H11h2h0.236l0.211-0.105l2-1L16,61.383v-0.618v-6v-1H15z M13,56.765
		v2.882l-0.236,0.118h-0.818l-2.698-3H13z"/>
</g>
<g>
	<g>
		<path d="M2,80.765l1.5,2H8l1.5-1.5l0.87,1.5H14l1-1v-7H2V80.765z M10,75.765h4v5.5l-0.5,0.5H11l-1-1.5V75.765z M3,75.765h6v4.5
			l-1.5,1.5H4l-1-1.5V75.765z"/>
	</g>
	<g>
		<polygon points="2,87.265 2,92.765 3,92.765 3,87.765 4,86.765 15,86.765 15,85.765 3.5,85.765 		"/>
	</g>
	<g>
		<polygon points="2,116.765 8,116.765 8,122.765 2,122.765 2,123.765 15,123.765 15,122.765 9,122.765 9,116.765 15,116.765 
			15,115.765 2,115.765 		"/>
	</g>
	<g>
		<path d="M2,141.765l2.5,2H15v-7H2V141.765z M3,137.765h11v5H5l-2-1.5V137.765z"/>
	</g>
	<g>
		<polygon points="11.5,157.765 5.25,163.765 4.25,163.765 3,162.515 3,159.265 4.485,157.948 3.8,157.264 2,159.015 2,163.015 
			3.75,164.765 5.75,164.765 12,158.765 12.5,158.765 14,159.819 14,162.628 12.098,164.122 12.8,164.823 15,163.023 15,159.265 
			12.75,157.765 		"/>
	</g>
	<g>
		<polygon points="11.5,188.765 5.25,194.765 4.25,194.765 3,193.515 3,190.265 4.484,188.948 3.8,188.265 2,190.015 2,194.015 
			3.75,195.765 5.75,195.765 12,189.765 12.5,189.765 14,190.819 14,193.628 12.098,195.122 12.8,195.823 15,194.024 15,190.265 
			12.75,188.765 		"/>
	</g>
	<g>
		<polygon points="11.5,105.765 5.25,111.765 4.25,111.765 3,110.515 3,107.265 4.484,105.948 3.8,105.264 2,107.015 2,111.015 
			3.75,112.765 5.75,112.765 12,106.765 12.5,106.765 14,107.819 14,110.628 12.098,112.122 12.8,112.823 15,111.023 15,107.265 
			12.75,105.765 		"/>
	</g>
	<g>
		<polygon points="4,177.765 2,179.265 2,183.765 3.8,185.423 4.5,184.765 3,183.265 2.99,179.765 4.5,178.765 12.5,178.765 
			14,179.765 14,182.765 12,184.765 12.8,185.423 15,183.265 15,179.265 13,177.765 		"/>
	</g>
	<g>
		<polygon points="2,66.265 2,70.265 4,71.765 15,71.765 15,70.765 4.5,70.765 3,69.765 3,66.765 4.5,65.765 15,65.765 15,64.765 
			4,64.765 		"/>
	</g>
	<g>
		<path d="M2,168.765h3.712l1.701,1.93L2,173.765v1l6.107-3.282L11,174.765h2l2-1v-6H2V168.765z M14,168.765v4.5l-1,0.5h-1.5l-4.5-5
			H14z"/>
	</g>
	<g>
		<polygon points="2,128.765 2,133.765 3,133.765 3,129.265 4.5,127.765 8,127.765 8,132.765 9,132.765 9,127.765 14,127.765 
			14,133.765 15,133.765 15,126.765 4,126.765 		"/>
	</g>
	<g>
		<polygon points="14,98.765 3,98.765 3,95.765 2,95.765 2,102.765 3,102.765 3,99.765 14,99.765 14,102.765 15,102.765 15,95.765 
			14,95.765 		"/>
	</g>
	<g>
		<path d="M2,54.765v1h3.712l5.288,6h2l2-1v-6H2z M14,60.265l-1,0.5h-1.5l-4.5-5h7V60.265z"/>
	</g>
</g>
<g>
	<g opacity="0.1">
		<polygon points="14.781,1.789 1.781,4.707 1,4.882 1,5.683 1,8.022 1,8.833 1.793,9 14.794,11.744 16,11.998 16,10.765 16,9.685 
			16,8.876 15.21,8.707 6.437,6.823 15.223,4.82 16,4.643 16,3.845 16,2.765 16,1.516 		"/>
		<polygon points="4.199,32.765 3.842,32.765 3.566,32.992 1.367,34.791 1,35.091 1,35.564 1,36.265 1,36.78 1.419,37.078 
			1.68,37.265 1.419,37.452 1,37.75 1,38.265 1,38.965 1,39.438 1.367,39.739 3.566,41.538 3.842,41.765 4.199,41.765 15,41.765 
			16,41.765 16,40.765 16,39.765 16,38.765 15,38.765 9,38.765 9,37.765 9,36.765 9,35.765 15,35.765 16,35.765 16,34.765 
			16,33.765 16,32.765 15,32.765 		"/>
		<polygon points="14,13.014 13,13.014 13,14.014 13,16.014 4,16.014 4,14.014 4,13.014 3,13.014 2,13.014 1,13.014 1,14.014 
			1,21.014 1,22.014 2,22.014 3,22.014 4,22.014 4,21.014 4,19.014 13,19.014 13,21.014 13,22.014 14,22.014 15,22.014 16,22.014 
			16,21.014 16,14.014 16,13.014 15,13.014 		"/>
		<polygon points="4,22.765 3.586,22.765 3.293,23.058 1.293,25.058 1,25.351 1,25.765 1,30.765 1,31.765 2,31.765 3,31.765 
			4,31.765 4,30.765 4,26.679 4.914,25.765 7,25.765 7,29.765 7,30.765 8,30.765 9,30.765 10,30.765 10,29.765 10,25.765 13,25.765 
			13,30.765 13,31.765 14,31.765 15,31.765 16,31.765 16,30.765 16,23.765 16,22.765 15,22.765 		"/>
	</g>
	<g>
		<path d="M2,5.683l13-2.918v1.08L2.99,6.582v0.522L15,9.685v1.08L2,8.022V5.683z"/>
	</g>
	<g>
		<path d="M4.199,33.765H15v1H4.506l-1.256,1v0.25l1.256,0.75H8v1H4.506l-1.256,0.75v0.25l1.256,1H15v1H4.199L2,38.965v-0.7l1.4-1
			l-1.4-1v-0.7L4.199,33.765z"/>
	</g>
	<g>
		<g>
			<polygon points="14,17.014 3,17.014 3,14.014 2,14.014 2,21.014 3,21.014 3,18.014 14,18.014 14,21.014 15,21.014 15,14.014 
				14,14.014 			"/>
		</g>
	</g>
	<g>
		<g>
			<polygon points="2,25.765 2,30.765 3,30.765 3,26.265 4.5,24.765 8,24.765 8,29.765 9,29.765 9,24.765 14,24.765 14,30.765 
				15,30.765 15,23.765 4,23.765 			"/>
		</g>
	</g>
</g>
</svg>
