<?xml version="1.0" encoding="utf-8"?>
<!-- Generator: Adobe Illustrator 16.0.0, SVG Export Plug-In . SVG Version: 6.00 Build 0)  -->
<!DOCTYPE svg PUBLIC "-//W3C//DTD SVG 1.1//EN" "http://www.w3.org/Graphics/SVG/1.1/DTD/svg11.dtd">
<svg version="1.1" id="Layer_1" xmlns="http://www.w3.org/2000/svg" xmlns:xlink="http://www.w3.org/1999/xlink" x="0px" y="0px"
	 width="87px" height="87px" viewBox="0 0 87 87" enable-background="new 0 0 87 87" xml:space="preserve">
<g>
	<polygon points="75,2 72,2 72,4 70,4 70,2 24,2 23,2 18,2 16,4 12,4 12,2 4,2 2,4 2,44 2,45 2,83 3.999,85 85.001,85 85.001,83 
		85.001,78 85.001,74 85.001,73 85.001,36 85.001,12 	"/>
	<g>
		<rect x="78" y="74" fill="#FFFFFF" width="4" height="4"/>
		<path fill="#FFFFFF" d="M28,34h38c2.209,0,4-1.791,4-4V6H24v24C24,32.209,25.791,34,28,34z M56,8h11v21H56V8z"/>
		<path fill="#FFFFFF" d="M17,38v-0.5v-1V36c-0.946,0-2-1.788-2-3V11v-1h-1h-1h-1v1v22C12,35.757,14.243,38,17,38z"/>
		<path fill="#FFFFFF" d="M12,81h60.999L75,79V43H12V81z M21,49h44v2H21V49z M21,57h44v2H21V57z M21,65h44v2H21V65z M21,73h44v2H21
			V73z"/>
	</g>
</g>
</svg>
