<?xml version="1.0" encoding="utf-8"?>
<!-- Generator: Adobe Illustrator 16.0.0, SVG Export Plug-In . SVG Version: 6.00 Build 0)  -->
<!DOCTYPE svg PUBLIC "-//W3C//DTD SVG 1.1//EN" "http://www.w3.org/Graphics/SVG/1.1/DTD/svg11.dtd">
<svg version="1.1" id="Layer_1" xmlns="http://www.w3.org/2000/svg" xmlns:xlink="http://www.w3.org/1999/xlink" x="0px" y="0px"
	 width="21px" height="128px" viewBox="0 0 21 128" enable-background="new 0 0 21 128" xml:space="preserve">
<g>
	<g>
		<polygon opacity="0.1" points="18.726,34.213 16.926,32.312 16.631,32 16.2,32 14.925,32 14.504,32 14.21,32.301 8.64,38 
			8.428,38 8,37.536 8,35.331 9.073,34.192 9.738,33.486 9.053,32.799 8.408,32.153 7.701,31.444 6.992,32.152 5.293,33.854 
			5,34.146 5,34.561 5,38.301 5,38.715 5.293,39.008 6.993,40.707 7.286,41 7.7,41 9.502,41 9.923,41 10.217,40.699 15.608,35.184 
			16,35.643 16,37.501 14.843,38.617 14.11,39.324 14.83,40.044 15.493,40.707 16.18,41.395 16.887,40.728 18.687,39.028 19,38.731 
			19,38.301 19,34.9 19,34.502 		"/>
		<g>
			<path d="M18,38.301L16.2,40l-0.663-0.663L17,37.926v-2.652L15.911,34h-0.544l-5.865,6H7.7L6,38.301v-3.74l1.7-1.701l0.646,0.646
				L7,34.934v2.992L7.988,39h1.072l5.864-6H16.2l1.8,1.9V38.301z"/>
		</g>
	</g>
	<g>
		<polygon opacity="0.1" points="18.687,44.973 16.886,43.273 16.597,43 16.199,43 7.7,43 7.286,43 6.993,43.293 5.293,44.993 
			5,45.286 5,45.7 5,49.44 5,49.855 5.293,50.148 6.993,51.847 7.709,52.562 8.416,51.838 9.062,51.176 9.734,50.485 9.069,49.788 
			8,48.666 8,46.464 8.427,46 15.5,46 16,46.493 16,48.642 14.843,49.758 14.11,50.465 14.83,51.185 15.492,51.847 16.179,52.534 
			16.886,51.867 18.687,50.168 19,49.872 19,49.44 19,45.7 19,45.269 		"/>
		<path d="M18,49.44l-1.801,1.699l-0.662-0.662L17,49.066v-2.992L15.91,45H7.988L7,46.074v2.992l1.346,1.411L7.7,51.14L6,49.44V45.7
			L7.7,44h8.499L18,45.7V49.44z"/>
	</g>
	<g>
		<path opacity="0.1" d="M18,54H6H5v1.361v1V57h1h2.676l0.863,1.159L5,60v3.5l6.572-2.882l2.069,2.216L13.94,63h0.458H16.2h0.397
			l0.289-0.093l1.8-1.61L19,61.092v-0.431v-5.3V54H18z M15.147,60l-2.571-3H16v2.869L15.501,60H15.147z"/>
		<path d="M6,55h12v5.3L16.2,62h-1.802l-2.584-2.992L6,62v-1.055l5.134-2.669L9.128,56H6V55z M17,56h-6.598l4.285,5h1.224L17,59.926
			V56z"/>
	</g>
	<g>
		<path opacity="0.1" d="M18.687,66.974l-1.8-1.7L16.598,65H16.2H7.7H7.286l-0.293,0.293l-1.7,1.7L5,67.286V67.7v3.739v0.439
			l0.324,0.297l1.7,1.561L7.311,74H7.7h8.5h0.373l0.282-0.244l1.8-1.561l0.345-0.3v-0.456V67.7V67.27L18.687,66.974z M8.387,71
			L8,70.635v-2.171L8.428,68h7.073L16,68.491v2.114L15.541,71H8.387z"/>
		<g>
			<path d="M16.2,66l1.8,1.7v3.739L16.2,73H7.7L6,71.439V67.7L7.7,66H16.2z M15.911,67H7.989L7,68.073v2.992L7.989,72h7.922
				L17,71.065v-2.992L15.911,67z"/>
		</g>
	</g>
	<g>
		<polygon opacity="0.1" points="18,76 7.7,76 7.286,76 6.993,76.293 5.293,77.993 5,78.286 5,78.7 5,84 5,85 6,85 7,85 8,85 8,84 
			8,79.464 8.427,79 18,79 19,79 19,78 19,77 19,76 		"/>
		<path d="M6,84v-5.3L7.7,77H18v1H7.988L7,79.074V84H6z"/>
	</g>
	<g>
		<polygon opacity="0.1" points="18,86 7.7,86 7.286,86 6.993,86.293 5.293,87.993 5,88.286 5,88.7 5,94 5,95 6,95 7,95 8,95 8,94 
			8,89.464 8.427,89 18,89 19,89 19,88 19,87 19,86 		"/>
		<path d="M6,94v-5.3L7.7,87H18v1H7.988L7,89.074V94H6z"/>
	</g>
	<g>
		<polyline fill="none" stroke="#000000" stroke-miterlimit="10" points="17,115 10.5,123 4,115 		"/>
		<polygon opacity="0.1" points="18.019,114.54 17.243,113.909 16.467,113.277 15.836,114.054 12,118.775 12,97 9,97 9,118.775 
			5.164,114.054 4.533,113.277 3.757,113.909 2.981,114.54 2.206,115.17 2.836,115.946 9.724,124.424 10.5,125.379 11.276,124.424 
			18.164,115.946 18.794,115.17 		"/>
		<g>
			<rect x="10" y="98" width="1" height="25"/>
		</g>
	</g>
	<g>
		<polygon opacity="0.1" points="12,3 11,3 10,3 10,4 10,29 10,30 11,30 12,30 13,30 13,29 13,4 13,3 		"/>
		<g>
			<rect x="11" y="4" width="1" height="25"/>
		</g>
	</g>
</g>
</svg>
