<?xml version="1.0" encoding="utf-8"?>
<!-- Generator: Adobe Illustrator 16.0.0, SVG Export Plug-In . SVG Version: 6.00 Build 0)  -->
<!DOCTYPE svg PUBLIC "-//W3C//DTD SVG 1.1//EN" "http://www.w3.org/Graphics/SVG/1.1/DTD/svg11.dtd">
<svg version="1.1" id="Layer_1" xmlns="http://www.w3.org/2000/svg" xmlns:xlink="http://www.w3.org/1999/xlink" x="0px" y="0px"
	 width="30px" height="30px" viewBox="-0.5 0.5 30 30" enable-background="new -0.5 0.5 30 30" xml:space="preserve">
<g id="Layer_2" opacity="0.92">
	<rect x="-0.5" y="0.5" fill="#FFFFFF" width="30" height="30"/>
</g>
<g id="Layer_1_1_">
	<g>
		<path fill="#7F7F7F" d="M18.5,4.5h-4h-7v20h7h8v-16L18.5,4.5z M17.672,6.5L20.5,9.329V9.5h-3v-3H17.672z M14.5,6.5h2v3v1h1h3
			v3.095l-2.398,2.398l-2.047-2.045c-0.195-0.195-0.513-0.195-0.707,0L13.3,15.993l-2.047-2.045
			c-0.191-0.192-0.499-0.197-0.696-0.011L9.5,14.92V6.5H14.5z M14.5,22.5h-5v-6.212l1.389-1.291l2.057,2.056
			c0.195,0.195,0.512,0.195,0.707,0l2.049-2.045l2.047,2.047c0.193,0.194,0.512,0.194,0.707,0l2.046-2.046V22.5H14.5z"/>
		<rect x="10.5" y="18.5" fill="#7F7F7F" width="8" height="1"/>
		<rect x="10.5" y="20.5" fill="#7F7F7F" width="8" height="1"/>
		<rect x="10.5" y="11.5" fill="#7F7F7F" width="8" height="1"/>
		<rect x="10.5" y="9.5" fill="#7F7F7F" width="5" height="1"/>
		<rect x="10.5" y="7.5" fill="#7F7F7F" width="5" height="1"/>
	</g>
</g>
</svg>
