<?xml version="1.0" encoding="utf-8"?>
<!-- Generator: Adobe Illustrator 16.0.0, SVG Export Plug-In . SVG Version: 6.00 Build 0)  -->
<!DOCTYPE svg PUBLIC "-//W3C//DTD SVG 1.1//EN" "http://www.w3.org/Graphics/SVG/1.1/DTD/svg11.dtd">
<svg version="1.1" id="Layer_3" xmlns="http://www.w3.org/2000/svg" xmlns:xlink="http://www.w3.org/1999/xlink" x="0px" y="0px"
	 width="30px" height="30px" viewBox="0 0 30 30" enable-background="new 0 0 30 30" xml:space="preserve">
<g>
	<rect x="8.5" y="5.5" fill="#FFFFFF" width="13" height="18"/>
	<path d="M20.5,6.5v16h-11v-16H20.5 M22.5,4.5h-15v20h15V4.5L22.5,4.5z"/>
</g>
<rect x="57.5" y="22.5" fill="#FFFFFF" width="11" height="16"/>
<g>
	<g>
		<path fill="#FFFFFF" d="M41,71V56h3.655c-0.332,0.649-0.51,1.365-0.51,2.083c0,1.344,0.58,2.617,1.595,3.503l0.056,0.063
			C46.572,62.383,47,63.371,47,64.434c0,1.051-0.42,2.032-1.182,2.762c-0.012,0.012-0.332,0.34-0.389,0.393
			c-0.837,0.893-1.284,2.021-1.284,3.205c0,0.07,0.003,0.139,0.007,0.207H41z"/>
		<path d="M43.905,56.5c-0.171,0.512-0.26,1.047-0.26,1.583c0,1.465,0.623,2.855,1.715,3.834l0.021,0.029l0.071,0.067
			c0.676,0.637,1.048,1.496,1.048,2.42c0,0.913-0.365,1.766-1.051,2.424c-0.001,0.001-0.298,0.305-0.357,0.362l-0.027,0.025
			l-0.024,0.026c-0.832,0.889-1.318,2.025-1.387,3.229H41.5v-14H43.905 M45.572,55.5H40.5v16h4.223
			c-0.04-0.232-0.077-0.467-0.077-0.707c0-1.061,0.405-2.07,1.124-2.838c0.05-0.046,0.395-0.398,0.395-0.398
			c0.862-0.826,1.336-1.933,1.336-3.123c0-1.202-0.482-2.318-1.361-3.147l-0.031-0.044c-0.929-0.792-1.462-1.943-1.462-3.159
			C44.646,57.132,44.986,56.23,45.572,55.5L45.572,55.5z"/>
	</g>
</g>
<g>
	<g>
		<path fill="#FFFFFF" d="M33.5,22.5v-18h5.603c-0.007,0.007-0.013,0.012-0.018,0.018c-0.944,1.004-1.439,2.254-1.439,3.565
			c0,1.474,0.63,2.87,1.731,3.849l0.075,0.082c0.676,0.637,1.048,1.496,1.048,2.42c0,0.913-0.365,1.766-1.027,2.401
			c-0.024,0.023-0.321,0.327-0.388,0.392c-0.944,1.005-1.439,2.256-1.439,3.566c0,0.583,0.104,1.16,0.302,1.707H33.5z"/>
		<path d="M37.214,5.5c-0.372,0.802-0.568,1.68-0.568,2.583c0,1.71,0.71,3.333,1.958,4.496l0.016,0.022l0.147,0.14
			c0.479,0.452,0.733,1.038,0.733,1.692c0,0.647-0.249,1.228-0.72,1.679l-0.023,0.022l-0.022,0.023
			c-0.002,0.002-0.27,0.275-0.32,0.326l-0.054,0.05l-0.051,0.054c-1.073,1.146-1.664,2.64-1.664,4.205
			c0,0.237,0.015,0.473,0.042,0.707H34.5v-16H37.214 M41.115,3.5H32.5v20h7.181c-0.653-0.75-1.035-1.7-1.035-2.707
			c0-1.061,0.405-2.07,1.124-2.838c0.05-0.046,0.395-0.398,0.395-0.398c0.862-0.826,1.336-1.933,1.336-3.123
			c0-1.202-0.482-2.318-1.361-3.147l-0.031-0.044c-0.929-0.792-1.462-1.943-1.462-3.159c0-1.06,0.405-2.07,1.124-2.837
			c0.051-0.047,0.369-0.373,0.369-0.373C40.561,4.475,40.885,4.008,41.115,3.5L41.115,3.5z"/>
	</g>
	<g>
		<path fill="#FFFFFF" d="M40.173,22.5c-0.343-0.515-0.527-1.107-0.527-1.707c0-0.801,0.304-1.566,0.854-2.154l0.38-0.383
			c1.037-0.993,1.621-2.358,1.621-3.822c0-1.444-0.566-2.79-1.599-3.801l-0.018-0.025l-0.128-0.127
			c-0.705-0.602-1.11-1.475-1.11-2.397c0-0.801,0.303-1.566,0.854-2.153c0.005-0.001,0.355-0.358,0.355-0.358
			c0.325-0.306,0.616-0.668,0.861-1.072H46.5v18H40.173z"/>
		<path d="M45.5,5.5v16h-4.724c-0.086-0.229-0.131-0.468-0.131-0.707c0-0.541,0.203-1.059,0.572-1.459
			c0.113-0.112,0.288-0.29,0.353-0.354c1.244-1.204,1.93-2.817,1.93-4.546c0-1.685-0.648-3.256-1.831-4.449l-0.071-0.101
			L41.404,9.72c-0.482-0.412-0.759-1.008-0.759-1.637c0-0.541,0.203-1.057,0.571-1.457c0.104-0.103,0.259-0.26,0.323-0.326
			c0.259-0.247,0.495-0.514,0.707-0.8H45.5 M47.5,3.5h-6.385c-0.23,0.508-0.555,0.975-0.977,1.373c0,0-0.318,0.326-0.369,0.373
			c-0.719,0.767-1.124,1.777-1.124,2.837c0,1.216,0.533,2.367,1.462,3.159l0.031,0.044c0.879,0.829,1.361,1.945,1.361,3.147
			c0,1.19-0.474,2.297-1.336,3.123c0,0-0.345,0.353-0.395,0.398c-0.719,0.768-1.124,1.777-1.124,2.838
			c0,1.007,0.382,1.957,1.035,2.707H47.5V3.5L47.5,3.5z"/>
	</g>
</g>
<g>
	<path fill="#FFFFFF" d="M50.155,70c-0.006-0.068-0.01-0.138-0.01-0.207c0-0.929,0.352-1.815,0.989-2.496
		c0.025-0.022,0.387-0.391,0.387-0.391C52.471,65.997,53,64.76,53,63.434c0-1.341-0.539-2.588-1.519-3.511
		c-0.867-0.758-1.336-1.771-1.336-2.84c0-0.743,0.232-1.459,0.676-2.083H56v15H50.155z"/>
	<path d="M55.5,55.5v14h-4.841c0.064-0.688,0.353-1.336,0.83-1.85c0.108-0.108,0.366-0.371,0.367-0.373
		c1.061-1.016,1.644-2.381,1.644-3.844c0-1.445-0.567-2.792-1.601-3.804l-0.049-0.068l-0.095-0.08
		c-0.705-0.603-1.11-1.477-1.11-2.398c0-0.557,0.153-1.097,0.445-1.583H55.5 M56.5,54.5h-5.928c-0.586,0.73-0.927,1.632-0.927,2.583
		c0,1.216,0.533,2.367,1.462,3.159l0.031,0.044c0.879,0.829,1.361,1.945,1.361,3.147c0,1.19-0.474,2.297-1.336,3.123
		c0,0-0.345,0.353-0.395,0.398c-0.719,0.768-1.124,1.777-1.124,2.838c0,0.24,0.037,0.475,0.077,0.707H56.5V54.5L56.5,54.5z"/>
</g>
<path fill="none" stroke="#020202" stroke-miterlimit="10" d="M-19.893-9.268c-0.566,0.196-1.067,0.51-1.485,0.904
	C-22.081-7.61-22.5-6.605-22.5-5.527c0,1.216,0.533,2.367,1.462,3.158l0.031,0.044c0.879,0.83,1.361,1.946,1.361,3.148
	c0,1.187-0.471,2.29-1.327,3.115c0,0-0.354,0.361-0.403,0.408C-22.095,5.112-22.5,6.123-22.5,7.182c0,1.216,0.533,2.367,1.462,3.159
	l0.031,0.05c0.879,0.828,1.361,1.945,1.361,3.147c0,1.202-0.482,2.318-1.361,3.147c0,0-0.318,0.324-0.369,0.372
	c-0.719,0.766-1.124,1.776-1.124,2.836c0,1.217,0.533,2.367,1.462,3.159l0.031,0.044c0.879,0.83,1.361,1.945,1.361,3.147
	c0,1.19-0.474,2.297-1.336,3.124c0,0-0.346,0.353-0.395,0.398c-0.719,0.768-1.124,1.777-1.124,2.837
	c0,1.216,0.533,2.367,1.462,3.159l0.031,0.049c0.879,0.83,1.361,1.945,1.361,3.147s-0.482,2.318-1.361,3.147
	c0,0-0.318,0.326-0.369,0.373c-0.719,0.767-1.124,1.777-1.124,2.837c0,1.216,0.533,2.367,1.462,3.159l0.031,0.044
	c0.879,0.829,1.361,1.945,1.361,3.147c0,1.19-0.474,2.297-1.336,3.123c0,0-0.345,0.353-0.395,0.398
	c-0.719,0.768-1.124,1.777-1.124,2.838c0,1.216,0.533,2.367,1.462,3.158l0.031,0.05c0.879,0.829,1.361,1.945,1.361,3.147
	c0,1.201-0.482,2.318-1.361,3.146c0,0-0.318,0.324-0.369,0.372c-0.719,0.767-1.124,1.776-1.124,2.837
	c0,1.216,0.533,2.366,1.462,3.158l0.031,0.044c0.879,0.829,1.361,1.945,1.361,3.147c0,1.19-0.474,2.297-1.336,3.123l-0.4,0.406
	c-0.715,0.767-1.118,1.773-1.118,2.83c0,1.216,0.533,2.366,1.462,3.158l0.031,0.044c0.879,0.829,1.361,1.945,1.361,3.147
	c0,1.187-0.471,2.289-1.327,3.115c0,0-0.354,0.361-0.403,0.407c-0.719,0.767-1.124,1.777-1.124,2.837
	c0,1.216,0.533,2.367,1.462,3.158l0.031,0.05c0.879,0.829,1.361,1.945,1.361,3.147s-0.482,2.318-1.361,3.147
	c0,0-0.318,0.323-0.368,0.371c-0.72,0.767-1.125,1.776-1.125,2.837c0,1.216,0.533,2.367,1.462,3.158l0.031,0.045
	c0.879,0.828,1.361,1.945,1.361,3.146c0,0.174-0.013,0.346-0.033,0.518"/>
<g>
	<g>
		<path fill="#FFFFFF" d="M-33.5,43.5h-8.955c0.109,1.058,0.597,2.042,1.417,2.742l0.031,0.044c0.879,0.829,1.361,1.945,1.361,3.147
			c0,1.19-0.474,2.297-1.336,3.123c0,0-0.345,0.353-0.395,0.398c-0.719,0.768-1.124,1.777-1.124,2.838
			c0,1.216,0.533,2.367,1.462,3.158l0.031,0.05c0.879,0.829,1.361,1.945,1.361,3.147c0,0.47-0.095,0.92-0.237,1.352h6.383V43.5z"/>
	</g>
</g>
<g>
	<path fill="#FFFFFF" d="M22.139,82.001l-0.031-0.05c-0.929-0.791-1.462-1.942-1.462-3.158c0-1.061,0.405-2.07,1.124-2.838
		c0.05-0.046,0.395-0.398,0.395-0.398c0.862-0.826,1.336-1.933,1.336-3.123c0-1.202-0.482-2.318-1.361-3.147l-0.031-0.044
		c-0.82-0.7-1.308-1.685-1.417-2.742h-6.045v20h8.617c0.143-0.432,0.237-0.882,0.237-1.352C23.5,83.946,23.018,82.83,22.139,82.001z
		"/>
</g>
<rect x="-53.5" y="59.5" fill="#020202" width="2" height="18"/>
<g>
	<path fill="#020202" d="M-47.5,68.5v2h0.803c-0.417-0.589-0.683-1.273-0.758-2H-47.5z"/>
	<path fill="#020202" d="M-47.455,68.5c0.075,0.727,0.341,1.411,0.758,2h5.197v-2H-47.455z"/>
	<path fill="#020202" d="M-44.711,86.5H-50.5v2h5.617c0.143-0.432,0.237-0.882,0.237-1.352
		C-44.646,86.928-44.679,86.714-44.711,86.5z"/>
	<path fill="#020202" d="M-44.646,87.148c0,0.47-0.095,0.92-0.237,1.352h3.383v-2h-3.211
		C-44.679,86.714-44.646,86.928-44.646,87.148z"/>
</g>
<g>
	<path fill="#050505" d="M2.545,70.5c0.075,0.727,0.341,1.411,0.758,2H3.5v-3h-6v3h2v-2H2.545z"/>
	<path fill="#050505" d="M2.545,70.5H-0.5v2h3.803C2.886,71.911,2.62,71.227,2.545,70.5z"/>
	<path fill="#050505" d="M5.289,88.5c0.032,0.214,0.065,0.428,0.065,0.648c0,0.47-0.095,0.92-0.237,1.352H-0.5v3h7v-5H5.289z"/>
	<path fill="#050505" d="M5.354,89.148c0-0.221-0.033-0.435-0.065-0.648H-0.5v2h5.617C5.26,90.068,5.354,89.618,5.354,89.148z"/>
</g>
<g>
	<g>
		<g>
			<path fill="#FFFFFF" d="M23.341,61.5c0.009-0.118,0.014-0.235,0.014-0.352c0-1.436-0.56-2.772-1.579-3.781l-0.017-0.028
				l-0.148-0.149c-0.706-0.601-1.11-1.475-1.11-2.396c0-0.801,0.304-1.566,0.854-2.154l0.38-0.383
				c1.037-0.993,1.621-2.358,1.621-3.822c0-1.445-0.567-2.792-1.601-3.804l-0.018-0.024l-0.125-0.124
				c-0.318-0.271-0.575-0.605-0.759-0.981H27.5v18H23.341z"/>
			<path fill="#020202" d="M26.5,44.5v16h-2.178c-0.143-1.418-0.753-2.727-1.759-3.759l-0.07-0.113l-0.234-0.199
				c-0.482-0.411-0.759-1.007-0.759-1.636c0-0.541,0.203-1.059,0.573-1.459c0.112-0.112,0.287-0.289,0.351-0.354
				c1.245-1.204,1.931-2.817,1.931-4.546c0-1.452-0.481-2.819-1.372-3.934H26.5 M28.5,42.5h-8.955
				c0.109,1.058,0.597,2.042,1.417,2.742l0.031,0.044c0.879,0.829,1.361,1.945,1.361,3.147c0,1.19-0.474,2.297-1.336,3.123
				c0,0-0.345,0.353-0.395,0.398c-0.719,0.768-1.124,1.777-1.124,2.838c0,1.216,0.533,2.367,1.462,3.158l0.031,0.05
				c0.879,0.829,1.361,1.945,1.361,3.147c0,0.47-0.095,0.92-0.237,1.352H28.5V42.5L28.5,42.5z"/>
		</g>
	</g>
	<g>
		<path fill="#FFFFFF" d="M12.646,61.5v-18h4.221c0.265,0.943,0.784,1.785,1.512,2.433l0.074,0.081
			c0.676,0.637,1.048,1.496,1.048,2.42c0,0.913-0.365,1.766-1.027,2.401c-0.024,0.023-0.321,0.328-0.388,0.392
			c-0.944,1.005-1.439,2.256-1.439,3.566c0,1.465,0.623,2.854,1.714,3.833l0.093,0.103c0.676,0.637,1.048,1.496,1.048,2.42
			c0,0.114-0.008,0.231-0.023,0.352H12.646z"/>
		<path fill="#020202" d="M16.157,44.5c0.331,0.787,0.822,1.496,1.449,2.082l0.017,0.023l0.144,0.136
			c0.479,0.452,0.733,1.038,0.733,1.692c0,0.647-0.249,1.228-0.72,1.679l-0.022,0.022l-0.023,0.023c0,0-0.27,0.275-0.32,0.326
			l-0.054,0.05l-0.051,0.054c-1.073,1.146-1.664,2.64-1.664,4.205c0,1.69,0.694,3.296,1.915,4.456l0.02,0.031l0.187,0.176
			c0.314,0.297,0.532,0.65,0.645,1.044h-4.766v-16H16.157 M17.69,42.5h-6.045v20h8.617c0.143-0.432,0.237-0.882,0.237-1.352
			c0-1.202-0.482-2.318-1.361-3.147l-0.031-0.05c-0.929-0.791-1.462-1.942-1.462-3.158c0-1.061,0.405-2.07,1.124-2.838
			c0.05-0.046,0.395-0.398,0.395-0.398c0.862-0.826,1.336-1.933,1.336-3.123c0-1.202-0.482-2.318-1.361-3.147l-0.031-0.044
			C18.287,44.542,17.8,43.558,17.69,42.5L17.69,42.5z"/>
	</g>
	<g>
		<path fill="#FFFFFF" d="M21.962,45.242l0.031,0.044c0.879,0.829,1.361,1.945,1.361,3.147c0,1.19-0.474,2.297-1.336,3.123
			c0,0-0.345,0.353-0.395,0.398c-0.719,0.768-1.124,1.777-1.124,2.838c0,1.216,0.533,2.367,1.462,3.158l0.031,0.05
			c0.718,0.677,1.153,1.549,1.296,2.499H26.5v-16h-5.197C21.493,44.769,21.705,45.023,21.962,45.242z"/>
	</g>
	<g>
		<path fill="#FFFFFF" d="M17.993,58.001l-0.031-0.05c-0.929-0.791-1.462-1.942-1.462-3.158c0-1.061,0.405-2.07,1.124-2.838
			c0.05-0.046,0.395-0.398,0.395-0.398c0.862-0.826,1.336-1.933,1.336-3.123c0-1.202-0.482-2.318-1.361-3.147l-0.031-0.044
			c-0.257-0.219-0.469-0.474-0.659-0.742H13.5v16h5.789C19.146,59.55,18.711,58.678,17.993,58.001z"/>
	</g>
</g>
</svg>
