<?xml version="1.0" encoding="utf-8"?>
<!-- Generator: Adobe Illustrator 16.0.0, SVG Export Plug-In . SVG Version: 6.00 Build 0)  -->
<!DOCTYPE svg PUBLIC "-//W3C//DTD SVG 1.1//EN" "http://www.w3.org/Graphics/SVG/1.1/DTD/svg11.dtd">
<svg version="1.1" id="Layer_1" xmlns="http://www.w3.org/2000/svg" xmlns:xlink="http://www.w3.org/1999/xlink" x="0px" y="0px"
	 width="30px" height="30px" viewBox="1.5 29.5 30 30" enable-background="new 1.5 29.5 30 30" xml:space="preserve">
<g id="Layer_2">
	<rect x="1.5" y="29.5" fill="#FFFFFF" width="30" height="30"/>
</g>
<g id="Layer_1_1_">
	<g>
		<polyline fill="#FFFFFF" points="6.969,54.031 13.875,54.031 15.344,52.188 11.938,49.031 		"/>
		<g>
			<polygon fill="#FFFFFF" points="11.688,47.75 16.781,52.75 20.125,50.094 20.438,49.094 15.094,43.656 			"/>
			<polygon fill="#FFFFFF" points="23.406,33.5 14.688,42.312 22.219,49.812 27.531,44.812 28,43.562 28,33.5 			"/>
		</g>
		<path fill="#020202" d="M23.137,48.143l-0.938,0.787l-0.312-0.312l-0.396-0.396L21.18,47.91l-0.398-0.4l-3.484-3.484l-0.708-0.707
			l-0.09-0.09l-0.617-0.619l-0.09-0.088l-0.293-0.295l8.726-8.727h-2.83l-8.02,8.02c-0.188,0.188-0.293,0.442-0.293,0.707
			c0,0.268,0.105,0.521,0.293,0.707l0.293,0.293l-3.333,3.334c-0.188,0.188-0.293,0.44-0.293,0.707s0.105,0.521,0.293,0.707
			l0.239,0.238l-5.299,5.6c-0.274,0.291-0.35,0.717-0.192,1.084C5.239,55.262,5.601,55.5,6,55.5h8c0.234,0,0.463-0.083,0.643-0.234
			l1.623-1.356l0.164,0.161c0.195,0.195,0.451,0.296,0.707,0.296s0.512-0.101,0.707-0.296l3.333-3.329l0.39,0.389
			c0.188,0.188,0.44,0.293,0.707,0.293c0.268,0,0.521-0.104,0.707-0.293l5.021-5.022v-2.828L27.96,43.32L23.137,48.143z
			 M13.636,53.5H8.323l3.664-3.871l2.857,2.857L13.636,53.5z M17.637,51.449l-0.544,0.457l-0.71-0.711l-3.02-3.021l-0.708-0.707
			l-0.201-0.199l2.626-2.627l0.129,0.129l0.707,0.707l3.323,3.323l0.521,0.523L17.637,51.449z"/>
	</g>
	<g>
		<path d="M14.12,46.984c-3.072,0-5.942-1.33-7.872-3.647c-0.374-0.45-0.695-0.938-1.005-1.41c-0.139-0.212-0.277-0.423-0.421-0.631
			l-0.089-0.129v-0.456l0.094-0.13c0.081-0.108,0.106-0.138,0.124-0.171c0.473-0.869,1.082-1.689,1.808-2.434
			c1.931-1.983,4.543-3.076,7.354-3.076c3.072,0,5.939,1.328,7.871,3.646c0.373,0.448,0.69,0.935,1,1.403
			c0.142,0.214,0.281,0.429,0.428,0.639l0.088,0.128v0.456l-0.154,0.213c-0.021,0.028-0.045,0.055-0.062,0.086
			c-0.479,0.879-1.089,1.699-1.81,2.438C19.542,45.893,16.93,46.984,14.12,46.984z M7.765,40.939
			c1.032,1.398,2.241,2.369,3.611,2.897c-0.249-0.168-0.483-0.36-0.702-0.581c-1.101-1.1-1.593-2.406-1.474-3.896
			C8.641,39.825,8.166,40.348,7.765,40.939z M19.05,39.374c0.078,1.171-0.241,2.292-0.944,3.246
			c-0.354,0.479-0.782,0.889-1.262,1.214c1.426-0.523,2.641-1.492,3.629-2.893C20.075,40.355,19.604,39.837,19.05,39.374z
			 M12.444,38.018c-0.626,0-1.134,0.492-1.155,1.119c-0.021,0.629,0.482,1.163,1.121,1.19c0.001,0,0.002,0,0.003,0
			c0.669,0,1.187-0.507,1.2-1.13c0.015-0.631-0.493-1.16-1.134-1.18l-0.035-0.5V38.018z"/>
		<path fill="#FFFFFF" d="M14.113,35.4c2.787,0,5.568,1.164,7.486,3.466c0.521,0.625,0.938,1.336,1.4,2.006c0,0.048,0,0.094,0,0.14
			c-0.053,0.074-0.111,0.143-0.154,0.221c-0.469,0.856-1.047,1.629-1.729,2.328c-1.906,1.957-4.454,2.924-6.996,2.924
			c-2.789,0-5.57-1.164-7.488-3.467c-0.519-0.623-0.935-1.334-1.398-2.006c0-0.046,0-0.092,0-0.14
			c0.051-0.072,0.111-0.142,0.154-0.22c0.467-0.856,1.048-1.629,1.729-2.327C9.022,36.368,11.571,35.4,14.113,35.4 M12.457,40.828
			c0.895,0,1.636-0.717,1.656-1.62c0.021-0.908-0.7-1.662-1.618-1.69c-0.018,0-0.034,0-0.051,0c-0.889,0-1.624,0.707-1.655,1.604
			c-0.031,0.906,0.682,1.668,1.601,1.706C12.412,40.827,12.435,40.828,12.457,40.828 M9.918,38.23
			c-1.126,0.699-2.006,1.549-2.683,2.604c-0.043,0.068,0.008,0.239,0.069,0.324c1.73,2.382,3.953,3.652,6.69,3.652
			c0.509,0,1.035-0.043,1.579-0.134c2.308-0.376,4.077-1.651,5.39-3.567c0.051-0.072,0.066-0.229,0.023-0.299
			c-0.676-1.041-1.551-1.881-2.657-2.574c1.052,3.388-1.672,5.928-4.062,5.928c-0.004,0-0.004,0-0.008,0
			c-1.252-0.003-2.349-0.376-3.232-1.262C9.729,41.604,9.398,40.041,9.918,38.23 M14.113,34.4c-2.947,0-5.687,1.146-7.713,3.227
			c-0.757,0.777-1.393,1.635-1.89,2.548l-0.024,0.026L4.42,40.29l-0.187,0.261v0.321v0.14v0.312L4.41,41.58
			c0.142,0.205,0.278,0.413,0.415,0.621c0.317,0.484,0.646,0.984,1.037,1.456c2.026,2.433,5.036,3.827,8.258,3.827
			c2.946,0,5.685-1.146,7.712-3.227c0.753-0.771,1.391-1.629,1.891-2.546l0.021-0.022l0.072-0.099L24,41.33v-0.319v-0.14v-0.312
			l-0.178-0.258c-0.146-0.207-0.281-0.417-0.42-0.628c-0.316-0.481-0.645-0.978-1.033-1.446C20.343,35.795,17.334,34.4,14.113,34.4
			L14.113,34.4z M12.459,39.828c-0.395-0.016-0.683-0.318-0.671-0.676c0.013-0.351,0.307-0.635,0.656-0.635h0.051
			c0.336,0.01,0.627,0.31,0.618,0.666C13.105,39.539,12.812,39.827,12.459,39.828L12.459,39.828z M19.18,41.717
			c0.155-0.389,0.266-0.792,0.325-1.207c0.122,0.139,0.238,0.279,0.349,0.426C19.639,41.217,19.414,41.479,19.18,41.717
			L19.18,41.717z M8.386,40.93c0.107-0.143,0.221-0.281,0.34-0.416c0.053,0.395,0.149,0.773,0.29,1.139
			C8.8,41.43,8.59,41.189,8.386,40.93L8.386,40.93z"/>
	</g>
</g>
</svg>
