<?xml version="1.0" encoding="utf-8"?>
<!-- Generator: Adobe Illustrator 16.0.0, SVG Export Plug-In . SVG Version: 6.00 Build 0)  -->
<!DOCTYPE svg PUBLIC "-//W3C//DTD SVG 1.1//EN" "http://www.w3.org/Graphics/SVG/1.1/DTD/svg11.dtd">
<svg version="1.1" id="Layer_1" xmlns="http://www.w3.org/2000/svg" xmlns:xlink="http://www.w3.org/1999/xlink" x="0px" y="0px"
	 width="39px" height="146px" viewBox="-22 -58.5 39 146" enable-background="new -22 -58.5 39 146" xml:space="preserve">
<g opacity="0.1">
	<path d="M2,15.5H1v1v6v0.333L1.2,23.1l1.5,2L3,25.5h0.5H8h0.414l0.293-0.293l0.58-0.581l0.218,0.375L9.794,25.5h0.576H14h0.414
		l0.293-0.293l1-1L16,23.914V23.5v-7v-1h-1H2z M13,22.5h-1.465L11,21.697V18.5h2V22.5z M4.535,22.5L4,21.697V18.5h4v3.086
		L7.086,22.5H4.535z"/>
	<polygon points="3.5,26.5 3.086,26.5 2.793,26.793 1.293,28.293 1,28.586 1,29 1,34.5 1,35.5 2,35.5 3,35.5 4,35.5 4,34.5 
		4,29.914 4.414,29.5 15,29.5 16,29.5 16,28.5 16,27.5 16,26.5 15,26.5 	"/>
	<polygon points="2,56.5 1,56.5 1,57.5 1,58.5 1,59.5 2,59.5 7,59.5 7,63.5 2,63.5 1,63.5 1,64.5 1,65.5 1,66.5 2,66.5 15,66.5 
		16,66.5 16,65.5 16,64.5 16,63.5 15,63.5 10,63.5 10,59.5 15,59.5 16,59.5 16,58.5 16,57.5 16,56.5 15,56.5 	"/>
	<path d="M2,77.5H1v1v5v0.48l0.375,0.301l2.5,2L4.149,86.5H4.5H15h1v-1v-7v-1h-1H2z M5.333,83.5L4,82.5v-2h9v3H5.333z"/>
	<polygon points="-8.695,-4.428 -8.947,-4.596 -9.25,-4.596 -10.5,-4.596 -10.902,-4.596 -11.191,-4.318 -17.152,1.404 
		-17.336,1.404 -18,0.74 -18,-1.646 -16.852,-2.664 -16.057,-3.367 -16.808,-4.119 -17.493,-4.804 -18.191,-5.5 -18.897,-4.813 
		-20.697,-3.062 -21,-2.768 -21,-2.346 -21,1.654 -21,2.068 -20.707,2.361 -18.957,4.111 -18.664,4.404 -18.25,4.404 -16.25,4.404 
		-15.848,4.404 -15.558,4.127 -9.689,-1.507 -9,-1.021 -9,0.781 -10.52,1.975 -11.407,2.672 -10.609,3.469 -9.907,4.172 
		-9.268,4.809 -8.566,4.237 -6.367,2.438 -6,2.137 -6,1.663 -6,-2.096 -6,-2.631 -6.445,-2.928 	"/>
	<polygon points="-8.695,26.572 -8.947,26.404 -9.25,26.404 -10.5,26.404 -10.902,26.404 -11.191,26.682 -17.152,32.404 
		-17.336,32.404 -18,31.74 -18,29.354 -16.852,28.336 -16.057,27.631 -16.809,26.881 -17.494,26.196 -18.191,25.5 -18.897,26.188 
		-20.697,27.938 -21,28.231 -21,28.654 -21,32.654 -21,33.068 -20.707,33.361 -18.957,35.111 -18.664,35.404 -18.25,35.404 
		-16.25,35.404 -15.848,35.404 -15.558,35.127 -9.689,29.493 -9,29.979 -9,31.781 -10.52,32.975 -11.407,33.672 -10.609,34.469 
		-9.907,35.172 -9.268,35.809 -8.566,35.237 -6.367,33.438 -6,33.137 -6,32.664 -6,28.904 -6,28.369 -6.445,28.072 	"/>
	<polygon points="13.305,46.668 13.053,46.5 12.75,46.5 11.5,46.5 11.098,46.5 10.809,46.779 4.848,52.5 4.664,52.5 4,51.836 
		4,49.45 5.148,48.432 5.942,47.727 5.191,46.977 4.507,46.292 3.81,45.594 3.103,46.282 1.303,48.033 1,48.328 1,48.75 1,52.75 
		1,53.164 1.293,53.457 3.043,55.207 3.336,55.5 3.75,55.5 5.75,55.5 6.152,55.5 6.442,55.221 12.311,49.589 13,50.074 13,51.877 
		11.48,53.071 10.593,53.768 11.391,54.565 12.093,55.266 12.732,55.905 13.434,55.333 15.633,53.533 16,53.233 16,52.759 16,49 
		16,48.465 15.555,48.168 	"/>
	<polygon points="-8.4,15.604 -8.667,15.404 -9,15.404 -18,15.404 -18.333,15.404 -18.6,15.604 -20.6,17.104 -21,17.404 -21,17.904 
		-21,22.404 -21,22.842 -20.678,23.139 -18.878,24.799 -18.193,25.428 -17.515,24.791 -16.815,24.133 -16.063,23.426 
		-16.793,22.697 -18.001,21.489 -18.008,18.94 -17.199,18.404 -9.803,18.404 -9,18.939 -9,20.99 -10.707,22.697 -11.486,23.477 
		-10.636,24.176 -9.836,24.836 -9.143,25.406 -8.5,24.776 -6.3,22.618 -6,22.324 -6,21.904 -6,17.904 -6,17.404 -6.4,17.104 	"/>
	<polygon points="4,5.5 3.667,5.5 3.4,5.7 1.4,7.2 1,7.5 1,8 1,12 1,12.5 1.4,12.8 3.4,14.3 3.667,14.5 4,14.5 15,14.5 16,14.5 
		16,13.5 16,12.5 16,11.5 15,11.5 4.803,11.5 4,10.965 4,9.035 4.803,8.5 15,8.5 16,8.5 16,7.5 16,6.5 16,5.5 15,5.5 	"/>
	<path d="M-20,5.404h-1v1v1v1h1h3.26l0.588,0.667l-4.342,2.463L-21,11.822v0.582v1v1.673l1.474-0.792l5.408-2.906l2.368,2.688
		l0.299,0.339H-11h2h0.236l0.211-0.104l2-1L-6,13.022v-0.618v-6v-1h-1H-20z M-9,8.404v2.882l-0.236,0.118h-0.818l-2.699-3H-9z"/>
	<polygon points="4,67.5 3.586,67.5 3.293,67.793 1.293,69.793 1,70.086 1,70.5 1,75.5 1,76.5 2,76.5 3,76.5 4,76.5 4,75.5 
		4,71.414 4.914,70.5 7,70.5 7,74.5 7,75.5 8,75.5 9,75.5 10,75.5 10,74.5 10,70.5 13,70.5 13,75.5 13,76.5 14,76.5 15,76.5 
		16,76.5 16,75.5 16,68.5 16,67.5 15,67.5 	"/>
	<polygon points="14,36.5 13,36.5 13,37.5 13,39.5 4,39.5 4,37.5 4,36.5 3,36.5 2,36.5 1,36.5 1,37.5 1,44.5 1,45.5 2,45.5 3,45.5 
		4,45.5 4,44.5 4,42.5 13,42.5 13,44.5 13,45.5 14,45.5 15,45.5 16,45.5 16,44.5 16,37.5 16,36.5 15,36.5 	"/>
	<path d="M15-4.5H2H1v1v1v1h1h3.26l4.99,5.661L10.549,4.5H11h2h0.236l0.211-0.105l2-1L16,3.118V2.5v-6v-1H15z M13-1.5v2.882
		L12.764,1.5h-0.818l-2.699-3H13z"/>
</g>
<g>
	<g>
		<path d="M2,22.5l1.5,2H8L9.5,23l0.87,1.5H14l1-1v-7H2V22.5z M10,17.5h4V23l-0.5,0.5H11L10,22V17.5z M3,17.5h6V22l-1.5,1.5H4L3,22
			V17.5z"/>
	</g>
	<g>
		<polygon points="2,29 2,34.5 3,34.5 3,29.5 4,28.5 15,28.5 15,27.5 3.5,27.5 		"/>
	</g>
	<g>
		<polygon points="2,58.5 8,58.5 8,64.5 2,64.5 2,65.5 15,65.5 15,64.5 9,64.5 9,58.5 15,58.5 15,57.5 2,57.5 		"/>
	</g>
	<g>
		<path d="M2,83.5l2.5,2H15v-7H2V83.5z M3,79.5h11v5H5L3,83V79.5z"/>
	</g>
	<g>
		<polygon points="-10.5,-3.596 -16.75,2.404 -17.75,2.404 -19,1.154 -19,-2.096 -17.515,-3.412 -18.2,-4.097 -20,-2.346 -20,1.654 
			-18.25,3.404 -16.25,3.404 -10,-2.596 -9.5,-2.596 -8,-1.541 -8,1.268 -9.902,2.762 -9.2,3.463 -7,1.663 -7,-2.096 -9.25,-3.596 
					"/>
	</g>
	<g>
		<polygon points="-10.5,27.404 -16.75,33.404 -17.75,33.404 -19,32.154 -19,28.904 -17.516,27.588 -18.2,26.904 -20,28.654 
			-20,32.654 -18.25,34.404 -16.25,34.404 -10,28.404 -9.5,28.404 -8,29.459 -8,32.268 -9.902,33.762 -9.2,34.463 -7,32.664 
			-7,28.904 -9.25,27.404 		"/>
	</g>
	<g>
		<polygon points="11.5,47.5 5.25,53.5 4.25,53.5 3,52.25 3,49 4.484,47.684 3.8,46.999 2,48.75 2,52.75 3.75,54.5 5.75,54.5 
			12,48.5 12.5,48.5 14,49.555 14,52.363 12.098,53.857 12.8,54.559 15,52.759 15,49 12.75,47.5 		"/>
	</g>
	<g>
		<polygon points="-18,16.404 -20,17.904 -20,22.404 -18.2,24.062 -17.5,23.404 -19,21.904 -19.01,18.404 -17.5,17.404 -9.5,17.404 
			-8,18.404 -8,21.404 -10,23.404 -9.2,24.062 -7,21.904 -7,17.904 -9,16.404 		"/>
	</g>
	<g>
		<polygon points="2,8 2,12 4,13.5 15,13.5 15,12.5 4.5,12.5 3,11.5 3,8.5 4.5,7.5 15,7.5 15,6.5 4,6.5 		"/>
	</g>
	<g>
		<path d="M-20,7.404h3.712l1.701,1.93L-20,12.404v1l6.107-3.282L-11,13.404h2l2-1v-6h-13V7.404z M-8,7.404v4.5l-1,0.5h-1.5l-4.5-5
			H-8z"/>
	</g>
	<g>
		<polygon points="2,70.5 2,75.5 3,75.5 3,71 4.5,69.5 8,69.5 8,74.5 9,74.5 9,69.5 14,69.5 14,75.5 15,75.5 15,68.5 4,68.5 		"/>
	</g>
	<g>
		<polygon points="14,40.5 3,40.5 3,37.5 2,37.5 2,44.5 3,44.5 3,41.5 14,41.5 14,44.5 15,44.5 15,37.5 14,37.5 		"/>
	</g>
	<g>
		<path d="M2-3.5v1h3.712L11,3.5h2l2-1v-6H2z M14,2l-1,0.5h-1.5L7-2.5h7V2z"/>
	</g>
</g>
<g>
	<g opacity="0.1">
		<polygon points="14.781,-56.476 1.781,-53.558 1,-53.383 1,-52.582 1,-50.242 1,-49.431 1.793,-49.264 14.794,-46.521 16,-46.267 
			16,-47.5 16,-48.58 16,-49.388 15.21,-49.558 6.437,-51.442 15.223,-53.445 16,-53.622 16,-54.42 16,-55.5 16,-56.749 		"/>
		<polygon points="4.199,-25.5 3.842,-25.5 3.566,-25.273 1.367,-23.474 1,-23.174 1,-22.7 1,-22 1,-21.485 1.419,-21.187 1.68,-21 
			1.419,-20.813 1,-20.515 1,-20 1,-19.3 1,-18.826 1.367,-18.526 3.566,-16.727 3.842,-16.5 4.199,-16.5 15,-16.5 16,-16.5 
			16,-17.5 16,-18.5 16,-19.5 15,-19.5 9,-19.5 9,-20.5 9,-21.5 9,-22.5 15,-22.5 16,-22.5 16,-23.5 16,-24.5 16,-25.5 15,-25.5 		
			"/>
		<polygon points="14,-45.251 13,-45.251 13,-44.251 13,-42.251 4,-42.251 4,-44.251 4,-45.251 3,-45.251 2,-45.251 1,-45.251 
			1,-44.251 1,-37.251 1,-36.251 2,-36.251 3,-36.251 4,-36.251 4,-37.251 4,-39.251 13,-39.251 13,-37.251 13,-36.251 14,-36.251 
			15,-36.251 16,-36.251 16,-37.251 16,-44.251 16,-45.251 15,-45.251 		"/>
		<polygon points="4,-35.5 3.586,-35.5 3.293,-35.207 1.293,-33.207 1,-32.914 1,-32.5 1,-27.5 1,-26.5 2,-26.5 3,-26.5 4,-26.5 
			4,-27.5 4,-31.586 4.914,-32.5 7,-32.5 7,-28.5 7,-27.5 8,-27.5 9,-27.5 10,-27.5 10,-28.5 10,-32.5 13,-32.5 13,-27.5 13,-26.5 
			14,-26.5 15,-26.5 16,-26.5 16,-27.5 16,-34.5 16,-35.5 15,-35.5 		"/>
	</g>
	<g>
		<path d="M2-52.582L15-55.5v1.08L2.99-51.683v0.522L15-48.58v1.08L2-50.242V-52.582z"/>
	</g>
	<g>
		<path d="M4.199-24.5H15v1H4.506l-1.256,1v0.25l1.256,0.75H8v1H4.506L3.25-19.75v0.25l1.256,1H15v1H4.199L2-19.3V-20l1.4-1L2-22
			v-0.7L4.199-24.5z"/>
	</g>
	<g>
		<g>
			<polygon points="14,-41.251 3,-41.251 3,-44.251 2,-44.251 2,-37.251 3,-37.251 3,-40.251 14,-40.251 14,-37.251 15,-37.251 
				15,-44.251 14,-44.251 			"/>
		</g>
	</g>
	<g>
		<g>
			<polygon points="2,-32.5 2,-27.5 3,-27.5 3,-32 4.5,-33.5 8,-33.5 8,-28.5 9,-28.5 9,-33.5 14,-33.5 14,-27.5 15,-27.5 15,-34.5 
				4,-34.5 			"/>
		</g>
	</g>
</g>
</svg>
