<?xml version="1.0" encoding="utf-8"?>
<!-- Generator: Adobe Illustrator 16.0.0, SVG Export Plug-In . SVG Version: 6.00 Build 0)  -->
<!DOCTYPE svg PUBLIC "-//W3C//DTD SVG 1.1//EN" "http://www.w3.org/Graphics/SVG/1.1/DTD/svg11.dtd">
<svg version="1.1" id="Layer_1" xmlns="http://www.w3.org/2000/svg" xmlns:xlink="http://www.w3.org/1999/xlink" x="0px" y="0px"
	 width="15px" height="107px" viewBox="0 0 15 107" enable-background="new 0 0 15 107" xml:space="preserve">
<rect width="15" height="107"/>
<g>
	<path fill="#FFFFFF" d="M1.989,102.52v3.239H1v-7.56h0.989v3.24H13.6v1.08H1.989z"/>
	<path fill="#FFFFFF" d="M11.8,94.959H1v-7.561h0.989v6.48h4.824v-5.22h0.99v5.22h3.689l1.116-1.115v-5.365h0.99v5.761L11.8,94.959z
		"/>
	<path fill="#FFFFFF" d="M13.6,82.971v1.188l-6.3-3.168L1,84.159v-1.188l5.004-2.592L1,77.805V76.6l6.3,3.186l6.3-3.186v1.205
		l-4.986,2.574L13.6,82.971z"/>
	<path fill="#FFFFFF" d="M1.989,70.119v3.24H1v-7.561h0.989v3.24H13.6v1.08H1.989z"/>
	<path fill="#FFFFFF" d="M1.989,48.52v3.24H1V44.2h0.989v3.24h10.62V44.2h0.99v7.56h-0.99v-3.24H1.989z"/>
	<path fill="#FFFFFF" d="M13.6,40.96H1v-1.098l10.313-5.382H1V33.4h12.6v1.116L3.304,39.88H13.6V40.96z"/>
	<path fill="#FFFFFF" d="M13.6,30.16H1V24.4l1.8-1.8h1.908l5.58,6.48H13.6V30.16z M1.989,29.08h6.948l-4.536-5.4H3.105l-1.116,1.116
		V29.08z"/>
	<path fill="#FFFFFF" d="M1,11.8h10.8l1.8,1.8v3.96l-1.8,1.8H1v-1.08h10.493l1.116-1.116v-3.168l-1.116-1.116H1V11.8z"/>
	<path fill="#FFFFFF" d="M1.989,5.32v3.24H1V1h0.989v3.24H13.6v1.08H1.989z"/>
</g>
</svg>
