<?xml version="1.0" encoding="utf-8"?>
<!-- Generator: Adobe Illustrator 16.0.0, SVG Export Plug-In . SVG Version: 6.00 Build 0)  -->
<!DOCTYPE svg PUBLIC "-//W3C//DTD SVG 1.1//EN" "http://www.w3.org/Graphics/SVG/1.1/DTD/svg11.dtd">
<svg version="1.1" id="Layer_2_1_" xmlns="http://www.w3.org/2000/svg" xmlns:xlink="http://www.w3.org/1999/xlink" x="0px" y="0px"
	 width="30px" height="1050px" viewBox="5.5 -4.5 30 1050" enable-background="new 5.5 -4.5 30 1050" xml:space="preserve">
<g>
	<rect x="5.5" y="295.5" fill="#DDDDDD" width="30" height="30"/>
	<rect x="5.5" y="505.5" fill="#DDDDDD" width="30" height="30"/>
	<rect x="5.5" y="535.5" fill="#FFFFFF" width="30" height="180"/>
	<rect x="5.5" y="325.5" fill="#FFFFFF" width="30" height="180"/>
	<rect x="5.5" y="715.5" fill="#DDDDDD" width="30" height="30"/>
	<rect x="5.5" y="745.5" fill="#FFFFFF" width="30" height="90"/>
	<rect x="5.5" y="-4.5" fill="#FFFFFF" width="30" height="300"/>
	<g>
		<g>
			<rect x="12.5" y="17.501" width="1" height="1"/>
			<rect x="15.5" y="17.501" width="1" height="1"/>
			<rect x="18.5" y="17.501" width="1" height="1"/>
			<rect x="21.5" y="17.501" width="1" height="1"/>
			<rect x="24.5" y="17.501" width="1" height="1"/>
			<rect x="27.5" y="17.501" width="1" height="1"/>
			<rect x="12.5" y="19.501" width="1" height="1"/>
			<rect x="15.5" y="19.501" width="1" height="1"/>
			<rect x="18.5" y="19.501" width="1" height="1"/>
			<rect x="21.5" y="19.501" width="1" height="1"/>
			<rect x="24.5" y="19.501" width="1" height="1"/>
			<rect x="27.5" y="19.501" width="1" height="1"/>
			<path d="M21.008,12.162c-2.16,0-3.654-1.801-3.654-3.961V8.164c0-2.16,1.531-3.924,3.654-3.924c1.26,0,2.25,0.539,3.223,1.422
				l1.766-2.035c-1.17-1.15-2.594-1.945-4.971-1.945c-3.871,0-6.57,2.936-6.57,6.52v0.035c0,3.619,2.756,6.48,6.463,6.48
				c2.434,0,3.871-0.863,5.168-2.25l-1.766-1.783C23.332,11.585,22.449,12.162,21.008,12.162z"/>
		</g>
		<g>
			<rect x="12.5" y="47.501" fill="#FF0000" width="1" height="1"/>
			<rect x="15.5" y="47.501" fill="#FF0000" width="1" height="1"/>
			<rect x="18.5" y="47.501" fill="#FF0000" width="1" height="1"/>
			<rect x="21.5" y="47.501" fill="#FF0000" width="1" height="1"/>
			<rect x="24.5" y="47.501" fill="#FF0000" width="1" height="1"/>
			<rect x="27.5" y="47.501" fill="#FF0000" width="1" height="1"/>
			<rect x="12.5" y="49.501" fill="#FF0000" width="1" height="1"/>
			<rect x="15.5" y="49.501" fill="#FF0000" width="1" height="1"/>
			<rect x="18.5" y="49.501" fill="#FF0000" width="1" height="1"/>
			<rect x="21.5" y="49.501" fill="#FF0000" width="1" height="1"/>
			<rect x="24.5" y="49.501" fill="#FF0000" width="1" height="1"/>
			<rect x="27.5" y="49.501" fill="#FF0000" width="1" height="1"/>
			<path fill="#FF0000" d="M21.008,42.162c-2.16,0-3.654-1.801-3.654-3.961v-0.037c0-2.16,1.531-3.924,3.654-3.924
				c1.26,0,2.25,0.539,3.223,1.422l1.766-2.035c-1.17-1.15-2.594-1.945-4.971-1.945c-3.871,0-6.57,2.936-6.57,6.52v0.035
				c0,3.619,2.756,6.48,6.463,6.48c2.434,0,3.871-0.863,5.168-2.25l-1.766-1.783C23.332,41.585,22.449,42.162,21.008,42.162z"/>
		</g>
		<g>
			<rect x="12.5" y="77.5" fill="#FF7700" width="1" height="1"/>
			<rect x="15.5" y="77.5" fill="#FF7700" width="1" height="1"/>
			<rect x="18.5" y="77.5" fill="#FF7700" width="1" height="1"/>
			<rect x="21.5" y="77.5" fill="#FF7700" width="1" height="1"/>
			<rect x="24.5" y="77.5" fill="#FF7700" width="1" height="1"/>
			<rect x="27.5" y="77.5" fill="#FF7700" width="1" height="1"/>
			<rect x="12.5" y="79.5" fill="#FF7700" width="1" height="1"/>
			<rect x="15.5" y="79.5" fill="#FF7700" width="1" height="1"/>
			<rect x="18.5" y="79.5" fill="#FF7700" width="1" height="1"/>
			<rect x="21.5" y="79.5" fill="#FF7700" width="1" height="1"/>
			<rect x="24.5" y="79.5" fill="#FF7700" width="1" height="1"/>
			<rect x="27.5" y="79.5" fill="#FF7700" width="1" height="1"/>
			<path fill="#FF7700" d="M21.008,72.161c-2.16,0-3.654-1.801-3.654-3.961v-0.037c0-2.16,1.531-3.924,3.654-3.924
				c1.26,0,2.25,0.539,3.223,1.422l1.766-2.035c-1.17-1.15-2.594-1.945-4.971-1.945c-3.871,0-6.57,2.937-6.57,6.521v0.035
				c0,3.619,2.756,6.48,6.463,6.48c2.434,0,3.871-0.863,5.168-2.25l-1.766-1.783C23.332,71.584,22.449,72.161,21.008,72.161z"/>
		</g>
		<g>
			<rect x="12.5" y="107.5" fill="#FFFF00" width="1" height="1"/>
			<rect x="15.5" y="107.5" fill="#FFFF00" width="1" height="1"/>
			<rect x="18.5" y="107.5" fill="#FFFF00" width="1" height="1"/>
			<rect x="21.5" y="107.5" fill="#FFFF00" width="1" height="1"/>
			<rect x="24.5" y="107.5" fill="#FFFF00" width="1" height="1"/>
			<rect x="27.5" y="107.5" fill="#FFFF00" width="1" height="1"/>
			<rect x="12.5" y="109.5" fill="#FFFF00" width="1" height="1"/>
			<rect x="15.5" y="109.5" fill="#FFFF00" width="1" height="1"/>
			<rect x="18.5" y="109.5" fill="#FFFF00" width="1" height="1"/>
			<rect x="21.5" y="109.5" fill="#FFFF00" width="1" height="1"/>
			<rect x="24.5" y="109.5" fill="#FFFF00" width="1" height="1"/>
			<rect x="27.5" y="109.5" fill="#FFFF00" width="1" height="1"/>
			<path fill="#FFFF00" d="M21.008,102.161c-2.16,0-3.654-1.801-3.654-3.961v-0.037c0-2.16,1.531-3.924,3.654-3.924
				c1.26,0,2.25,0.539,3.223,1.422l1.766-2.035c-1.17-1.15-2.594-1.945-4.971-1.945c-3.871,0-6.57,2.937-6.57,6.521v0.035
				c0,3.619,2.756,6.48,6.463,6.48c2.434,0,3.871-0.863,5.168-2.25l-1.766-1.783C23.332,101.584,22.449,102.161,21.008,102.161z"/>
		</g>
		<g>
			<rect x="12.5" y="137.5" fill="#00FF00" width="1" height="1"/>
			<rect x="15.5" y="137.5" fill="#00FF00" width="1" height="1"/>
			<rect x="18.5" y="137.5" fill="#00FF00" width="1" height="1"/>
			<rect x="21.5" y="137.5" fill="#00FF00" width="1" height="1"/>
			<rect x="24.5" y="137.5" fill="#00FF00" width="1" height="1"/>
			<rect x="27.5" y="137.5" fill="#00FF00" width="1" height="1"/>
			<rect x="12.5" y="139.5" fill="#00FF00" width="1" height="1"/>
			<rect x="15.5" y="139.5" fill="#00FF00" width="1" height="1"/>
			<rect x="18.5" y="139.5" fill="#00FF00" width="1" height="1"/>
			<rect x="21.5" y="139.5" fill="#00FF00" width="1" height="1"/>
			<rect x="24.5" y="139.5" fill="#00FF00" width="1" height="1"/>
			<rect x="27.5" y="139.5" fill="#00FF00" width="1" height="1"/>
			<path fill="#00FF00" d="M21.008,132.161c-2.16,0-3.654-1.801-3.654-3.961v-0.037c0-2.16,1.531-3.924,3.654-3.924
				c1.26,0,2.25,0.539,3.223,1.422l1.766-2.035c-1.17-1.15-2.594-1.945-4.971-1.945c-3.871,0-6.57,2.937-6.57,6.521v0.035
				c0,3.619,2.756,6.48,6.463,6.48c2.434,0,3.871-0.863,5.168-2.25l-1.766-1.783C23.332,131.584,22.449,132.161,21.008,132.161z"/>
		</g>
		<g>
			<rect x="12.5" y="167.5" fill="#0000FF" width="1" height="1"/>
			<rect x="15.5" y="167.5" fill="#0000FF" width="1" height="1"/>
			<rect x="18.5" y="167.5" fill="#0000FF" width="1" height="1"/>
			<rect x="21.5" y="167.5" fill="#0000FF" width="1" height="1"/>
			<rect x="24.5" y="167.5" fill="#0000FF" width="1" height="1"/>
			<rect x="27.5" y="167.5" fill="#0000FF" width="1" height="1"/>
			<rect x="12.5" y="169.5" fill="#0000FF" width="1" height="1"/>
			<rect x="15.5" y="169.5" fill="#0000FF" width="1" height="1"/>
			<rect x="18.5" y="169.5" fill="#0000FF" width="1" height="1"/>
			<rect x="21.5" y="169.5" fill="#0000FF" width="1" height="1"/>
			<rect x="24.5" y="169.5" fill="#0000FF" width="1" height="1"/>
			<rect x="27.5" y="169.5" fill="#0000FF" width="1" height="1"/>
			<path fill="#0000FF" d="M21.008,162.161c-2.16,0-3.654-1.801-3.654-3.961v-0.037c0-2.16,1.531-3.924,3.654-3.924
				c1.26,0,2.25,0.539,3.223,1.422l1.766-2.035c-1.17-1.15-2.594-1.945-4.971-1.945c-3.871,0-6.57,2.937-6.57,6.521v0.035
				c0,3.619,2.756,6.48,6.463,6.48c2.434,0,3.871-0.863,5.168-2.25l-1.766-1.783C23.332,161.584,22.449,162.161,21.008,162.161z"/>
		</g>
		<g>
			<rect x="12.5" y="197.5" fill="#FF00FF" width="1" height="1"/>
			<rect x="15.5" y="197.5" fill="#FF00FF" width="1" height="1"/>
			<rect x="18.5" y="197.5" fill="#FF00FF" width="1" height="1"/>
			<rect x="21.5" y="197.5" fill="#FF00FF" width="1" height="1"/>
			<rect x="24.5" y="197.5" fill="#FF00FF" width="1" height="1"/>
			<rect x="27.5" y="197.5" fill="#FF00FF" width="1" height="1"/>
			<rect x="12.5" y="199.5" fill="#FF00FF" width="1" height="1"/>
			<rect x="15.5" y="199.5" fill="#FF00FF" width="1" height="1"/>
			<rect x="18.5" y="199.5" fill="#FF00FF" width="1" height="1"/>
			<rect x="21.5" y="199.5" fill="#FF00FF" width="1" height="1"/>
			<rect x="24.5" y="199.5" fill="#FF00FF" width="1" height="1"/>
			<rect x="27.5" y="199.5" fill="#FF00FF" width="1" height="1"/>
			<path fill="#FF00FF" d="M21.008,192.161c-2.16,0-3.654-1.801-3.654-3.961v-0.037c0-2.16,1.531-3.924,3.654-3.924
				c1.26,0,2.25,0.539,3.223,1.422l1.766-2.035c-1.17-1.15-2.594-1.945-4.971-1.945c-3.871,0-6.57,2.937-6.57,6.521v0.035
				c0,3.619,2.756,6.48,6.463,6.48c2.434,0,3.871-0.863,5.168-2.25l-1.766-1.783C23.332,191.584,22.449,192.161,21.008,192.161z"/>
		</g>
		<g>
			<rect x="12.5" y="227.5" fill="#404040" width="1" height="1"/>
			<rect x="15.5" y="227.5" fill="#404040" width="1" height="1"/>
			<rect x="18.5" y="227.5" fill="#404040" width="1" height="1"/>
			<rect x="21.5" y="227.5" fill="#404040" width="1" height="1"/>
			<rect x="24.5" y="227.5" fill="#404040" width="1" height="1"/>
			<rect x="27.5" y="227.5" fill="#404040" width="1" height="1"/>
			<rect x="12.5" y="229.5" fill="#404040" width="1" height="1"/>
			<rect x="15.5" y="229.5" fill="#404040" width="1" height="1"/>
			<rect x="18.5" y="229.5" fill="#404040" width="1" height="1"/>
			<rect x="21.5" y="229.5" fill="#404040" width="1" height="1"/>
			<rect x="24.5" y="229.5" fill="#404040" width="1" height="1"/>
			<rect x="27.5" y="229.5" fill="#404040" width="1" height="1"/>
			<path fill="#404040" d="M21.008,222.161c-2.16,0-3.654-1.801-3.654-3.961v-0.037c0-2.16,1.531-3.924,3.654-3.924
				c1.26,0,2.25,0.539,3.223,1.422l1.766-2.035c-1.17-1.15-2.594-1.945-4.971-1.945c-3.871,0-6.57,2.937-6.57,6.521v0.035
				c0,3.619,2.756,6.48,6.463,6.48c2.434,0,3.871-0.863,5.168-2.25l-1.766-1.783C23.332,221.584,22.449,222.161,21.008,222.161z"/>
		</g>
		<g>
			<rect x="12.5" y="257.5" fill="#FF3333" width="1" height="1"/>
			<rect x="15.5" y="257.5" fill="#FF3333" width="1" height="1"/>
			<rect x="18.5" y="257.5" fill="#FF3333" width="1" height="1"/>
			<rect x="21.5" y="257.5" fill="#FF3333" width="1" height="1"/>
			<rect x="24.5" y="257.5" fill="#FF3333" width="1" height="1"/>
			<rect x="27.5" y="257.5" fill="#FF3333" width="1" height="1"/>
			<rect x="12.5" y="259.5" fill="#FF3333" width="1" height="1"/>
			<rect x="15.5" y="259.5" fill="#FF3333" width="1" height="1"/>
			<rect x="18.5" y="259.5" fill="#FF3333" width="1" height="1"/>
			<rect x="21.5" y="259.5" fill="#FF3333" width="1" height="1"/>
			<rect x="24.5" y="259.5" fill="#FF3333" width="1" height="1"/>
			<rect x="27.5" y="259.5" fill="#FF3333" width="1" height="1"/>
			<path fill="#FF3333" d="M21.008,252.161c-2.16,0-3.654-1.801-3.654-3.961v-0.037c0-2.16,1.531-3.924,3.654-3.924
				c1.26,0,2.25,0.539,3.223,1.422l1.766-2.035c-1.17-1.15-2.594-1.945-4.971-1.945c-3.871,0-6.57,2.937-6.57,6.521v0.035
				c0,3.619,2.756,6.48,6.463,6.48c2.434,0,3.871-0.863,5.168-2.25l-1.766-1.783C23.332,251.584,22.449,252.161,21.008,252.161z"/>
		</g>
		<g>
			<rect x="12.5" y="287.5" fill="#FF9233" width="1" height="1"/>
			<rect x="15.5" y="287.5" fill="#FF9233" width="1" height="1"/>
			<rect x="18.5" y="287.5" fill="#FF9233" width="1" height="1"/>
			<rect x="21.5" y="287.5" fill="#FF9233" width="1" height="1"/>
			<rect x="24.5" y="287.5" fill="#FF9233" width="1" height="1"/>
			<rect x="27.5" y="287.5" fill="#FF9233" width="1" height="1"/>
			<rect x="12.5" y="289.5" fill="#FF9233" width="1" height="1"/>
			<rect x="15.5" y="289.5" fill="#FF9233" width="1" height="1"/>
			<rect x="18.5" y="289.5" fill="#FF9233" width="1" height="1"/>
			<rect x="21.5" y="289.5" fill="#FF9233" width="1" height="1"/>
			<rect x="24.5" y="289.5" fill="#FF9233" width="1" height="1"/>
			<rect x="27.5" y="289.5" fill="#FF9233" width="1" height="1"/>
			<path fill="#FF9233" d="M21.008,282.161c-2.16,0-3.654-1.801-3.654-3.961v-0.037c0-2.16,1.531-3.924,3.654-3.924
				c1.26,0,2.25,0.539,3.223,1.422l1.766-2.035c-1.17-1.15-2.594-1.945-4.971-1.945c-3.871,0-6.57,2.937-6.57,6.521v0.035
				c0,3.619,2.756,6.48,6.463,6.48c2.434,0,3.871-0.863,5.168-2.25l-1.766-1.783C23.332,281.584,22.449,282.161,21.008,282.161z"/>
		</g>
		<g>
			<rect x="12.5" y="317.5" fill="#FFFF33" width="1" height="1"/>
			<rect x="15.5" y="317.5" fill="#FFFF33" width="1" height="1"/>
			<rect x="18.5" y="317.5" fill="#FFFF33" width="1" height="1"/>
			<rect x="21.5" y="317.5" fill="#FFFF33" width="1" height="1"/>
			<rect x="24.5" y="317.5" fill="#FFFF33" width="1" height="1"/>
			<rect x="27.5" y="317.5" fill="#FFFF33" width="1" height="1"/>
			<rect x="12.5" y="319.5" fill="#FFFF33" width="1" height="1"/>
			<rect x="15.5" y="319.5" fill="#FFFF33" width="1" height="1"/>
			<rect x="18.5" y="319.5" fill="#FFFF33" width="1" height="1"/>
			<rect x="21.5" y="319.5" fill="#FFFF33" width="1" height="1"/>
			<rect x="24.5" y="319.5" fill="#FFFF33" width="1" height="1"/>
			<rect x="27.5" y="319.5" fill="#FFFF33" width="1" height="1"/>
			<path fill="#FFFF33" d="M21.008,312.161c-2.16,0-3.654-1.801-3.654-3.961v-0.037c0-2.16,1.531-3.924,3.654-3.924
				c1.26,0,2.25,0.539,3.223,1.422l1.766-2.035c-1.17-1.15-2.594-1.945-4.971-1.945c-3.871,0-6.57,2.937-6.57,6.521v0.035
				c0,3.619,2.756,6.48,6.463,6.48c2.434,0,3.871-0.863,5.168-2.25l-1.766-1.783C23.332,311.584,22.449,312.161,21.008,312.161z"/>
		</g>
		<g>
			<rect x="12.5" y="347.5" fill="#33FF33" width="1" height="1"/>
			<rect x="15.5" y="347.5" fill="#33FF33" width="1" height="1"/>
			<rect x="18.5" y="347.5" fill="#33FF33" width="1" height="1"/>
			<rect x="21.5" y="347.5" fill="#33FF33" width="1" height="1"/>
			<rect x="24.5" y="347.5" fill="#33FF33" width="1" height="1"/>
			<rect x="27.5" y="347.5" fill="#33FF33" width="1" height="1"/>
			<rect x="12.5" y="349.5" fill="#33FF33" width="1" height="1"/>
			<rect x="15.5" y="349.5" fill="#33FF33" width="1" height="1"/>
			<rect x="18.5" y="349.5" fill="#33FF33" width="1" height="1"/>
			<rect x="21.5" y="349.5" fill="#33FF33" width="1" height="1"/>
			<rect x="24.5" y="349.5" fill="#33FF33" width="1" height="1"/>
			<rect x="27.5" y="349.5" fill="#33FF33" width="1" height="1"/>
			<path fill="#33FF33" d="M21.008,342.161c-2.16,0-3.654-1.801-3.654-3.961v-0.037c0-2.16,1.531-3.924,3.654-3.924
				c1.26,0,2.25,0.539,3.223,1.422l1.766-2.035c-1.17-1.15-2.594-1.945-4.971-1.945c-3.871,0-6.57,2.936-6.57,6.52v0.035
				c0,3.619,2.756,6.48,6.463,6.48c2.434,0,3.871-0.863,5.168-2.25l-1.766-1.783C23.332,341.584,22.449,342.161,21.008,342.161z"/>
		</g>
		<g>
			<rect x="12.5" y="377.5" fill="#3333FF" width="1" height="1"/>
			<rect x="15.5" y="377.5" fill="#3333FF" width="1" height="1"/>
			<rect x="18.5" y="377.5" fill="#3333FF" width="1" height="1"/>
			<rect x="21.5" y="377.5" fill="#3333FF" width="1" height="1"/>
			<rect x="24.5" y="377.5" fill="#3333FF" width="1" height="1"/>
			<rect x="27.5" y="377.5" fill="#3333FF" width="1" height="1"/>
			<rect x="12.5" y="379.5" fill="#3333FF" width="1" height="1"/>
			<rect x="15.5" y="379.5" fill="#3333FF" width="1" height="1"/>
			<rect x="18.5" y="379.5" fill="#3333FF" width="1" height="1"/>
			<rect x="21.5" y="379.5" fill="#3333FF" width="1" height="1"/>
			<rect x="24.5" y="379.5" fill="#3333FF" width="1" height="1"/>
			<rect x="27.5" y="379.5" fill="#3333FF" width="1" height="1"/>
			<path fill="#3333FF" d="M21.008,372.161c-2.16,0-3.654-1.801-3.654-3.961v-0.037c0-2.16,1.531-3.924,3.654-3.924
				c1.26,0,2.25,0.539,3.223,1.422l1.766-2.035c-1.17-1.15-2.594-1.945-4.971-1.945c-3.871,0-6.57,2.936-6.57,6.52v0.035
				c0,3.619,2.756,6.48,6.463,6.48c2.434,0,3.871-0.863,5.168-2.25l-1.766-1.783C23.332,371.584,22.449,372.161,21.008,372.161z"/>
		</g>
		<g>
			<rect x="12.5" y="407.5" fill="#FF33FF" width="1" height="1"/>
			<rect x="15.5" y="407.5" fill="#FF33FF" width="1" height="1"/>
			<rect x="18.5" y="407.5" fill="#FF33FF" width="1" height="1"/>
			<rect x="21.5" y="407.5" fill="#FF33FF" width="1" height="1"/>
			<rect x="24.5" y="407.5" fill="#FF33FF" width="1" height="1"/>
			<rect x="27.5" y="407.5" fill="#FF33FF" width="1" height="1"/>
			<rect x="12.5" y="409.5" fill="#FF33FF" width="1" height="1"/>
			<rect x="15.5" y="409.5" fill="#FF33FF" width="1" height="1"/>
			<rect x="18.5" y="409.5" fill="#FF33FF" width="1" height="1"/>
			<rect x="21.5" y="409.5" fill="#FF33FF" width="1" height="1"/>
			<rect x="24.5" y="409.5" fill="#FF33FF" width="1" height="1"/>
			<rect x="27.5" y="409.5" fill="#FF33FF" width="1" height="1"/>
			<path fill="#FF33FF" d="M21.008,402.161c-2.16,0-3.654-1.801-3.654-3.961v-0.037c0-2.16,1.531-3.924,3.654-3.924
				c1.26,0,2.25,0.539,3.223,1.422l1.766-2.035c-1.17-1.15-2.594-1.945-4.971-1.945c-3.871,0-6.57,2.936-6.57,6.52v0.035
				c0,3.619,2.756,6.48,6.463,6.48c2.434,0,3.871-0.863,5.168-2.25l-1.766-1.783C23.332,401.584,22.449,402.161,21.008,402.161z"/>
		</g>
		<g>
			<rect x="12.5" y="437.5" fill="#808080" width="1" height="1"/>
			<rect x="15.5" y="437.5" fill="#808080" width="1" height="1"/>
			<rect x="18.5" y="437.5" fill="#808080" width="1" height="1"/>
			<rect x="21.5" y="437.5" fill="#808080" width="1" height="1"/>
			<rect x="24.5" y="437.5" fill="#808080" width="1" height="1"/>
			<rect x="27.5" y="437.5" fill="#808080" width="1" height="1"/>
			<rect x="12.5" y="439.5" fill="#808080" width="1" height="1"/>
			<rect x="15.5" y="439.5" fill="#808080" width="1" height="1"/>
			<rect x="18.5" y="439.5" fill="#808080" width="1" height="1"/>
			<rect x="21.5" y="439.5" fill="#808080" width="1" height="1"/>
			<rect x="24.5" y="439.5" fill="#808080" width="1" height="1"/>
			<rect x="27.5" y="439.5" fill="#808080" width="1" height="1"/>
			<path fill="#808080" d="M21.008,432.161c-2.16,0-3.654-1.801-3.654-3.961v-0.037c0-2.16,1.531-3.924,3.654-3.924
				c1.26,0,2.25,0.539,3.223,1.422l1.766-2.035c-1.17-1.15-2.594-1.945-4.971-1.945c-3.871,0-6.57,2.936-6.57,6.52v0.035
				c0,3.619,2.756,6.48,6.463,6.48c2.434,0,3.871-0.863,5.168-2.25l-1.766-1.783C23.332,431.584,22.449,432.161,21.008,432.161z"/>
		</g>
		<g>
			<rect x="12.5" y="467.5" fill="#FF6666" width="1" height="1"/>
			<rect x="15.5" y="467.5" fill="#FF6666" width="1" height="1"/>
			<rect x="18.5" y="467.5" fill="#FF6666" width="1" height="1"/>
			<rect x="21.5" y="467.5" fill="#FF6666" width="1" height="1"/>
			<rect x="24.5" y="467.5" fill="#FF6666" width="1" height="1"/>
			<rect x="27.5" y="467.5" fill="#FF6666" width="1" height="1"/>
			<rect x="12.5" y="469.5" fill="#FF6666" width="1" height="1"/>
			<rect x="15.5" y="469.5" fill="#FF6666" width="1" height="1"/>
			<rect x="18.5" y="469.5" fill="#FF6666" width="1" height="1"/>
			<rect x="21.5" y="469.5" fill="#FF6666" width="1" height="1"/>
			<rect x="24.5" y="469.5" fill="#FF6666" width="1" height="1"/>
			<rect x="27.5" y="469.5" fill="#FF6666" width="1" height="1"/>
			<path fill="#FF6666" d="M21.008,462.161c-2.16,0-3.654-1.801-3.654-3.961v-0.037c0-2.16,1.531-3.924,3.654-3.924
				c1.26,0,2.25,0.539,3.223,1.422l1.766-2.035c-1.17-1.15-2.594-1.945-4.971-1.945c-3.871,0-6.57,2.936-6.57,6.52v0.035
				c0,3.619,2.756,6.48,6.463,6.48c2.434,0,3.871-0.863,5.168-2.25l-1.766-1.783C23.332,461.584,22.449,462.161,21.008,462.161z"/>
		</g>
		<g>
			<rect x="12.5" y="497.5" fill="#FFAD66" width="1" height="1"/>
			<rect x="15.5" y="497.5" fill="#FFAD66" width="1" height="1"/>
			<rect x="18.5" y="497.5" fill="#FFAD66" width="1" height="1"/>
			<rect x="21.5" y="497.5" fill="#FFAD66" width="1" height="1"/>
			<rect x="24.5" y="497.5" fill="#FFAD66" width="1" height="1"/>
			<rect x="27.5" y="497.5" fill="#FFAD66" width="1" height="1"/>
			<rect x="12.5" y="499.5" fill="#FFAD66" width="1" height="1"/>
			<rect x="15.5" y="499.5" fill="#FFAD66" width="1" height="1"/>
			<rect x="18.5" y="499.5" fill="#FFAD66" width="1" height="1"/>
			<rect x="21.5" y="499.5" fill="#FFAD66" width="1" height="1"/>
			<rect x="24.5" y="499.5" fill="#FFAD66" width="1" height="1"/>
			<rect x="27.5" y="499.5" fill="#FFAD66" width="1" height="1"/>
			<path fill="#FFAD66" d="M21.008,492.161c-2.16,0-3.654-1.801-3.654-3.961v-0.037c0-2.16,1.531-3.924,3.654-3.924
				c1.26,0,2.25,0.539,3.223,1.422l1.766-2.035c-1.17-1.15-2.594-1.945-4.971-1.945c-3.871,0-6.57,2.936-6.57,6.52v0.035
				c0,3.619,2.756,6.48,6.463,6.48c2.434,0,3.871-0.863,5.168-2.25l-1.766-1.783C23.332,491.584,22.449,492.161,21.008,492.161z"/>
		</g>
		<g>
			<rect x="12.5" y="527.5" fill="#FFFF66" width="1" height="1"/>
			<rect x="15.5" y="527.5" fill="#FFFF66" width="1" height="1"/>
			<rect x="18.5" y="527.5" fill="#FFFF66" width="1" height="1"/>
			<rect x="21.5" y="527.5" fill="#FFFF66" width="1" height="1"/>
			<rect x="24.5" y="527.5" fill="#FFFF66" width="1" height="1"/>
			<rect x="27.5" y="527.5" fill="#FFFF66" width="1" height="1"/>
			<rect x="12.5" y="529.5" fill="#FFFF66" width="1" height="1"/>
			<rect x="15.5" y="529.5" fill="#FFFF66" width="1" height="1"/>
			<rect x="18.5" y="529.5" fill="#FFFF66" width="1" height="1"/>
			<rect x="21.5" y="529.5" fill="#FFFF66" width="1" height="1"/>
			<rect x="24.5" y="529.5" fill="#FFFF66" width="1" height="1"/>
			<rect x="27.5" y="529.5" fill="#FFFF66" width="1" height="1"/>
			<path fill="#FFFF66" d="M21.008,522.16c-2.16,0-3.654-1.801-3.654-3.96v-0.037c0-2.16,1.531-3.924,3.654-3.924
				c1.26,0,2.25,0.539,3.223,1.422l1.766-2.035c-1.17-1.15-2.594-1.945-4.971-1.945c-3.871,0-6.57,2.936-6.57,6.52v0.035
				c0,3.619,2.756,6.479,6.463,6.479c2.434,0,3.871-0.862,5.168-2.25l-1.766-1.782C23.332,521.584,22.449,522.16,21.008,522.16z"/>
		</g>
		<g>
			<rect x="12.5" y="557.5" fill="#66FF66" width="1" height="1"/>
			<rect x="15.5" y="557.5" fill="#66FF66" width="1" height="1"/>
			<rect x="18.5" y="557.5" fill="#66FF66" width="1" height="1"/>
			<rect x="21.5" y="557.5" fill="#66FF66" width="1" height="1"/>
			<rect x="24.5" y="557.5" fill="#66FF66" width="1" height="1"/>
			<rect x="27.5" y="557.5" fill="#66FF66" width="1" height="1"/>
			<rect x="12.5" y="559.5" fill="#66FF66" width="1" height="1"/>
			<rect x="15.5" y="559.5" fill="#66FF66" width="1" height="1"/>
			<rect x="18.5" y="559.5" fill="#66FF66" width="1" height="1"/>
			<rect x="21.5" y="559.5" fill="#66FF66" width="1" height="1"/>
			<rect x="24.5" y="559.5" fill="#66FF66" width="1" height="1"/>
			<rect x="27.5" y="559.5" fill="#66FF66" width="1" height="1"/>
			<path fill="#66FF66" d="M21.008,552.16c-2.16,0-3.654-1.801-3.654-3.961v-0.037c0-2.16,1.531-3.924,3.654-3.924
				c1.26,0,2.25,0.539,3.223,1.422l1.766-2.035c-1.17-1.15-2.594-1.945-4.971-1.945c-3.871,0-6.57,2.938-6.57,6.521v0.033
				c0,3.619,2.756,6.48,6.463,6.48c2.434,0,3.871-0.863,5.168-2.25l-1.766-1.783C23.332,551.584,22.449,552.16,21.008,552.16z"/>
		</g>
		<g>
			<rect x="12.5" y="587.5" fill="#6666FF" width="1" height="1"/>
			<rect x="15.5" y="587.5" fill="#6666FF" width="1" height="1"/>
			<rect x="18.5" y="587.5" fill="#6666FF" width="1" height="1"/>
			<rect x="21.5" y="587.5" fill="#6666FF" width="1" height="1"/>
			<rect x="24.5" y="587.5" fill="#6666FF" width="1" height="1"/>
			<rect x="27.5" y="587.5" fill="#6666FF" width="1" height="1"/>
			<rect x="12.5" y="589.5" fill="#6666FF" width="1" height="1"/>
			<rect x="15.5" y="589.5" fill="#6666FF" width="1" height="1"/>
			<rect x="18.5" y="589.5" fill="#6666FF" width="1" height="1"/>
			<rect x="21.5" y="589.5" fill="#6666FF" width="1" height="1"/>
			<rect x="24.5" y="589.5" fill="#6666FF" width="1" height="1"/>
			<rect x="27.5" y="589.5" fill="#6666FF" width="1" height="1"/>
			<path fill="#6666FF" d="M21.008,582.16c-2.16,0-3.654-1.801-3.654-3.961v-0.037c0-2.16,1.531-3.924,3.654-3.924
				c1.26,0,2.25,0.539,3.223,1.422l1.766-2.035c-1.17-1.15-2.594-1.945-4.971-1.945c-3.871,0-6.57,2.938-6.57,6.521v0.033
				c0,3.619,2.756,6.48,6.463,6.48c2.434,0,3.871-0.863,5.168-2.25l-1.766-1.783C23.332,581.584,22.449,582.16,21.008,582.16z"/>
		</g>
		<g>
			<rect x="12.5" y="617.5" fill="#FF66FF" width="1" height="1"/>
			<rect x="15.5" y="617.5" fill="#FF66FF" width="1" height="1"/>
			<rect x="18.5" y="617.5" fill="#FF66FF" width="1" height="1"/>
			<rect x="21.5" y="617.5" fill="#FF66FF" width="1" height="1"/>
			<rect x="24.5" y="617.5" fill="#FF66FF" width="1" height="1"/>
			<rect x="27.5" y="617.5" fill="#FF66FF" width="1" height="1"/>
			<rect x="12.5" y="619.5" fill="#FF66FF" width="1" height="1"/>
			<rect x="15.5" y="619.5" fill="#FF66FF" width="1" height="1"/>
			<rect x="18.5" y="619.5" fill="#FF66FF" width="1" height="1"/>
			<rect x="21.5" y="619.5" fill="#FF66FF" width="1" height="1"/>
			<rect x="24.5" y="619.5" fill="#FF66FF" width="1" height="1"/>
			<rect x="27.5" y="619.5" fill="#FF66FF" width="1" height="1"/>
			<path fill="#FF66FF" d="M21.008,612.16c-2.16,0-3.654-1.801-3.654-3.961v-0.037c0-2.16,1.531-3.924,3.654-3.924
				c1.26,0,2.25,0.539,3.223,1.422l1.766-2.035c-1.17-1.15-2.594-1.945-4.971-1.945c-3.871,0-6.57,2.938-6.57,6.521v0.033
				c0,3.619,2.756,6.48,6.463,6.48c2.434,0,3.871-0.863,5.168-2.25l-1.766-1.783C23.332,611.584,22.449,612.16,21.008,612.16z"/>
		</g>
		<g>
			<rect x="12.5" y="647.5" fill="#BFBFBF" width="1" height="1"/>
			<rect x="15.5" y="647.5" fill="#BFBFBF" width="1" height="1"/>
			<rect x="18.5" y="647.5" fill="#BFBFBF" width="1" height="1"/>
			<rect x="21.5" y="647.5" fill="#BFBFBF" width="1" height="1"/>
			<rect x="24.5" y="647.5" fill="#BFBFBF" width="1" height="1"/>
			<rect x="27.5" y="647.5" fill="#BFBFBF" width="1" height="1"/>
			<rect x="12.5" y="649.5" fill="#BFBFBF" width="1" height="1"/>
			<rect x="15.5" y="649.5" fill="#BFBFBF" width="1" height="1"/>
			<rect x="18.5" y="649.5" fill="#BFBFBF" width="1" height="1"/>
			<rect x="21.5" y="649.5" fill="#BFBFBF" width="1" height="1"/>
			<rect x="24.5" y="649.5" fill="#BFBFBF" width="1" height="1"/>
			<rect x="27.5" y="649.5" fill="#BFBFBF" width="1" height="1"/>
			<path fill="#BFBFBF" d="M21.008,642.16c-2.16,0-3.654-1.801-3.654-3.961v-0.037c0-2.16,1.531-3.924,3.654-3.924
				c1.26,0,2.25,0.539,3.223,1.422l1.766-2.035c-1.17-1.15-2.594-1.945-4.971-1.945c-3.871,0-6.57,2.938-6.57,6.521v0.033
				c0,3.619,2.756,6.48,6.463,6.48c2.434,0,3.871-0.863,5.168-2.25l-1.766-1.783C23.332,641.584,22.449,642.16,21.008,642.16z"/>
		</g>
		<g>
			<rect x="12.5" y="677.5" fill="#FF9999" width="1" height="1"/>
			<rect x="15.5" y="677.5" fill="#FF9999" width="1" height="1"/>
			<rect x="18.5" y="677.5" fill="#FF9999" width="1" height="1"/>
			<rect x="21.5" y="677.5" fill="#FF9999" width="1" height="1"/>
			<rect x="24.5" y="677.5" fill="#FF9999" width="1" height="1"/>
			<rect x="27.5" y="677.5" fill="#FF9999" width="1" height="1"/>
			<rect x="12.5" y="679.5" fill="#FF9999" width="1" height="1"/>
			<rect x="15.5" y="679.5" fill="#FF9999" width="1" height="1"/>
			<rect x="18.5" y="679.5" fill="#FF9999" width="1" height="1"/>
			<rect x="21.5" y="679.5" fill="#FF9999" width="1" height="1"/>
			<rect x="24.5" y="679.5" fill="#FF9999" width="1" height="1"/>
			<rect x="27.5" y="679.5" fill="#FF9999" width="1" height="1"/>
			<path fill="#FF9999" d="M21.008,672.16c-2.16,0-3.654-1.801-3.654-3.961v-0.037c0-2.16,1.531-3.924,3.654-3.924
				c1.26,0,2.25,0.539,3.223,1.422l1.766-2.035c-1.17-1.15-2.594-1.945-4.971-1.945c-3.871,0-6.57,2.938-6.57,6.521v0.033
				c0,3.619,2.756,6.48,6.463,6.48c2.434,0,3.871-0.863,5.168-2.25l-1.766-1.783C23.332,671.584,22.449,672.16,21.008,672.16z"/>
		</g>
		<g>
			<rect x="12.5" y="707.5" fill="#FFC999" width="1" height="1"/>
			<rect x="15.5" y="707.5" fill="#FFC999" width="1" height="1"/>
			<rect x="18.5" y="707.5" fill="#FFC999" width="1" height="1"/>
			<rect x="21.5" y="707.5" fill="#FFC999" width="1" height="1"/>
			<rect x="24.5" y="707.5" fill="#FFC999" width="1" height="1"/>
			<rect x="27.5" y="707.5" fill="#FFC999" width="1" height="1"/>
			<rect x="12.5" y="709.5" fill="#FFC999" width="1" height="1"/>
			<rect x="15.5" y="709.5" fill="#FFC999" width="1" height="1"/>
			<rect x="18.5" y="709.5" fill="#FFC999" width="1" height="1"/>
			<rect x="21.5" y="709.5" fill="#FFC999" width="1" height="1"/>
			<rect x="24.5" y="709.5" fill="#FFC999" width="1" height="1"/>
			<rect x="27.5" y="709.5" fill="#FFC999" width="1" height="1"/>
			<path fill="#FFC999" d="M21.008,702.16c-2.16,0-3.654-1.801-3.654-3.961v-0.037c0-2.16,1.531-3.924,3.654-3.924
				c1.26,0,2.25,0.539,3.223,1.422l1.766-2.035c-1.17-1.15-2.594-1.945-4.971-1.945c-3.871,0-6.57,2.938-6.57,6.521v0.033
				c0,3.619,2.756,6.48,6.463,6.48c2.434,0,3.871-0.863,5.168-2.25l-1.766-1.783C23.332,701.584,22.449,702.16,21.008,702.16z"/>
		</g>
		<g>
			<rect x="12.5" y="737.5" fill="#FFFF99" width="1" height="1"/>
			<rect x="15.5" y="737.5" fill="#FFFF99" width="1" height="1"/>
			<rect x="18.5" y="737.5" fill="#FFFF99" width="1" height="1"/>
			<rect x="21.5" y="737.5" fill="#FFFF99" width="1" height="1"/>
			<rect x="24.5" y="737.5" fill="#FFFF99" width="1" height="1"/>
			<rect x="27.5" y="737.5" fill="#FFFF99" width="1" height="1"/>
			<rect x="12.5" y="739.5" fill="#FFFF99" width="1" height="1"/>
			<rect x="15.5" y="739.5" fill="#FFFF99" width="1" height="1"/>
			<rect x="18.5" y="739.5" fill="#FFFF99" width="1" height="1"/>
			<rect x="21.5" y="739.5" fill="#FFFF99" width="1" height="1"/>
			<rect x="24.5" y="739.5" fill="#FFFF99" width="1" height="1"/>
			<rect x="27.5" y="739.5" fill="#FFFF99" width="1" height="1"/>
			<path fill="#FFFF99" d="M21.008,732.16c-2.16,0-3.654-1.801-3.654-3.961v-0.037c0-2.16,1.531-3.924,3.654-3.924
				c1.26,0,2.25,0.539,3.223,1.422l1.766-2.035c-1.17-1.15-2.594-1.945-4.971-1.945c-3.871,0-6.57,2.938-6.57,6.521v0.033
				c0,3.619,2.756,6.48,6.463,6.48c2.434,0,3.871-0.863,5.168-2.25l-1.766-1.783C23.332,731.584,22.449,732.16,21.008,732.16z"/>
		</g>
		<g>
			<rect x="12.5" y="767.5" fill="#99FF99" width="1" height="1"/>
			<rect x="15.5" y="767.5" fill="#99FF99" width="1" height="1"/>
			<rect x="18.5" y="767.5" fill="#99FF99" width="1" height="1"/>
			<rect x="21.5" y="767.5" fill="#99FF99" width="1" height="1"/>
			<rect x="24.5" y="767.5" fill="#99FF99" width="1" height="1"/>
			<rect x="27.5" y="767.5" fill="#99FF99" width="1" height="1"/>
			<rect x="12.5" y="769.5" fill="#99FF99" width="1" height="1"/>
			<rect x="15.5" y="769.5" fill="#99FF99" width="1" height="1"/>
			<rect x="18.5" y="769.5" fill="#99FF99" width="1" height="1"/>
			<rect x="21.5" y="769.5" fill="#99FF99" width="1" height="1"/>
			<rect x="24.5" y="769.5" fill="#99FF99" width="1" height="1"/>
			<rect x="27.5" y="769.5" fill="#99FF99" width="1" height="1"/>
			<path fill="#99FF99" d="M21.008,762.16c-2.16,0-3.654-1.801-3.654-3.961v-0.037c0-2.16,1.531-3.924,3.654-3.924
				c1.26,0,2.25,0.539,3.223,1.422l1.766-2.035c-1.17-1.15-2.594-1.945-4.971-1.945c-3.871,0-6.57,2.938-6.57,6.521v0.033
				c0,3.619,2.756,6.48,6.463,6.48c2.434,0,3.871-0.863,5.168-2.25l-1.766-1.783C23.332,761.584,22.449,762.16,21.008,762.16z"/>
		</g>
		<g>
			<rect x="12.5" y="797.5" fill="#9999FF" width="1" height="1"/>
			<rect x="15.5" y="797.5" fill="#9999FF" width="1" height="1"/>
			<rect x="18.5" y="797.5" fill="#9999FF" width="1" height="1"/>
			<rect x="21.5" y="797.5" fill="#9999FF" width="1" height="1"/>
			<rect x="24.5" y="797.5" fill="#9999FF" width="1" height="1"/>
			<rect x="27.5" y="797.5" fill="#9999FF" width="1" height="1"/>
			<rect x="12.5" y="799.5" fill="#9999FF" width="1" height="1"/>
			<rect x="15.5" y="799.5" fill="#9999FF" width="1" height="1"/>
			<rect x="18.5" y="799.5" fill="#9999FF" width="1" height="1"/>
			<rect x="21.5" y="799.5" fill="#9999FF" width="1" height="1"/>
			<rect x="24.5" y="799.5" fill="#9999FF" width="1" height="1"/>
			<rect x="27.5" y="799.5" fill="#9999FF" width="1" height="1"/>
			<path fill="#9999FF" d="M21.008,792.16c-2.16,0-3.654-1.801-3.654-3.961v-0.037c0-2.16,1.531-3.924,3.654-3.924
				c1.26,0,2.25,0.539,3.223,1.422l1.766-2.035c-1.17-1.15-2.594-1.945-4.971-1.945c-3.871,0-6.57,2.938-6.57,6.521v0.033
				c0,3.619,2.756,6.48,6.463,6.48c2.434,0,3.871-0.863,5.168-2.25l-1.766-1.783C23.332,791.584,22.449,792.16,21.008,792.16z"/>
		</g>
		<g>
			<rect x="12.5" y="827.5" fill="#FF99FF" width="1" height="1"/>
			<rect x="15.5" y="827.5" fill="#FF99FF" width="1" height="1"/>
			<rect x="18.5" y="827.5" fill="#FF99FF" width="1" height="1"/>
			<rect x="21.5" y="827.5" fill="#FF99FF" width="1" height="1"/>
			<rect x="24.5" y="827.5" fill="#FF99FF" width="1" height="1"/>
			<rect x="27.5" y="827.5" fill="#FF99FF" width="1" height="1"/>
			<rect x="12.5" y="829.5" fill="#FF99FF" width="1" height="1"/>
			<rect x="15.5" y="829.5" fill="#FF99FF" width="1" height="1"/>
			<rect x="18.5" y="829.5" fill="#FF99FF" width="1" height="1"/>
			<rect x="21.5" y="829.5" fill="#FF99FF" width="1" height="1"/>
			<rect x="24.5" y="829.5" fill="#FF99FF" width="1" height="1"/>
			<rect x="27.5" y="829.5" fill="#FF99FF" width="1" height="1"/>
			<path fill="#FF99FF" d="M21.008,822.16c-2.16,0-3.654-1.801-3.654-3.961v-0.037c0-2.16,1.531-3.924,3.654-3.924
				c1.26,0,2.25,0.539,3.223,1.422l1.766-2.035c-1.17-1.15-2.594-1.945-4.971-1.945c-3.871,0-6.57,2.938-6.57,6.521v0.035
				c0,3.617,2.756,6.479,6.463,6.479c2.434,0,3.871-0.863,5.168-2.25l-1.766-1.783C23.332,821.584,22.449,822.16,21.008,822.16z"/>
		</g>
		<rect x="5.5" y="835.502" fill="#A8A8A8" width="30" height="209.998"/>
		<g>
			<rect x="12.5" y="857.5" fill="#FFFFFF" width="1" height="1"/>
			<rect x="15.5" y="857.5" fill="#FFFFFF" width="1" height="1"/>
			<rect x="18.5" y="857.5" fill="#FFFFFF" width="1" height="1"/>
			<rect x="21.5" y="857.5" fill="#FFFFFF" width="1" height="1"/>
			<rect x="24.5" y="857.5" fill="#FFFFFF" width="1" height="1"/>
			<rect x="27.5" y="857.5" fill="#FFFFFF" width="1" height="1"/>
			<rect x="12.5" y="859.5" fill="#FFFFFF" width="1" height="1"/>
			<rect x="15.5" y="859.5" fill="#FFFFFF" width="1" height="1"/>
			<rect x="18.5" y="859.5" fill="#FFFFFF" width="1" height="1"/>
			<rect x="21.5" y="859.5" fill="#FFFFFF" width="1" height="1"/>
			<rect x="24.5" y="859.5" fill="#FFFFFF" width="1" height="1"/>
			<rect x="27.5" y="859.5" fill="#FFFFFF" width="1" height="1"/>
			<path fill="#FFFFFF" d="M21.008,852.16c-2.16,0-3.654-1.801-3.654-3.961v-0.037c0-2.16,1.531-3.924,3.654-3.924
				c1.26,0,2.25,0.539,3.223,1.422l1.766-2.035c-1.17-1.15-2.594-1.945-4.971-1.945c-3.871,0-6.57,2.938-6.57,6.521v0.035
				c0,3.617,2.756,6.479,6.463,6.479c2.434,0,3.871-0.863,5.168-2.25l-1.766-1.783C23.332,851.584,22.449,852.16,21.008,852.16z"/>
		</g>
		<g>
			<rect x="12.5" y="887.5" fill="#FFCCCC" width="1" height="1"/>
			<rect x="15.5" y="887.5" fill="#FFCCCC" width="1" height="1"/>
			<rect x="18.5" y="887.5" fill="#FFCCCC" width="1" height="1"/>
			<rect x="21.5" y="887.5" fill="#FFCCCC" width="1" height="1"/>
			<rect x="24.5" y="887.5" fill="#FFCCCC" width="1" height="1"/>
			<rect x="27.5" y="887.5" fill="#FFCCCC" width="1" height="1"/>
			<rect x="12.5" y="889.5" fill="#FFCCCC" width="1" height="1"/>
			<rect x="15.5" y="889.5" fill="#FFCCCC" width="1" height="1"/>
			<rect x="18.5" y="889.5" fill="#FFCCCC" width="1" height="1"/>
			<rect x="21.5" y="889.5" fill="#FFCCCC" width="1" height="1"/>
			<rect x="24.5" y="889.5" fill="#FFCCCC" width="1" height="1"/>
			<rect x="27.5" y="889.5" fill="#FFCCCC" width="1" height="1"/>
			<path fill="#FFCCCC" d="M21.008,882.16c-2.16,0-3.654-1.801-3.654-3.961v-0.037c0-2.16,1.531-3.924,3.654-3.924
				c1.26,0,2.25,0.539,3.223,1.422l1.766-2.035c-1.17-1.15-2.594-1.945-4.971-1.945c-3.871,0-6.57,2.938-6.57,6.521v0.035
				c0,3.617,2.756,6.479,6.463,6.479c2.434,0,3.871-0.863,5.168-2.25l-1.766-1.783C23.332,881.584,22.449,882.16,21.008,882.16z"/>
		</g>
		<g>
			<rect x="12.5" y="917.5" fill="#FFE4CC" width="1" height="1"/>
			<rect x="15.5" y="917.5" fill="#FFE4CC" width="1" height="1"/>
			<rect x="18.5" y="917.5" fill="#FFE4CC" width="1" height="1"/>
			<rect x="21.5" y="917.5" fill="#FFE4CC" width="1" height="1"/>
			<rect x="24.5" y="917.5" fill="#FFE4CC" width="1" height="1"/>
			<rect x="27.5" y="917.5" fill="#FFE4CC" width="1" height="1"/>
			<rect x="12.5" y="919.5" fill="#FFE4CC" width="1" height="1"/>
			<rect x="15.5" y="919.5" fill="#FFE4CC" width="1" height="1"/>
			<rect x="18.5" y="919.5" fill="#FFE4CC" width="1" height="1"/>
			<rect x="21.5" y="919.5" fill="#FFE4CC" width="1" height="1"/>
			<rect x="24.5" y="919.5" fill="#FFE4CC" width="1" height="1"/>
			<rect x="27.5" y="919.5" fill="#FFE4CC" width="1" height="1"/>
			<path fill="#FFE4CC" d="M21.008,912.16c-2.16,0-3.654-1.801-3.654-3.961v-0.037c0-2.16,1.531-3.924,3.654-3.924
				c1.26,0,2.25,0.539,3.223,1.422l1.766-2.035c-1.17-1.15-2.594-1.945-4.971-1.945c-3.871,0-6.57,2.938-6.57,6.521v0.035
				c0,3.617,2.756,6.479,6.463,6.479c2.434,0,3.871-0.863,5.168-2.25l-1.766-1.783C23.332,911.584,22.449,912.16,21.008,912.16z"/>
		</g>
		<g>
			<rect x="12.5" y="947.5" fill="#FFFFCC" width="1" height="1"/>
			<rect x="15.5" y="947.5" fill="#FFFFCC" width="1" height="1"/>
			<rect x="18.5" y="947.5" fill="#FFFFCC" width="1" height="1"/>
			<rect x="21.5" y="947.5" fill="#FFFFCC" width="1" height="1"/>
			<rect x="24.5" y="947.5" fill="#FFFFCC" width="1" height="1"/>
			<rect x="27.5" y="947.5" fill="#FFFFCC" width="1" height="1"/>
			<rect x="12.5" y="949.5" fill="#FFFFCC" width="1" height="1"/>
			<rect x="15.5" y="949.5" fill="#FFFFCC" width="1" height="1"/>
			<rect x="18.5" y="949.5" fill="#FFFFCC" width="1" height="1"/>
			<rect x="21.5" y="949.5" fill="#FFFFCC" width="1" height="1"/>
			<rect x="24.5" y="949.5" fill="#FFFFCC" width="1" height="1"/>
			<rect x="27.5" y="949.5" fill="#FFFFCC" width="1" height="1"/>
			<path fill="#FFFFCC" d="M21.008,942.16c-2.16,0-3.654-1.801-3.654-3.961v-0.037c0-2.16,1.531-3.924,3.654-3.924
				c1.26,0,2.25,0.539,3.223,1.422l1.766-2.035c-1.17-1.15-2.594-1.945-4.971-1.945c-3.871,0-6.57,2.938-6.57,6.521v0.035
				c0,3.619,2.756,6.479,6.463,6.479c2.434,0,3.871-0.863,5.168-2.25l-1.766-1.783C23.332,941.584,22.449,942.16,21.008,942.16z"/>
		</g>
		<g>
			<rect x="12.5" y="977.5" fill="#CCFFCC" width="1" height="1"/>
			<rect x="15.5" y="977.5" fill="#CCFFCC" width="1" height="1"/>
			<rect x="18.5" y="977.5" fill="#CCFFCC" width="1" height="1"/>
			<rect x="21.5" y="977.5" fill="#CCFFCC" width="1" height="1"/>
			<rect x="24.5" y="977.5" fill="#CCFFCC" width="1" height="1"/>
			<rect x="27.5" y="977.5" fill="#CCFFCC" width="1" height="1"/>
			<rect x="12.5" y="979.5" fill="#CCFFCC" width="1" height="1"/>
			<rect x="15.5" y="979.5" fill="#CCFFCC" width="1" height="1"/>
			<rect x="18.5" y="979.5" fill="#CCFFCC" width="1" height="1"/>
			<rect x="21.5" y="979.5" fill="#CCFFCC" width="1" height="1"/>
			<rect x="24.5" y="979.5" fill="#CCFFCC" width="1" height="1"/>
			<rect x="27.5" y="979.5" fill="#CCFFCC" width="1" height="1"/>
			<path fill="#CCFFCC" d="M21.008,972.16c-2.16,0-3.654-1.801-3.654-3.961v-0.037c0-2.16,1.531-3.924,3.654-3.924
				c1.26,0,2.25,0.539,3.223,1.422l1.766-2.035c-1.17-1.15-2.594-1.945-4.971-1.945c-3.871,0-6.57,2.938-6.57,6.521v0.035
				c0,3.619,2.756,6.479,6.463,6.479c2.434,0,3.871-0.863,5.168-2.25l-1.766-1.783C23.332,971.584,22.449,972.16,21.008,972.16z"/>
		</g>
		<g>
			<rect x="12.5" y="1007.5" fill="#CCCCFF" width="1" height="1"/>
			<rect x="15.5" y="1007.5" fill="#CCCCFF" width="1" height="1"/>
			<rect x="18.5" y="1007.5" fill="#CCCCFF" width="1" height="1"/>
			<rect x="21.5" y="1007.5" fill="#CCCCFF" width="1" height="1"/>
			<rect x="24.5" y="1007.5" fill="#CCCCFF" width="1" height="1"/>
			<rect x="27.5" y="1007.5" fill="#CCCCFF" width="1" height="1"/>
			<rect x="12.5" y="1009.5" fill="#CCCCFF" width="1" height="1"/>
			<rect x="15.5" y="1009.5" fill="#CCCCFF" width="1" height="1"/>
			<rect x="18.5" y="1009.5" fill="#CCCCFF" width="1" height="1"/>
			<rect x="21.5" y="1009.5" fill="#CCCCFF" width="1" height="1"/>
			<rect x="24.5" y="1009.5" fill="#CCCCFF" width="1" height="1"/>
			<rect x="27.5" y="1009.5" fill="#CCCCFF" width="1" height="1"/>
			<path fill="#CCCCFF" d="M21.008,1002.16c-2.16,0-3.654-1.801-3.654-3.961v-0.037c0-2.16,1.531-3.924,3.654-3.924
				c1.26,0,2.25,0.539,3.223,1.422l1.766-2.035c-1.17-1.15-2.594-1.945-4.971-1.945c-3.871,0-6.57,2.938-6.57,6.521v0.035
				c0,3.619,2.756,6.479,6.463,6.479c2.434,0,3.871-0.863,5.168-2.25l-1.766-1.783C23.332,1001.584,22.449,1002.16,21.008,1002.16z"
				/>
		</g>
		<g>
			<rect x="12.5" y="1037.5" fill="#FFCCFF" width="1" height="1"/>
			<rect x="15.5" y="1037.5" fill="#FFCCFF" width="1" height="1"/>
			<rect x="18.5" y="1037.5" fill="#FFCCFF" width="1" height="1"/>
			<rect x="21.5" y="1037.5" fill="#FFCCFF" width="1" height="1"/>
			<rect x="24.5" y="1037.5" fill="#FFCCFF" width="1" height="1"/>
			<rect x="27.5" y="1037.5" fill="#FFCCFF" width="1" height="1"/>
			<rect x="12.5" y="1039.5" fill="#FFCCFF" width="1" height="1"/>
			<rect x="15.5" y="1039.5" fill="#FFCCFF" width="1" height="1"/>
			<rect x="18.5" y="1039.5" fill="#FFCCFF" width="1" height="1"/>
			<rect x="21.5" y="1039.5" fill="#FFCCFF" width="1" height="1"/>
			<rect x="24.5" y="1039.5" fill="#FFCCFF" width="1" height="1"/>
			<rect x="27.5" y="1039.5" fill="#FFCCFF" width="1" height="1"/>
			<path fill="#FFCCFF" d="M21.008,1032.16c-2.16,0-3.654-1.801-3.654-3.961v-0.037c0-2.16,1.531-3.924,3.654-3.924
				c1.26,0,2.25,0.539,3.223,1.422l1.766-2.035c-1.17-1.15-2.594-1.945-4.971-1.945c-3.871,0-6.57,2.938-6.57,6.521v0.035
				c0,3.619,2.756,6.479,6.463,6.479c2.434,0,3.871-0.863,5.168-2.25l-1.766-1.783C23.332,1031.584,22.449,1032.16,21.008,1032.16z"
				/>
		</g>
	</g>
</g>
</svg>
