<?xml version="1.0" encoding="utf-8"?>
<!-- Generator: Adobe Illustrator 16.0.0, SVG Export Plug-In . SVG Version: 6.00 Build 0)  -->
<!DOCTYPE svg PUBLIC "-//W3C//DTD SVG 1.1//EN" "http://www.w3.org/Graphics/SVG/1.1/DTD/svg11.dtd">
<svg version="1.1" id="Layer_1" xmlns="http://www.w3.org/2000/svg" xmlns:xlink="http://www.w3.org/1999/xlink" x="0px" y="0px"
	 width="30px" height="30px" viewBox="0 0 30 30" enable-background="new 0 0 30 30" xml:space="preserve">
<polyline fill="#FFFFFF" points="0,30 0,0 30,0 30,30 "/>
<g>
	<rect x="7" y="22" width="1" height="1"/>
	<rect x="10" y="22" width="1" height="1"/>
	<rect x="13" y="22" width="1" height="1"/>
	<rect x="16" y="22" width="1" height="1"/>
	<rect x="19" y="22" width="1" height="1"/>
	<rect x="22" y="22" width="1" height="1"/>
	<rect x="7" y="24" width="1" height="1"/>
	<rect x="10" y="24" width="1" height="1"/>
	<rect x="13" y="24" width="1" height="1"/>
	<rect x="16" y="24" width="1" height="1"/>
	<rect x="19" y="24" width="1" height="1"/>
	<rect x="22" y="24" width="1" height="1"/>
	<path d="M15.508,16.661c-2.16,0-3.654-1.801-3.654-3.961v-0.037c0-2.16,1.531-3.924,3.654-3.924c1.26,0,2.25,0.539,3.223,1.422
		l1.767-2.035c-1.17-1.15-2.595-1.945-4.972-1.945c-3.871,0-6.569,2.936-6.569,6.52v0.034c0,3.619,2.756,6.48,6.463,6.48
		c2.435,0,3.871-0.863,5.168-2.25l-1.767-1.783C17.832,16.084,16.949,16.661,15.508,16.661z"/>
</g>
</svg>
