<?xml version="1.0" encoding="utf-8"?>
<!-- Generator: Adobe Illustrator 16.0.0, SVG Export Plug-In . SVG Version: 6.00 Build 0)  -->
<!DOCTYPE svg PUBLIC "-//W3C//DTD SVG 1.1//EN" "http://www.w3.org/Graphics/SVG/1.1/DTD/svg11.dtd">
<svg version="1.1" id="Layer_1" xmlns="http://www.w3.org/2000/svg" xmlns:xlink="http://www.w3.org/1999/xlink" x="0px" y="0px"
	 width="30px" height="30px" viewBox="0 0 30 30" enable-background="new 0 0 30 30" xml:space="preserve">
<rect x="-0.5" y="0.5" fill="#FFFFFF" width="30" height="30"/>
<g>
	<path d="M14.5,22.115c1.787,0,3.508-0.742,4.602-1.987c1.187-1.464,1.187-2.968,1.187-4.56V7.5V6.834h-0.666H18.66h-0.666V7.5
		v7.788c0,1.264,0,2.571-0.639,3.392c-0.609,0.791-1.897,1.203-2.855,1.203s-2.246-0.412-2.854-1.201
		c-0.642-0.822-0.642-2.13-0.642-3.394V7.5V6.834h-0.666h-0.96H8.713V7.5v8.068c0,1.592,0,3.096,1.168,4.539
		C10.992,21.373,12.712,22.115,14.5,22.115z"/>
	<rect x="6.5" y="24.5" width="16" height="2"/>
</g>
</svg>
