<?xml version="1.0" encoding="utf-8"?>
<!-- Generator: Adobe Illustrator 16.0.0, SVG Export Plug-In . SVG Version: 6.00 Build 0)  -->
<!DOCTYPE svg PUBLIC "-//W3C//DTD SVG 1.1//EN" "http://www.w3.org/Graphics/SVG/1.1/DTD/svg11.dtd">
<svg version="1.1" id="Layer_1" xmlns="http://www.w3.org/2000/svg" xmlns:xlink="http://www.w3.org/1999/xlink" x="0px" y="0px"
	 width="30px" height="30px" viewBox="-0.5 0.5 30 30" enable-background="new -0.5 0.5 30 30" xml:space="preserve">
<g id="Layer_2" opacity="0.92">
	<rect x="-0.5" y="0.5" fill="#FFFFFF" width="30" height="30"/>
</g>
<g id="Layer_1_1_">
	<path fill="#7F7F7F" d="M22.591,13.591c1.091-2.552,0.599-5.616-1.485-7.698c-2.731-2.731-7.166-2.731-9.897,0L10.5,6.602
		l1.415,1.414l0.707-0.707c1.95-1.951,5.122-1.951,7.071,0c1.679,1.678,1.902,4.262,0.688,6.191H6.5l-1,1v9l1,1l0.999,1H21.5l2-2v-9
		L22.591,13.591z M15.5,19.109V21.5h-2v-2.391C13.195,18.836,13,18.441,13,18c0-0.828,0.672-1.5,1.5-1.5S16,17.172,16,18
		C16,18.441,15.805,18.836,15.5,19.109z"/>
</g>
</svg>
