<?xml version="1.0" standalone="no"?>
<!DOCTYPE svg PUBLIC "-//W3C//DTD SVG 1.1//EN" "http://www.w3.org/Graphics/SVG/1.1/DTD/svg11.dtd" >
<svg xmlns="http://www.w3.org/2000/svg">
<metadata>
This is a custom SVG webfont generated by Typotheque.
</metadata>
<defs>
<font id="typotheque_webfonts_service" horiz-adv-x="500" >
<font-face units-per-em="1000" ascent="778" descent="-222" />
<missing-glyph horiz-adv-x="260" />
<glyph unicode="&#xd;" horiz-adv-x="260" />
<glyph unicode=" "  horiz-adv-x="260" />
<glyph unicode="&#x09;" horiz-adv-x="260" />
<glyph unicode="&#xa0;" horiz-adv-x="260" />
<glyph unicode="&#x161;" horiz-adv-x="519" d="M258 -15q-47 0 -81.5 9.5t-59 27t-42 42t-29.5 54.5l79 33q9 -19 20.5 -35.5t27.5 -29t37.5 -19.5t48.5 -7q56 0 86 22t30 59q0 29 -18 47t-70 32l-74 19q-68 17 -106 54t-38 103q0 29 12.5 56.5t37 49t60 34.5t80.5 13q43 0 76 -9.5t56.5 -25t39.5 -36.5t27 -45l-79 -35 q-7 13 -17 26.5t-24 24t-33.5 17.5t-44.5 7q-28 0 -47 -6.5t-31 -16.5t-17 -22.5t-5 -25.5q0 -35 22 -52.5t67 -28.5l86 -22q69 -17 99.5 -53.5t30.5 -89.5q0 -77 -55 -124t-152 -47zM408 692l-151 -102l-149 100v83l151 -94l149 94v-81z" />
<glyph unicode="&#xdd;" horiz-adv-x="661" d="M284 308l-254 447h107l199 -360l199 360h96l-249 -441v-314h-98v308zM386 948h127l-140 -142h-80z" />
<glyph unicode="&#xfd;" horiz-adv-x="516" d="M211 0l-191 535h100l124 -363q10 -33 15 -51q3 -11 3 -18h3q1 8 4 19q2 10 6 23.5t10 31.5l119 358h92l-267 -757h-92zM325 778h123l-142 -167h-77z" />
<glyph unicode="&#xde;" horiz-adv-x="627" d="M90 755h97v-171h160q55 0 101 -11t79 -35.5t51.5 -64t18.5 -95.5q0 -54 -18 -93t-52 -64.5t-81.5 -37.5t-106.5 -12h-152v-171h-97v755zM187 505v-254h156q84 0 122 32t38 95q0 127 -156 127h-160z" />
<glyph unicode="&#xfe;" horiz-adv-x="642" d="M329 64q42 0 72 16t49.5 44t29 65t9.5 79q0 97 -38.5 149.5t-113.5 52.5q-42 0 -72.5 -15t-50.5 -42.5t-29.5 -65t-9.5 -82.5q0 -90 39.5 -145.5t114.5 -55.5zM90 778h96v-327q8 16 22.5 33.5t35.5 31.5t49 23.5t63 9.5q63 0 107 -24t71.5 -63.5t40 -89t12.5 -100.5 q0 -62 -17.5 -114.5t-50 -91t-80 -60t-107.5 -21.5q-30 0 -54.5 7.5t-43 18.5t-31.5 25t-20 28v-286h-93v1000z" />
<glyph unicode="&#x17d;" horiz-adv-x="660" d="M55 72l433 601h-412v82h529v-72l-434 -601h426v-82h-542v72zM480 866l-151 -82l-149 82v81l154 -75l146 73v-79z" />
<glyph unicode="&#x17e;" horiz-adv-x="505" d="M55 535h399v-78l-303 -379h311v-78h-415v77l305 380h-297v78zM425 692l-151 -102l-149 100v83l151 -94l149 94v-81z" />
<glyph unicode="&#x160;" horiz-adv-x="684" d="M339 -15q-60 0 -109 16.5t-85 44t-60 62.5t-34 73l91 29q25 -71 76.5 -106.5t124.5 -35.5q83 0 133 34t50 103q0 23 -7 42.5t-24.5 35.5t-47 28.5t-74.5 22.5l-85 19q-39 9 -75 24t-63 38.5t-43 57.5t-16 81q0 43 17 82t50 67.5t79.5 45.5t104.5 17q61 0 105 -13t76 -35 t53 -52.5t35 -64.5l-85 -35q-26 59 -68.5 88.5t-115.5 29.5q-41 0 -70.5 -10t-48 -27t-27 -38.5t-8.5 -45.5q0 -29 9.5 -49t28.5 -34t46.5 -24t62.5 -19l94 -22q106 -25 150.5 -74.5t44.5 -120.5q0 -54 -20 -97t-56.5 -74t-89.5 -47.5t-119 -16.5zM503 866l-151 -82l-149 82 v81l154 -75l146 73v-79z" />
<glyph unicode="!" horiz-adv-x="287" d="M79 129h129v-129h-129v129zM95 485v293h96v-293l-15 -280h-66z" />
<glyph unicode="&#x22;" horiz-adv-x="431" d="M55 755h131l-45 -282h-41zM245 755h131l-45 -282h-41z" />
<glyph unicode="#" horiz-adv-x="630" d="M409 436h-155l-29 -176h155zM369 193h-155l-31 -193h-65l31 193h-119v67h130l29 176h-119v67h130l28 172h65l-28 -172h155l28 172h65l-28 -172h115v-67h-126l-29 -176h115v-67h-126l-31 -193h-65z" />
<glyph unicode="$" horiz-adv-x="643" d="M170 573q0 -31 8 -51.5t23.5 -35t38.5 -23.5t52 -16v244q-33 -3 -56 -14.5t-38 -27.5t-21.5 -36t-6.5 -40zM485 208q0 48 -30.5 81.5t-102.5 50.5v-276q62 7 97.5 44t35.5 100zM292 -142v128q-56 4 -97.5 21t-71 44.5t-47.5 65t-26 82.5l86 21q19 -77 55.5 -113.5 t100.5 -43.5v290l-25 5q-38 9 -72.5 23.5t-60 38t-40.5 57.5t-15 81q0 42 14.5 77.5t42.5 62.5t67 44t89 22v101h60v-100q46 -3 81 -17t61 -36.5t44 -52t29 -63.5l-83 -23q-20 52 -51 80.5t-81 36.5v-258l26 -7q106 -26 153 -75.5t47 -134.5q0 -47 -16.5 -86.5t-46.5 -69.5 t-71.5 -49t-91.5 -24v-128h-60z" />
<glyph unicode="%" horiz-adv-x="834" d="M45 578q0 45 12.5 80t34.5 59t52.5 36.5t65.5 12.5q75 0 117 -46.5t42 -141.5q0 -46 -12 -81t-34 -59t-51.5 -36t-65.5 -12q-76 0 -118.5 48t-42.5 140zM632 766h74l-502 -780h-75zM206 710q-39 0 -61 -32t-22 -100q0 -66 22 -99t62 -33q38 0 60 31.5t22 100.5 q0 66 -22 99t-61 33zM465 174q0 45 12.5 80t34.5 59t52.5 36.5t65.5 12.5q75 0 117 -46.5t42 -141.5q0 -46 -12 -81t-34 -59t-51.5 -36t-65.5 -12q-76 0 -118.5 48t-42.5 140zM626 306q-39 0 -61 -32t-22 -100q0 -66 22 -99t62 -33q38 0 60 31.5t22 100.5q0 66 -22 99 t-61 33z" />
<glyph unicode="&#x26;" horiz-adv-x="689" d="M514 82q-45 -46 -100 -71.5t-118 -25.5q-62 0 -108 15.5t-76 43t-45 64.5t-15 81q0 37 11 66.5t33 56t56 51t79 51.5l-36.5 44.5t-28.5 41.5t-19 44.5t-7 52.5q0 37 14 68t39 53.5t59.5 35t74.5 12.5q48 0 82.5 -13.5t57.5 -36t34 -50.5t11 -56q0 -62 -43 -111t-116 -94 l160 -189q14 34 22 74t8 85h81q0 -63 -15 -119t-43 -104l96 -113l-66 -54zM229 602q0 -17 4 -31t13 -30t24 -35.5t38 -46.5q36 22 58 41.5t34 37.5t16.5 36t4.5 36q0 36 -23.5 62t-70.5 26q-24 0 -42.5 -8.5t-30.5 -22t-18.5 -30.5t-6.5 -35zM299 63q51 0 92.5 20t73.5 56 l-189 222q-36 -22 -60.5 -40.5t-39.5 -37.5t-21 -39.5t-6 -45.5q0 -60 37.5 -97.5t112.5 -37.5z" />
<glyph unicode="'" horiz-adv-x="241" d="M55 755h131l-45 -282h-41z" />
<glyph unicode="(" horiz-adv-x="320" d="M234 -163q-17 24 -42 64.5t-49 99.5t-41 137t-17 179t17 179.5t41 137t49.5 99l41.5 65.5h74q-15 -25 -37.5 -66.5t-44 -101t-36.5 -137.5t-15 -176t15 -175.5t36.5 -137t44 -101t37.5 -66.5h-74z" />
<glyph unicode=")" horiz-adv-x="320" d="M86 798l41.5 -64.5t49.5 -99.5t41 -137.5t17 -178.5q0 -101 -17 -179.5t-41 -137t-49.5 -99l-41.5 -65.5h-74q15 25 37.5 66.5t44 101t36.5 137.5t15 176q0 97 -15 175t-36.5 137.5t-44 101t-37.5 66.5h74z" />
<glyph unicode="*" horiz-adv-x="468" d="M264 603l4 -2l154 65l25 -74l-158 -50l-1 -4l112 -134l-68 -47l-95 145h-6l-98 -142l-68 47l115 131l-1 4l-157 47l25 74l152 -62l4 3l-10 174h82z" />
<glyph unicode="+" horiz-adv-x="600" d="M65 360h199v204h72v-204h199v-68h-199v-208h-72v208h-199v68z" />
<glyph unicode="," horiz-adv-x="269" d="M45 -107q39 12 62.5 35t23.5 72h-61v129h129v-112q0 -66 -34 -109t-106 -62z" />
<glyph unicode="-" horiz-adv-x="450" d="M65 339h320v-87h-320v87z" />
<glyph unicode="." horiz-adv-x="269" d="M70 129h129v-129h-129v129z" />
<glyph unicode="/" horiz-adv-x="417" d="M326 798h72l-352 -961h-73z" />
<glyph unicode="0" horiz-adv-x="684" d="M70 375q0 97 19.5 170.5t55.5 122.5t86.5 73.5t112.5 24.5q127 0 198.5 -97t71.5 -294q0 -99 -20.5 -172t-56.5 -121.5t-85.5 -72.5t-108.5 -24q-130 0 -201.5 94t-71.5 296zM342 687q-83 0 -126.5 -76t-43.5 -236q0 -157 43.5 -234t128.5 -77q81 0 124.5 75t43.5 236 q0 156 -43.5 234t-126.5 78z" />
<glyph unicode="1" horiz-adv-x="450" d="M236 0v638l-145 -104l-49 66l210 155h78v-755h-94z" />
<glyph unicode="2" horiz-adv-x="627" d="M83 532l1 15q3 43 18.5 82.5t45 70t72.5 48.5t100 18q63 0 106.5 -17.5t71 -45.5t39.5 -63t12 -71q0 -34 -5.5 -63t-20.5 -59t-40.5 -64t-65.5 -76.5l-95.5 -97l-129.5 -126.5v-3h370v-80h-492v83l144 139.5l103.5 102.5t69 75.5t41.5 58t20 51t5 54.5q0 58 -35 90 t-98 32q-36 0 -62 -11.5t-43.5 -31t-27 -46t-12.5 -56.5l-2 -18z" />
<glyph unicode="3" horiz-adv-x="640" d="M320 63q32 0 59.5 9.5t48 27.5t32.5 44.5t12 60.5q0 32 -10 59t-30.5 46.5t-52.5 30.5t-77 11h-54v80h59q66 0 105 36t39 95q0 56 -35 90t-99 34q-62 0 -99.5 -36t-45.5 -111l-90 10q2 45 20 84.5t49 68.5t74 46t97 17q58 0 101 -15.5t71 -42t41.5 -63t13.5 -78.5 q0 -59 -33.5 -102t-98.5 -66v-4q68 -15 110.5 -60.5t42.5 -123.5q0 -47 -17 -88.5t-50 -72t-81 -48t-109 -17.5q-111 0 -172.5 55.5t-76.5 149.5l91 15q17 -69 55 -105.5t110 -36.5z" />
<glyph unicode="4" horiz-adv-x="630" d="M382 0v194h-334v73l330 488h96v-482h111v-79h-111v-194h-92zM382 272v354h-7q-4 -6 -9 -17l-13 -22.5t-22 -33.5l-188 -281h239z" />
<glyph unicode="5" horiz-adv-x="635" d="M301 -15q-64 0 -108.5 17.5t-74 46.5t-45 66t-21.5 75l93 12q9 -40 25 -67t37.5 -43.5t47.5 -23.5t55 -7q31 0 59.5 11t50.5 33t35 56t13 79q0 88 -43.5 133t-119.5 45q-56 0 -91.5 -22t-59.5 -57l-75 33l61 383h392v-83h-321l-38 -239h2q26 32 67 49t96 17 q43 0 83.5 -15.5t72 -46.5t51 -77.5t19.5 -108.5q0 -60 -17 -109t-50.5 -84t-82.5 -54t-113 -19z" />
<glyph unicode="6" horiz-adv-x="654" d="M485 579q-14 61 -50 87t-84 26t-82.5 -22.5t-57 -64t-33.5 -100.5t-12 -131h2q27 50 73.5 82.5t117.5 32.5q48 0 90 -15t74 -45.5t50.5 -76.5t18.5 -108q0 -51 -18 -97.5t-51 -82.5t-80 -57.5t-105 -21.5t-107 18.5t-84.5 60.5t-55.5 111t-20 171q0 100 18.5 178 t54.5 132t88.5 82t120.5 28q95 0 150.5 -45t74.5 -132zM497 236q0 80 -41.5 126.5t-118.5 46.5q-70 0 -114 -46t-44 -127q0 -44 13 -77t35 -54.5t52 -32.5t64 -11q29 0 56.5 11t49.5 32.5t35 54.5t13 77z" />
<glyph unicode="7" horiz-adv-x="556" d="M425 672h-387v83h482v-80l-315 -675h-102z" />
<glyph unicode="8" horiz-adv-x="640" d="M320 766q57 0 100.5 -15.5t73 -42t45 -62.5t15.5 -78q0 -66 -31 -108t-79 -64v-2q25 -10 49.5 -25t43.5 -38t30.5 -55t11.5 -77t-17.5 -84t-51 -68t-82 -45.5t-110.5 -16.5q-60 0 -108 16t-81 45t-50.5 68t-17.5 86q0 44 11.5 76t30.5 55t43 38t49 25v2q-48 22 -78.5 64 t-30.5 108q0 41 15.5 77t45.5 63t73.5 42.5t99.5 15.5zM182 560q0 -34 11 -58.5t29.5 -40.5t43.5 -24t54 -8t54.5 8.5t44 25t29 41t10.5 56.5q0 33 -11 58t-29.5 41.5t-44 25t-53.5 8.5q-62 0 -100 -34.5t-38 -98.5zM480 208q0 69 -42.5 109t-117.5 40q-71 0 -115.5 -40 t-44.5 -109t44 -109t116 -40q75 0 117.5 40t42.5 109z" />
<glyph unicode="9" horiz-adv-x="651" d="M156 518q0 -80 44 -124.5t116 -44.5q30 0 58.5 12t50 33.5t34.5 53t13 70.5q0 41 -12.5 73t-33.5 53.5t-49.5 33t-60.5 11.5q-31 0 -60 -10.5t-51 -31.5t-35.5 -53t-13.5 -76zM160 174q16 -61 50 -88t91 -27q96 0 139.5 82.5t44.5 242.5h-3q-28 -58 -77.5 -86.5 t-110.5 -28.5q-48 0 -90.5 15t-74.5 46t-50.5 78t-18.5 110q0 48 17.5 92.5t51 79t82.5 55.5t112 21q51 0 97.5 -17.5t82 -58.5t57 -108t21.5 -167q0 -209 -66.5 -319.5t-217.5 -110.5q-101 0 -158.5 49.5t-68.5 130.5z" />
<glyph unicode=":" horiz-adv-x="269" d="M70 485h129v-129h-129v129zM70 129h129v-129h-129v129z" />
<glyph unicode=";" horiz-adv-x="269" d="M70 485h129v-129h-129v129zM50 -133q18 10 32 21.5t24 27t15 36t5 48.5h-56v129h129v-112q0 -64 -27 -112t-95 -80z" />
<glyph unicode="&#x3c;" horiz-adv-x="600" d="M65 274v57l470 225v-77l-371 -175l371 -174v-81z" />
<glyph unicode="=" horiz-adv-x="600" d="M65 445h470v-68h-470v68zM65 275h470v-68h-470v68z" />
<glyph unicode="&#x3e;" horiz-adv-x="600" d="M535 331v-57l-470 -225v77l371 175l-371 174v81z" />
<glyph unicode="?" horiz-adv-x="525" d="M184 129h129v-129h-129v129zM204 267q0 30 3 50t12.5 37.5t26.5 34.5t45 40t48 42.5t33 38t19 38.5t6 45q0 54 -36.5 84t-99.5 30q-73 0 -111 -39.5t-49 -106.5l-87 14q5 48 25 86.5t53 66t77 42.5t97 15q56 0 98.5 -14t71 -39.5t43 -60.5t14.5 -77q0 -32 -8.5 -60 t-25 -53t-40.5 -49t-54 -48q-22 -18 -36 -32.5t-22 -28.5t-11 -29t-3 -34v-56h-89v63z" />
<glyph unicode="@" horiz-adv-x="1071" d="M515 -186q-99 0 -182 32t-143 91.5t-93.5 143t-33.5 185.5q0 111 38 203t105 157.5t158.5 101.5t197.5 36q108 0 191 -33t139.5 -89t86 -130.5t29.5 -156.5q0 -74 -20 -131.5t-53 -97.5t-75 -60.5t-86 -20.5q-54 0 -89.5 19.5t-49.5 70.5h-4q-20 -35 -55 -59.5t-97 -24.5 q-76 0 -122 51t-46 151q0 54 14.5 104.5t42.5 90.5t70 64t97 24q51 0 84.5 -21.5t47.5 -52.5h3l13 66h74l-44 -305q-7 -50 8 -82t64 -32q28 0 55.5 16.5t48.5 48t34 77t13 102.5q0 76 -27 140t-77 110.5t-120 72.5t-157 26q-92 0 -168.5 -33t-131.5 -90.5t-85 -135.5 t-30 -169q0 -95 32 -169t86 -124.5t125 -77t149 -26.5q91 0 161.5 21.5t130.5 66.5l33 -48q-29 -23 -62 -42t-74 -32.5t-91.5 -21t-114.5 -7.5zM497 117q38 0 65.5 21.5t45.5 54.5t26.5 72.5t8.5 75.5q0 128 -100 128q-39 0 -66.5 -19.5t-45.5 -50.5t-26 -69.5t-8 -76.5 q0 -29 4.5 -53.5t16 -43t31 -29t48.5 -10.5z" />
<glyph unicode="A" horiz-adv-x="726" d="M230 297h259l-102 289q-6 16 -10.5 31t-7.5 26q-4 13 -7 25h-3q-3 -12 -7 -25l-9 -25.5l-10 -29.5zM517 217h-315l-77 -217h-95l273 755h117l276 -755h-103z" />
<glyph unicode="B" horiz-adv-x="703" d="M95 755h291q111 0 171 -49t60 -130q0 -67 -33 -109t-88 -63v-3q28 -6 55.5 -19.5t49 -35t34.5 -52t13 -72.5q0 -103 -71 -162.5t-199 -59.5h-283v755zM192 431h183q75 0 109.5 33.5t34.5 90.5q0 64 -34.5 93.5t-116.5 29.5h-176v-247zM390 81q78 0 119 35t41 104 q0 68 -42 102t-106 34h-210v-275h198z" />
<glyph unicode="C" horiz-adv-x="743" d="M396 -15q-72 0 -133.5 24.5t-106 73.5t-69.5 122t-25 171q0 88 25 160t69.5 123t106 79t135.5 28q62 0 110 -16t83 -42t58 -58.5t37 -66.5l-86 -40q-34 70 -83 105.5t-121 35.5q-56 0 -99 -23t-72.5 -64t-45 -97.5t-15.5 -123.5q0 -69 16 -126t46 -97.5t73 -62.5t97 -22 q53 0 89.5 16.5t60.5 40t38 50.5t21 48l88 -27q-5 -21 -22.5 -56.5t-52.5 -70t-89.5 -59.5t-132.5 -25z" />
<glyph unicode="D" horiz-adv-x="750" d="M95 0v755h218q81 0 149 -19t117.5 -63t77.5 -116t28 -178q0 -194 -97 -287.5t-275 -91.5h-218zM313 79q68 0 119 15.5t85.5 50.5t51.5 92.5t17 141.5q0 152 -65.5 222.5t-207.5 70.5h-121v-593h121z" />
<glyph unicode="E" horiz-adv-x="637" d="M95 755h470v-84h-373v-247h334v-84h-334v-256h380v-84h-477v755z" />
<glyph unicode="F" horiz-adv-x="587" d="M95 755h452v-84h-355v-257h301v-83h-301v-331h-97v755z" />
<glyph unicode="G" horiz-adv-x="773" d="M385 -15q-71 0 -130 24t-102 73t-67 122.5t-24 171.5q0 90 25.5 162.5t71 123t108.5 77.5t138 27q62 0 108.5 -16t80 -41t55.5 -56t34 -61l-86 -39q-33 61 -78.5 96t-119.5 35q-55 0 -99 -23t-74.5 -64t-47 -97.5t-16.5 -123.5q0 -64 14.5 -120t43.5 -98t72 -66.5 t100 -24.5q60 0 100 19.5t64.5 51t34.5 71t10 80.5v21h-202v80h289v-390h-82l-4 98h-4q-14 -21 -32.5 -41.5t-44 -36.5t-59.5 -25.5t-77 -9.5z" />
<glyph unicode="H" horiz-adv-x="762" d="M570 346h-378v-346h-97v755h97v-327h378v327h97v-755h-97v346z" />
<glyph unicode="I" horiz-adv-x="287" d="M95 755h97v-755h-97v755z" />
<glyph unicode="J" horiz-adv-x="616" d="M274 -15q-59 0 -102 16.5t-72 46t-45 70.5t-20 91l89 13q8 -79 45.5 -119t106.5 -40q85 0 119.5 43.5t34.5 116.5v532h96v-518q0 -43 -10 -87.5t-37.5 -81t-77 -60t-127.5 -23.5z" />
<glyph unicode="K" horiz-adv-x="703" d="M192 0h-97v755h97v-378l340 378h116l-290 -315l305 -440h-118l-253 370l-100 -108v-262z" />
<glyph unicode="L" horiz-adv-x="590" d="M95 755h97v-670h363v-85h-460v755z" />
<glyph unicode="M" horiz-adv-x="944" d="M247 755l204 -575q4 -12 8 -25.5t8 -24.5l8 -26h2q3 13 7 26q3 11 7.5 24.5t9.5 25.5l206 575h142v-755h-92v646h-4q-1 -7 -4 -16q-5 -16 -14 -42l-212 -588h-103l-212 588q-5 12 -8 22.5t-5 18.5q-3 9 -4 17h-4v-646h-92v755h152z" />
<glyph unicode="N" horiz-adv-x="758" d="M95 755h114l329 -564l10.5 -20.5l10.5 -19.5l9 -20h2v624h92v-755h-114l-329 564q-6 9 -11 19.5t-10 19.5q-5 11 -9 21h-2v-624h-92v755z" />
<glyph unicode="O" horiz-adv-x="793" d="M395 -15q-77 0 -139 26t-105 76t-66 122.5t-23 166.5q0 92 24.5 164.5t69 122.5t106.5 76.5t136 26.5q76 0 137.5 -26t105 -75.5t67 -122t23.5 -166.5q0 -92 -24.5 -165t-69 -123t-106.5 -76.5t-136 -26.5zM395 66q55 0 98.5 21t74 61t46.5 97.5t16 130.5q0 149 -62 229 t-172 80q-55 0 -98 -21.5t-73 -61t-46 -97t-16 -129.5q0 -147 61 -228.5t171 -81.5z" />
<glyph unicode="P" horiz-adv-x="637" d="M95 755h247q55 0 103 -13t82.5 -40t54.5 -70t20 -103q0 -57 -20 -100t-55.5 -71t-84.5 -42t-108 -14h-142v-302h-97v755zM192 676v-294h140q84 0 128.5 37t44.5 110q0 79 -45 113t-124 34h-144z" />
<glyph unicode="Q" horiz-adv-x="795" d="M548 21q-69 -36 -152 -36q-75 0 -137 25.5t-105.5 75.5t-67.5 122.5t-24 167.5q0 93 25 165.5t69.5 122.5t106 76t135.5 26q75 0 136.5 -26t105 -75.5t67.5 -122t24 -166.5q0 -103 -31 -179.5t-84 -126.5l88 -101l-63 -54zM397 64q53 0 96 20l-84 96l63 54l87 -99 q71 83 71 239q0 71 -16 128.5t-46 98.5t-73.5 63t-98.5 22t-98 -22t-73 -62.5t-45.5 -97.5t-15.5 -128t16 -128.5t46 -98.5t73 -63t98 -22z" />
<glyph unicode="R" horiz-adv-x="686" d="M192 676v-282h157q35 0 64.5 6t51 21.5t33.5 43t12 70.5q0 76 -44.5 108.5t-128.5 32.5h-145zM351 315h-159v-315h-97v755h254q125 0 192.5 -55.5t67.5 -164.5q0 -78 -41.5 -129.5t-117.5 -73.5v-1l191 -331h-111z" />
<glyph unicode="S" horiz-adv-x="684" d="M339 -15q-60 0 -109 16.5t-85 44t-60 62.5t-34 73l91 29q25 -71 76.5 -106.5t124.5 -35.5q83 0 133 34t50 103q0 23 -7 42.5t-24.5 35.5t-47 28.5t-74.5 22.5l-85 19q-39 9 -75 24t-63 38.5t-43 57.5t-16 81q0 43 17 82t50 67.5t79.5 45.5t104.5 17q61 0 105 -13t76 -35 t53 -52.5t35 -64.5l-85 -35q-26 59 -68.5 88.5t-115.5 29.5q-41 0 -70.5 -10t-48 -27t-27 -38.5t-8.5 -45.5q0 -29 9.5 -49t28.5 -34t46.5 -24t62.5 -19l94 -22q106 -25 150.5 -74.5t44.5 -120.5q0 -54 -20 -97t-56.5 -74t-89.5 -47.5t-119 -16.5z" />
<glyph unicode="T" horiz-adv-x="627" d="M30 755h567v-84h-235v-671h-97v671h-235v84z" />
<glyph unicode="U" horiz-adv-x="754" d="M379 -15q-148 0 -218.5 73t-70.5 200v497h97v-487q0 -99 44 -150t148 -51q103 0 147.5 53t44.5 148v487h93v-497q0 -62 -17 -112.5t-52 -86t-88.5 -55t-127.5 -19.5z" />
<glyph unicode="V" horiz-adv-x="715" d="M335 183l10 -30.5t8 -25.5q4 -13 7 -24h4q2 12 6 25q3 11 7.5 25t10.5 30l202 572h95l-274 -755h-107l-274 755h103z" />
<glyph unicode="W" horiz-adv-x="1042" d="M526 653l-157 -653h-135l-194 755h101l163 -672l163 672h119l163 -658l159 658h94l-193 -755h-126z" />
<glyph unicode="X" horiz-adv-x="671" d="M159 755l181 -290l180 290h105l-234 -365l250 -390h-113l-194 310l-200 -310h-104l252 389l-237 366h114z" />
<glyph unicode="Y" horiz-adv-x="661" d="M284 308l-254 447h107l199 -360l199 360h96l-249 -441v-314h-98v308z" />
<glyph unicode="Z" horiz-adv-x="660" d="M55 72l433 601h-412v82h529v-72l-434 -601h426v-82h-542v72z" />
<glyph unicode="[" horiz-adv-x="320" d="M100 798h195v-57h-108v-847h108v-57h-195v961z" />
<glyph unicode="\" horiz-adv-x="417" d="M441 -163h-73l-352 961h72z" />
<glyph unicode="]" horiz-adv-x="320" d="M220 -163h-195v57h108v847h-108v57h195v-961z" />
<glyph unicode="_" horiz-adv-x="530" d="M30 -152h470v-70h-470v70z" />
<glyph unicode="`" d="M356 611h-76l-128 167h123z" />
<glyph unicode="a" horiz-adv-x="581" d="M250 61q49 0 80 18.5t49 45.5t25 57t7 53v12q-12 0 -26 1q-12 0 -28 0.5t-33 0.5q-51 0 -84 -6.5t-53 -19.5t-28 -32t-8 -43q0 -41 28.5 -64t70.5 -23zM230 -14q-38 0 -70 11t-55.5 31.5t-37 50t-13.5 66.5q0 45 19.5 78t54 55t83 33t106.5 11q19 0 36 -0.5t30 -1.5 q15 -1 28 -1v14q0 29 -5 54.5t-18.5 44.5t-38 30t-63.5 11q-30 0 -51 -8t-35.5 -20.5t-23 -29t-13.5 -33.5l-84 25q5 23 19 48.5t39.5 46.5t64 34.5t92.5 13.5q47 0 85.5 -11t65.5 -36t41.5 -65.5t14.5 -98.5v-198q0 -23 0.5 -47.5t1.5 -45.5q1 -25 3 -48h-89l-5 81 q-13 -19 -28.5 -36.5t-36.5 -30.5t-49.5 -20.5t-67.5 -7.5z" />
<glyph unicode="b" horiz-adv-x="642" d="M332 -15q-32 0 -57 7.5t-44 20t-32 28t-20 31.5v-72h-89v778h96v-327q8 15 21.5 32t34.5 31.5t49 24.5t65 10q63 0 107 -24t71.5 -63t40 -89t12.5 -101q0 -59 -15 -111.5t-46.5 -91.5t-79.5 -61.5t-114 -22.5zM329 64q42 0 72 16t49.5 44t29 65t9.5 79q0 97 -38.5 149.5 t-113.5 52.5q-42 0 -72.5 -15t-50.5 -42.5t-29.5 -65t-9.5 -82.5q0 -90 39.5 -145.5t114.5 -55.5z" />
<glyph unicode="c" horiz-adv-x="569" d="M306 -15q-65 0 -112 21t-78 57.5t-46 86t-15 107.5t16 111t48 93t81.5 64t115.5 24q48 0 83 -12.5t60 -31.5t40 -41.5t24 -43.5l-86 -37q-7 14 -16.5 30t-24.5 29t-36.5 21.5t-51.5 8.5q-38 0 -67.5 -16t-49.5 -43.5t-30.5 -64.5t-10.5 -79q0 -45 10 -83t30 -65.5 t50 -42.5t71 -15q58 0 91 26.5t53 66.5l76 -34q-15 -30 -34.5 -55t-46.5 -43t-62.5 -28.5t-81.5 -10.5z" />
<glyph unicode="d" horiz-adv-x="642" d="M306 66q40 0 70.5 15t50.5 42t30 64.5t10 82.5q0 44 -10 81t-29.5 64t-48 42t-66.5 15q-41 0 -71.5 -15.5t-50 -42.5t-29 -64t-9.5 -81q0 -45 8.5 -82.5t27.5 -64t47.5 -41.5t69.5 -15zM291 -15q-51 0 -94.5 17.5t-75 52t-49 86.5t-17.5 121q0 55 15 107t46.5 92t79.5 64 t114 24q28 0 52 -7.5t43 -19.5t32.5 -27.5t21.5 -30.5v314h93v-778h-90v83q-9 -16 -23 -33t-35 -31.5t-49 -24t-64 -9.5z" />
<glyph unicode="e" horiz-adv-x="587" d="M305 -15q-60 0 -106.5 20.5t-78.5 57.5t-48.5 88.5t-16.5 113.5q0 60 16.5 111.5t48.5 90t79 60.5t108 22q65 0 110 -23.5t72.5 -64.5t40 -95.5t12.5 -117.5h-390q0 -39 11.5 -73t32 -58.5t50 -38.5t66.5 -14q50 0 81.5 20.5t54.5 55.5l74 -40q-28 -49 -82 -82t-135 -33z M301 474q-35 0 -61.5 -13t-44.5 -34.5t-28 -49t-13 -56.5h286q-2 33 -11.5 61t-26.5 48.5t-42 32t-59 11.5z" />
<glyph unicode="f" horiz-adv-x="365" d="M30 535h91v104q0 73 42 108.5t106 35.5q14 0 27 -1.5t23 -3.5l21 -4l-5 -79q-15 4 -26.5 6t-26.5 2q-23 0 -36.5 -6.5t-20.5 -18t-9 -27.5t-2 -34v-82h120v-73h-120v-462h-93v462h-91v73z" />
<glyph unicode="g" horiz-adv-x="642" d="M309 76q38 0 67.5 14.5t49.5 40.5t30.5 63t10.5 82q0 42 -10 78t-29.5 62.5t-48.5 41t-66 14.5q-41 0 -71 -15.5t-50 -42.5t-29.5 -63t-9.5 -78q0 -44 9 -80t28.5 -62t48.5 -40.5t70 -14.5zM298 -232q-54 0 -93 11t-66 30.5t-43.5 44.5t-26.5 54l88 27q16 -45 49 -68.5 t91 -23.5q87 0 124.5 39t37.5 118v98q-22 -45 -62.5 -73.5t-110.5 -28.5q-56 0 -99.5 21t-72.5 57.5t-44 86t-15 107.5t15.5 109t46 89t76 60.5t104.5 22.5q36 0 63.5 -8.5t47.5 -22t33.5 -30t21.5 -32.5v79h89v-508q0 -59 -13 -107t-42.5 -81.5t-78 -52t-120.5 -18.5z" />
<glyph unicode="h" horiz-adv-x="621" d="M183 458q10 16 25 32t35 29t46.5 21.5t60.5 8.5q46 0 81 -15t58.5 -42t35 -64t11.5 -80v-348h-93v320q0 43 -10 71t-26.5 45t-38.5 24t-46 7q-61 0 -100 -38.5t-39 -121.5v-307h-93v778h93v-320z" />
<glyph unicode="i" horiz-adv-x="273" d="M84 755h105v-107h-105v107zM90 535h93v-535h-93v535z" />
<glyph unicode="j" horiz-adv-x="273" d="M84 755h105v-107h-105v107zM42 -222q-26 0 -44.5 3t-29.5 6l7 71q25 -5 55 -5q19 0 31 7t18.5 18.5t8.5 26t2 28.5v602h93v-608q0 -75 -39 -112t-102 -37z" />
<glyph unicode="k" horiz-adv-x="564" d="M254 247l-71 -84v-163h-93v778h93v-499l218 256h110l-191 -221l226 -314h-115z" />
<glyph unicode="l" horiz-adv-x="273" d="M90 778h93v-778h-93v778z" />
<glyph unicode="m" horiz-adv-x="974" d="M90 535h90v-79q11 16 26.5 33t36 30t47 21.5t60.5 8.5q66 0 107.5 -29.5t61.5 -77.5q16 23 34 42.5t40 34t49 22.5t61 8q46 0 81 -15t58.5 -42t35 -64t11.5 -80v-348h-93v320q0 43 -10 71t-26.5 45t-38.5 24t-46 7q-61 0 -100 -38.5t-39 -121.5v-307h-93v320q0 43 -10 71 t-26.5 45t-38.5 24t-46 7q-61 0 -100 -38.5t-39 -121.5v-307h-93v535z" />
<glyph unicode="n" horiz-adv-x="621" d="M90 535h90v-79q11 16 26.5 33t36 30t47 21.5t60.5 8.5q46 0 81 -15t58.5 -42t35 -64t11.5 -80v-348h-93v320q0 43 -10 71t-26.5 45t-38.5 24t-46 7q-61 0 -100 -38.5t-39 -121.5v-307h-93v535z" />
<glyph unicode="o" horiz-adv-x="622" d="M307 -15q-63 0 -110 21.5t-78.5 59t-47.5 89t-16 112.5q0 60 17 111.5t50 89.5t81.5 59.5t111.5 21.5t110 -21.5t78.5 -59t47.5 -89t16 -112.5q0 -60 -17 -111.5t-50 -89.5t-81.5 -59.5t-111.5 -21.5zM312 61q41 0 70.5 15t49 42.5t29 65.5t9.5 83t-9.5 83t-29.5 65.5 t-50 42.5t-71 15t-70.5 -15t-49 -42.5t-29 -65.5t-9.5 -83t9.5 -83t29.5 -65.5t50 -42.5t71 -15z" />
<glyph unicode="p" horiz-adv-x="642" d="M329 64q42 0 72 16t49.5 44t29 65t9.5 79q0 97 -38.5 149.5t-113.5 52.5q-42 0 -72.5 -15t-50.5 -42.5t-29.5 -65t-9.5 -82.5q0 -90 39.5 -145.5t114.5 -55.5zM90 535h89v-89q10 18 26 36.5t37.5 33t50 24t63.5 9.5q63 0 107 -24t71.5 -63.5t40 -89t12.5 -100.5 q0 -62 -17.5 -114.5t-50 -91t-80 -60t-107.5 -21.5q-30 0 -54.5 7.5t-43 18.5t-31.5 25t-20 28v-286h-93v757z" />
<glyph unicode="q" horiz-adv-x="642" d="M456 83q-8 -15 -21.5 -32t-34.5 -31.5t-49 -24.5t-65 -10q-58 0 -101 22t-72 59.5t-43.5 88t-14.5 107.5q0 61 15.5 113.5t46 91t76 60.5t104.5 22q33 0 60 -8t48 -21t35.5 -29.5t22.5 -34.5v79h89v-757h-96v305zM305 66q42 0 72.5 15.5t50.5 43.5t29.5 65t9.5 81 q0 90 -39.5 145.5t-114.5 55.5q-41 0 -71 -15.5t-50 -43t-29.5 -65t-9.5 -80.5q0 -90 37 -146t115 -56z" />
<glyph unicode="r" horiz-adv-x="393" d="M90 535h90v-97h3q25 62 73 85t107 23v-96q-6 0 -13 1q-6 0 -14.5 0.5t-19.5 0.5q-39 0 -74 -21.5t-49 -68.5q-4 -13 -6 -25.5t-3 -29t-1 -38v-52.5v-217h-93v535z" />
<glyph unicode="s" horiz-adv-x="519" d="M258 -15q-47 0 -81.5 9.5t-59 27t-42 42t-29.5 54.5l79 33q9 -19 20.5 -35.5t27.5 -29t37.5 -19.5t48.5 -7q56 0 86 22t30 59q0 29 -18 47t-70 32l-74 19q-68 17 -106 54t-38 103q0 29 12.5 56.5t37 49t60 34.5t80.5 13q43 0 76 -9.5t56.5 -25t39.5 -36.5t27 -45l-79 -35 q-7 13 -17 26.5t-24 24t-33.5 17.5t-44.5 7q-28 0 -47 -6.5t-31 -16.5t-17 -22.5t-5 -25.5q0 -35 22 -52.5t67 -28.5l86 -22q69 -17 99.5 -53.5t30.5 -89.5q0 -77 -55 -124t-152 -47z" />
<glyph unicode="t" horiz-adv-x="390" d="M30 535h92l6 145h84v-145h122v-73h-120v-330q0 -41 17 -54.5t55 -13.5q9 0 18 0.5t16 1.5l16 2l4 -69q-29 -6 -47.5 -8t-36.5 -2q-77 0 -106.5 33.5t-29.5 108.5l2 331h-92v73z" />
<glyph unicode="u" horiz-adv-x="611" d="M266 -14q-44 0 -77.5 15.5t-56.5 43t-35 66t-12 85.5v339h93v-320q0 -30 5.5 -57t19 -47t35.5 -32t56 -12q39 0 64.5 13t41 35t22 50.5t6.5 59.5v310h93v-535h-90v77q-6 -10 -18 -25.5t-32 -30t-48 -25t-67 -10.5z" />
<glyph unicode="v" horiz-adv-x="529" d="M209 0l-189 535h100l123 -372l9.5 -31l7.5 -24l6 -21h3l6 21l7.5 24t10.5 31l124 372h92l-189 -535h-111z" />
<glyph unicode="w" horiz-adv-x="829" d="M430 331q-5 16 -8 28.5l-5 21.5l-3 18h-3q-1 -8 -3 -19q-2 -9 -5.5 -21.5l-8.5 -29.5l-102 -329h-103l-164 535h98l104 -367q4 -14 7 -27t5 -23q2 -11 3 -22h3q1 10 4 21q4 19 14 51l111 367h84l111 -367q5 -15 8 -29.5t5 -25.5q3 -13 5 -24h4q1 11 4 24q2 11 5 25t8 29 l104 368h93l-166 -535h-109z" />
<glyph unicode="x" horiz-adv-x="526" d="M258 206l-135 -206h-98l183 273l-173 262h108l121 -189l123 189h100l-174 -257l188 -278h-108z" />
<glyph unicode="y" horiz-adv-x="516" d="M211 0l-191 535h100l124 -363q10 -33 15 -51q3 -11 3 -18h3q1 8 4 19q2 10 6 23.5t10 31.5l119 358h92l-267 -757h-92z" />
<glyph unicode="z" horiz-adv-x="505" d="M55 535h399v-78l-303 -379h311v-78h-415v77l305 380h-297v78z" />
<glyph unicode="{" horiz-adv-x="335" d="M40 356h31q44 0 56 22.5t9 65.5l-14 203q-3 41 6 70t27.5 47t44 26t55.5 8h50v-62h-29q-41 0 -57 -19t-13 -70l12 -222q2 -37 -12 -66t-58 -40v-2q44 -11 58 -40t12 -66l-12 -223q-3 -51 13 -70t57 -19h29v-62h-50q-30 0 -55.5 8t-44 26t-27.5 47t-6 70l14 204 q3 43 -9 65.5t-56 22.5h-31v76z" />
<glyph unicode="|" horiz-adv-x="317" d="M125 798h67v-961h-67v961z" />
<glyph unicode="}" horiz-adv-x="335" d="M285 279h-31q-44 0 -56 -22.5t-9 -65.5l14 -203q3 -41 -6 -70t-27.5 -47t-44 -26t-55.5 -8h-50v62h29q41 0 57 19t13 70l-12 222q-2 37 12 66t58 40v2q-44 11 -58 40t-12 66l12 223q3 51 -13 70t-57 19h-29v62h50q30 0 55.5 -8t44 -26t27.5 -47t6 -70l-14 -204 q-3 -43 9 -65.5t56 -22.5h31v-76z" />
<glyph unicode="&#xc4;" horiz-adv-x="726" d="M230 297h259l-102 289q-6 16 -10.5 31t-7.5 26q-4 13 -7 25h-3q-3 -12 -7 -25l-9 -25.5l-10 -29.5zM517 217h-315l-77 -217h-95l273 755h117l276 -755h-103zM422 927h99v-101h-99v101zM205 927h99v-101h-99v101z" />
<glyph unicode="&#xc5;" horiz-adv-x="726" d="M230 297h259l-102 289q-6 16 -10.5 31t-7.5 26q-4 13 -7 25h-3q-3 -12 -7 -25l-9 -25.5l-10 -29.5zM517 217h-315l-77 -217h-95l273 755h117l276 -755h-103zM241 906q0 25 9.5 46.5t26 38t38.5 26t48 9.5q25 0 47.5 -9.5t39 -26t26 -38t9.5 -46.5t-9.5 -46.5t-26 -38 t-39 -26t-47.5 -9.5q-26 0 -48 9.5t-38.5 26t-26 38t-9.5 46.5zM290 906q0 -32 21.5 -53.5t51.5 -21.5q29 0 50 21.5t21 53.5q0 31 -21 52t-50 21q-30 0 -51.5 -21t-21.5 -52z" />
<glyph unicode="&#xc7;" horiz-adv-x="743" d="M395 -231q-29 0 -52.5 6t-48.5 26l29 42q17 -12 33.5 -16.5t36.5 -4.5q19 0 31 9.5t12 26.5q0 18 -11.5 26.5t-27.5 8.5q-11 0 -18.5 -3t-15.5 -9l-45 23l36 83q-64 7 -117.5 34.5t-92.5 76.5t-60.5 118.5t-21.5 159.5q0 88 25 160t69.5 123t106 79t135.5 28 q62 0 110 -16t83 -42t58 -58.5t37 -66.5l-86 -40q-34 70 -83 105.5t-121 35.5q-56 0 -99 -23t-72.5 -64t-45 -97.5t-15.5 -123.5q0 -69 16 -126t46 -97.5t73 -62.5t97 -22q53 0 89.5 16.5t60.5 40t38 50.5t21 48l88 -27q-5 -24 -24.5 -60t-54.5 -69.5t-87.5 -57.5 t-124.5 -24l-21 -45l4 -1q9 4 18 6t23 2q34 0 59 -21t25 -60q0 -41 -30.5 -69t-84.5 -28z" />
<glyph unicode="&#xc9;" horiz-adv-x="637" d="M95 755h470v-84h-373v-247h334v-84h-334v-256h380v-84h-477v755zM384 948h127l-140 -142h-80z" />
<glyph unicode="&#xd1;" horiz-adv-x="758" d="M95 755h114l329 -564l10.5 -20.5l10.5 -19.5l9 -20h2v624h92v-755h-114l-329 564q-6 9 -11 19.5t-10 19.5q-5 11 -9 21h-2v-624h-92v755zM208 817q0 28 7 52.5t20 42.5t32 28.5t43 10.5q27 0 49.5 -9t41.5 -19.5l36 -19.5t33 -9q44 0 44 61h67q0 -20 -4.5 -43t-16 -43 t-32.5 -33.5t-55 -13.5q-26 0 -47 9t-39 19.5l-34.5 19.5t-32.5 9q-25 0 -35 -17t-10 -45h-67z" />
<glyph unicode="&#xd6;" horiz-adv-x="793" d="M395 -15q-77 0 -139 26t-105 76t-66 122.5t-23 166.5q0 92 24.5 164.5t69 122.5t106.5 76.5t136 26.5q76 0 137.5 -26t105 -75.5t67 -122t23.5 -166.5q0 -92 -24.5 -165t-69 -123t-106.5 -76.5t-136 -26.5zM395 66q55 0 98.5 21t74 61t46.5 97.5t16 130.5q0 149 -62 229 t-172 80q-55 0 -98 -21.5t-73 -61t-46 -97t-16 -129.5q0 -147 61 -228.5t171 -81.5zM455 927h99v-101h-99v101zM238 927h99v-101h-99v101z" />
<glyph unicode="&#xdc;" horiz-adv-x="754" d="M379 -15q-148 0 -218.5 73t-70.5 200v497h97v-487q0 -99 44 -150t148 -51q103 0 147.5 53t44.5 148v487h93v-497q0 -62 -17 -112.5t-52 -86t-88.5 -55t-127.5 -19.5zM436 927h99v-101h-99v101zM219 927h99v-101h-99v101z" />
<glyph unicode="&#xe1;" horiz-adv-x="581" d="M250 61q49 0 80 18.5t49 45.5t25 57t7 53v12q-12 0 -26 1q-12 0 -28 0.5t-33 0.5q-51 0 -84 -6.5t-53 -19.5t-28 -32t-8 -43q0 -41 28.5 -64t70.5 -23zM230 -14q-38 0 -70 11t-55.5 31.5t-37 50t-13.5 66.5q0 45 19.5 78t54 55t83 33t106.5 11q19 0 36 -0.5t30 -1.5 q15 -1 28 -1v14q0 29 -5 54.5t-18.5 44.5t-38 30t-63.5 11q-30 0 -51 -8t-35.5 -20.5t-23 -29t-13.5 -33.5l-84 25q5 23 19 48.5t39.5 46.5t64 34.5t92.5 13.5q47 0 85.5 -11t65.5 -36t41.5 -65.5t14.5 -98.5v-198q0 -23 0.5 -47.5t1.5 -45.5q1 -25 3 -48h-89l-5 81 q-13 -19 -28.5 -36.5t-36.5 -30.5t-49.5 -20.5t-67.5 -7.5zM336 778h123l-142 -167h-77z" />
<glyph unicode="&#xe0;" horiz-adv-x="581" d="M250 61q49 0 80 18.5t49 45.5t25 57t7 53v12q-12 0 -26 1q-12 0 -28 0.5t-33 0.5q-51 0 -84 -6.5t-53 -19.5t-28 -32t-8 -43q0 -41 28.5 -64t70.5 -23zM230 -14q-38 0 -70 11t-55.5 31.5t-37 50t-13.5 66.5q0 45 19.5 78t54 55t83 33t106.5 11q19 0 36 -0.5t30 -1.5 q15 -1 28 -1v14q0 29 -5 54.5t-18.5 44.5t-38 30t-63.5 11q-30 0 -51 -8t-35.5 -20.5t-23 -29t-13.5 -33.5l-84 25q5 23 19 48.5t39.5 46.5t64 34.5t92.5 13.5q47 0 85.5 -11t65.5 -36t41.5 -65.5t14.5 -98.5v-198q0 -23 0.5 -47.5t1.5 -45.5q1 -25 3 -48h-89l-5 81 q-13 -19 -28.5 -36.5t-36.5 -30.5t-49.5 -20.5t-67.5 -7.5zM340 611h-76l-128 167h123z" />
<glyph unicode="&#xe2;" horiz-adv-x="581" d="M250 61q49 0 80 18.5t49 45.5t25 57t7 53v12q-12 0 -26 1q-12 0 -28 0.5t-33 0.5q-51 0 -84 -6.5t-53 -19.5t-28 -32t-8 -43q0 -41 28.5 -64t70.5 -23zM230 -14q-38 0 -70 11t-55.5 31.5t-37 50t-13.5 66.5q0 45 19.5 78t54 55t83 33t106.5 11q19 0 36 -0.5t30 -1.5 q15 -1 28 -1v14q0 29 -5 54.5t-18.5 44.5t-38 30t-63.5 11q-30 0 -51 -8t-35.5 -20.5t-23 -29t-13.5 -33.5l-84 25q5 23 19 48.5t39.5 46.5t64 34.5t92.5 13.5q47 0 85.5 -11t65.5 -36t41.5 -65.5t14.5 -98.5v-198q0 -23 0.5 -47.5t1.5 -45.5q1 -25 3 -48h-89l-5 81 q-13 -19 -28.5 -36.5t-36.5 -30.5t-49.5 -20.5t-67.5 -7.5zM146 667l151 102l149 -100v-83l-151 94l-149 -94v81z" />
<glyph unicode="&#xe4;" horiz-adv-x="581" d="M250 61q49 0 80 18.5t49 45.5t25 57t7 53v12q-12 0 -26 1q-12 0 -28 0.5t-33 0.5q-51 0 -84 -6.5t-53 -19.5t-28 -32t-8 -43q0 -41 28.5 -64t70.5 -23zM230 -14q-38 0 -70 11t-55.5 31.5t-37 50t-13.5 66.5q0 45 19.5 78t54 55t83 33t106.5 11q19 0 36 -0.5t30 -1.5 q15 -1 28 -1v14q0 29 -5 54.5t-18.5 44.5t-38 30t-63.5 11q-30 0 -51 -8t-35.5 -20.5t-23 -29t-13.5 -33.5l-84 25q5 23 19 48.5t39.5 46.5t64 34.5t92.5 13.5q47 0 85.5 -11t65.5 -36t41.5 -65.5t14.5 -98.5v-198q0 -23 0.5 -47.5t1.5 -45.5q1 -25 3 -48h-89l-5 81 q-13 -19 -28.5 -36.5t-36.5 -30.5t-49.5 -20.5t-67.5 -7.5zM350 755h99v-102h-99v102zM143 755h99v-102h-99v102z" />
<glyph unicode="&#xe3;" horiz-adv-x="581" d="M250 61q49 0 80 18.5t49 45.5t25 57t7 53v12q-12 0 -26 1q-12 0 -28 0.5t-33 0.5q-51 0 -84 -6.5t-53 -19.5t-28 -32t-8 -43q0 -41 28.5 -64t70.5 -23zM230 -14q-38 0 -70 11t-55.5 31.5t-37 50t-13.5 66.5q0 45 19.5 78t54 55t83 33t106.5 11q19 0 36 -0.5t30 -1.5 q15 -1 28 -1v14q0 29 -5 54.5t-18.5 44.5t-38 30t-63.5 11q-30 0 -51 -8t-35.5 -20.5t-23 -29t-13.5 -33.5l-84 25q5 23 19 48.5t39.5 46.5t64 34.5t92.5 13.5q47 0 85.5 -11t65.5 -36t41.5 -65.5t14.5 -98.5v-198q0 -23 0.5 -47.5t1.5 -45.5q1 -25 3 -48h-89l-5 81 q-13 -19 -28.5 -36.5t-36.5 -30.5t-49.5 -20.5t-67.5 -7.5zM109 617q0 28 7 52.5t20 42.5t32 28.5t43 10.5q27 0 49.5 -9t41.5 -19.5l36 -19.5t33 -9q44 0 44 61h67q0 -20 -4.5 -43t-16 -43t-32.5 -33.5t-55 -13.5q-26 0 -47 9t-39.5 19.5l-34.5 19.5t-32 9q-24 0 -34.5 -17 t-10.5 -45h-67z" />
<glyph unicode="&#xe5;" horiz-adv-x="581" d="M250 61q49 0 80 18.5t49 45.5t25 57t7 53v12q-12 0 -26 1q-12 0 -28 0.5t-33 0.5q-51 0 -84 -6.5t-53 -19.5t-28 -32t-8 -43q0 -41 28.5 -64t70.5 -23zM230 -14q-38 0 -70 11t-55.5 31.5t-37 50t-13.5 66.5q0 45 19.5 78t54 55t83 33t106.5 11q19 0 36 -0.5t30 -1.5 q15 -1 28 -1v14q0 29 -5 54.5t-18.5 44.5t-38 30t-63.5 11q-30 0 -51 -8t-35.5 -20.5t-23 -29t-13.5 -33.5l-84 25q5 23 19 48.5t39.5 46.5t64 34.5t92.5 13.5q47 0 85.5 -11t65.5 -36t41.5 -65.5t14.5 -98.5v-198q0 -23 0.5 -47.5t1.5 -45.5q1 -25 3 -48h-89l-5 81 q-13 -19 -28.5 -36.5t-36.5 -30.5t-49.5 -20.5t-67.5 -7.5zM174 716q0 25 9.5 46.5t26 38t38.5 26t48 9.5q25 0 47.5 -9.5t39 -26t26 -38t9.5 -46.5t-9.5 -46.5t-26 -38t-39 -26t-47.5 -9.5q-26 0 -48 9.5t-38.5 26t-26 38t-9.5 46.5zM223 716q0 -32 21.5 -53.5t51.5 -21.5 q29 0 50 21.5t21 53.5q0 31 -21 52t-50 21q-30 0 -51.5 -21t-21.5 -52z" />
<glyph unicode="&#xe7;" horiz-adv-x="569" d="M307 -231q-29 0 -52.5 6t-48.5 26l29 42q17 -12 33.5 -16.5t36.5 -4.5q19 0 31 9.5t12 26.5q0 18 -11.5 26.5t-27.5 8.5q-11 0 -18.5 -3t-15.5 -9l-45 23l36 83q-54 6 -93.5 29t-66 59t-39 82.5t-12.5 99.5q0 58 16 111t48 93t81.5 64t115.5 24q48 0 83 -12.5t60 -31.5 t40 -41.5t24 -43.5l-86 -37q-7 14 -16.5 30t-24.5 29t-36.5 21.5t-51.5 8.5q-38 0 -67.5 -16t-49.5 -43.5t-30.5 -64.5t-10.5 -79q0 -45 10 -83t30 -65.5t50 -42.5t71 -15q58 0 91 26.5t53 66.5l76 -34q-14 -29 -33 -53.5t-45 -42.5t-60 -29t-78 -12l-22 -45l4 -1q9 4 18 6 t23 2q34 0 59 -21t25 -60q0 -41 -30.5 -69t-84.5 -28z" />
<glyph unicode="&#xe9;" horiz-adv-x="587" d="M305 -15q-60 0 -106.5 20.5t-78.5 57.5t-48.5 88.5t-16.5 113.5q0 60 16.5 111.5t48.5 90t79 60.5t108 22q65 0 110 -23.5t72.5 -64.5t40 -95.5t12.5 -117.5h-390q0 -39 11.5 -73t32 -58.5t50 -38.5t66.5 -14q50 0 81.5 20.5t54.5 55.5l74 -40q-28 -49 -82 -82t-135 -33z M301 474q-35 0 -61.5 -13t-44.5 -34.5t-28 -49t-13 -56.5h286q-2 33 -11.5 61t-26.5 48.5t-42 32t-59 11.5zM357 778h123l-142 -167h-77z" />
<glyph unicode="&#xe8;" horiz-adv-x="587" d="M305 -15q-60 0 -106.5 20.5t-78.5 57.5t-48.5 88.5t-16.5 113.5q0 60 16.5 111.5t48.5 90t79 60.5t108 22q65 0 110 -23.5t72.5 -64.5t40 -95.5t12.5 -117.5h-390q0 -39 11.5 -73t32 -58.5t50 -38.5t66.5 -14q50 0 81.5 20.5t54.5 55.5l74 -40q-28 -49 -82 -82t-135 -33z M301 474q-35 0 -61.5 -13t-44.5 -34.5t-28 -49t-13 -56.5h286q-2 33 -11.5 61t-26.5 48.5t-42 32t-59 11.5zM356 611h-76l-128 167h123z" />
<glyph unicode="&#xea;" horiz-adv-x="587" d="M305 -15q-60 0 -106.5 20.5t-78.5 57.5t-48.5 88.5t-16.5 113.5q0 60 16.5 111.5t48.5 90t79 60.5t108 22q65 0 110 -23.5t72.5 -64.5t40 -95.5t12.5 -117.5h-390q0 -39 11.5 -73t32 -58.5t50 -38.5t66.5 -14q50 0 81.5 20.5t54.5 55.5l74 -40q-28 -49 -82 -82t-135 -33z M301 474q-35 0 -61.5 -13t-44.5 -34.5t-28 -49t-13 -56.5h286q-2 33 -11.5 61t-26.5 48.5t-42 32t-59 11.5zM155 667l151 102l149 -100v-83l-151 94l-149 -94v81z" />
<glyph unicode="&#xeb;" horiz-adv-x="587" d="M305 -15q-60 0 -106.5 20.5t-78.5 57.5t-48.5 88.5t-16.5 113.5q0 60 16.5 111.5t48.5 90t79 60.5t108 22q65 0 110 -23.5t72.5 -64.5t40 -95.5t12.5 -117.5h-390q0 -39 11.5 -73t32 -58.5t50 -38.5t66.5 -14q50 0 81.5 20.5t54.5 55.5l74 -40q-28 -49 -82 -82t-135 -33z M301 474q-35 0 -61.5 -13t-44.5 -34.5t-28 -49t-13 -56.5h286q-2 33 -11.5 61t-26.5 48.5t-42 32t-59 11.5zM359 755h99v-102h-99v102zM152 755h99v-102h-99v102z" />
<glyph unicode="&#xed;" horiz-adv-x="273" d="M90 535h93v-535h-93v535zM187 778h123l-142 -167h-77z" />
<glyph unicode="&#xec;" horiz-adv-x="273" d="M90 535h93v-535h-93v535zM184 611h-76l-128 167h123z" />
<glyph unicode="&#xee;" horiz-adv-x="273" d="M10 667l127 102l126 -100v-80l-127 90l-126 -90v78zM90 535h93v-535h-93v535z" />
<glyph unicode="&#xef;" horiz-adv-x="273" d="M164 755h99v-102h-99v102zM10 755h99v-102h-99v102zM90 535h93v-535h-93v535z" />
<glyph unicode="&#xf1;" horiz-adv-x="622" d="M90 535h90v-79q11 16 26.5 33t36 30t47 21.5t60.5 8.5q46 0 81 -15t58.5 -42t35 -64t11.5 -80v-348h-93v320q0 43 -10 71t-26.5 45t-38.5 24t-46 7q-61 0 -100 -38.5t-39 -121.5v-307h-93v535zM136 617q0 28 7 52.5t20 42.5t32 28.5t43 10.5q27 0 49.5 -9t41.5 -19.5 l36 -19.5t33 -9q44 0 44 61h67q0 -20 -4.5 -43t-16 -43t-32.5 -33.5t-55 -13.5q-26 0 -47 9t-39.5 19.5l-34.5 19.5t-32 9q-24 0 -34.5 -17t-10.5 -45h-67z" />
<glyph unicode="&#xf3;" horiz-adv-x="622" d="M307 -15q-63 0 -110 21.5t-78.5 59t-47.5 89t-16 112.5q0 60 17 111.5t50 89.5t81.5 59.5t111.5 21.5t110 -21.5t78.5 -59t47.5 -89t16 -112.5q0 -60 -17 -111.5t-50 -89.5t-81.5 -59.5t-111.5 -21.5zM312 61q41 0 70.5 15t49 42.5t29 65.5t9.5 83t-9.5 83t-29.5 65.5 t-50 42.5t-71 15t-70.5 -15t-49 -42.5t-29 -65.5t-9.5 -83t9.5 -83t29.5 -65.5t50 -42.5t71 -15zM365 778h123l-142 -167h-77z" />
<glyph unicode="&#xf2;" horiz-adv-x="622" d="M307 -15q-63 0 -110 21.5t-78.5 59t-47.5 89t-16 112.5q0 60 17 111.5t50 89.5t81.5 59.5t111.5 21.5t110 -21.5t78.5 -59t47.5 -89t16 -112.5q0 -60 -17 -111.5t-50 -89.5t-81.5 -59.5t-111.5 -21.5zM312 61q41 0 70.5 15t49 42.5t29 65.5t9.5 83t-9.5 83t-29.5 65.5 t-50 42.5t-71 15t-70.5 -15t-49 -42.5t-29 -65.5t-9.5 -83t9.5 -83t29.5 -65.5t50 -42.5t71 -15zM355 611h-76l-128 167h123z" />
<glyph unicode="&#xf4;" horiz-adv-x="622" d="M307 -15q-63 0 -110 21.5t-78.5 59t-47.5 89t-16 112.5q0 60 17 111.5t50 89.5t81.5 59.5t111.5 21.5t110 -21.5t78.5 -59t47.5 -89t16 -112.5q0 -60 -17 -111.5t-50 -89.5t-81.5 -59.5t-111.5 -21.5zM312 61q41 0 70.5 15t49 42.5t29 65.5t9.5 83t-9.5 83t-29.5 65.5 t-50 42.5t-71 15t-70.5 -15t-49 -42.5t-29 -65.5t-9.5 -83t9.5 -83t29.5 -65.5t50 -42.5t71 -15zM162 667l151 102l149 -100v-83l-151 94l-149 -94v81z" />
<glyph unicode="&#xf6;" horiz-adv-x="622" d="M307 -15q-63 0 -110 21.5t-78.5 59t-47.5 89t-16 112.5q0 60 17 111.5t50 89.5t81.5 59.5t111.5 21.5t110 -21.5t78.5 -59t47.5 -89t16 -112.5q0 -60 -17 -111.5t-50 -89.5t-81.5 -59.5t-111.5 -21.5zM312 61q41 0 70.5 15t49 42.5t29 65.5t9.5 83t-9.5 83t-29.5 65.5 t-50 42.5t-71 15t-70.5 -15t-49 -42.5t-29 -65.5t-9.5 -83t9.5 -83t29.5 -65.5t50 -42.5t71 -15zM365 755h99v-102h-99v102zM158 755h99v-102h-99v102z" />
<glyph unicode="&#xf5;" horiz-adv-x="622" d="M307 -15q-63 0 -110 21.5t-78.5 59t-47.5 89t-16 112.5q0 60 17 111.5t50 89.5t81.5 59.5t111.5 21.5t110 -21.5t78.5 -59t47.5 -89t16 -112.5q0 -60 -17 -111.5t-50 -89.5t-81.5 -59.5t-111.5 -21.5zM312 61q41 0 70.5 15t49 42.5t29 65.5t9.5 83t-9.5 83t-29.5 65.5 t-50 42.5t-71 15t-70.5 -15t-49 -42.5t-29 -65.5t-9.5 -83t9.5 -83t29.5 -65.5t50 -42.5t71 -15zM131 617q0 28 7 52.5t20 42.5t32 28.5t43 10.5q27 0 49.5 -9t41.5 -19.5l36 -19.5t33 -9q44 0 44 61h67q0 -20 -4.5 -43t-16 -43t-32.5 -33.5t-55 -13.5q-26 0 -47 9 t-39.5 19.5l-34.5 19.5t-32 9q-24 0 -34.5 -17t-10.5 -45h-67z" />
<glyph unicode="&#xfa;" horiz-adv-x="611" d="M266 -14q-44 0 -77.5 15.5t-56.5 43t-35 66t-12 85.5v339h93v-320q0 -30 5.5 -57t19 -47t35.5 -32t56 -12q39 0 64.5 13t41 35t22 50.5t6.5 59.5v310h93v-535h-90v77q-6 -10 -18 -25.5t-32 -30t-48 -25t-67 -10.5zM361 778h123l-142 -167h-77z" />
<glyph unicode="&#xf9;" horiz-adv-x="611" d="M266 -14q-44 0 -77.5 15.5t-56.5 43t-35 66t-12 85.5v339h93v-320q0 -30 5.5 -57t19 -47t35.5 -32t56 -12q39 0 64.5 13t41 35t22 50.5t6.5 59.5v310h93v-535h-90v77q-6 -10 -18 -25.5t-32 -30t-48 -25t-67 -10.5zM351 611h-76l-128 167h123z" />
<glyph unicode="&#xfb;" horiz-adv-x="611" d="M266 -14q-44 0 -77.5 15.5t-56.5 43t-35 66t-12 85.5v339h93v-320q0 -30 5.5 -57t19 -47t35.5 -32t56 -12q39 0 64.5 13t41 35t22 50.5t6.5 59.5v310h93v-535h-90v77q-6 -10 -18 -25.5t-32 -30t-48 -25t-67 -10.5zM157 667l151 102l149 -100v-83l-151 94l-149 -94v81z " />
<glyph unicode="&#xfc;" horiz-adv-x="611" d="M266 -14q-44 0 -77.5 15.5t-56.5 43t-35 66t-12 85.5v339h93v-320q0 -30 5.5 -57t19 -47t35.5 -32t56 -12q39 0 64.5 13t41 35t22 50.5t6.5 59.5v310h93v-535h-90v77q-6 -10 -18 -25.5t-32 -30t-48 -25t-67 -10.5zM361 755h99v-102h-99v102zM154 755h99v-102h-99v102z " />
<glyph unicode="&#x2020;" horiz-adv-x="326" d="M34 649h97v106h65v-106h96v-58h-96v-261h-65v261h-97v58z" />
<glyph unicode="&#xa2;" horiz-adv-x="576" d="M531 122q-27 -55 -73 -92.5t-125 -43.5v-128h-60v129q-56 5 -97 27.5t-68 58.5t-40 83t-13 101q0 53 13 102t40 88t68 65t97 34v140h60v-137q43 -3 75.5 -16t55 -31.5t37 -40t22.5 -41.5l-85 -36q-6 13 -14.5 27t-21 27t-29.5 22.5t-40 13.5v-414q48 6 76.5 32.5 t46.5 62.5zM149 269q0 -40 7.5 -74.5t23 -61.5t39 -45t54.5 -25v409q-30 -7 -53 -26t-39 -46t-24 -60.5t-8 -70.5z" />
<glyph unicode="&#xa3;" horiz-adv-x="657" d="M590 0h-525v75q72 2 102.5 51t14.5 149l-9 60h-88v65h78l-17 106q-9 54 2 101.5t39.5 83t74.5 55.5t108 20q88 0 146.5 -43.5t75.5 -139.5l-89 -17q-14 61 -45.5 92.5t-91.5 31.5q-75 0 -106.5 -49t-15.5 -149l15 -92h210v-65h-200l8 -48q6 -39 5 -69.5t-8.5 -53.5 t-21.5 -41.5t-33 -33.5v-3h371v-86z" />
<glyph unicode="&#xa7;" horiz-adv-x="545" d="M317 305l29.5 -9t22.5 -8q17 10 27 26.5t10 41.5q0 37 -21.5 53.5t-64.5 28.5l-83 23q-31 8 -53 17q-16 -11 -26 -27.5t-10 -40.5q0 -41 24 -56.5t62 -25.5zM425 255q26 -22 35 -47.5t9 -57.5q0 -35 -13 -65t-38.5 -52.5t-64.5 -35t-90 -12.5q-56 0 -94 13t-62 33 t-36 44.5t-17 47.5l85 21q12 -38 40.5 -61.5t83.5 -23.5q116 0 116 81q0 29 -16.5 49t-55.5 31l-112 29q-67 17 -100 53t-33 87q0 41 16 68t51 51v3q-26 22 -35 47.5t-9 57.5q0 30 12.5 58t36.5 49.5t59.5 34t82.5 12.5q44 0 77.5 -11t57.5 -29t38.5 -41.5t20.5 -48.5 l-83 -23q-3 10 -10 24.5t-20.5 27.5t-35 22t-52.5 9q-52 0 -74.5 -22.5t-22.5 -50.5q0 -38 21 -55t53 -26l113 -30q133 -36 133 -138q0 -41 -16 -68.5t-51 -51.5v-3z" />
<glyph unicode="&#x2022;" horiz-adv-x="390" d="M70 295q0 26 10 48.5t27 39.5t39.5 27t48.5 10t48.5 -10t39.5 -27t27 -39.5t10 -48.5t-10 -48.5t-27 -39.5t-39.5 -27t-48.5 -10t-48.5 10t-39.5 27t-27 39.5t-10 48.5z" />
<glyph unicode="&#xdf;" horiz-adv-x="652" d="M90 546q0 120 58 178t165 58q42 0 78.5 -11.5t62.5 -32.5t41 -49.5t15 -62.5q0 -28 -8 -51t-20.5 -42t-27.5 -35.5l-30 -31.5q-18 -20 -30.5 -36t-12.5 -35q0 -26 15 -37t44 -24l49 -21q24 -10 47 -24t41 -33t29 -43.5t11 -55.5q0 -36 -12.5 -67t-37 -54t-60.5 -36.5 t-84 -13.5q-42 0 -73.5 11t-54 29.5t-35.5 42.5t-18 51l75 24q6 -16 14 -31.5t21.5 -27.5t32.5 -19.5t46 -7.5q42 0 68 22t26 57q0 38 -25.5 61t-62.5 39l-40 17q-22 9 -41.5 20t-33.5 26t-22.5 34.5t-8.5 46.5q0 21 5.5 37.5t14.5 30.5t21 26.5l25 25.5q23 23 39.5 48.5 t16.5 60.5q0 42 -25.5 71t-81.5 29q-36 0 -59.5 -12t-37 -32t-19 -47.5t-5.5 -57.5v-561h-95v546z" />
<glyph unicode="&#xae;" horiz-adv-x="472" d="M236 354q-43 0 -81 16t-66 44t-44 66t-16 81t16 81t44 66t66 44t81 16t81 -16t66 -44t44 -66t16 -81t-16 -81t-44 -66t-66 -44t-81 -16zM236 736q-36 0 -67 -14t-54.5 -38t-37 -55.5t-13.5 -67.5t13.5 -67.5t37 -55.5t54.5 -38t67 -14t67 14t54.5 38t37 55.5t13.5 67.5 t-13.5 67.5t-37 55.5t-54.5 38t-67 14zM234 575q22 0 33.5 7t11.5 26q0 20 -10.5 27.5t-32.5 7.5h-40v-68h38zM157 677h79q39 0 61.5 -16t22.5 -53q0 -23 -12 -38.5t-31 -22.5l53 -97h-44l-46 89h-44v-89h-39v227z" />
<glyph unicode="&#xa9;" horiz-adv-x="925" d="M70 377q0 81 30.5 153t84 125t125 84t152.5 31t153 -31t125 -84t84 -125t31 -153t-31 -152.5t-84 -125t-125 -84t-153 -30.5t-152.5 30.5t-125 84t-84 125t-30.5 152.5zM125 377q0 -72 26.5 -134.5t72 -109t107 -73.5t131.5 -27t131.5 27t107.5 73.5t72.5 109t26.5 134.5 t-26.5 134.5t-72.5 109.5t-107.5 74t-131.5 27t-131.5 -27t-107 -74t-72 -109.5t-26.5 -134.5zM465 149q-51 0 -90 17.5t-65.5 48t-39.5 71.5t-13 88q0 49 13.5 92.5t40.5 76.5t67.5 52.5t94.5 19.5q38 0 66 -10t48.5 -25.5t34 -34.5t22.5 -36l-71 -31q-15 34 -41 54t-66 20 q-32 0 -56 -13.5t-40.5 -36t-25 -53.5t-8.5 -65q0 -76 33 -123.5t100 -47.5q48 0 75 22t44 55l63 -28q-24 -49 -67 -81t-119 -32z" />
<glyph unicode="&#x2122;" horiz-adv-x="659" d="M106 703h-86v52h234v-52h-85v-247h-63v247zM302 755h82l62 -176q7 -22 8 -31q1 -7 2 -12h4q0 5 1 12q1 9 8 31l57 176h85v-299h-60v205h-4l-2 -12q-2 -5 -3.5 -11.5t-3.5 -13.5l-53 -168h-58l-58 171l-4 12t-3 11q-2 5 -2 11h-3v-205h-55v299z" />
<glyph unicode="&#xb4;" d="M239 778h123l-142 -167h-77z" />
<glyph unicode="&#xa8;" d="M304 755h99v-102h-99v102zM97 755h99v-102h-99v102z" />
<glyph unicode="&#xc6;" horiz-adv-x="954" d="M247 297h205v374h-48l-10 -26l-22 -55zM452 217h-239l-92 -217h-96l331 755h526v-84h-333v-248h294v-82h-294v-257h340v-84h-437v217z" />
<glyph unicode="&#xd8;" horiz-adv-x="793" d="M163 376q0 -66 12.5 -118.5t35.5 -91.5l329 470q-56 49 -144 49q-55 0 -98 -22.5t-73 -63t-46 -97.5t-16 -126zM395 66q55 0 98.5 22t74 62.5t46.5 98t16 127.5q0 134 -49 212l-330 -471q57 -51 144 -51zM395 -15q-114 0 -194 59l-68 -97l-51 35l73 104q-45 51 -69 123.5 t-24 166.5q0 92 24.5 164t69 122.5t106.5 77t136 26.5q113 0 193 -58l73 105l51 -33l-79 -113q45 -50 70 -122.5t25 -168.5q0 -92 -24.5 -165t-69 -123t-106.5 -76.5t-136 -26.5z" />
<glyph unicode="&#xa5;" horiz-adv-x="650" d="M377 141v-141h-92v141h-225v64h225v101h-225v64h215l-222 385h101l179 -329l170 329h94l-211 -385h204v-64h-213v-101h213v-64h-213z" />
<glyph unicode="&#xe6;" horiz-adv-x="929" d="M54 145q0 45 20.5 77.5t56 53.5t84.5 31t106 10h90v25q0 25 -5 49t-18.5 42t-38 29t-63.5 11q-30 0 -51 -8t-35.5 -20.5t-23 -29t-13.5 -33.5l-84 25q5 23 19 48.5t39.5 46.5t64 34.5t92.5 13.5q70 0 112 -23t67 -66q30 39 74 63.5t107 24.5q62 0 105.5 -24t71.5 -65 t40.5 -97t12.5 -119h-389q0 -40 11 -73t31.5 -57t50 -37t67.5 -13q50 0 81 20.5t54 55.5l74 -40q-28 -49 -81 -82t-131 -33q-73 0 -127.5 28.5t-79.5 85.5q-13 -21 -31.5 -41.5t-44 -36t-60 -25.5t-78.5 -10q-38 0 -70 11t-56 31.5t-37.5 50t-13.5 66.5zM643 474 q-35 0 -61.5 -13.5t-44.5 -35t-27.5 -49.5t-12.5 -57h285q-2 33 -11.5 61.5t-26.5 49t-42 32.5t-59 12zM248 61q48 0 79.5 18.5t50 45.5t26 57t7.5 53v7h-48q-54 0 -94 -4t-66 -14t-38.5 -27.5t-12.5 -45.5q0 -43 27 -66.5t69 -23.5z" />
<glyph unicode="&#xf8;" horiz-adv-x="622" d="M152 266q0 -42 8.5 -78t25.5 -63l206 328q-33 21 -81 21q-41 0 -70.5 -15.5t-49.5 -43.5t-29.5 -66t-9.5 -83zM311 60q40 0 70 15.5t50 43.5t29.5 66t9.5 83q0 42 -8.5 77.5t-25.5 62.5l-205 -327q33 -21 80 -21zM307 -15q-34 0 -63.5 7t-55.5 20l-50 -80l-53 31l53 85 q-41 38 -62 94.5t-21 124.5q0 60 17 111.5t50 89.5t81.5 59.5t111.5 21.5q67 0 120 -28l46 74l55 -28l-51 -81q41 -39 61.5 -95.5t20.5 -123.5q0 -60 -17 -111.5t-50 -89.5t-81.5 -59.5t-111.5 -21.5z" />
<glyph unicode="&#xbf;" horiz-adv-x="525" d="M341.012 482.008h-128.992v128.992h128.992v-128.992zM321.013 344.017q0 -29.998 -3 -49.9971t-12.499 -37.498q-9.5 -17.499 -26.499 -34.498t-44.9971 -39.9971q-27.998 -22.999 -47.9971 -42.498q-19.999 -19.498 -32.998 -37.9971t-18.999 -38.498 q-5.99902 -19.998 -5.99902 -44.9971q0 -53.9971 36.498 -83.9951q36.4971 -29.998 99.4932 -29.998q72.9961 0 110.993 39.498q37.998 39.4971 48.9971 106.493l86.9951 -13.999q-5 -47.9971 -24.999 -86.4951q-19.998 -38.4971 -52.9961 -65.9951 q-32.998 -27.499 -76.9951 -42.498q-43.998 -14.999 -96.9941 -14.999q-55.9971 0 -98.4941 13.999q-42.498 13.999 -70.9961 39.498q-28.498 25.498 -42.9971 60.4961t-14.499 76.9951q0 31.998 8.49902 59.9961q8.5 27.999 24.999 52.9971t40.4971 48.9971 q23.999 23.999 53.9971 47.9971q21.998 17.999 35.998 32.498q13.999 14.499 21.998 28.498q8 13.999 10.999 28.998q3 14.999 3 33.998v55.9971h88.9951v-62.9961z" />
<glyph unicode="&#xa1;" horiz-adv-x="287" d="M208.005 482.008h-128.992v128.992h128.992v-128.992zM192.006 126.029v-292.981h-95.9941v292.981l14.999 279.983h65.9961z" />
<glyph unicode="&#xab;" horiz-adv-x="490" d="M435 464l-117 -202l117 -205h-87l-123 204l125 203h85zM255 464l-117 -202l117 -205h-87l-123 204l125 203h85z" />
<glyph unicode="&#xbb;" horiz-adv-x="490" d="M235 57l117 202l-117 205h87l123 -204l-125 -203h-85zM55 57l117 202l-117 205h87l123 -204l-125 -203h-85z" />
<glyph unicode="&#xc0;" horiz-adv-x="726" d="M230 297h259l-102 289q-6 16 -10.5 31t-7.5 26q-4 13 -7 25h-3q-3 -12 -7 -25l-9 -25.5l-10 -29.5zM517 217h-315l-77 -217h-95l273 755h117l276 -755h-103zM405 806h-80l-140 142h127z" />
<glyph unicode="&#xc3;" horiz-adv-x="726" d="M230 297h259l-102 289q-6 16 -10.5 31t-7.5 26q-4 13 -7 25h-3q-3 -12 -7 -25l-9 -25.5l-10 -29.5zM517 217h-315l-77 -217h-95l273 755h117l276 -755h-103zM179 817q0 28 7 52.5t20 42.5t32 28.5t43 10.5q27 0 49.5 -9t41.5 -19.5l36 -19.5t33 -9q44 0 44 61h67 q0 -20 -4.5 -43t-16 -43t-32.5 -33.5t-55 -13.5q-26 0 -47 9t-39 19.5l-34.5 19.5t-32.5 9q-25 0 -35 -17t-10 -45h-67z" />
<glyph unicode="&#xd5;" horiz-adv-x="793" d="M395 -15q-77 0 -139 26t-105 76t-66 122.5t-23 166.5q0 92 24.5 164.5t69 122.5t106.5 76.5t136 26.5q76 0 137.5 -26t105 -75.5t67 -122t23.5 -166.5q0 -92 -24.5 -165t-69 -123t-106.5 -76.5t-136 -26.5zM395 66q55 0 98.5 21t74 61t46.5 97.5t16 130.5q0 149 -62 229 t-172 80q-55 0 -98 -21.5t-73 -61t-46 -97t-16 -129.5q0 -147 61 -228.5t171 -81.5zM218 817q0 28 7 52.5t20 42.5t32 28.5t43 10.5q27 0 49.5 -9t41.5 -19.5l36 -19.5t33 -9q44 0 44 61h67q0 -20 -4.5 -43t-16 -43t-32.5 -33.5t-55 -13.5q-26 0 -47 9t-39 19.5l-34.5 19.5 t-32.5 9q-25 0 -35 -17t-10 -45h-67z" />
<glyph unicode="&#x152;" horiz-adv-x="1157" d="M396 65q54 0 97 22t73 62.5t45.5 97.5t15.5 128q0 150 -61 230.5t-170 80.5q-54 0 -97 -22.5t-73 -63.5t-46 -98.5t-16 -126.5q0 -70 15.5 -127t45.5 -97.5t73 -63t98 -22.5zM626 92q-45 -57 -103 -82t-125 -25q-76 0 -138 26t-106 75.5t-68 122.5t-24 166 q0 92 24.5 164.5t69 123t106.5 77t136 26.5q67 0 122.5 -21.5t104.5 -80.5v91h460v-84h-363v-248h324v-82h-324v-257h370v-84h-466v92z" />
<glyph unicode="&#x153;" horiz-adv-x="994" d="M718 -15q-76 0 -125.5 29t-78.5 80h-2q-31 -52 -82 -80.5t-123 -28.5q-63 0 -110 21.5t-78.5 59t-47.5 89t-16 112.5q0 60 17 111.5t50 89.5t81.5 59.5t111.5 21.5q73 0 123 -28t79 -81h2q29 51 78 80t119 29q64 0 108.5 -23.5t72.5 -64t40.5 -96t12.5 -118.5h-389 q0 -39 11.5 -72.5t32 -58t50 -38.5t66.5 -14q50 0 81 20.5t54 55.5l74 -40q-28 -49 -82 -82t-130 -33zM709 474q-35 0 -61 -13t-44 -34t-28 -48.5t-13 -56.5h285q-2 33 -11.5 61t-26.5 48t-42 31.5t-59 11.5zM312 62q40 0 70 15t49 42.5t28.5 65t9.5 82.5t-9.5 82.5 t-29.5 65t-50 42.5t-70 15q-41 0 -70.5 -15t-48.5 -42.5t-28.5 -65t-9.5 -82.5t9.5 -82.5t29.5 -65t49.5 -42.5t70.5 -15z" />
<glyph unicode="&#x2013;" horiz-adv-x="530" d="M30 330h470v-70h-470v70z" />
<glyph unicode="&#x2014;" horiz-adv-x="930" d="M30 330h870v-70h-870v70z" />
<glyph unicode="&#x201c;" horiz-adv-x="430" d="M204 731q-39 -12 -62.5 -35t-23.5 -72h61v-129h-129v112q0 66 34 109t106 62zM404 731q-39 -12 -62.5 -35t-23.5 -72h61v-129h-129v112q0 66 34 109t106 62z" />
<glyph unicode="&#x201d;" horiz-adv-x="430" d="M26 519q39 12 62.5 35t23.5 72h-61v129h129v-112q0 -66 -34 -109t-106 -62zM226 519q39 12 62.5 35t23.5 72h-61v129h129v-112q0 -66 -34 -109t-106 -62z" />
<glyph unicode="&#x2018;" horiz-adv-x="230" d="M204 731q-39 -12 -62.5 -35t-23.5 -72h61v-129h-129v112q0 66 34 109t106 62z" />
<glyph unicode="&#x2019;" horiz-adv-x="230" d="M26 519q39 12 62.5 35t23.5 72h-61v129h129v-112q0 -66 -34 -109t-106 -62z" />
<glyph unicode="&#xff;" horiz-adv-x="516" d="M211 0l-191 535h100l124 -363q10 -33 15 -51q3 -11 3 -18h3q1 8 4 19q2 10 6 23.5t10 31.5l119 358h92l-267 -757h-92zM325 755h99v-102h-99v102zM118 755h99v-102h-99v102z" />
<glyph unicode="&#x178;" horiz-adv-x="661" d="M284 308l-254 447h107l199 -360l199 360h96l-249 -441v-314h-98v308zM398 927h99v-101h-99v101zM181 927h99v-101h-99v101z" />
<glyph unicode="&#x20ac;" horiz-adv-x="684" d="M635 171q-13 -50 -37 -85t-55.5 -57.5t-68.5 -33t-75 -10.5q-116 0 -182.5 67t-83.5 209h-86v64h80q-1 12 -1 24.5v25.5q0 14 0.5 26.5t1.5 24.5h-81v64h87q11 71 35.5 123t60 86t79.5 50.5t95 16.5q94 0 149.5 -44t81.5 -125l-92 -29q-24 61 -56 91.5t-90 30.5 q-65 0 -108 -48t-58 -152h233v-64h-240q-1 -13 -1 -26v-27v-25t1 -23h240v-64h-234q8 -56 24 -94.5t38.5 -62t50 -34t58.5 -10.5q54 0 90.5 33t59.5 102l84 -24v0z" />
<glyph unicode="&#x2039;" horiz-adv-x="310" d="M255 464l-117 -202l117 -205h-87l-123 204l125 203h85z" />
<glyph unicode="&#x203a;" horiz-adv-x="310" d="M55 57l117 202l-117 205h87l123 -204l-125 -203h-85z" />
<glyph unicode="&#xb7;" horiz-adv-x="299" d="M85 360h129v-129h-129v129z" />
<glyph unicode="&#x201a;" horiz-adv-x="230" d="M26 -107q39 12 62.5 35t23.5 72h-61v129h129v-112q0 -66 -34 -109t-106 -62z" />
<glyph unicode="&#x201e;" horiz-adv-x="430" d="M26 -107q39 12 62.5 35t23.5 72h-61v129h129v-112q0 -66 -34 -109t-106 -62zM226 -107q39 12 62.5 35t23.5 72h-61v129h129v-112q0 -66 -34 -109t-106 -62z" />
<glyph unicode="&#x2030;" horiz-adv-x="1227" d="M45 578q0 45 12.5 80t34.5 59t52.5 36.5t65.5 12.5q75 0 117 -46.5t42 -141.5q0 -46 -12 -81t-34 -59t-51.5 -36t-65.5 -12q-76 0 -118.5 48t-42.5 140zM632 766h74l-502 -780h-75zM206 710q-39 0 -61 -32t-22 -100q0 -66 22 -99t62 -33q38 0 60 31.5t22 100.5 q0 66 -22 99t-61 33zM858 174q0 45 12.5 80t34.5 59t52.5 36.5t65.5 12.5q75 0 117 -46.5t42 -141.5q0 -46 -12 -81t-34 -59t-51.5 -36t-65.5 -12q-76 0 -118.5 48t-42.5 140zM465 174q0 45 12.5 80t34.5 59t52.5 36.5t65.5 12.5q75 0 117 -46.5t42 -141.5q0 -46 -12 -81 t-34 -59t-51.5 -36t-65.5 -12q-76 0 -118.5 48t-42.5 140zM1019 306q-39 0 -61 -32t-22 -100q0 -66 22 -99t62 -33q38 0 60 31.5t22 100.5q0 66 -22 99t-61 33zM626 306q-39 0 -61 -32t-22 -100q0 -66 22 -99t62 -33q38 0 60 31.5t22 100.5q0 66 -22 99t-61 33z" />
<glyph unicode="&#xc2;" horiz-adv-x="726" d="M230 297h259l-102 289q-6 16 -10.5 31t-7.5 26q-4 13 -7 25h-3q-3 -12 -7 -25l-9 -25.5l-10 -29.5zM517 217h-315l-77 -217h-95l273 755h117l276 -755h-103zM213 873l151 82l149 -82v-81l-154 75l-146 -72v78z" />
<glyph unicode="&#xca;" horiz-adv-x="637" d="M95 755h470v-84h-373v-247h334v-84h-334v-256h380v-84h-477v755zM191 873l151 82l149 -82v-81l-154 75l-146 -72v78z" />
<glyph unicode="&#xc1;" horiz-adv-x="726" d="M230 297h259l-102 289q-6 16 -10.5 31t-7.5 26q-4 13 -7 25h-3q-3 -12 -7 -25l-9 -25.5l-10 -29.5zM517 217h-315l-77 -217h-95l273 755h117l276 -755h-103zM414 948h127l-140 -142h-80z" />
<glyph unicode="&#xcb;" horiz-adv-x="637" d="M95 755h470v-84h-373v-247h334v-84h-334v-256h380v-84h-477v755zM400 927h99v-101h-99v101zM183 927h99v-101h-99v101z" />
<glyph unicode="&#xc8;" horiz-adv-x="637" d="M95 755h470v-84h-373v-247h334v-84h-334v-256h380v-84h-477v755zM383 806h-80l-140 142h127z" />
<glyph unicode="&#xcd;" horiz-adv-x="287" d="M95 755h97v-755h-97v755zM195 948h127l-140 -142h-80z" />
<glyph unicode="&#xce;" horiz-adv-x="287" d="M13 876l131 80l129 -80v-84l-134 73l-126 -70v81zM95 755h97v-755h-97v755z" />
<glyph unicode="&#xcf;" horiz-adv-x="287" d="M176 927h99v-101h-99v101zM12 927h99v-101h-99v101zM95 755h97v-755h-97v755z" />
<glyph unicode="&#xcc;" horiz-adv-x="287" d="M95 755h97v-755h-97v755zM186 806h-80l-140 142h127z" />
<glyph unicode="&#xd3;" horiz-adv-x="793" d="M395 -15q-77 0 -139 26t-105 76t-66 122.5t-23 166.5q0 92 24.5 164.5t69 122.5t106.5 76.5t136 26.5q76 0 137.5 -26t105 -75.5t67 -122t23.5 -166.5q0 -92 -24.5 -165t-69 -123t-106.5 -76.5t-136 -26.5zM395 66q55 0 98.5 21t74 61t46.5 97.5t16 130.5q0 149 -62 229 t-172 80q-55 0 -98 -21.5t-73 -61t-46 -97t-16 -129.5q0 -147 61 -228.5t171 -81.5zM447 948h127l-140 -142h-80z" />
<glyph unicode="&#xd4;" horiz-adv-x="793" d="M395 -15q-77 0 -139 26t-105 76t-66 122.5t-23 166.5q0 92 24.5 164.5t69 122.5t106.5 76.5t136 26.5q76 0 137.5 -26t105 -75.5t67 -122t23.5 -166.5q0 -92 -24.5 -165t-69 -123t-106.5 -76.5t-136 -26.5zM395 66q55 0 98.5 21t74 61t46.5 97.5t16 130.5q0 149 -62 229 t-172 80q-55 0 -98 -21.5t-73 -61t-46 -97t-16 -129.5q0 -147 61 -228.5t171 -81.5zM246 873l151 82l149 -82v-81l-154 75l-146 -72v78z" />
<glyph unicode="&#xd2;" horiz-adv-x="793" d="M395 -15q-77 0 -139 26t-105 76t-66 122.5t-23 166.5q0 92 24.5 164.5t69 122.5t106.5 76.5t136 26.5q76 0 137.5 -26t105 -75.5t67 -122t23.5 -166.5q0 -92 -24.5 -165t-69 -123t-106.5 -76.5t-136 -26.5zM395 66q55 0 98.5 21t74 61t46.5 97.5t16 130.5q0 149 -62 229 t-172 80q-55 0 -98 -21.5t-73 -61t-46 -97t-16 -129.5q0 -147 61 -228.5t171 -81.5zM438 806h-80l-140 142h127z" />
<glyph unicode="&#xda;" horiz-adv-x="754" d="M379 -15q-148 0 -218.5 73t-70.5 200v497h97v-487q0 -99 44 -150t148 -51q103 0 147.5 53t44.5 148v487h93v-497q0 -62 -17 -112.5t-52 -86t-88.5 -55t-127.5 -19.5zM428 948h127l-140 -142h-80z" />
<glyph unicode="&#xdb;" horiz-adv-x="754" d="M379 -15q-148 0 -218.5 73t-70.5 200v497h97v-487q0 -99 44 -150t148 -51q103 0 147.5 53t44.5 148v487h93v-497q0 -62 -17 -112.5t-52 -86t-88.5 -55t-127.5 -19.5zM227 873l151 82l149 -82v-81l-154 75l-146 -72v78z" />
<glyph unicode="&#xd9;" horiz-adv-x="754" d="M379 -15q-148 0 -218.5 73t-70.5 200v497h97v-487q0 -99 44 -150t148 -51q103 0 147.5 53t44.5 148v487h93v-497q0 -62 -17 -112.5t-52 -86t-88.5 -55t-127.5 -19.5zM419 806h-80l-140 142h127z" />
<glyph unicode="&#x131;" horiz-adv-x="273" d="M90 535h93v-535h-93v535z" />
<glyph unicode="&#x2c6;" horiz-adv-x="494" d="M97 667l151 102l149 -100v-83l-151 94l-149 -94v81z" />
<glyph unicode="&#x2dc;" d="M69 617q0 28 7 52.5t20 42.5t32 28.5t43 10.5q27 0 49.5 -9t41.5 -19.5l36 -19.5t33 -9q44 0 44 61h67q0 -20 -4.5 -43t-16 -43t-32.5 -33.5t-55 -13.5q-26 0 -47 9t-39.5 19.5l-34.5 19.5t-32 9q-24 0 -34.5 -17t-10.5 -45h-67z" />
<glyph unicode="&#xaf;" d="M80 728h334v-75h-334v75z" />
<glyph unicode="&#x2d8;" d="M247 599q-32 0 -59 10t-48 28.5t-34.5 45.5t-16.5 61h62q18 -74 99 -74q42 0 66.5 19.5t33.5 54.5h55q-3 -34 -17 -61t-35 -45.5t-48.5 -28.5t-57.5 -10z" />
<glyph unicode="&#x2d9;" horiz-adv-x="501" d="M201 755h99v-102h-99v102z" />
<glyph unicode="&#x2da;" d="M128 716q0 25 9.5 46.5t26 38t38.5 26t48 9.5q25 0 47.5 -9.5t39 -26t26 -38t9.5 -46.5t-9.5 -46.5t-26 -38t-39 -26t-47.5 -9.5q-26 0 -48 9.5t-38.5 26t-26 38t-9.5 46.5zM177 716q0 -32 21.5 -53.5t51.5 -21.5q29 0 50 21.5t21 53.5q0 31 -21 52t-50 21 q-30 0 -51.5 -21t-21.5 -52z" />
<glyph unicode="&#x2dd;" d="M133 778h113l-127 -172h-71zM325 778h113l-127 -172h-71z" />
<glyph unicode="&#x2c7;" horiz-adv-x="494" d="M397 692l-151 -102l-149 100v83l151 -94l149 94v-81z" />
<glyph unicode="&#x110;" horiz-adv-x="750" d="M685 379q0 -194 -97 -287.5t-275 -91.5h-218v348h-86v65h86v342h218q81 0 149 -19t117.5 -63t77.5 -116t28 -178zM313 79q68 0 119 15.5t85.5 50.5t51.5 92.5t17 141.5q0 152 -65.5 222.5t-207.5 70.5h-121v-259h207v-65h-207v-269h121z" />
<glyph unicode="&#x132;" horiz-adv-x="883" d="M95 755h97v-755h-97v755zM541 -15q-59 0 -102 16.5t-72 46t-45 70.5t-20 91l89 13q8 -79 45.5 -119t106.5 -40q85 0 119.5 43.5t34.5 116.5v532h96v-518q0 -43 -10 -87.5t-37.5 -81t-77 -60t-127.5 -23.5z" />
<glyph unicode="&#x111;" horiz-adv-x="642" d="M306 66q40 0 70.5 15t50.5 42t30 64.5t10 82.5q0 44 -10 81t-29.5 64t-48 42t-66.5 15q-41 0 -71.5 -15.5t-50 -42.5t-29 -64t-9.5 -81q0 -45 8.5 -82.5t27.5 -64t47.5 -41.5t69.5 -15zM462 83q-9 -16 -23 -33t-35 -31.5t-49 -24t-64 -9.5q-51 0 -94.5 17.5t-75 52 t-49 86.5t-17.5 121q0 55 15 107t46.5 92t79.5 64t114 24q28 0 52 -7.5t43 -19.5t32.5 -27.5t21.5 -30.5v155h-158v57h158v102h93v-102h69v-57h-69v-619h-90v83z" />
<glyph unicode="&#x133;" horiz-adv-x="546" d="M84 755h105v-107h-105v107zM90 535h93v-535h-93v535zM357 755h105v-107h-105v107zM315 -222q-26 0 -44.5 3t-29.5 6l7 71q25 -5 55 -5q19 0 31 7t18.5 18.5t8.5 26t2 28.5v602h93v-608q0 -75 -39 -112t-102 -37z" />
<glyph unicode="&#x102;" horiz-adv-x="726" d="M230 297h259l-102 289q-6 16 -10.5 31t-7.5 26q-4 13 -7 25h-3q-3 -12 -7 -25l-9 -25.5l-10 -29.5zM517 217h-315l-77 -217h-95l273 755h117l276 -755h-103zM365 812q-58 0 -102.5 34.5t-55.5 104.5h60q8 -30 32.5 -49t66.5 -19t65 17t35 51h54q-4 -33 -17.5 -58.5 t-34.5 -43.5t-47.5 -27.5t-55.5 -9.5z" />
<glyph unicode="&#x100;" horiz-adv-x="726" d="M230 297h259l-102 289q-6 16 -10.5 31t-7.5 26q-4 13 -7 25h-3q-3 -12 -7 -25l-9 -25.5l-10 -29.5zM517 217h-315l-77 -217h-95l273 755h117l276 -755h-103zM196 901h334v-75h-334v75z" />
<glyph unicode="&#x104;" horiz-adv-x="726" d="M230 297h259l-102 289q-6 16 -10.5 31t-7.5 26q-4 13 -7 25h-3q-3 -12 -7 -25l-9 -25.5l-10 -29.5zM593 0l-76 217h-315l-77 -217h-95l273 755h117l276 -755q-50 -36 -67.5 -62.5t-17.5 -49.5q0 -28 16 -40t40 -12h13.5t15.5 2v-67q-6 -1 -13 -2t-16 -1h-23 q-56 0 -86.5 24.5t-30.5 72.5q0 45 25 74.5t77 60.5h-36z" />
<glyph unicode="&#x1fc;" horiz-adv-x="954" d="M247 297h205v374h-48l-10 -26l-22 -55zM452 217h-239l-92 -217h-96l331 755h526v-84h-333v-248h294v-82h-294v-257h340v-84h-437v217zM650 948h127l-140 -142h-80z" />
<glyph unicode="&#x106;" horiz-adv-x="743" d="M396 -15q-72 0 -133.5 24.5t-106 73.5t-69.5 122t-25 171q0 88 25 160t69.5 123t106 79t135.5 28q62 0 110 -16t83 -42t58 -58.5t37 -66.5l-86 -40q-34 70 -83 105.5t-121 35.5q-56 0 -99 -23t-72.5 -64t-45 -97.5t-15.5 -123.5q0 -69 16 -126t46 -97.5t73 -62.5t97 -22 q53 0 89.5 16.5t60.5 40t38 50.5t21 48l88 -27q-5 -21 -22.5 -56.5t-52.5 -70t-89.5 -59.5t-132.5 -25zM446 948h127l-140 -142h-80z" />
<glyph unicode="&#x10c;" horiz-adv-x="743" d="M396 -15q-72 0 -133.5 24.5t-106 73.5t-69.5 122t-25 171q0 88 25 160t69.5 123t106 79t135.5 28q62 0 110 -16t83 -42t58 -58.5t37 -66.5l-86 -40q-34 70 -83 105.5t-121 35.5q-56 0 -99 -23t-72.5 -64t-45 -97.5t-15.5 -123.5q0 -69 16 -126t46 -97.5t73 -62.5t97 -22 q53 0 89.5 16.5t60.5 40t38 50.5t21 48l88 -27q-5 -21 -22.5 -56.5t-52.5 -70t-89.5 -59.5t-132.5 -25zM550 866l-151 -82l-149 82v81l154 -75l146 73v-79z" />
<glyph unicode="&#x10a;" horiz-adv-x="743" d="M396 -15q-72 0 -133.5 24.5t-106 73.5t-69.5 122t-25 171q0 88 25 160t69.5 123t106 79t135.5 28q62 0 110 -16t83 -42t58 -58.5t37 -66.5l-86 -40q-34 70 -83 105.5t-121 35.5q-56 0 -99 -23t-72.5 -64t-45 -97.5t-15.5 -123.5q0 -69 16 -126t46 -97.5t73 -62.5t97 -22 q53 0 89.5 16.5t60.5 40t38 50.5t21 48l88 -27q-5 -21 -22.5 -56.5t-52.5 -70t-89.5 -59.5t-132.5 -25zM347 933h97v-99h-97v99z" />
<glyph unicode="&#x10e;" horiz-adv-x="755" d="M95 0v755h218q81 0 149 -19t117.5 -63t77.5 -116t28 -178q0 -194 -97 -287.5t-275 -91.5h-218zM313 79q68 0 119 15.5t85.5 50.5t51.5 92.5t17 141.5q0 152 -65.5 222.5t-207.5 70.5h-121v-593h121zM500 866l-151 -82l-149 82v81l154 -75l146 73v-79z" />
<glyph unicode="&#x11a;" horiz-adv-x="637" d="M95 755h470v-84h-373v-247h334v-84h-334v-256h380v-84h-477v755zM491 866l-151 -82l-149 82v81l154 -75l146 73v-79z" />
<glyph unicode="&#x116;" horiz-adv-x="637" d="M95 755h470v-84h-373v-247h334v-84h-334v-256h380v-84h-477v755zM293 933h97v-99h-97v99z" />
<glyph unicode="&#x112;" horiz-adv-x="637" d="M95 755h470v-84h-373v-247h334v-84h-334v-256h380v-84h-477v755zM174 901h334v-75h-334v75z" />
<glyph unicode="&#x118;" horiz-adv-x="637" d="M95 0v755h470v-84h-373v-247h334v-84h-334v-256h380v-84h-1q-50 -36 -67.5 -62.5t-17.5 -49.5q0 -28 16 -40t40 -12h13.5t15.5 2v-67q-6 -1 -13 -2t-16 -1h-23q-56 0 -86.5 24.5t-30.5 72.5q0 45 25 74.5t77 60.5h-409z" />
<glyph unicode="&#x11e;" horiz-adv-x="773" d="M385 -15q-71 0 -130 24t-102 73t-67 122.5t-24 171.5q0 90 25.5 162.5t71 123t108.5 77.5t138 27q62 0 108.5 -16t80 -41t55.5 -56t34 -61l-86 -39q-33 61 -78.5 96t-119.5 35q-55 0 -99 -23t-74.5 -64t-47 -97.5t-16.5 -123.5q0 -64 14.5 -120t43.5 -98t72 -66.5 t100 -24.5q60 0 100 19.5t64.5 51t34.5 71t10 80.5v21h-202v80h289v-390h-82l-4 98h-4q-14 -21 -32.5 -41.5t-44 -36.5t-59.5 -25.5t-77 -9.5zM401 812q-58 0 -102.5 34.5t-55.5 104.5h60q8 -30 32.5 -49t66.5 -19t65 17t35 51h54q-4 -33 -17.5 -58.5t-34.5 -43.5 t-47.5 -27.5t-55.5 -9.5z" />
<glyph unicode="&#x122;" horiz-adv-x="773" d="M385 -15q-71 0 -130 24t-102 73t-67 122.5t-24 171.5q0 90 25.5 162.5t71 123t108.5 77.5t138 27q62 0 108.5 -16t80 -41t55.5 -56t34 -61l-86 -39q-33 61 -78.5 96t-119.5 35q-55 0 -99 -23t-74.5 -64t-47 -97.5t-16.5 -123.5q0 -64 14.5 -120t43.5 -98t72 -66.5 t100 -24.5q60 0 100 19.5t64.5 51t34.5 71t10 80.5v21h-202v80h289v-390h-82l-4 98h-4q-14 -21 -32.5 -41.5t-44 -36.5t-59.5 -25.5t-77 -9.5zM328 -188q28 11 45.5 25.5t21.5 30.5h-52v99h108v-47q0 -29 -4.5 -50t-16 -37.5t-32 -29.5t-52.5 -26z" />
<glyph unicode="&#x120;" horiz-adv-x="773" d="M385 -15q-71 0 -130 24t-102 73t-67 122.5t-24 171.5q0 90 25.5 162.5t71 123t108.5 77.5t138 27q62 0 108.5 -16t80 -41t55.5 -56t34 -61l-86 -39q-33 61 -78.5 96t-119.5 35q-55 0 -99 -23t-74.5 -64t-47 -97.5t-16.5 -123.5q0 -64 14.5 -120t43.5 -98t72 -66.5 t100 -24.5q60 0 100 19.5t64.5 51t34.5 71t10 80.5v21h-202v80h289v-390h-82l-4 98h-4q-14 -21 -32.5 -41.5t-44 -36.5t-59.5 -25.5t-77 -9.5zM351 933h97v-99h-97v99z" />
<glyph unicode="&#x126;" horiz-adv-x="762" d="M570 428v114h-378v-114h378zM192 0h-97v542h-90v63h90v150h97v-150h378v150h97v-150h90v-63h-90v-542h-97v346h-378v-346z" />
<glyph unicode="&#x12a;" horiz-adv-x="287" d="M95 755h97v-755h-97v755zM21 901h250.5v-75h-250.5v75z" />
<glyph unicode="&#x12e;" horiz-adv-x="287" d="M95 0v755h97v-755q-50 -36 -67.5 -62.5t-17.5 -49.5q0 -28 16 -40t40 -12h13.5t15.5 2v-67q-6 -1 -13 -2t-16 -1h-23q-56 0 -86.5 24.5t-30.5 72.5q0 45 25 74.5t77 60.5h-30z" />
<glyph unicode="&#x136;" horiz-adv-x="703" d="M192 0h-97v755h97v-378l340 378h116l-290 -315l305 -440h-118l-253 370l-100 -108v-262zM292 -188q28 11 45.5 25.5t21.5 30.5h-52v99h108v-47q0 -29 -4.5 -50t-16 -37.5t-32 -29.5t-52.5 -26z" />
<glyph unicode="&#x139;" horiz-adv-x="590" d="M95 755h97v-670h363v-85h-460v755zM199 948h127l-140 -142h-80z" />
<glyph unicode="&#x13d;" horiz-adv-x="590" d="M95 755h97v-670h363v-85h-460v755zM331 756h110l-83 -202h-52z" />
<glyph unicode="&#x13b;" horiz-adv-x="590" d="M95 755h97v-670h363v-85h-460v755zM267 -188q28 11 45.5 25.5t21.5 30.5h-52v99h108v-47q0 -29 -4.5 -50t-16 -37.5t-32 -29.5t-52.5 -26z" />
<glyph unicode="&#x13f;" horiz-adv-x="590" d="M95 755h97v-670h363v-85h-460v755zM373 453h129v-129h-129v129z" />
<glyph unicode="&#x143;" horiz-adv-x="758" d="M95 755h114l329 -564l10.5 -20.5l10.5 -19.5l9 -20h2v624h92v-755h-114l-329 564q-6 9 -11 19.5t-10 19.5q-5 11 -9 21h-2v-624h-92v755zM437 948h127l-140 -142h-80z" />
<glyph unicode="&#x147;" horiz-adv-x="758" d="M95 755h114l329 -564l10.5 -20.5l10.5 -19.5l9 -20h2v624h92v-755h-114l-329 564q-6 9 -11 19.5t-10 19.5q-5 11 -9 21h-2v-624h-92v755zM536 866l-151 -82l-149 82v81l154 -75l146 73v-79z" />
<glyph unicode="&#x145;" horiz-adv-x="758" d="M95 755h114l329 -564l10.5 -20.5l10.5 -19.5l9 -20h2v624h92v-755h-114l-329 564q-6 9 -11 19.5t-10 19.5q-5 11 -9 21h-2v-624h-92v755zM315 -188q28 11 45.5 25.5t21.5 30.5h-52v99h108v-47q0 -29 -4.5 -50t-16 -37.5t-32 -29.5t-52.5 -26z" />
<glyph unicode="&#x150;" horiz-adv-x="793" d="M395 -15q-77 0 -139 26t-105 76t-66 122.5t-23 166.5q0 92 24.5 164.5t69 122.5t106.5 76.5t136 26.5q76 0 137.5 -26t105 -75.5t67 -122t23.5 -166.5q0 -92 -24.5 -165t-69 -123t-106.5 -76.5t-136 -26.5zM395 66q55 0 98.5 21t74 61t46.5 97.5t16 130.5q0 149 -62 229 t-172 80q-55 0 -98 -21.5t-73 -61t-46 -97t-16 -129.5q0 -147 61 -228.5t171 -81.5zM342 948h109l-115 -142h-75zM529 948h110l-115 -142h-76z" />
<glyph unicode="&#x14c;" horiz-adv-x="793" d="M395 -15q-77 0 -139 26t-105 76t-66 122.5t-23 166.5q0 92 24.5 164.5t69 122.5t106.5 76.5t136 26.5q76 0 137.5 -26t105 -75.5t67 -122t23.5 -166.5q0 -92 -24.5 -165t-69 -123t-106.5 -76.5t-136 -26.5zM395 66q55 0 98.5 21t74 61t46.5 97.5t16 130.5q0 149 -62 229 t-172 80q-55 0 -98 -21.5t-73 -61t-46 -97t-16 -129.5q0 -147 61 -228.5t171 -81.5zM229 901h334v-75h-334v75z" />
<glyph unicode="&#x1fe;" horiz-adv-x="793" d="M163 376q0 -66 12.5 -118.5t35.5 -91.5l329 470q-56 49 -144 49q-55 0 -98 -22.5t-73 -63t-46 -97.5t-16 -126zM395 66q55 0 98.5 22t74 62.5t46.5 98t16 127.5q0 134 -49 212l-330 -471q57 -51 144 -51zM395 -15q-114 0 -194 59l-68 -97l-51 35l73 104q-45 51 -69 123.5 t-24 166.5q0 92 24.5 164t69 122.5t106.5 77t136 26.5q113 0 193 -58l73 105l51 -33l-79 -113q45 -50 70 -122.5t25 -168.5q0 -92 -24.5 -165t-69 -123t-106.5 -76.5t-136 -26.5zM442 948h127l-140 -142h-80z" />
<glyph unicode="&#x154;" horiz-adv-x="686" d="M192 676v-282h157q35 0 64.5 6t51 21.5t33.5 43t12 70.5q0 76 -44.5 108.5t-128.5 32.5h-145zM351 315h-159v-315h-97v755h254q125 0 192.5 -55.5t67.5 -164.5q0 -78 -41.5 -129.5t-117.5 -73.5v-1l191 -331h-111zM375 948h127l-140 -142h-80z" />
<glyph unicode="&#x158;" horiz-adv-x="686" d="M192 676v-282h157q35 0 64.5 6t51 21.5t33.5 43t12 70.5q0 76 -44.5 108.5t-128.5 32.5h-145zM351 315h-159v-315h-97v755h254q125 0 192.5 -55.5t67.5 -164.5q0 -78 -41.5 -129.5t-117.5 -73.5v-1l191 -331h-111zM474 866l-151 -82l-149 82v81l154 -75l146 73v-79z" />
<glyph unicode="&#x156;" horiz-adv-x="686" d="M192 676v-282h157q35 0 64.5 6t51 21.5t33.5 43t12 70.5q0 76 -44.5 108.5t-128.5 32.5h-145zM351 315h-159v-315h-97v755h254q125 0 192.5 -55.5t67.5 -164.5q0 -78 -41.5 -129.5t-117.5 -73.5v-1l191 -331h-111zM277 -188q28 11 45.5 25.5t21.5 30.5h-52v99h108v-47 q0 -29 -4.5 -50t-16 -37.5t-32 -29.5t-52.5 -26z" />
<glyph unicode="&#x15a;" horiz-adv-x="684" d="M339 -15q-60 0 -109 16.5t-85 44t-60 62.5t-34 73l91 29q25 -71 76.5 -106.5t124.5 -35.5q83 0 133 34t50 103q0 23 -7 42.5t-24.5 35.5t-47 28.5t-74.5 22.5l-85 19q-39 9 -75 24t-63 38.5t-43 57.5t-16 81q0 43 17 82t50 67.5t79.5 45.5t104.5 17q61 0 105 -13t76 -35 t53 -52.5t35 -64.5l-85 -35q-26 59 -68.5 88.5t-115.5 29.5q-41 0 -70.5 -10t-48 -27t-27 -38.5t-8.5 -45.5q0 -29 9.5 -49t28.5 -34t46.5 -24t62.5 -19l94 -22q106 -25 150.5 -74.5t44.5 -120.5q0 -54 -20 -97t-56.5 -74t-89.5 -47.5t-119 -16.5zM404 948h127l-140 -142 h-80z" />
<glyph unicode="&#x15e;" horiz-adv-x="684" d="M352 -231q-29 0 -52.5 6t-48.5 26l29 42q17 -12 33.5 -16.5t36.5 -4.5q19 0 31 9.5t12 26.5q0 18 -11.5 26.5t-27.5 8.5q-11 0 -18.5 -3t-15.5 -9l-45 23l36 82q-54 4 -98 21.5t-76.5 44.5t-54 60.5t-31.5 68.5l91 29q25 -71 76.5 -106.5t124.5 -35.5q83 0 133 34t50 103 q0 23 -7 42.5t-24.5 35.5t-47 28.5t-74.5 22.5l-85 19q-39 9 -75 24t-63 38.5t-43 57.5t-16 81q0 43 17 82t50 67.5t79.5 45.5t104.5 17q61 0 105 -13t76 -35t53 -52.5t35 -64.5l-85 -35q-26 59 -68.5 88.5t-115.5 29.5q-41 0 -70.5 -10t-48 -27t-27 -38.5t-8.5 -45.5 q0 -29 9.5 -49t28.5 -34t46.5 -24t62.5 -19l94 -22q106 -25 150.5 -74.5t44.5 -120.5q0 -51 -18 -93.5t-52.5 -73t-83.5 -48t-110 -20.5l-22 -45l4 -1q9 4 18 6t23 2q34 0 59 -21t25 -60q0 -41 -30.5 -69t-84.5 -28z" />
<glyph unicode="&#x218;" horiz-adv-x="684" d="M339 -15q-60 0 -109 16.5t-85 44t-60 62.5t-34 73l91 29q25 -71 76.5 -106.5t124.5 -35.5q83 0 133 34t50 103q0 23 -7 42.5t-24.5 35.5t-47 28.5t-74.5 22.5l-85 19q-39 9 -75 24t-63 38.5t-43 57.5t-16 81q0 43 17 82t50 67.5t79.5 45.5t104.5 17q61 0 105 -13t76 -35 t53 -52.5t35 -64.5l-85 -35q-26 59 -68.5 88.5t-115.5 29.5q-41 0 -70.5 -10t-48 -27t-27 -38.5t-8.5 -45.5q0 -29 9.5 -49t28.5 -34t46.5 -24t62.5 -19l94 -22q106 -25 150.5 -74.5t44.5 -120.5q0 -54 -20 -97t-56.5 -74t-89.5 -47.5t-119 -16.5zM282 -188q28 11 45.5 25.5 t21.5 30.5h-52v99h108v-47q0 -29 -4.5 -50t-16 -37.5t-32 -29.5t-52.5 -26z" />
<glyph unicode="&#x164;" horiz-adv-x="627" d="M30 755h567v-84h-235v-671h-97v671h-235v84zM468 866l-151 -82l-149 82v81l154 -75l146 73v-79z" />
<glyph unicode="&#x21a;" horiz-adv-x="627" d="M30 755h567v-84h-235v-671h-97v671h-235v84zM242 -188q28 11 45.5 25.5t21.5 30.5h-52v99h108v-47q0 -29 -4.5 -50t-16 -37.5t-32 -29.5t-52.5 -26z" />
<glyph unicode="&#x170;" horiz-adv-x="754" d="M379 -15q-148 0 -218.5 73t-70.5 200v497h97v-487q0 -99 44 -150t148 -51q103 0 147.5 53t44.5 148v487h93v-497q0 -62 -17 -112.5t-52 -86t-88.5 -55t-127.5 -19.5zM315 948h109l-115 -142h-75zM502 948h110l-115 -142h-76z" />
<glyph unicode="&#x16a;" horiz-adv-x="754" d="M379 -15q-148 0 -218.5 73t-70.5 200v497h97v-487q0 -99 44 -150t148 -51q103 0 147.5 53t44.5 148v487h93v-497q0 -62 -17 -112.5t-52 -86t-88.5 -55t-127.5 -19.5zM210 901h334v-75h-334v75z" />
<glyph unicode="&#x172;" horiz-adv-x="754" d="M409 -232q-56 0 -86.5 24.5t-30.5 72.5q0 40 19 67t59 53q-72 1 -124.5 20.5t-87 55t-51.5 85.5t-17 112v497h97v-487q0 -99 44 -150t148 -51q103 0 147.5 53t44.5 148v487h93v-497q0 -109 -52 -180t-164 -88q-42 -32 -57 -56.5t-15 -45.5q0 -28 16 -40t40 -12h13.5 t15.5 2v-67q-6 -1 -13 -2t-16 -1h-23z" />
<glyph unicode="&#x16e;" horiz-adv-x="754" d="M379 -15q-148 0 -218.5 73t-70.5 200v497h97v-487q0 -99 44 -150t148 -51q103 0 147.5 53t44.5 148v487h93v-497q0 -62 -17 -112.5t-52 -86t-88.5 -55t-127.5 -19.5zM255 892q0 25 9.5 46.5t26 38t38.5 26t48 9.5q25 0 47.5 -9.5t39 -26t26 -38t9.5 -46.5t-9.5 -46.5 t-26 -38t-39 -26t-47.5 -9.5q-26 0 -48 9.5t-38.5 26t-26 38t-9.5 46.5zM304 892q0 -32 21.5 -53.5t51.5 -21.5q29 0 50 21.5t21 53.5q0 31 -21 52t-50 21q-30 0 -51.5 -21t-21.5 -52z" />
<glyph unicode="&#x179;" horiz-adv-x="660" d="M55 72l433 601h-412v82h529v-72l-434 -601h426v-82h-542v72zM381 948h127l-140 -142h-80z" />
<glyph unicode="&#x17b;" horiz-adv-x="660" d="M55 72l433 601h-412v82h529v-72l-434 -601h426v-82h-542v72zM282 933h97v-99h-97v99z" />
<glyph unicode="&#x103;" horiz-adv-x="581" d="M250 61q49 0 80 18.5t49 45.5t25 57t7 53v12q-12 0 -26 1q-12 0 -28 0.5t-33 0.5q-51 0 -84 -6.5t-53 -19.5t-28 -32t-8 -43q0 -41 28.5 -64t70.5 -23zM230 -14q-38 0 -70 11t-55.5 31.5t-37 50t-13.5 66.5q0 45 19.5 78t54 55t83 33t106.5 11q19 0 36 -0.5t30 -1.5 q15 -1 28 -1v14q0 29 -5 54.5t-18.5 44.5t-38 30t-63.5 11q-30 0 -51 -8t-35.5 -20.5t-23 -29t-13.5 -33.5l-84 25q5 23 19 48.5t39.5 46.5t64 34.5t92.5 13.5q47 0 85.5 -11t65.5 -36t41.5 -65.5t14.5 -98.5v-198q0 -23 0.5 -47.5t1.5 -45.5q1 -25 3 -48h-89l-5 81 q-13 -19 -28.5 -36.5t-36.5 -30.5t-49.5 -20.5t-67.5 -7.5zM296 599q-32 0 -59 10t-48 28.5t-34.5 45.5t-16.5 61h62q18 -74 99 -74q42 0 66.5 19.5t33.5 54.5h55q-3 -34 -17 -61t-35 -45.5t-48.5 -28.5t-57.5 -10z" />
<glyph unicode="&#x101;" horiz-adv-x="581" d="M250 61q49 0 80 18.5t49 45.5t25 57t7 53v12q-12 0 -26 1q-12 0 -28 0.5t-33 0.5q-51 0 -84 -6.5t-53 -19.5t-28 -32t-8 -43q0 -41 28.5 -64t70.5 -23zM230 -14q-38 0 -70 11t-55.5 31.5t-37 50t-13.5 66.5q0 45 19.5 78t54 55t83 33t106.5 11q19 0 36 -0.5t30 -1.5 q15 -1 28 -1v14q0 29 -5 54.5t-18.5 44.5t-38 30t-63.5 11q-30 0 -51 -8t-35.5 -20.5t-23 -29t-13.5 -33.5l-84 25q5 23 19 48.5t39.5 46.5t64 34.5t92.5 13.5q47 0 85.5 -11t65.5 -36t41.5 -65.5t14.5 -98.5v-198q0 -23 0.5 -47.5t1.5 -45.5q1 -25 3 -48h-89l-5 81 q-13 -19 -28.5 -36.5t-36.5 -30.5t-49.5 -20.5t-67.5 -7.5zM129 728h334v-75h-334v75z" />
<glyph unicode="&#x105;" horiz-adv-x="581" d="M250 61q49 0 80 18.5t49 45.5t25 57t7 53v12q-12 0 -26 1q-12 0 -28 0.5t-33 0.5q-51 0 -84 -6.5t-53 -19.5t-28 -32t-8 -43q0 -41 28.5 -64t70.5 -23zM417 0l-5 81q-13 -19 -28.5 -36.5t-36.5 -30.5t-49.5 -20.5t-67.5 -7.5q-38 0 -70 11t-55.5 31.5t-37 50t-13.5 66.5 q0 45 19.5 78t54 55t83 33t106.5 11q19 0 36 -0.5t30 -1.5q15 -1 28 -1v14q0 29 -5 54.5t-18.5 44.5t-38 30t-63.5 11q-30 0 -51 -8t-35.5 -20.5t-23 -29t-13.5 -33.5l-84 25q5 23 19 48.5t39.5 46.5t64 34.5t92.5 13.5q47 0 85.5 -11t65.5 -36t41.5 -65.5t14.5 -98.5v-198 q0 -23 0.5 -47.5t1.5 -45.5q1 -25 3 -48q-50 -36 -67.5 -62.5t-17.5 -49.5q0 -28 16 -40t40 -12h13.5t15.5 2v-67q-6 -1 -13 -2t-16 -1h-23q-56 0 -86.5 24.5t-30.5 72.5q0 45 25 74.5t77 60.5h-22z" />
<glyph unicode="&#x1fd;" horiz-adv-x="927" d="M54 145q0 45 20.5 77.5t56 53.5t84.5 31t106 10h90v25q0 25 -5 49t-18.5 42t-38 29t-63.5 11q-30 0 -51 -8t-35.5 -20.5t-23 -29t-13.5 -33.5l-84 25q5 23 19 48.5t39.5 46.5t64 34.5t92.5 13.5q70 0 112 -23t67 -66q30 39 74 63.5t107 24.5q62 0 105.5 -24t71.5 -65 t40.5 -97t12.5 -119h-389q0 -40 11 -73t31.5 -57t50 -37t67.5 -13q50 0 81 20.5t54 55.5l74 -40q-28 -49 -81 -82t-131 -33q-73 0 -127.5 28.5t-79.5 85.5q-13 -21 -31.5 -41.5t-44 -36t-60 -25.5t-78.5 -10q-38 0 -70 11t-56 31.5t-37.5 50t-13.5 66.5zM643 474 q-35 0 -61.5 -13.5t-44.5 -35t-27.5 -49.5t-12.5 -57h285q-2 33 -11.5 61.5t-26.5 49t-42 32.5t-59 12zM248 61q48 0 79.5 18.5t50 45.5t26 57t7.5 53v7h-48q-54 0 -94 -4t-66 -14t-38.5 -27.5t-12.5 -45.5q0 -43 27 -66.5t69 -23.5zM551 778h123l-142 -167h-77z" />
<glyph unicode="&#x107;" horiz-adv-x="569" d="M306 -15q-65 0 -112 21t-78 57.5t-46 86t-15 107.5t16 111t48 93t81.5 64t115.5 24q48 0 83 -12.5t60 -31.5t40 -41.5t24 -43.5l-86 -37q-7 14 -16.5 30t-24.5 29t-36.5 21.5t-51.5 8.5q-38 0 -67.5 -16t-49.5 -43.5t-30.5 -64.5t-10.5 -79q0 -45 10 -83t30 -65.5 t50 -42.5t71 -15q58 0 91 26.5t53 66.5l76 -34q-15 -30 -34.5 -55t-46.5 -43t-62.5 -28.5t-81.5 -10.5zM362 778h123l-142 -167h-77z" />
<glyph unicode="&#x10d;" horiz-adv-x="569" d="M306 -15q-65 0 -112 21t-78 57.5t-46 86t-15 107.5t16 111t48 93t81.5 64t115.5 24q48 0 83 -12.5t60 -31.5t40 -41.5t24 -43.5l-86 -37q-7 14 -16.5 30t-24.5 29t-36.5 21.5t-51.5 8.5q-38 0 -67.5 -16t-49.5 -43.5t-30.5 -64.5t-10.5 -79q0 -45 10 -83t30 -65.5 t50 -42.5t71 -15q58 0 91 26.5t53 66.5l76 -34q-15 -30 -34.5 -55t-46.5 -43t-62.5 -28.5t-81.5 -10.5zM458 692l-151 -102l-149 100v83l151 -94l149 94v-81z" />
<glyph unicode="&#x10b;" horiz-adv-x="569" d="M306 -15q-65 0 -112 21t-78 57.5t-46 86t-15 107.5t16 111t48 93t81.5 64t115.5 24q48 0 83 -12.5t60 -31.5t40 -41.5t24 -43.5l-86 -37q-7 14 -16.5 30t-24.5 29t-36.5 21.5t-51.5 8.5q-38 0 -67.5 -16t-49.5 -43.5t-30.5 -64.5t-10.5 -79q0 -45 10 -83t30 -65.5 t50 -42.5t71 -15q58 0 91 26.5t53 66.5l76 -34q-15 -30 -34.5 -55t-46.5 -43t-62.5 -28.5t-81.5 -10.5zM259 755h99v-102h-99v102z" />
<glyph unicode="&#x10f;" horiz-adv-x="642" d="M306 66q40 0 70.5 15t50.5 42t30 64.5t10 82.5q0 44 -10 81t-29.5 64t-48 42t-66.5 15q-41 0 -71.5 -15.5t-50 -42.5t-29 -64t-9.5 -81q0 -45 8.5 -82.5t27.5 -64t47.5 -41.5t69.5 -15zM291 -15q-51 0 -94.5 17.5t-75 52t-49 86.5t-17.5 121q0 55 15 107t46.5 92t79.5 64 t114 24q28 0 52 -7.5t43 -19.5t32.5 -27.5t21.5 -30.5v314h93v-778h-90v83q-9 -16 -23 -33t-35 -31.5t-49 -24t-64 -9.5zM627 778h110l-83 -202h-52z" />
<glyph unicode="&#x11b;" horiz-adv-x="587" d="M305 -15q-60 0 -106.5 20.5t-78.5 57.5t-48.5 88.5t-16.5 113.5q0 60 16.5 111.5t48.5 90t79 60.5t108 22q65 0 110 -23.5t72.5 -64.5t40 -95.5t12.5 -117.5h-390q0 -39 11.5 -73t32 -58.5t50 -38.5t66.5 -14q50 0 81.5 20.5t54.5 55.5l74 -40q-28 -49 -82 -82t-135 -33z M301 474q-35 0 -61.5 -13t-44.5 -34.5t-28 -49t-13 -56.5h286q-2 33 -11.5 61t-26.5 48.5t-42 32t-59 11.5zM457 692l-151 -102l-149 100v83l151 -94l149 94v-81z" />
<glyph unicode="&#x117;" horiz-adv-x="587" d="M305 -15q-60 0 -106.5 20.5t-78.5 57.5t-48.5 88.5t-16.5 113.5q0 60 16.5 111.5t48.5 90t79 60.5t108 22q65 0 110 -23.5t72.5 -64.5t40 -95.5t12.5 -117.5h-390q0 -39 11.5 -73t32 -58.5t50 -38.5t66.5 -14q50 0 81.5 20.5t54.5 55.5l74 -40q-28 -49 -82 -82t-135 -33z M301 474q-35 0 -61.5 -13t-44.5 -34.5t-28 -49t-13 -56.5h286q-2 33 -11.5 61t-26.5 48.5t-42 32t-59 11.5zM257 755h99v-102h-99v102z" />
<glyph unicode="&#x113;" horiz-adv-x="587" d="M305 -15q-60 0 -106.5 20.5t-78.5 57.5t-48.5 88.5t-16.5 113.5q0 60 16.5 111.5t48.5 90t79 60.5t108 22q65 0 110 -23.5t72.5 -64.5t40 -95.5t12.5 -117.5h-390q0 -39 11.5 -73t32 -58.5t50 -38.5t66.5 -14q50 0 81.5 20.5t54.5 55.5l74 -40q-28 -49 -82 -82t-135 -33z M301 474q-35 0 -61.5 -13t-44.5 -34.5t-28 -49t-13 -56.5h286q-2 33 -11.5 61t-26.5 48.5t-42 32t-59 11.5zM135 728h334v-75h-334v75z" />
<glyph unicode="&#x119;" horiz-adv-x="587" d="M423 -4q-40 -35 -56.5 -59.5t-16.5 -48.5q0 -26 14 -39t37 -13h17.5t16.5 2v-67q-6 -1 -13 -2t-16 -1h-23q-56 0 -86.5 24.5t-30.5 69.5q0 40 20 66.5t57 52.5v6q-8 -1 -16.5 -1.5t-21.5 -0.5q-60 0 -106.5 20.5t-78.5 57.5t-48.5 88.5t-16.5 113.5q0 60 16.5 111.5 t48.5 90t79.5 60.5t109.5 22q64 0 108.5 -23.5t72 -64.5t40 -95.5t12.5 -117.5h-390q0 -39 11.5 -73t32 -58.5t50 -38.5t66.5 -14q50 0 81.5 20.5t54.5 55.5l74 -40q-17 -31 -41.5 -53zM301 474q-35 0 -61.5 -13t-44.5 -34.5t-28 -49t-13 -56.5h286q-2 33 -11.5 61 t-26.5 48.5t-42 32t-59 11.5z" />
<glyph unicode="&#x11f;" horiz-adv-x="642" d="M309 76q38 0 67.5 14.5t49.5 40.5t30.5 63t10.5 82q0 42 -10 78t-29.5 62.5t-48.5 41t-66 14.5q-41 0 -71 -15.5t-50 -42.5t-29.5 -63t-9.5 -78q0 -44 9 -80t28.5 -62t48.5 -40.5t70 -14.5zM298 -232q-54 0 -93 11t-66 30.5t-43.5 44.5t-26.5 54l88 27q16 -45 49 -68.5 t91 -23.5q87 0 124.5 39t37.5 118v98q-22 -45 -62.5 -73.5t-110.5 -28.5q-56 0 -99.5 21t-72.5 57.5t-44 86t-15 107.5t15.5 109t46 89t76 60.5t104.5 22.5q36 0 63.5 -8.5t47.5 -22t33.5 -30t21.5 -32.5v79h89v-508q0 -59 -13 -107t-42.5 -81.5t-78 -52t-120.5 -18.5z M315 599q-32 0 -59 10t-48 28.5t-34.5 45.5t-16.5 61h62q18 -74 99 -74q42 0 66.5 19.5t33.5 54.5h55q-3 -34 -17 -61t-35 -45.5t-48.5 -28.5t-57.5 -10z" />
<glyph unicode="&#x123;" horiz-adv-x="642" d="M309 76q38 0 67.5 14.5t49.5 40.5t30.5 63t10.5 82q0 42 -10 78t-29.5 62.5t-48.5 41t-66 14.5q-41 0 -71 -15.5t-50 -42.5t-29.5 -63t-9.5 -78q0 -44 9 -80t28.5 -62t48.5 -40.5t70 -14.5zM298 -232q-54 0 -93 11t-66 30.5t-43.5 44.5t-26.5 54l88 27q16 -45 49 -68.5 t91 -23.5q87 0 124.5 39t37.5 118v98q-22 -45 -62.5 -73.5t-110.5 -28.5q-56 0 -99.5 21t-72.5 57.5t-44 86t-15 107.5t15.5 109t46 89t76 60.5t104.5 22.5q36 0 63.5 -8.5t47.5 -22t33.5 -30t21.5 -32.5v79h89v-508q0 -59 -13 -107t-42.5 -81.5t-78 -52t-120.5 -18.5z M356 855q6 -8 10 -15q4 -6 7.5 -12t5.5 -8q-26 -15 -37.5 -29t-17.5 -39h39v-99h-99v47q0 27 4 49.5t14 41t28 34t46 30.5z" />
<glyph unicode="&#x121;" horiz-adv-x="642" d="M309 76q38 0 67.5 14.5t49.5 40.5t30.5 63t10.5 82q0 42 -10 78t-29.5 62.5t-48.5 41t-66 14.5q-41 0 -71 -15.5t-50 -42.5t-29.5 -63t-9.5 -78q0 -44 9 -80t28.5 -62t48.5 -40.5t70 -14.5zM298 -232q-54 0 -93 11t-66 30.5t-43.5 44.5t-26.5 54l88 27q16 -45 49 -68.5 t91 -23.5q87 0 124.5 39t37.5 118v98q-22 -45 -62.5 -73.5t-110.5 -28.5q-56 0 -99.5 21t-72.5 57.5t-44 86t-15 107.5t15.5 109t46 89t76 60.5t104.5 22.5q36 0 63.5 -8.5t47.5 -22t33.5 -30t21.5 -32.5v79h89v-508q0 -59 -13 -107t-42.5 -81.5t-78 -52t-120.5 -18.5z M266 755h99v-102h-99v102z" />
<glyph unicode="&#x127;" horiz-adv-x="621" d="M183 0h-93v619h-68v57h68v102h93v-102h159v-57h-159v-161q10 16 25 32t35 29t46.5 21.5t60.5 8.5q46 0 81 -15t58.5 -42t35 -64t11.5 -80v-348h-93v320q0 43 -10 71t-26.5 45t-38.5 24t-46 7q-61 0 -100 -38.5t-39 -121.5v-307z" />
<glyph unicode="&#x12b;" horiz-adv-x="273" d="M90 535h93v-535h-93v535zM13 728h250.5v-75h-250.5v75z" />
<glyph unicode="&#x12f;" horiz-adv-x="273" d="M84 755h105v-107h-105v107zM90 0v535h93v-535q-50 -36 -67.5 -62.5t-17.5 -49.5q0 -28 16 -40t40 -12h13.5t15.5 2v-67q-6 -1 -13 -2t-16 -1h-23q-56 0 -86.5 24.5t-30.5 72.5q0 45 25 74.5t77 60.5h-26z" />
<glyph unicode="&#x137;" horiz-adv-x="564" d="M254 247l-71 -84v-163h-93v778h93v-499l218 256h110l-191 -221l226 -314h-115zM228 -188q28 11 45.5 25.5t21.5 30.5h-52v99h108v-47q0 -29 -4.5 -50t-16 -37.5t-32 -29.5t-52.5 -26z" />
<glyph unicode="&#x13a;" horiz-adv-x="273" d="M90 778h93v-778h-93v778zM191 958h127l-140 -142h-80z" />
<glyph unicode="&#x13e;" horiz-adv-x="273" d="M90 778h93v-778h-93v778zM258 778h110l-83 -202h-52z" />
<glyph unicode="&#x13c;" horiz-adv-x="273" d="M90 778h93v-778h-93v778zM66 -188q28 11 45.5 25.5t21.5 30.5h-52v99h108v-47q0 -29 -4.5 -50t-16 -37.5t-32 -29.5t-52.5 -26z" />
<glyph unicode="&#x140;" horiz-adv-x="364" d="M90 778h93v-778h-93v778zM254 451h129v-129h-129v129z" />
<glyph unicode="&#x144;" horiz-adv-x="621" d="M90 535h90v-79q11 16 26.5 33t36 30t47 21.5t60.5 8.5q46 0 81 -15t58.5 -42t35 -64t11.5 -80v-348h-93v320q0 43 -10 71t-26.5 45t-38.5 24t-46 7q-61 0 -100 -38.5t-39 -121.5v-307h-93v535zM373 778h123l-142 -167h-77z" />
<glyph unicode="&#x148;" horiz-adv-x="621" d="M90 535h90v-79q11 16 26.5 33t36 30t47 21.5t60.5 8.5q46 0 81 -15t58.5 -42t35 -64t11.5 -80v-348h-93v320q0 43 -10 71t-26.5 45t-38.5 24t-46 7q-61 0 -100 -38.5t-39 -121.5v-307h-93v535zM469 692l-151 -102l-149 100v83l151 -94l149 94v-81z" />
<glyph unicode="&#x146;" horiz-adv-x="621" d="M90 535h90v-79q11 16 26.5 33t36 30t47 21.5t60.5 8.5q46 0 81 -15t58.5 -42t35 -64t11.5 -80v-348h-93v320q0 43 -10 71t-26.5 45t-38.5 24t-46 7q-61 0 -100 -38.5t-39 -121.5v-307h-93v535zM248 -188q28 11 45.5 25.5t21.5 30.5h-52v99h108v-47q0 -29 -4.5 -50 t-16 -37.5t-32 -29.5t-52.5 -26z" />
<glyph unicode="&#x151;" horiz-adv-x="622" d="M307 -15q-63 0 -110 21.5t-78.5 59t-47.5 89t-16 112.5q0 60 17 111.5t50 89.5t81.5 59.5t111.5 21.5t110 -21.5t78.5 -59t47.5 -89t16 -112.5q0 -60 -17 -111.5t-50 -89.5t-81.5 -59.5t-111.5 -21.5zM312 61q41 0 70.5 15t49 42.5t29 65.5t9.5 83t-9.5 83t-29.5 65.5 t-50 42.5t-71 15t-70.5 -15t-49 -42.5t-29 -65.5t-9.5 -83t9.5 -83t29.5 -65.5t50 -42.5t71 -15zM259 778h113l-127 -172h-71zM451 778h113l-127 -172h-71z" />
<glyph unicode="&#x14d;" horiz-adv-x="622" d="M307 -15q-63 0 -110 21.5t-78.5 59t-47.5 89t-16 112.5q0 60 17 111.5t50 89.5t81.5 59.5t111.5 21.5t110 -21.5t78.5 -59t47.5 -89t16 -112.5q0 -60 -17 -111.5t-50 -89.5t-81.5 -59.5t-111.5 -21.5zM312 61q41 0 70.5 15t49 42.5t29 65.5t9.5 83t-9.5 83t-29.5 65.5 t-50 42.5t-71 15t-70.5 -15t-49 -42.5t-29 -65.5t-9.5 -83t9.5 -83t29.5 -65.5t50 -42.5t71 -15zM146 728h334v-75h-334v75z" />
<glyph unicode="&#x1ff;" horiz-adv-x="622" d="M152 266q0 -42 8.5 -78t25.5 -63l206 328q-33 21 -81 21q-41 0 -70.5 -15.5t-49.5 -43.5t-29.5 -66t-9.5 -83zM311 60q40 0 70 15.5t50 43.5t29.5 66t9.5 83q0 42 -8.5 77.5t-25.5 62.5l-205 -327q33 -21 80 -21zM307 -15q-34 0 -63.5 7t-55.5 20l-50 -80l-53 31l53 85 q-41 38 -62 94.5t-21 124.5q0 60 17 111.5t50 89.5t81.5 59.5t111.5 21.5q67 0 120 -28l46 74l55 -28l-51 -81q41 -39 61.5 -95.5t20.5 -123.5q0 -60 -17 -111.5t-50 -89.5t-81.5 -59.5t-111.5 -21.5zM365 778h123l-142 -167h-77z" />
<glyph unicode="&#x155;" horiz-adv-x="393" d="M90 535h90v-97h3q25 62 73 85t107 23v-96q-6 0 -13 1q-6 0 -14.5 0.5t-19.5 0.5q-39 0 -74 -21.5t-49 -68.5q-4 -13 -6 -25.5t-3 -29t-1 -38v-52.5v-217h-93v535zM280 778h123l-142 -167h-77z" />
<glyph unicode="&#x159;" horiz-adv-x="393" d="M90 535h90v-97h3q25 62 73 85t107 23v-96q-6 0 -13 1q-6 0 -14.5 0.5t-19.5 0.5q-39 0 -74 -21.5t-49 -68.5q-4 -13 -6 -25.5t-3 -29t-1 -38v-52.5v-217h-93v535zM377 692l-151 -102l-149 100v83l151 -94l149 94v-81z" />
<glyph unicode="&#x157;" horiz-adv-x="393" d="M90 535h90v-97h3q25 62 73 85t107 23v-96q-6 0 -13 1q-6 0 -14.5 0.5t-19.5 0.5q-39 0 -74 -21.5t-49 -68.5q-4 -13 -6 -25.5t-3 -29t-1 -38v-52.5v-217h-93v535zM69 -188q28 11 45.5 25.5t21.5 30.5h-52v99h108v-47q0 -29 -4.5 -50t-16 -37.5t-32 -29.5t-52.5 -26z" />
<glyph unicode="&#x15b;" horiz-adv-x="519" d="M258 -15q-47 0 -81.5 9.5t-59 27t-42 42t-29.5 54.5l79 33q9 -19 20.5 -35.5t27.5 -29t37.5 -19.5t48.5 -7q56 0 86 22t30 59q0 29 -18 47t-70 32l-74 19q-68 17 -106 54t-38 103q0 29 12.5 56.5t37 49t60 34.5t80.5 13q43 0 76 -9.5t56.5 -25t39.5 -36.5t27 -45l-79 -35 q-7 13 -17 26.5t-24 24t-33.5 17.5t-44.5 7q-28 0 -47 -6.5t-31 -16.5t-17 -22.5t-5 -25.5q0 -35 22 -52.5t67 -28.5l86 -22q69 -17 99.5 -53.5t30.5 -89.5q0 -77 -55 -124t-152 -47zM312 778h123l-142 -167h-77z" />
<glyph unicode="&#x15f;" horiz-adv-x="519" d="M257 -231q-29 0 -52.5 6t-48.5 26l29 42q17 -12 33.5 -16.5t36.5 -4.5q19 0 31 9.5t12 26.5q0 18 -11.5 26.5t-27.5 8.5q-11 0 -18.5 -3t-15.5 -9l-45 23l36 83q-72 8 -110 43t-60 88l79 33q9 -19 20.5 -35.5t27.5 -29t37.5 -19.5t48.5 -7q56 0 86 22t30 59q0 29 -18 47 t-70 32l-74 19q-68 17 -106 54t-38 103q0 29 12.5 56.5t37 49t60 34.5t80.5 13q43 0 76 -9.5t56.5 -25t39.5 -36.5t27 -45l-79 -35q-7 13 -17 26.5t-24 24t-33.5 17.5t-44.5 7q-28 0 -47 -6.5t-31 -16.5t-17 -22.5t-5 -25.5q0 -35 22 -52.5t67 -28.5l86 -22 q69 -17 99.5 -53.5t30.5 -89.5q0 -38 -14 -69.5t-40 -54t-63 -35t-83 -12.5l-22 -45l4 -1q9 4 18 6t23 2q34 0 59 -21t25 -60q0 -41 -30.5 -69t-84.5 -28z" />
<glyph unicode="&#x219;" horiz-adv-x="519" d="M258 -15q-47 0 -81.5 9.5t-59 27t-42 42t-29.5 54.5l79 33q9 -19 20.5 -35.5t27.5 -29t37.5 -19.5t48.5 -7q56 0 86 22t30 59q0 29 -18 47t-70 32l-74 19q-68 17 -106 54t-38 103q0 29 12.5 56.5t37 49t60 34.5t80.5 13q43 0 76 -9.5t56.5 -25t39.5 -36.5t27 -45l-79 -35 q-7 13 -17 26.5t-24 24t-33.5 17.5t-44.5 7q-28 0 -47 -6.5t-31 -16.5t-17 -22.5t-5 -25.5q0 -35 22 -52.5t67 -28.5l86 -22q69 -17 99.5 -53.5t30.5 -89.5q0 -77 -55 -124t-152 -47zM188 -188q28 11 45.5 25.5t21.5 30.5h-52v99h108v-47q0 -29 -4.5 -50t-16 -37.5 t-32 -29.5t-52.5 -26z" />
<glyph unicode="&#x165;" horiz-adv-x="390" d="M30 535h92l6 145h84v-145h122v-73h-120v-330q0 -41 17 -54.5t55 -13.5q9 0 18 0.5t16 1.5l16 2l4 -69q-29 -6 -47.5 -8t-36.5 -2q-77 0 -106.5 33.5t-29.5 108.5l2 331h-92v73zM308 778h110l-83 -202h-52z" />
<glyph unicode="&#x21b;" horiz-adv-x="390" d="M30 535h92l6 145h84v-145h122v-73h-120v-330q0 -41 17 -54.5t55 -13.5q9 0 18 0.5t16 1.5l16 2l4 -69q-29 -6 -47.5 -8t-36.5 -2q-77 0 -106.5 33.5t-29.5 108.5l2 331h-92v73zM151 -188q28 11 45.5 25.5t21.5 30.5h-52v99h108v-47q0 -29 -4.5 -50t-16 -37.5t-32 -29.5 t-52.5 -26z" />
<glyph unicode="&#x171;" horiz-adv-x="611" d="M266 -14q-44 0 -77.5 15.5t-56.5 43t-35 66t-12 85.5v339h93v-320q0 -30 5.5 -57t19 -47t35.5 -32t56 -12q39 0 64.5 13t41 35t22 50.5t6.5 59.5v310h93v-535h-90v77q-6 -10 -18 -25.5t-32 -30t-48 -25t-67 -10.5zM250 778h113l-127 -172h-71zM442 778h113l-127 -172h-71 z" />
<glyph unicode="&#x16b;" horiz-adv-x="611" d="M266 -14q-44 0 -77.5 15.5t-56.5 43t-35 66t-12 85.5v339h93v-320q0 -30 5.5 -57t19 -47t35.5 -32t56 -12q39 0 64.5 13t41 35t22 50.5t6.5 59.5v310h93v-535h-90v77q-6 -10 -18 -25.5t-32 -30t-48 -25t-67 -10.5zM140 728h334v-75h-334v75z" />
<glyph unicode="&#x173;" horiz-adv-x="611" d="M431 0v77q-6 -10 -18 -25.5t-32 -30t-48 -25t-67 -10.5q-44 0 -77.5 15.5t-56.5 43t-35 66t-12 85.5v339h93v-320q0 -30 5.5 -57t19 -47t35.5 -32t56 -12q39 0 64.5 13t41 35t22 50.5t6.5 59.5v310h93v-535q-50 -36 -67.5 -62.5t-17.5 -49.5q0 -28 16 -40t40 -12h13.5 t15.5 2v-67q-6 -1 -13 -2t-16 -1h-23q-56 0 -86.5 24.5t-30.5 72.5q0 45 25 74.5t77 60.5h-23z" />
<glyph unicode="&#x16f;" horiz-adv-x="611" d="M266 -14q-44 0 -77.5 15.5t-56.5 43t-35 66t-12 85.5v339h93v-320q0 -30 5.5 -57t19 -47t35.5 -32t56 -12q39 0 64.5 13t41 35t22 50.5t6.5 59.5v310h93v-535h-90v77q-6 -10 -18 -25.5t-32 -30t-48 -25t-67 -10.5zM185 702q0 25 9.5 46.5t26 38t38.5 26t48 9.5 q25 0 47.5 -9.5t39 -26t26 -38t9.5 -46.5t-9.5 -46.5t-26 -38t-39 -26t-47.5 -9.5q-26 0 -48 9.5t-38.5 26t-26 38t-9.5 46.5zM234 702q0 -32 21.5 -53.5t51.5 -21.5q29 0 50 21.5t21 53.5q0 31 -21 52t-50 21q-30 0 -51.5 -21t-21.5 -52z" />
<glyph unicode="&#x17a;" horiz-adv-x="505" d="M55 535h399v-78l-303 -379h311v-78h-415v77l305 380h-297v78zM329 778h123l-142 -167h-77z" />
<glyph unicode="&#x17c;" horiz-adv-x="505" d="M55 535h399v-78l-303 -379h311v-78h-415v77l305 380h-297v78zM226 755h99v-102h-99v102z" />
<glyph unicode="&#xa4;" horiz-adv-x="631" d="M206 347q0 -25 8 -46.5t22 -37t34 -24.5t44 -9q49 0 79 33t30 84t-30 84.5t-79 33.5q-24 0 -44 -9t-34 -25t-22 -37.5t-8 -46.5zM135 347q0 27 7 51.5t19 44.5l-79 79l57 57l78 -79q44 27 97 27q29 0 54 -7.5t46 -21.5l82 84l55 -55l-84 -83q27 -44 27 -97 q0 -28 -7 -52.5t-20 -44.5l81 -80l-57 -57l-80 81q-43 -26 -97 -26t-97 26l-81 -82l-55 55l82 81q-28 44 -28 99z" />
<glyph unicode="&#xf6c3;" d="M202 -188q28 11 45.5 25.5t21.5 30.5h-52v99h108v-47q0 -29 -4.5 -50t-16 -37.5t-32 -29.5t-52.5 -26z" />
<glyph d="M159 778h110l-83 -202h-52z" />
<glyph horiz-adv-x="501" d="M293 855q6 -8 10 -15q4 -6 7.5 -12t5.5 -8q-26 -15 -37.5 -29t-17.5 -39h39v-99h-99v47q0 27 4 49.5t14 41t28 34t46 30.5z" />
<glyph d="M360 806h-80l-140 142h127z" />
<glyph d="M309 927h99v-101h-99v101zM92 927h99v-101h-99v101z" />
<glyph d="M80 901h334v-75h-334v75z" />
<glyph d="M233 948h127l-140 -142h-80z" />
<glyph horiz-adv-x="494" d="M97 873l151 82l149 -82v-81l-154 75l-146 -72v78z" />
<glyph horiz-adv-x="494" d="M397 866l-151 -82l-149 82v81l154 -75l146 73v-79z" />
<glyph d="M249 812q-58 0 -102.5 34.5t-55.5 104.5h60q8 -30 32.5 -49t66.5 -19t65 17t35 51h54q-4 -33 -17.5 -58.5t-34.5 -43.5t-47.5 -27.5t-55.5 -9.5z" />
<glyph horiz-adv-x="501" d="M202 933h97v-99h-97v99z" />
<glyph d="M128 906q0 25 9.5 46.5t26 38t38.5 26t48 9.5q25 0 47.5 -9.5t39 -26t26 -38t9.5 -46.5t-9.5 -46.5t-26 -38t-39 -26t-47.5 -9.5q-26 0 -48 9.5t-38.5 26t-26 38t-9.5 46.5zM177 906q0 -32 21.5 -53.5t51.5 -21.5q29 0 50 21.5t21 53.5q0 31 -21 52t-50 21 q-30 0 -51.5 -21t-21.5 -52z" />
<glyph d="M69 817q0 28 7 52.5t20 42.5t32 28.5t43 10.5q27 0 49.5 -9t41.5 -19.5l36 -19.5t33 -9q44 0 44 61h67q0 -20 -4.5 -43t-16 -43t-32.5 -33.5t-55 -13.5q-26 0 -47 9t-39 19.5l-34.5 19.5t-32.5 9q-25 0 -35 -17t-10 -45h-67z" />
<glyph d="M135 948h109l-115 -142h-75zM322 948h110l-115 -142h-76z" />
<glyph unicode="&#xd0;" horiz-adv-x="750" d="M685 379q0 -194 -97 -287.5t-275 -91.5h-218v348h-86v65h86v342h218q81 0 149 -19t117.5 -63t77.5 -116t28 -178zM313 79q68 0 119 15.5t85.5 50.5t51.5 92.5t17 141.5q0 152 -65.5 222.5t-207.5 70.5h-121v-259h207v-65h-207v-269h121z" />
<glyph unicode="&#xf0;" horiz-adv-x="623" d="M307 -15q-63 0 -110 21.5t-78.5 59t-47.5 89t-16 112.5q0 60 17 111t49.5 88t78.5 58t103 21q39 0 68 -13t51 -32l6 3q-29 47 -55 81t-61 66l-135 -73l-28 53l113 61l-35.5 26.5t-41.5 28.5l52 49q26 -14 51 -30t48 -33l100 54l29 -53l-80 -43q83 -78 133 -179t50 -219 q0 -68 -15.5 -124.5t-48 -97t-81.5 -63t-116 -22.5zM312 62q81 0 119 54t38 161q0 41 -8.5 76.5t-27 62t-49 41.5t-74.5 15q-41 0 -70.5 -15t-48.5 -42.5t-28.5 -65t-9.5 -82.5t9.5 -82.5t29.5 -65t49.5 -42.5t70.5 -15z" />
<glyph unicode="&#x141;" horiz-adv-x="590" d="M95 0v250l-86 -50v82l86 49v424h97v-368l248 143v-81l-248 -143v-221h363v-85h-460z" />
<glyph unicode="&#x142;" horiz-adv-x="273" d="M90 0v327l-83 -56v85l83 56v366h93v-303l88 60v-85l-88 -60v-390h-93z" />
</font>
</defs>
</svg>
